<?xml version="1.0" encoding="UTF-8" standalone="no"?>
<!-- Generator: Adobe Illustrator 16.0.0, SVG Export Plug-In . SVG Version: 6.00 Build 0)  -->

<svg
   xmlns:dc="http://purl.org/dc/elements/1.1/"
   xmlns:cc="http://creativecommons.org/ns#"
   xmlns:rdf="http://www.w3.org/1999/02/22-rdf-syntax-ns#"
   xmlns:svg="http://www.w3.org/2000/svg"
   xmlns="http://www.w3.org/2000/svg"
   xmlns:sodipodi="http://sodipodi.sourceforge.net/DTD/sodipodi-0.dtd"
   xmlns:inkscape="http://www.inkscape.org/namespaces/inkscape"
   version="1.1"
   id="Capa_1"
   x="0px"
   y="0px"
   width="292.02713"
   height="216.67493"
   viewBox="0 0 292.02713 216.67493"
   xml:space="preserve"
   sodipodi:docname="speaker-1.svg"
   inkscape:version="0.92.3 (2405546, 2018-03-11)"><metadata
   id="metadata51"><rdf:RDF><cc:Work
       rdf:about=""><dc:format>image/svg+xml</dc:format><dc:type
         rdf:resource="http://purl.org/dc/dcmitype/StillImage" /><dc:title></dc:title></cc:Work></rdf:RDF></metadata><defs
   id="defs49" /><sodipodi:namedview
   pagecolor="#ffffff"
   bordercolor="#666666"
   borderopacity="1"
   objecttolerance="10"
   gridtolerance="10"
   guidetolerance="10"
   inkscape:pageopacity="0"
   inkscape:pageshadow="2"
   inkscape:window-width="1853"
   inkscape:window-height="1025"
   id="namedview47"
   showgrid="false"
   fit-margin-top="0"
   fit-margin-left="0"
   fit-margin-right="0"
   fit-margin-bottom="0"
   inkscape:zoom="0.80814722"
   inkscape:cx="140.923"
   inkscape:cy="99.0505"
   inkscape:window-x="67"
   inkscape:window-y="27"
   inkscape:window-maximized="1"
   inkscape:current-layer="layer1" />

<g
   id="g16"
   transform="translate(-4.9490322,-27.776341)">
</g>
<g
   id="g18"
   transform="translate(-4.9490322,-27.776341)">
</g>
<g
   id="g20"
   transform="translate(-4.9490322,-27.776341)">
</g>
<g
   id="g22"
   transform="translate(-4.9490322,-27.776341)">
</g>
<g
   id="g24"
   transform="translate(-4.9490322,-27.776341)">
</g>
<g
   id="g26"
   transform="translate(-4.9490322,-27.776341)">
</g>
<g
   id="g28"
   transform="translate(-4.9490322,-27.776341)">
</g>
<g
   id="g30"
   transform="translate(-4.9490322,-27.776341)">
</g>
<g
   id="g32"
   transform="translate(-4.9490322,-27.776341)">
</g>
<g
   id="g34"
   transform="translate(-4.9490322,-27.776341)">
</g>
<g
   id="g36"
   transform="translate(-4.9490322,-27.776341)">
</g>
<g
   id="g38"
   transform="translate(-4.9490322,-27.776341)">
</g>
<g
   id="g40"
   transform="translate(-4.9490322,-27.776341)">
</g>
<g
   id="g42"
   transform="translate(-4.9490322,-27.776341)">
</g>
<g
   id="g44"
   transform="translate(-4.9490322,-27.776341)">
</g>
<g
   inkscape:groupmode="layer"
   id="layer1"
   inkscape:label="Layer 1"
   transform="translate(-4.9490322,-27.776341)"><path
     inkscape:connector-curvature="0"
     d="m 43.752277,224.53868 36.819,-9.165 -23.051,-92.585 -36.819,9.165 c -11.1300001,2.765 -17.9010001,14.038 -15.1330001,25.166 l 13.0180001,52.272 c 2.768,11.135 14.035,17.918 25.166,15.147 z"
     id="path2"
     style="fill:#0000ff" /><path
     inkscape:connector-curvature="0"
     d="m 159.20128,56.472684 c -2.768,-11.123 -11.602,-13.566 -19.716,-5.468 l -68.603003,68.459996 23.05,92.579 93.748003,31.354 c 10.874,3.635 17.45,-2.438 14.675,-13.566 z"
     id="path4"
     style="fill:#0000ff" /><path
     inkscape:connector-curvature="0"
     d="m 207.35228,149.90768 72.358,-18.005 c 7.104,-1.766 11.429,-8.958 9.657,-16.062 -1.766,-7.104 -8.932,-11.443 -16.058,-9.662 l -72.358,18.015 c -7.104,1.766 -11.429,8.953 -9.663,16.057 1.502,6.038 6.913,10.062 12.857,10.062 1.048,-0.007 2.13,-0.137 3.207,-0.405 z"
     id="path6"
     style="fill:#0000ff" /><path
     inkscape:connector-curvature="0"
     d="m 194.88828,106.79868 c 3.562,0 7.104,-1.424 9.719,-4.235 l 48.752,-52.511996 c 4.981,-5.364 4.671,-13.753 -0.693,-18.734 -5.359,-4.981 -13.748,-4.671 -18.734,0.699 l -48.753,52.506 c -4.981,5.37 -4.671,13.758 0.693,18.733996 2.549,2.372 5.79,3.542 9.016,3.542 z"
     id="path8"
     style="fill:#0000ff" /><path
     inkscape:connector-curvature="0"
     d="m 288.06828,189.47268 -67.688,-23.514 c -6.907,-2.408 -14.468,1.253 -16.87,8.171 -2.402,6.913 1.248,14.468 8.171,16.87 l 67.684,23.524 c 1.444,0.502 2.91,0.74 4.354,0.74 5.484,0 10.615,-3.433 12.516,-8.911 2.407,-6.922 -1.243,-14.478 -8.167,-16.88 z"
     id="path10"
     style="fill:#0000ff" /></g></svg>