<?xml version="1.0" encoding="UTF-8" standalone="no"?>
<svg
   xmlns:dc="http://purl.org/dc/elements/1.1/"
   xmlns:cc="http://creativecommons.org/ns#"
   xmlns:rdf="http://www.w3.org/1999/02/22-rdf-syntax-ns#"
   xmlns:svg="http://www.w3.org/2000/svg"
   xmlns="http://www.w3.org/2000/svg"
   xmlns:sodipodi="http://sodipodi.sourceforge.net/DTD/sodipodi-0.dtd"
   xmlns:inkscape="http://www.inkscape.org/namespaces/inkscape"
   version="1.1"
   viewBox="0 0 92.804077 312.37338"
   enable-background="new 0 0 459.651 459.651"
   id="svg20"
   sodipodi:docname="zip.svg"
   width="92.804077"
   height="312.37338"
   inkscape:version="0.92.3 (2405546, 2018-03-11)">
  <metadata
     id="metadata26">
    <rdf:RDF>
      <cc:Work
         rdf:about="">
        <dc:format>image/svg+xml</dc:format>
        <dc:type
           rdf:resource="http://purl.org/dc/dcmitype/StillImage" />
        <dc:title></dc:title>
      </cc:Work>
    </rdf:RDF>
  </metadata>
  <defs
     id="defs24" />
  <sodipodi:namedview
     pagecolor="#ffffff"
     bordercolor="#666666"
     borderopacity="1"
     objecttolerance="10"
     gridtolerance="10"
     guidetolerance="10"
     inkscape:pageopacity="0"
     inkscape:pageshadow="2"
     inkscape:window-width="1853"
     inkscape:window-height="1025"
     id="namedview22"
     showgrid="false"
     fit-margin-top="0"
     fit-margin-left="0"
     fit-margin-right="0"
     fit-margin-bottom="0"
     inkscape:zoom="1.026866"
     inkscape:cx="235.69574"
     inkscape:cy="239.38726"
     inkscape:window-x="67"
     inkscape:window-y="1107"
     inkscape:window-maximized="1"
     inkscape:current-layer="svg20" />
  <path
     inkscape:connector-curvature="0"
     id="path2"
     d="m 92.80408,72.84198 c 0,-6.2859 -1.87108,-12.51832 -5.41172,-18.0246 C 80.08649,43.46483 76.22501,29.89333 76.22501,15.56979 V 5.62899 C 76.22501,2.5201 73.70434,0 70.59601,0 H 22.20863 C 19.1003,0 16.57964,2.5201 16.57964,5.62899 v 9.94137 c 0,14.32353 -3.86149,27.89503 -11.16792,39.24871 C 1.87108,60.32366 0,66.55608 0,72.84254 c 0,9.49273 4.12212,18.42651 11.65033,25.4301 v 44.01759 c 0,19.16391 15.58781,34.75509 34.74833,34.75509 19.16391,0 34.75509,-15.59118 34.75509,-34.75509 V 98.27264 C 88.68197,91.26848 92.80408,82.33471 92.80408,72.84198 Z m -22.90831,69.44769 c 0,12.95625 -10.54085,23.4971 -23.49711,23.4971 -12.95287,0 -23.49034,-10.54085 -23.49034,-23.4971 V 92.10945 c 0,-6.37877 2.54993,-12.30385 6.87243,-16.62241 1.27384,8.02694 8.24085,14.18393 16.62016,14.18393 8.37482,0 15.33845,-6.14911 16.61848,-14.16873 4.43452,4.43846 6.87694,10.33595 6.87694,16.60721 v 50.18022 z M 40.82821,72.84085 V 50.43746 c 0,-3.07287 2.49928,-5.5727 5.57214,-5.5727 3.07287,0 5.5727,2.49983 5.5727,5.5727 v 22.40339 c 0,3.07287 -2.49983,5.5727 -5.5727,5.5727 -3.07286,0 -5.57214,-2.49983 -5.57214,-5.5727 z m 38.75224,8.89606 C 77.92946,76.43496 75.01196,71.57489 70.97259,67.53553 68.65795,65.22088 66.06186,63.27438 63.23104,61.70727 V 50.43802 c 0,-9.28052 -7.55017,-16.83068 -16.83069,-16.83068 -9.27995,0 -16.83012,7.55016 -16.83012,16.83068 v 11.25686 c -7.91437,4.3681 -13.71504,11.5794 -16.34772,20.04372 -1.2896,-2.83364 -1.96565,-5.83333 -1.96565,-8.8955 0,-4.18121 1.21868,-8.19637 3.6217,-11.93177 8.47782,-13.17297 12.9585,-28.8514 12.9585,-45.33985 v -4.3135 h 37.1294 v 4.31238 c 0,16.48844 4.48068,32.16687 12.95738,45.33815 2.40358,3.73765 3.62225,7.75225 3.62225,11.93347 -5.6e-4,3.06217 -0.6766,6.06186 -1.96564,8.89493 z"
     style="stroke-width:0.56289923;fill:#0000ff" />
  <path
     inkscape:connector-curvature="0"
     id="path4"
     d="m 46.40091,119.63635 c -8.2915,0 -15.03785,6.74579 -15.03785,15.03729 v 7.61716 c 0,8.2915 6.74579,15.03729 15.03785,15.03729 8.29207,0 15.03786,-6.74579 15.03786,-15.03729 v -7.61716 c 0,-8.2915 -6.74635,-15.03729 -15.03786,-15.03729 z m 3.77987,22.65445 c 0,2.08385 -1.69601,3.7793 -3.77987,3.7793 -2.08385,0 -3.77986,-1.69545 -3.77986,-3.7793 v -7.61716 c 0,-2.08385 1.69601,-3.7793 3.77986,-3.7793 2.08386,0 3.77987,1.69545 3.77987,3.7793 z"
     style="stroke-width:0.56289923;fill:#0000ff" />
  <path
     inkscape:connector-curvature="0"
     id="path6"
     d="m 28.47933,191.36154 h 18.81885 c 3.10833,0 5.62899,-2.5201 5.62899,-5.629 0,-3.10889 -2.52066,-5.62899 -5.62899,-5.62899 H 28.47933 c -3.10833,0 -5.62899,2.5201 -5.62899,5.62899 0,3.1089 2.52066,5.629 5.62899,5.629 z"
     style="stroke-width:0.56289923;fill:#0000ff" />
  <path
     inkscape:connector-curvature="0"
     id="path8"
     d="M 64.32475,193.5788 H 45.50591 c -3.10833,0 -5.629,2.5201 -5.629,5.62899 0,3.10889 2.52067,5.62899 5.629,5.62899 h 18.81884 c 3.10833,0 5.62899,-2.5201 5.62899,-5.62899 0,-3.10889 -2.52066,-5.62899 -5.62899,-5.62899 z"
     style="stroke-width:0.56289923;fill:#0000ff" />
  <path
     inkscape:connector-curvature="0"
     id="path10"
     d="m 28.47933,218.31146 h 18.81885 c 3.10833,0 5.62899,-2.5201 5.62899,-5.62899 0,-3.10889 -2.52066,-5.62899 -5.62899,-5.62899 H 28.47933 c -3.10833,0 -5.62899,2.5201 -5.62899,5.62899 0,3.10889 2.52066,5.62899 5.62899,5.62899 z"
     style="stroke-width:0.56289923;fill:#0000ff" />
  <path
     inkscape:connector-curvature="0"
     id="path12"
     d="M 64.32475,220.52872 H 45.50591 c -3.10833,0 -5.629,2.5201 -5.629,5.629 0,3.10889 2.52067,5.62899 5.629,5.62899 h 18.81884 c 3.10833,0 5.62899,-2.5201 5.62899,-5.62899 0,-3.1089 -2.52066,-5.629 -5.62899,-5.629 z"
     style="stroke-width:0.56289923;fill:#0000ff" />
  <path
     inkscape:connector-curvature="0"
     id="path14"
     d="m 52.92717,239.63296 c 0,-3.10889 -2.52066,-5.62899 -5.62899,-5.62899 H 28.47933 c -3.10833,0 -5.62899,2.5201 -5.62899,5.62899 0,3.10889 2.52066,5.62899 5.62899,5.62899 h 18.81885 c 3.10833,0 5.62899,-2.5201 5.62899,-5.62899 z"
     style="stroke-width:0.56289923;fill:#0000ff" />
  <path
     inkscape:connector-curvature="0"
     id="path16"
     d="M 64.32475,247.47921 H 45.50591 c -3.10833,0 -5.629,2.5201 -5.629,5.629 0,3.10889 2.52067,5.62899 5.629,5.62899 h 18.81884 c 3.10833,0 5.62899,-2.5201 5.62899,-5.62899 0,-3.1089 -2.52066,-5.629 -5.62899,-5.629 z"
     style="stroke-width:0.56289923;fill:#0000ff" />
  <path
     inkscape:connector-curvature="0"
     id="path14-6"
     d="m 52.92717,266.41348 c 0,-3.10889 -2.52066,-5.62899 -5.62899,-5.62899 H 28.47933 c -3.10833,0 -5.62899,2.5201 -5.62899,5.62899 0,3.10889 2.52066,5.62899 5.62899,5.62899 h 18.81885 c 3.10833,0 5.62899,-2.5201 5.62899,-5.62899 z"
     style="stroke-width:0.56289923;fill:#0000ff" />
  <path
     inkscape:connector-curvature="0"
     id="path16-7"
     d="M 64.32475,274.25973 H 45.50591 c -3.10833,0 -5.629,2.5201 -5.629,5.62899 0,3.10889 2.52067,5.62899 5.629,5.62899 h 18.81884 c 3.10833,0 5.62899,-2.5201 5.62899,-5.62899 0,-3.10889 -2.52066,-5.62899 -5.62899,-5.62899 z"
     style="stroke-width:0.56289923;fill:#0000ff" />
  <path
     inkscape:connector-curvature="0"
     id="path14-6-5"
     d="m 52.92717,293.26913 c 0,-3.10889 -2.52066,-5.62899 -5.62899,-5.62899 H 28.47933 c -3.10833,0 -5.62899,2.5201 -5.62899,5.62899 0,3.1089 2.52066,5.629 5.62899,5.629 h 18.81885 c 3.10833,0 5.62899,-2.5201 5.62899,-5.629 z"
     style="stroke-width:0.56289923;fill:#0000ff" />
  <path
     inkscape:connector-curvature="0"
     id="path16-7-3"
     d="M 64.32475,301.11538 H 45.50591 c -3.10833,0 -5.629,2.52011 -5.629,5.629 0,3.10889 2.52067,5.62899 5.629,5.62899 h 18.81884 c 3.10833,0 5.62899,-2.5201 5.62899,-5.62899 0,-3.10889 -2.52066,-5.629 -5.62899,-5.629 z"
     style="stroke-width:0.56289923;fill:#0000ff" />
</svg>
