<?xml version="1.0" encoding="UTF-8" standalone="no"?>
<svg
   xmlns:dc="http://purl.org/dc/elements/1.1/"
   xmlns:cc="http://creativecommons.org/ns#"
   xmlns:rdf="http://www.w3.org/1999/02/22-rdf-syntax-ns#"
   xmlns:svg="http://www.w3.org/2000/svg"
   xmlns="http://www.w3.org/2000/svg"
   xmlns:sodipodi="http://sodipodi.sourceforge.net/DTD/sodipodi-0.dtd"
   xmlns:inkscape="http://www.inkscape.org/namespaces/inkscape"
   version="1.1"
   viewBox="0 0 179.10693 356.59582"
   enable-background="new 0 0 459.651 459.651"
   id="svg20"
   sodipodi:docname="zip2.svg"
   width="179.10693"
   height="356.59583"
   inkscape:version="0.92.3 (2405546, 2018-03-11)">
  <metadata
     id="metadata26">
    <rdf:RDF>
      <cc:Work
         rdf:about="">
        <dc:format>image/svg+xml</dc:format>
        <dc:type
           rdf:resource="http://purl.org/dc/dcmitype/StillImage" />
        <dc:title></dc:title>
      </cc:Work>
    </rdf:RDF>
  </metadata>
  <defs
     id="defs24" />
  <sodipodi:namedview
     pagecolor="#ffffff"
     bordercolor="#666666"
     borderopacity="1"
     objecttolerance="10"
     gridtolerance="10"
     guidetolerance="10"
     inkscape:pageopacity="0"
     inkscape:pageshadow="2"
     inkscape:window-width="1920"
     inkscape:window-height="1052"
     id="namedview22"
     showgrid="false"
     fit-margin-top="0"
     fit-margin-left="0"
     fit-margin-right="0"
     fit-margin-bottom="0"
     inkscape:zoom="1.4522078"
     inkscape:cx="67.775601"
     inkscape:cy="210.4582"
     inkscape:window-x="0"
     inkscape:window-y="0"
     inkscape:window-maximized="1"
     inkscape:current-layer="svg20"
     showguides="true"
     inkscape:guide-bbox="true"
     inkscape:snap-global="false" />
  <path
     inkscape:connector-curvature="0"
     id="path2"
     d="m 130.81749,197.65108 c 0,-6.2859 -1.87108,-12.51832 -5.41172,-18.0246 -7.30587,-11.35255 -11.16735,-24.92405 -11.16735,-39.24759 v -9.9408 c 0,-3.10889 -2.52067,-5.62899 -5.629,-5.62899 H 60.222037 c -3.10833,0 -5.62899,2.5201 -5.62899,5.62899 v 9.94137 c 0,14.32353 -3.86149,27.89503 -11.16792,39.24871 -3.54064,5.50459 -5.41172,11.73701 -5.41172,18.02347 0,9.49273 4.12212,18.42651 11.65033,25.4301 v 44.01759 c 0,19.16391 15.58781,34.75509 34.74833,34.75509 19.163913,0 34.755093,-15.59118 34.755093,-34.75509 v -44.01759 c 7.52822,-7.00416 11.65033,-15.93793 11.65033,-25.43066 z m -22.90831,69.44769 c 0,12.95625 -10.540851,23.4971 -23.497113,23.4971 -12.95287,0 -23.49034,-10.54085 -23.49034,-23.4971 v -50.18022 c 0,-6.37877 2.54993,-12.30385 6.87243,-16.62241 1.27384,8.02694 8.24085,14.18393 16.62016,14.18393 8.374822,0 15.338452,-6.14911 16.618483,-14.16873 4.43452,4.43846 6.87694,10.33595 6.87694,16.60721 v 50.18022 z M 78.841617,197.64995 v -22.40339 c 0,-3.07287 2.49928,-5.5727 5.57214,-5.5727 3.07287,0 5.5727,2.49983 5.5727,5.5727 v 22.40339 c 0,3.07287 -2.49983,5.5727 -5.5727,5.5727 -3.07286,0 -5.57214,-2.49983 -5.57214,-5.5727 z m 38.752243,8.89606 c -1.65099,-5.30195 -4.56849,-10.16202 -8.60786,-14.20138 -2.31464,-2.31465 -4.91073,-4.26115 -7.74155,-5.82826 v -11.26925 c 0,-9.28052 -7.550171,-16.83068 -16.830693,-16.83068 -9.27995,0 -16.83012,7.55016 -16.83012,16.83068 v 11.25686 c -7.91437,4.3681 -13.71504,11.5794 -16.34772,20.04372 -1.2896,-2.83364 -1.96565,-5.83333 -1.96565,-8.8955 0,-4.18121 1.21868,-8.19637 3.6217,-11.93177 8.47782,-13.17297 12.9585,-28.8514 12.9585,-45.33985 v -4.3135 h 37.129403 v 4.31238 c 0,16.48844 4.48068,32.16687 12.95738,45.33815 2.40358,3.73765 3.62225,7.75225 3.62225,11.93347 -5.6e-4,3.06217 -0.6766,6.06186 -1.96564,8.89493 z"
     style="fill:#0000ff;stroke-width:0.56289923" />
  <path
     inkscape:connector-curvature="0"
     id="path4"
     d="m 84.414317,244.44545 c -8.2915,0 -15.03785,6.74579 -15.03785,15.03729 v 7.61716 c 0,8.2915 6.74579,15.03729 15.03785,15.03729 8.292072,0 15.037862,-6.74579 15.037862,-15.03729 v -7.61716 c 0,-8.2915 -6.74635,-15.03729 -15.037862,-15.03729 z m 3.77987,22.65445 c 0,2.08385 -1.69601,3.7793 -3.77987,3.7793 -2.08385,0 -3.77986,-1.69545 -3.77986,-3.7793 v -7.61716 c 0,-2.08385 1.69601,-3.7793 3.77986,-3.7793 2.08386,0 3.77987,1.69545 3.77987,3.7793 z"
     style="fill:#0000ff;stroke-width:0.56289923" />
  <path
     inkscape:connector-curvature="0"
     id="path6"
     d="m 66.492737,316.17064 h 18.81885 c 3.10833,0 5.62899,-2.5201 5.62899,-5.629 0,-3.10889 -2.52066,-5.62899 -5.62899,-5.62899 h -18.81885 c -3.10833,0 -5.62899,2.5201 -5.62899,5.62899 0,3.1089 2.52066,5.629 5.62899,5.629 z"
     style="fill:#0000ff;stroke-width:0.56289923" />
  <path
     inkscape:connector-curvature="0"
     id="path8"
     d="M 102.33816,318.3879 H 83.519317 c -3.10833,0 -5.629,2.5201 -5.629,5.62899 0,3.10889 2.52067,5.62899 5.629,5.62899 h 18.818843 c 3.10833,0 5.62899,-2.5201 5.62899,-5.62899 0,-3.10889 -2.52066,-5.62899 -5.62899,-5.62899 z"
     style="fill:#0000ff;stroke-width:0.56289923" />
  <path
     inkscape:connector-curvature="0"
     id="path10"
     d="m 66.492737,343.12056 h 18.81885 c 3.10833,0 5.62899,-2.5201 5.62899,-5.62899 0,-3.10889 -2.52066,-5.62899 -5.62899,-5.62899 h -18.81885 c -3.10833,0 -5.62899,2.5201 -5.62899,5.62899 0,3.10889 2.52066,5.62899 5.62899,5.62899 z"
     style="fill:#0000ff;stroke-width:0.56289923" />
  <path
     inkscape:connector-curvature="0"
     id="path12"
     d="M 102.33816,345.33782 H 83.519317 c -3.10833,0 -5.629,2.5201 -5.629,5.629 0,3.10889 2.52067,5.62899 5.629,5.62899 h 18.818843 c 3.10833,0 5.62899,-2.5201 5.62899,-5.62899 0,-3.1089 -2.52066,-5.629 -5.62899,-5.629 z"
     style="fill:#0000ff;stroke-width:0.56289923" />
  <path
     inkscape:connector-curvature="0"
     id="path6-3"
     d="M 10.524784,30.220254 19.817148,13.855622 C 21.351978,11.152659 20.405183,7.7163592 17.701724,6.1812468 14.998272,4.6461333 11.562177,5.5936981 10.027346,8.2966605 L 0.73498256,24.661295 c -1.5348309,2.70296 -0.5880354,6.13926 2.11541574,7.674373 2.70346,1.535113 6.139555,0.587548 7.6743857,-2.115414 z"
     style="fill:#0000ff;stroke-width:0.56289923" />
  <path
     inkscape:connector-curvature="0"
     id="path8-6"
     d="m 155.35505,32.525884 -11.63915,-14.7878 c -1.92246,-2.442511 -5.46174,-2.864601 -7.9047,-0.9418 -2.44295,1.92279 -2.86425,5.46217 -0.94179,7.90469 l 11.63915,14.78779 c 1.92245,2.442524 5.46173,2.864603 7.90469,0.941805 2.44295,-1.922797 2.86425,-5.462162 0.9418,-7.904685 z"
     style="fill:#0000ff;stroke-width:0.56289923" />
  <path
     inkscape:connector-curvature="0"
     id="path10-7"
     d="M 30.629274,45.729055 42.188837,30.878954 c 1.909306,-2.452811 1.469001,-5.989873 -0.984249,-7.89951 -2.453249,-1.90965 -5.990207,-1.46857 -7.899513,0.98424 L 21.745512,38.813791 c -1.909305,2.452808 -1.469001,5.989863 0.984249,7.899513 2.45325,1.90965 5.990207,1.468559 7.899513,-0.984249 z"
     style="fill:#0000ff;stroke-width:0.56289923" />
  <path
     inkscape:connector-curvature="0"
     id="path12-5"
     d="M 134.87375,48.247788 121.2581,35.256902 c -2.24891,-2.145715 -5.8123,-2.062455 -7.95841,0.186874 -2.14611,2.249316 -2.06203,5.812687 0.18688,7.958407 l 13.61564,12.990886 c 2.24892,2.14572 5.8123,2.062443 7.9584,-0.186874 2.14612,-2.249323 2.06205,-5.812687 -0.18686,-7.958407 z"
     style="fill:#0000ff;stroke-width:0.56289923" />
  <path
     inkscape:connector-curvature="0"
     id="path14-3"
     d="M 63.517603,45.414439 C 61.412067,43.127101 57.850744,42.98011 55.563818,45.085267 l -13.845801,12.74531 c -2.286926,2.105157 -2.434709,5.666448 -0.329173,7.953786 2.105536,2.287338 5.66686,2.434329 7.953786,0.329172 l 13.845801,-12.74531 c 2.286926,-2.105157 2.434708,-5.666448 0.329172,-7.953786 z"
     style="fill:#0000ff;stroke-width:0.56289923" />
  <path
     inkscape:connector-curvature="0"
     id="path16-5"
     d="m 117.85456,67.304971 -16.45634,-9.12895 c -2.718111,-1.507839 -6.144831,-0.526879 -7.652941,2.191732 -1.50812,2.718602 -0.52638,6.145103 2.19173,7.652942 l 16.456341,9.12895 c 2.71811,1.507839 6.14482,0.526869 7.65293,-2.191733 1.50812,-2.71861 0.52639,-6.145102 -2.19172,-7.652941 z"
     style="fill:#0000ff;stroke-width:0.56289923" />
  <path
     inkscape:connector-curvature="0"
     id="path14-6-6"
     d="m 80.166892,72.201966 c -1.249955,-2.846543 -4.571134,-4.14053 -7.417165,-2.8908 l -17.230803,7.566275 c -2.846031,1.24973 -4.140755,4.570622 -2.8908,7.417165 1.249955,2.846543 4.571134,4.14053 7.417165,2.8908 l 17.230803,-7.566275 c 2.846031,-1.24973 4.140755,-4.570622 2.8908,-7.417165 z"
     style="fill:#0000ff;stroke-width:0.56289923" />
  <path
     inkscape:connector-curvature="0"
     id="path16-7-2"
     d="M 107.76605,88.11923 89.628803,83.100378 c -2.995751,-0.82897 -6.097219,0.927611 -6.926338,3.923902 -0.829119,2.996291 0.928163,6.097361 3.923915,6.926331 l 18.13725,5.018852 c 2.99575,0.82897 6.09721,-0.927614 6.92633,-3.923905 0.82912,-2.996291 -0.92815,-6.097359 -3.92391,-6.926328 z"
     style="fill:#0000ff;stroke-width:0.56289923" />
  <path
     inkscape:connector-curvature="0"
     id="path14-6-5-9"
     d="M 90.434182,100.06747 C 89.535349,97.091347 86.393733,95.407637 83.418148,96.306308 L 65.40298,101.74716 c -2.975585,0.89867 -4.659993,4.03991 -3.761161,7.01603 0.898836,2.97613 4.040452,4.65984 7.016037,3.76117 l 18.015168,-5.44085 c 2.975585,-0.89867 4.659993,-4.03991 3.761158,-7.01604 z"
     style="fill:#0000ff;stroke-width:0.56289923" />
  <path
     inkscape:connector-curvature="0"
     id="path16-7-3-1"
     d="M 102.474,112.26158 H 83.655157 c -3.10833,0 -5.629,2.52011 -5.629,5.629 0,3.10889 2.52067,5.62899 5.629,5.62899 H 102.474 c 3.10833,0 5.62899,-2.5201 5.62899,-5.62899 0,-3.10889 -2.52066,-5.629 -5.62899,-5.629 z"
     style="fill:#0000ff;stroke-width:0.56289923" />
  <path
     inkscape:connector-curvature="0"
     id="path8-6-7"
     d="M 178.63272,20.609992 171.08274,3.3720493 c -1.24705,-2.84720556 -4.56672,-4.14507256 -7.41445,-2.89780716 -2.84771,1.24725766 -4.14484,4.56722216 -2.89779,7.41443696 l 7.54998,17.2379329 c 1.24704,2.847216 4.56671,4.145073 7.41444,2.89781 2.84771,-1.247265 4.14483,-4.567215 2.8978,-7.41443 z"
     style="fill:#0000ff;stroke-width:0.56289923" />
</svg>
