<?xml version="1.0" encoding="UTF-8" standalone="no"?>
<!-- Created with Inkscape (http://www.inkscape.org/) -->

<svg
   xmlns:dc="http://purl.org/dc/elements/1.1/"
   xmlns:cc="http://creativecommons.org/ns#"
   xmlns:rdf="http://www.w3.org/1999/02/22-rdf-syntax-ns#"
   xmlns:svg="http://www.w3.org/2000/svg"
   xmlns="http://www.w3.org/2000/svg"
   xmlns:sodipodi="http://sodipodi.sourceforge.net/DTD/sodipodi-0.dtd"
   xmlns:inkscape="http://www.inkscape.org/namespaces/inkscape"
   width="62.242348mm"
   height="63.065289mm"
   viewBox="0 0 62.242348 63.065289"
   version="1.1"
   id="svg8"
   inkscape:version="0.92.4 (unknown)"
   sodipodi:docname="smiley-yellow-thinking.svg">
  <defs
     id="defs2" />
  <sodipodi:namedview
     id="base"
     pagecolor="#ffffff"
     bordercolor="#666666"
     borderopacity="1.0"
     inkscape:pageopacity="0.0"
     inkscape:pageshadow="2"
     inkscape:zoom="0.7"
     inkscape:cx="-119.77036"
     inkscape:cy="303.99909"
     inkscape:document-units="mm"
     inkscape:current-layer="layer1"
     showgrid="false"
     inkscape:window-width="1853"
     inkscape:window-height="1025"
     inkscape:window-x="67"
     inkscape:window-y="1051"
     inkscape:window-maximized="1"
     fit-margin-top="0"
     fit-margin-left="0"
     fit-margin-right="0"
     fit-margin-bottom="0" />
  <metadata
     id="metadata5">
    <rdf:RDF>
      <cc:Work
         rdf:about="">
        <dc:format>image/svg+xml</dc:format>
        <dc:type
           rdf:resource="http://purl.org/dc/dcmitype/StillImage" />
        <dc:title></dc:title>
      </cc:Work>
    </rdf:RDF>
  </metadata>
  <g
     inkscape:label="Layer 1"
     inkscape:groupmode="layer"
     id="layer1"
     style="opacity:1"
     transform="translate(-127.25085,-171.31779)">
    <circle
       style="opacity:1;fill:#ffff00;fill-opacity:1;stroke:#000000;stroke-width:0.26458332;stroke-linecap:round;stroke-linejoin:bevel;stroke-miterlimit:4;stroke-dasharray:none;stroke-dashoffset:0;stroke-opacity:1"
       id="path815-2-6"
       cx="158.37202"
       cy="203.2619"
       r="30.988882" />
    <ellipse
       style="opacity:1;fill:#000000;fill-opacity:1;stroke:#000000;stroke-width:0.26458332;stroke-linecap:round;stroke-linejoin:bevel;stroke-miterlimit:4;stroke-dasharray:none;stroke-dashoffset:0;stroke-opacity:1"
       id="path817-3"
       cx="149.1777"
       cy="185.08395"
       rx="4.2343259"
       ry="4.9656568" />
    <ellipse
       style="opacity:1;fill:#000000;fill-opacity:1;stroke:#000000;stroke-width:0.26458332;stroke-linecap:round;stroke-linejoin:bevel;stroke-miterlimit:4;stroke-dasharray:none;stroke-dashoffset:0;stroke-opacity:1"
       id="path817-3-3"
       cx="167.44435"
       cy="189.82492"
       rx="4.2343259"
       ry="4.9656572" />
    <path
       style="fill:#000000;stroke:#000000;stroke-width:0.26458332px;stroke-linecap:butt;stroke-linejoin:miter;stroke-opacity:1"
       d="m 155.96242,197.16704 c 5.05543,0.75595 8.64621,4.58296 8.64621,4.58296 l 1.13393,1.55915 c 0,0 0.89769,1.13393 0.23623,1.65364 -0.66146,0.51972 -1.98437,-0.33072 -1.98437,-0.33072 0,0 -3.37138,-2.80954 -6.94531,-3.63803 -3.57393,-0.82849 -6.21253,-0.70204 -7.51228,-0.23619 -1.29976,0.46585 -2.36235,1.13393 -3.40179,0.23619 -1.03943,-0.89769 0.47247,-2.00799 0.47247,-2.00799 0,0 4.29948,-2.57496 9.35491,-1.81901 z"
       id="path839"
       inkscape:connector-curvature="0"
       sodipodi:nodetypes="scccczzccs" />
    <path
       style="fill:#ffd42a;stroke:#000000;stroke-width:0.79374999;stroke-linecap:butt;stroke-linejoin:miter;stroke-miterlimit:4;stroke-dasharray:none;stroke-opacity:1"
       d="m 147.6942,230.94866 c 0,0 -5.85864,2.36235 -8.88245,2.17336 -5.27208,-0.3295 -8.03918,-2.5104 -8.88244,-8.78795 -0.85045,-6.3311 0.56697,-6.89806 0.0945,-9.26041 -0.47247,-2.36235 -1.88987,-3.96875 -1.79538,-4.91369 0.0945,-0.94494 -0.28349,-2.07887 1.6064,-2.64583 1.88988,-0.56697 2.74033,0.28347 3.77976,2.07886 1.03944,1.79539 0.4703,4.6292 3.40179,6.4256 2.93149,1.79639 14.83557,-5.38617 14.83557,-5.38617 0,0 5.18503,-2.70838 6.70907,-0.28347 1.52404,2.4249 -2.55134,4.15774 -2.55134,4.15774 l -8.31547,3.87425 c 0,0 2.26785,-0.75595 2.74032,0.75595 0.47247,1.51191 -0.85045,3.30729 -0.85045,3.30729 0,0 1.6064,0.37798 1.6064,1.7009 0,1.32291 -1.13392,2.17336 -1.13392,2.17336 0,0 1.13393,0.66146 0.47247,2.36235 -0.66146,1.7009 -2.83482,2.26786 -2.83482,2.26786 z"
       id="path856"
       inkscape:connector-curvature="0"
       sodipodi:nodetypes="csscccczczccccsccc" />
    <path
       style="fill:#000000;stroke:#000000;stroke-width:0.26458332px;stroke-linecap:butt;stroke-linejoin:miter;stroke-opacity:1"
       d="m 147.43255,171.45014 c 0,0 3.44014,0.0496 5.34539,1.13589 1.90524,1.08632 6.24743,3.8086 4.47677,5.44562 -1.24322,1.1702 -3.90882,-1.60361 -6.44788,-2.67269 -2.53907,-1.06908 -6.18061,-1.00227 -5.71289,-2.47225 0.46772,-1.46998 2.33861,-1.43657 2.33861,-1.43657 z"
       id="path892"
       inkscape:connector-curvature="0"
       sodipodi:nodetypes="czczsc" />
    <path
       style="fill:#000000;stroke:#000000;stroke-width:0.26458332px;stroke-linecap:butt;stroke-linejoin:miter;stroke-opacity:1"
       d="m 163.23846,180.20535 c 0,0 1.51191,0.33074 4.25224,-0.47246 2.74033,-0.8032 4.15773,-2.74034 5.43341,-1.93713 1.47987,0.93177 0.33072,4.25223 -3.73252,5.24442 -4.91369,1.27566 -9.07143,0.18898 -8.36272,-1.6064 0.94494,-1.27567 2.40959,-1.22843 2.40959,-1.22843 z"
       id="path894"
       inkscape:connector-curvature="0"
       sodipodi:nodetypes="cssccc" />
  </g>
</svg>
