<svg xmlns="http://www.w3.org/2000/svg" viewBox="0 0 179.10693 356.59582" width="179.107" height="356.596"><path d="M130.817 197.651c0-6.286-1.87-12.518-5.411-18.025-7.306-11.352-11.168-24.924-11.168-39.247v-9.94a5.63 5.63 0 0 0-5.629-5.63H60.222a5.63 5.63 0 0 0-5.629 5.63v9.94c0 14.324-3.861 27.895-11.168 39.25-3.54 5.504-5.412 11.736-5.412 18.023 0 9.492 4.123 18.426 11.65 25.43v44.017c0 19.164 15.589 34.755 34.75 34.755 19.163 0 34.754-15.59 34.754-34.755v-44.017c7.528-7.004 11.65-15.938 11.65-25.43zM107.91 267.1c0 12.956-10.54 23.497-23.497 23.497-12.953 0-23.49-10.541-23.49-23.497v-50.18c0-6.38 2.55-12.304 6.872-16.623 1.274 8.027 8.241 14.184 16.62 14.184 8.375 0 15.339-6.149 16.619-14.169 4.434 4.439 6.877 10.336 6.877 16.608v50.18zM78.842 197.65v-22.403c0-3.073 2.499-5.573 5.572-5.573s5.572 2.5 5.572 5.573v22.403c0 3.073-2.5 5.573-5.572 5.573a5.578 5.578 0 0 1-5.572-5.573zm38.752 8.896c-1.651-5.302-4.569-10.162-8.608-14.201a34.654 34.654 0 0 0-7.742-5.829v-11.269c0-9.28-7.55-16.83-16.83-16.83-9.28 0-16.83 7.55-16.83 16.83v11.257a34.626 34.626 0 0 0-16.348 20.044c-1.29-2.834-1.966-5.834-1.966-8.896 0-4.181 1.219-8.196 3.622-11.932 8.478-13.173 12.958-28.851 12.958-45.34v-4.313h37.13v4.312c0 16.489 4.48 32.167 12.957 45.339 2.404 3.737 3.623 7.752 3.623 11.933-.001 3.062-.677 6.062-1.966 8.895z" fill="#00f"/><path d="M84.414 244.445c-8.291 0-15.038 6.746-15.038 15.038v7.617c0 8.291 6.746 15.037 15.038 15.037s15.038-6.746 15.038-15.037v-7.617c0-8.292-6.746-15.038-15.038-15.038zm3.78 22.655a3.784 3.784 0 0 1-3.78 3.78 3.784 3.784 0 0 1-3.78-3.78v-7.617a3.784 3.784 0 0 1 3.78-3.78 3.784 3.784 0 0 1 3.78 3.78zM66.493 316.17h18.819a5.63 5.63 0 0 0 0-11.257h-18.82a5.63 5.63 0 0 0 0 11.258zM102.338 318.388H83.52a5.63 5.63 0 0 0 0 11.258h18.82a5.63 5.63 0 0 0 0-11.258zM66.493 343.12h18.819a5.63 5.63 0 0 0 0-11.257h-18.82a5.63 5.63 0 0 0 0 11.258zM102.338 345.338H83.52a5.63 5.63 0 0 0 0 11.258h18.82a5.63 5.63 0 0 0 0-11.258zM10.525 30.22l9.292-16.364a5.63 5.63 0 0 0-9.79-5.56L.735 24.662a5.63 5.63 0 0 0 9.79 5.56zM155.355 32.526l-11.64-14.788a5.63 5.63 0 0 0-8.846 6.963l11.64 14.788a5.63 5.63 0 0 0 8.846-6.963zM30.63 45.73l11.559-14.851a5.63 5.63 0 0 0-8.884-6.915l-11.56 14.85a5.63 5.63 0 0 0 8.884 6.915zM134.874 48.248l-13.616-12.991a5.63 5.63 0 0 0-7.771 8.145l13.615 12.991a5.63 5.63 0 0 0 7.772-8.145zM63.518 45.414a5.63 5.63 0 0 0-7.954-.329L41.718 57.831a5.63 5.63 0 0 0 7.625 8.283l13.845-12.746a5.63 5.63 0 0 0 .33-7.954zM117.855 67.305l-16.457-9.129a5.63 5.63 0 0 0-5.461 9.845l16.456 9.129a5.63 5.63 0 0 0 5.462-9.845zM80.167 72.202a5.63 5.63 0 0 0-7.417-2.89l-17.231 7.565a5.63 5.63 0 0 0 4.526 10.308l17.231-7.566a5.63 5.63 0 0 0 2.89-7.417zM107.766 88.12L89.63 83.1a5.63 5.63 0 0 0-3.003 10.85l18.138 5.02a5.63 5.63 0 0 0 3.002-10.85zM90.434 100.067a5.63 5.63 0 0 0-7.016-3.76l-18.015 5.44a5.63 5.63 0 0 0 3.255 10.777l18.015-5.44a5.63 5.63 0 0 0 3.761-7.017zM102.474 112.262H83.655a5.63 5.63 0 0 0 0 11.258h18.819a5.63 5.63 0 0 0 0-11.258zM178.633 20.61l-7.55-17.238a5.63 5.63 0 0 0-10.312 4.517l7.55 17.238a5.63 5.63 0 0 0 10.312-4.517z" fill="#00f"/></svg>