<?xml version="1.0" encoding="UTF-8" standalone="no"?>
<svg
   xmlns:dc="http://purl.org/dc/elements/1.1/"
   xmlns:cc="http://creativecommons.org/ns#"
   xmlns:rdf="http://www.w3.org/1999/02/22-rdf-syntax-ns#"
   xmlns:svg="http://www.w3.org/2000/svg"
   xmlns="http://www.w3.org/2000/svg"
   xmlns:sodipodi="http://sodipodi.sourceforge.net/DTD/sodipodi-0.dtd"
   xmlns:inkscape="http://www.inkscape.org/namespaces/inkscape"
   viewBox="0 0 238.16224 356.49606"
   width="238.16232"
   height="356.49625"
   version="1.1"
   id="svg6"
   sodipodi:docname="decoder-inv.svg"
   inkscape:version="0.92.4 (unknown)">
  <metadata
     id="metadata12">
    <rdf:RDF>
      <cc:Work
         rdf:about="">
        <dc:format>image/svg+xml</dc:format>
        <dc:type
           rdf:resource="http://purl.org/dc/dcmitype/StillImage" />
        <dc:title></dc:title>
      </cc:Work>
    </rdf:RDF>
  </metadata>
  <defs
     id="defs10" />
  <sodipodi:namedview
     pagecolor="#ffffff"
     bordercolor="#666666"
     borderopacity="1"
     objecttolerance="10"
     gridtolerance="10"
     guidetolerance="10"
     inkscape:pageopacity="0"
     inkscape:pageshadow="2"
     inkscape:window-width="1280"
     inkscape:window-height="996"
     id="namedview8"
     showgrid="false"
     fit-margin-top="0"
     fit-margin-left="0"
     fit-margin-right="0"
     fit-margin-bottom="0"
     inkscape:zoom="0.66181335"
     inkscape:cx="89.510801"
     inkscape:cy="178.298"
     inkscape:window-x="0"
     inkscape:window-y="0"
     inkscape:window-maximized="1"
     inkscape:current-layer="svg6" />
  <path
     d="m 130.7743,197.55125 c 0,-6.286 -1.87,-12.518 -5.411,-18.025 -7.306,-11.352 -11.168,-24.924 -11.168,-39.247 v -9.94 a 5.63,5.63 0 0 0 -5.629,-5.63 H 60.179303 a 5.63,5.63 0 0 0 -5.629,5.63 v 9.94 c 0,14.324 -3.861,27.895 -11.168,39.25 -3.54,5.504 -5.412,11.736 -5.412,18.023 0,9.492 4.123,18.426 11.65,25.43 v 44.017 c 0,19.164 15.589,34.755 34.75,34.755 19.162997,0 34.753997,-15.59 34.753997,-34.755 v -44.017 c 7.528,-7.004 11.65,-15.938 11.65,-25.43 z m -22.907,69.449 c 0,12.956 -10.539997,23.497 -23.496997,23.497 -12.953,0 -23.49,-10.541 -23.49,-23.497 v -50.18 c 0,-6.38 2.55,-12.304 6.872,-16.623 1.274,8.027 8.241,14.184 16.62,14.184 8.375,0 15.339,-6.149 16.618997,-14.169 4.434,4.439 6.877,10.336 6.877,16.608 v 50.18 z m -29.067997,-69.45 v -22.403 c 0,-3.073 2.499,-5.573 5.572,-5.573 3.073,0 5.572,2.5 5.572,5.573 v 22.403 c 0,3.073 -2.5,5.573 -5.572,5.573 a 5.578,5.578 0 0 1 -5.572,-5.573 z m 38.751997,8.896 c -1.651,-5.302 -4.569,-10.162 -8.608,-14.201 a 34.654,34.654 0 0 0 -7.742,-5.829 v -11.269 c 0,-9.28 -7.549997,-16.83 -16.829997,-16.83 -9.28,0 -16.83,7.55 -16.83,16.83 v 11.257 a 34.626,34.626 0 0 0 -16.348,20.044 c -1.29,-2.834 -1.966,-5.834 -1.966,-8.896 0,-4.181 1.219,-8.196 3.622,-11.932 8.478,-13.173 12.958,-28.851 12.958,-45.34 v -4.313 H 102.9373 v 4.312 c 0,16.489 4.48,32.167 12.957,45.339 2.404,3.737 3.623,7.752 3.623,11.933 -0.001,3.062 -0.677,6.062 -1.966,8.895 z"
     id="path2"
     inkscape:connector-curvature="0"
     style="fill:#0000ff" />
  <path
     d="m 84.371303,244.34525 c -8.291,0 -15.038,6.746 -15.038,15.038 v 7.617 c 0,8.291 6.746,15.037 15.038,15.037 8.292,0 15.038,-6.746 15.038,-15.037 v -7.617 c 0,-8.292 -6.746,-15.038 -15.038,-15.038 z m 3.78,22.655 a 3.784,3.784 0 0 1 -3.78,3.78 3.784,3.784 0 0 1 -3.78,-3.78 v -7.617 a 3.784,3.784 0 0 1 3.78,-3.78 3.784,3.784 0 0 1 3.78,3.78 z m -21.701,49.07 h 18.819 a 5.63,5.63 0 0 0 0,-11.257 h -18.82 a 5.63,5.63 0 0 0 0,11.258 z m 35.844997,2.218 H 83.477303 a 5.63,5.63 0 0 0 0,11.258 H 102.2973 a 5.63,5.63 0 0 0 0,-11.258 z m -35.844997,24.732 h 18.819 a 5.63,5.63 0 0 0 0,-11.257 h -18.82 a 5.63,5.63 0 0 0 0,11.258 z m 35.844997,2.218 H 83.477303 a 5.63,5.63 0 0 0 0,11.258 H 102.2973 a 5.63,5.63 0 0 0 0,-11.258 z M 10.482303,30.120245 l 9.292,-16.364 A 5.63,5.63 0 0 0 9.9843034,8.1962452 L 0.69230341,24.562245 a 5.63,5.63 0 0 0 9.78999959,5.56 z m 144.829997,2.306 -11.64,-14.788 a 5.63,5.63 0 0 0 -8.846,6.963 l 11.64,14.788 a 5.63,5.63 0 0 0 8.846,-6.963 z m -124.724997,13.204 11.559,-14.851 a 5.63,5.63 0 0 0 -8.884,-6.915 l -11.56,14.85 a 5.63,5.63 0 0 0 8.884,6.915 z m 104.243997,2.518 -13.616,-12.991 a 5.63,5.63 0 0 0 -7.771,8.145 l 13.615,12.991 a 5.63,5.63 0 0 0 7.772,-8.145 z m -71.355997,-2.834 a 5.63,5.63 0 0 0 -7.954,-0.329 l -13.846,12.746 a 5.63,5.63 0 0 0 7.625,8.283 l 13.845,-12.746 a 5.63,5.63 0 0 0 0.33,-7.954 z m 54.336997,21.891 -16.457,-9.129 a 5.63,5.63 0 0 0 -5.460997,9.845 l 16.455997,9.129 a 5.63,5.63 0 0 0 5.462,-9.845 z m -37.687997,4.897 a 5.63,5.63 0 0 0 -7.417,-2.89 l -17.231,7.565 a 5.63,5.63 0 0 0 4.526,10.308 l 17.231,-7.566 a 5.63,5.63 0 0 0 2.89,-7.417 z m 27.598997,15.918 -18.135997,-5.02 a 5.63,5.63 0 0 0 -3.003,10.85 l 18.137997,5.02 a 5.63,5.63 0 0 0 3.002,-10.85 z m -17.331997,11.947 a 5.63,5.63 0 0 0 -7.016,-3.76 l -18.015,5.440005 a 5.63,5.63 0 0 0 3.255,10.777 l 18.015,-5.44 a 5.63,5.63 0 0 0 3.761,-7.017005 z M 102.4313,112.16225 H 83.612303 a 5.63,5.63 0 0 0 0,11.258 H 102.4313 a 5.63,5.63 0 0 0 0,-11.258 z m 76.159,-91.652005 -7.55,-17.2379998 a 5.63,5.63 0 0 0 -10.312,4.517 l 7.55,17.2379998 a 5.63,5.63 0 0 0 10.312,-4.517 z"
     id="path4"
     inkscape:connector-curvature="0"
     style="fill:#0000ff" />
  <ellipse
     style="opacity:1;fill:#ffffff;fill-opacity:1;stroke:#0000ff;stroke-width:8;stroke-linecap:round;stroke-linejoin:round;stroke-miterlimit:4;stroke-dasharray:none;stroke-dashoffset:0;stroke-opacity:1"
     id="path822"
     cx="206.96432"
     cy="201.61874"
     rx="27.198"
     ry="26.442501" />
</svg>
