<?xml version="1.0" encoding="UTF-8" standalone="no"?>
<!-- Created with Inkscape (http://www.inkscape.org/) -->

<svg
   xmlns:dc="http://purl.org/dc/elements/1.1/"
   xmlns:cc="http://creativecommons.org/ns#"
   xmlns:rdf="http://www.w3.org/1999/02/22-rdf-syntax-ns#"
   xmlns:svg="http://www.w3.org/2000/svg"
   xmlns="http://www.w3.org/2000/svg"
   xmlns:sodipodi="http://sodipodi.sourceforge.net/DTD/sodipodi-0.dtd"
   xmlns:inkscape="http://www.inkscape.org/namespaces/inkscape"
   width="141.17816mm"
   height="119.93887mm"
   viewBox="0 0 141.17816 119.93886"
   version="1.1"
   id="svg8"
   inkscape:version="0.92.4 (unknown)"
   sodipodi:docname="bus-cycle.svg">
  <defs
     id="defs2">
    <marker
       inkscape:isstock="true"
       style="overflow:visible"
       id="TriangleOutM"
       refX="0"
       refY="0"
       orient="auto"
       inkscape:stockid="TriangleOutM">
      <path
         inkscape:connector-curvature="0"
         transform="scale(0.4)"
         style="fill:#000000;fill-opacity:1;fill-rule:evenodd;stroke:#000000;stroke-width:1.00000003pt;stroke-opacity:1"
         d="M 5.77,0 -2.88,5 V -5 Z"
         id="path972" />
    </marker>
    <marker
       inkscape:isstock="true"
       style="overflow:visible"
       id="Arrow1Mend"
       refX="0"
       refY="0"
       orient="auto"
       inkscape:stockid="Arrow1Mend">
      <path
         inkscape:connector-curvature="0"
         transform="matrix(-0.4,0,0,-0.4,-4,0)"
         style="fill:#000000;fill-opacity:1;fill-rule:evenodd;stroke:#000000;stroke-width:1.00000003pt;stroke-opacity:1"
         d="M 0,0 5,-5 -12.5,0 5,5 Z"
         id="path836" />
    </marker>
    <marker
       inkscape:isstock="true"
       style="overflow:visible"
       id="Arrow2Mend"
       refX="0"
       refY="0"
       orient="auto"
       inkscape:stockid="Arrow2Mend">
      <path
         inkscape:connector-curvature="0"
         transform="scale(-0.6)"
         d="M 8.7185878,4.0337352 -2.2072895,0.01601326 8.7185884,-4.0017078 c -1.7454984,2.3720609 -1.7354408,5.6174519 -6e-7,8.035443 z"
         style="fill:#000000;fill-opacity:1;fill-rule:evenodd;stroke:#000000;stroke-width:0.625;stroke-linejoin:round;stroke-opacity:1"
         id="path854" />
    </marker>
    <marker
       inkscape:isstock="true"
       style="overflow:visible"
       id="Arrow2Mend-3"
       refX="0"
       refY="0"
       orient="auto"
       inkscape:stockid="Arrow2Mend">
      <path
         transform="scale(-0.6)"
         d="M 8.7185878,4.0337352 -2.2072895,0.01601326 8.7185884,-4.0017078 c -1.7454984,2.3720609 -1.7354408,5.6174519 -6e-7,8.035443 z"
         style="fill:#000000;fill-opacity:1;fill-rule:evenodd;stroke:#000000;stroke-width:0.625;stroke-linejoin:round;stroke-opacity:1"
         id="path854-6"
         inkscape:connector-curvature="0" />
    </marker>
    <marker
       inkscape:isstock="true"
       style="overflow:visible"
       id="Arrow1Mend-5"
       refX="0"
       refY="0"
       orient="auto"
       inkscape:stockid="Arrow1Mend">
      <path
         transform="matrix(-0.4,0,0,-0.4,-4,0)"
         style="fill:#000000;fill-opacity:1;fill-rule:evenodd;stroke:#000000;stroke-width:1.00000003pt;stroke-opacity:1"
         d="M 0,0 5,-5 -12.5,0 5,5 Z"
         id="path836-3"
         inkscape:connector-curvature="0" />
    </marker>
    <marker
       inkscape:stockid="TriangleOutM"
       orient="auto"
       refY="0"
       refX="0"
       id="TriangleOutM-7"
       style="overflow:visible"
       inkscape:isstock="true">
      <path
         id="path972-5"
         d="M 5.77,0 -2.88,5 V -5 Z"
         style="fill:#000000;fill-opacity:1;fill-rule:evenodd;stroke:#000000;stroke-width:1.00000003pt;stroke-opacity:1"
         transform="scale(0.4)"
         inkscape:connector-curvature="0" />
    </marker>
    <marker
       inkscape:stockid="Arrow1Mend"
       orient="auto"
       refY="0"
       refX="0"
       id="Arrow1Mend-3"
       style="overflow:visible"
       inkscape:isstock="true">
      <path
         id="path836-5"
         d="M 0,0 5,-5 -12.5,0 5,5 Z"
         style="fill:#000000;fill-opacity:1;fill-rule:evenodd;stroke:#000000;stroke-width:1.00000003pt;stroke-opacity:1"
         transform="matrix(-0.4,0,0,-0.4,-4,0)"
         inkscape:connector-curvature="0" />
    </marker>
    <marker
       inkscape:stockid="Arrow2Mend"
       orient="auto"
       refY="0"
       refX="0"
       id="Arrow2Mend-6"
       style="overflow:visible"
       inkscape:isstock="true">
      <path
         id="path854-2"
         style="fill:#000000;fill-opacity:1;fill-rule:evenodd;stroke:#000000;stroke-width:0.625;stroke-linejoin:round;stroke-opacity:1"
         d="M 8.7185878,4.0337352 -2.2072895,0.01601326 8.7185884,-4.0017078 c -1.7454984,2.3720609 -1.7354408,5.6174519 -6e-7,8.035443 z"
         transform="scale(-0.6)"
         inkscape:connector-curvature="0" />
    </marker>
    <marker
       inkscape:stockid="Arrow2Mend"
       orient="auto"
       refY="0"
       refX="0"
       id="Arrow2Mend-3-9"
       style="overflow:visible"
       inkscape:isstock="true">
      <path
         inkscape:connector-curvature="0"
         id="path854-6-1"
         style="fill:#000000;fill-opacity:1;fill-rule:evenodd;stroke:#000000;stroke-width:0.625;stroke-linejoin:round;stroke-opacity:1"
         d="M 8.7185878,4.0337352 -2.2072895,0.01601326 8.7185884,-4.0017078 c -1.7454984,2.3720609 -1.7354408,5.6174519 -6e-7,8.035443 z"
         transform="scale(-0.6)" />
    </marker>
    <marker
       inkscape:stockid="Arrow1Mend"
       orient="auto"
       refY="0"
       refX="0"
       id="Arrow1Mend-5-2"
       style="overflow:visible"
       inkscape:isstock="true">
      <path
         inkscape:connector-curvature="0"
         id="path836-3-7"
         d="M 0,0 5,-5 -12.5,0 5,5 Z"
         style="fill:#000000;fill-opacity:1;fill-rule:evenodd;stroke:#000000;stroke-width:1.00000003pt;stroke-opacity:1"
         transform="matrix(-0.4,0,0,-0.4,-4,0)" />
    </marker>
    <defs
       id="defs3">
      <path
         inkscape:connector-curvature="0"
         id="a"
         d="M -58.3,-45 H 595.3 V 595 H -58.3 Z" />
    </defs>
    <path
       inkscape:connector-curvature="0"
       id="path880"
       d="M -58.3,-45 H 595.3 V 595 H -58.3 Z" />
  </defs>
  <sodipodi:namedview
     id="base"
     pagecolor="#ffffff"
     bordercolor="#666666"
     borderopacity="1.0"
     inkscape:pageopacity="0.0"
     inkscape:pageshadow="2"
     inkscape:zoom="0.49497475"
     inkscape:cx="173.23054"
     inkscape:cy="233.04496"
     inkscape:document-units="mm"
     inkscape:current-layer="layer1"
     showgrid="false"
     showguides="true"
     inkscape:guide-bbox="true"
     inkscape:window-width="1853"
     inkscape:window-height="1025"
     inkscape:window-x="67"
     inkscape:window-y="1051"
     inkscape:window-maximized="1"
     inkscape:snap-global="false"
     fit-margin-top="0"
     fit-margin-left="0"
     fit-margin-right="0"
     fit-margin-bottom="0" />
  <metadata
     id="metadata5">
    <rdf:RDF>
      <cc:Work
         rdf:about="">
        <dc:format>image/svg+xml</dc:format>
        <dc:type
           rdf:resource="http://purl.org/dc/dcmitype/StillImage" />
        <dc:title></dc:title>
      </cc:Work>
    </rdf:RDF>
  </metadata>
  <g
     inkscape:label="Layer 1"
     inkscape:groupmode="layer"
     id="layer1"
     transform="translate(-34.47481,-103.04565)">
    <text
       y="110.8792"
       x="72.231178"
       style="font-weight:400;font-size:18.3927536px;line-height:0%;font-family:sans-serif;letter-spacing:0;word-spacing:0;fill:#0000ff;stroke-width:0.34114945"
       font-weight="400"
       font-size="27.48"
       letter-spacing="0"
       word-spacing="0"
       id="text4204"
       transform="scale(0.99852717,1.001475)"
       inkscape:export-filename="/home/obijuan/develop/FPGAwars/Icestudio-block-icons/Hearts/png/Heart_1Hz.png"
       inkscape:export-xdpi="90"
       inkscape:export-ydpi="90">
      <tspan
         style="font-weight:700;font-size:10.51024246px;-inkscape-font-specification:'sans-serif Bold';fill:#0000ff;stroke-width:0.34114945"
         y="110.8792"
         x="72.231178"
         font-weight="700"
         font-size="15.703"
         id="tspan4206">Bus cycle</tspan>
    </text>
    <path
       style="fill:none;stroke:#008000;stroke-width:1.32291663;stroke-linecap:round;stroke-linejoin:miter;stroke-miterlimit:4;stroke-dasharray:none;stroke-opacity:1"
       d="M 79.659364,118.79856 H 58.843235 l -4.252232,7.13872 -4.346726,7.13872"
       id="path1773-2-3-1-8-9-5"
       inkscape:connector-curvature="0"
       sodipodi:nodetypes="cccc" />
    <path
       style="fill:none;stroke:#008000;stroke-width:1.32291663;stroke-linecap:round;stroke-linejoin:miter;stroke-miterlimit:4;stroke-dasharray:none;stroke-opacity:1"
       d="m 79.659364,118.79856 h 20.816126 l 4.25224,7.13872 v 0"
       id="path1773-2-3-1-8-9-5-3"
       inkscape:connector-curvature="0"
       sodipodi:nodetypes="cccc" />
    <path
       style="fill:none;stroke:#008000;stroke-width:1.32291663;stroke-linecap:round;stroke-linejoin:miter;stroke-miterlimit:4;stroke-dasharray:none;stroke-opacity:1"
       d="m 129.79609,133.076 h -20.81613 l -4.25223,-7.13872 v 0"
       id="path1773-2-3-1-8-9-5-6"
       inkscape:connector-curvature="0"
       sodipodi:nodetypes="cccc" />
    <path
       style="fill:none;stroke:#008000;stroke-width:1.32291663;stroke-linecap:round;stroke-linejoin:miter;stroke-miterlimit:4;stroke-dasharray:none;stroke-opacity:1"
       d="m 129.79609,133.076 h 20.81613"
       id="path1773-2-3-1-8-9-5-3-7"
       inkscape:connector-curvature="0"
       sodipodi:nodetypes="cc" />
    <g
       id="g1108"
       transform="matrix(1.3724661,0,0,1.3724661,-40.132519,-49.690807)">
      <circle
         r="20.25071"
         cy="159.96027"
         cx="105.59542"
         id="circle5"
         style="fill:#ffffff;stroke-width:0.10202156" />
      <path
         d="m 105.59541,137.71569 c -12.286316,0 -22.244587,9.95827 -22.244587,22.24459 0,12.28631 9.958271,22.24459 22.244587,22.24459 12.28633,0 22.24459,-9.95828 22.24459,-22.24459 0,-12.28632 -9.95826,-22.24459 -22.24459,-22.24459 z m 0,41.93835 c -10.882803,0 -19.693758,-8.8221 -19.693758,-19.69376 0,-10.87166 8.822093,-19.69376 19.693758,-19.69376 10.87168,0 19.69376,8.8221 19.69376,19.69376 0,10.87166 -8.82208,19.69376 -19.69376,19.69376 z"
         id="path7"
         inkscape:connector-curvature="0"
         style="fill:#333333;stroke-width:0.10202156" />
      <path
         d="m 104.92707,142.62799 h 1.33667 v 5.2576 h -1.33667 z m -16.653031,17.99194 v -1.33669 h 5.25761 v 1.33669 z m 17.986041,16.65826 h -1.33668 v -5.25761 h 1.33668 z m 16.65303,-17.99127 v 1.33669 h -5.25761 v -1.33669 z m -30.040332,-11.10637 0.945145,-0.94514 3.717641,3.71764 -0.945144,0.94515 z m 0.947707,24.494 -0.945143,-0.94514 3.717639,-3.71774 0.945255,0.94514 z m 24.489205,-0.94302 -0.94514,0.94525 -3.71775,-3.71775 0.94525,-0.94514 z m -0.93824,-24.49389 0.94514,0.94516 -3.71764,3.71774 -0.94524,-0.94515 z"
         id="path9"
         inkscape:connector-curvature="0"
         style="fill:#333333;stroke-width:0.10202156" />
      <circle
         r="1.3812363"
         cy="159.96027"
         cx="105.59542"
         id="circle11"
         style="fill:#333333;stroke-width:0.10202156" />
      <path
         d="m 105.80036,154.17434 0.78641,0.0833 -0.60928,5.74873 -0.78643,-0.0833 z"
         id="path13"
         inkscape:connector-curvature="0"
         style="fill:#333333;stroke-width:0.10202156" />
      <path
         d="m 114.89014,154.60085 0.36836,0.69987 -9.49221,4.99661 -0.36838,-0.69986 z"
         id="path15"
         inkscape:connector-curvature="0"
         style="fill:#333333;stroke-width:0.10202156" />
      <path
         d="m 106.44197,156.98616 c -0.31188,0 -0.55694,0.2562 -0.55694,0.55696 0,0.18936 0.0891,0.35644 0.23391,0.45669 l -4.24397,11.97442 0.28963,0.1002 4.24396,-11.97443 h 0.0335 c 0.31188,0 0.55694,-0.2562 0.55694,-0.55695 0,-0.30076 -0.24506,-0.55696 -0.55694,-0.55696 z"
         id="path17"
         inkscape:connector-curvature="0"
         style="fill:#cf000f;stroke-width:0.10202156" />
      <text
         id="text1055"
         y="153.96054"
         x="84.684364"
         style="font-style:normal;font-variant:normal;font-weight:normal;font-stretch:normal;font-size:5.94870758px;line-height:1.25;font-family:ubuntu;-inkscape-font-specification:ubuntu;text-align:start;letter-spacing:0px;word-spacing:0px;text-anchor:start;fill:#000000;fill-opacity:1;stroke:none;stroke-width:0.26458332"
         xml:space="preserve"><tspan
           style="stroke-width:0.26458332"
           y="153.96054"
           x="84.684364"
           id="tspan1053"
           sodipodi:role="line"> </tspan></text>
    </g>
    <g
       id="g992-3-5"
       transform="matrix(1.2067901,0,0,1.2067901,36.31039,115.96776)">
      <circle
         r="14.559162"
         cy="73.815468"
         cx="100.60208"
         id="path992-2-6-3"
         style="opacity:1;fill:#ececec;fill-opacity:1;stroke:#008000;stroke-width:0.60844254;stroke-linecap:round;stroke-linejoin:round;stroke-miterlimit:4;stroke-dasharray:none;stroke-opacity:1" />
      <path
         sodipodi:nodetypes="cccc"
         inkscape:connector-curvature="0"
         id="path1773-2-3-1-8-9-7-5"
         d="m 106.97785,82.141683 h -3.35236 V 63.316223 H 97.540294 V 81.99432 h -3.65214"
         style="fill:none;stroke:#008000;stroke-width:1.52110636;stroke-linecap:round;stroke-linejoin:miter;stroke-miterlimit:4;stroke-dasharray:none;stroke-opacity:1" />
    </g>
    <g
       id="g992-3-5-1"
       transform="matrix(1.2067901,0,0,1.2067901,-68.993802,115.96776)">
      <circle
         r="14.559162"
         cy="73.815468"
         cx="100.60208"
         id="path992-2-6-3-27"
         style="opacity:1;fill:#ececec;fill-opacity:1;stroke:#008000;stroke-width:0.60844254;stroke-linecap:round;stroke-linejoin:round;stroke-miterlimit:4;stroke-dasharray:none;stroke-opacity:1" />
      <path
         sodipodi:nodetypes="cccc"
         inkscape:connector-curvature="0"
         id="path1773-2-3-1-8-9-7-5-0"
         d="m 106.97785,82.141683 h -3.35236 V 63.316223 H 97.540294 V 81.99432 h -3.65214"
         style="fill:none;stroke:#008000;stroke-width:1.52110636;stroke-linecap:round;stroke-linejoin:miter;stroke-miterlimit:4;stroke-dasharray:none;stroke-opacity:1" />
    </g>
    <g
       id="g992-3-5-9"
       transform="matrix(1.2067901,0,0,1.2067901,36.310391,64.117472)">
      <circle
         r="14.559162"
         cy="73.815468"
         cx="100.60208"
         id="path992-2-6-3-3"
         style="opacity:1;fill:#ececec;fill-opacity:1;stroke:#008000;stroke-width:0.60844254;stroke-linecap:round;stroke-linejoin:round;stroke-miterlimit:4;stroke-dasharray:none;stroke-opacity:1" />
      <path
         sodipodi:nodetypes="cccc"
         inkscape:connector-curvature="0"
         id="path1773-2-3-1-8-9-7-5-6"
         d="m 106.97785,82.141683 h -3.35236 V 63.316223 H 97.540294 V 81.99432 h -3.65214"
         style="fill:none;stroke:#008000;stroke-width:1.52110636;stroke-linecap:round;stroke-linejoin:miter;stroke-miterlimit:4;stroke-dasharray:none;stroke-opacity:1" />
    </g>
  </g>
</svg>
