<?xml version="1.0" encoding="iso-8859-1"?>
<!-- Generator: Adobe Illustrator 19.1.0, SVG Export Plug-In . SVG Version: 6.00 Build 0)  -->
<svg version="1.1" id="Capa_1" xmlns="http://www.w3.org/2000/svg" xmlns:xlink="http://www.w3.org/1999/xlink" x="0px" y="0px"
	 viewBox="0 0 465.46 465.46" style="enable-background:new 0 0 465.46 465.46;" xml:space="preserve">
<g>
	<g id="XMLID_28_">
		<g>
			<polygon style="fill:#E2B369;" points="406.995,78.76 406.995,456.46 128.235,456.46 128.235,430.57 381.115,430.57 
				381.115,78.76 			"/>
			<polygon style="fill:#E2B369;" points="372.115,43.88 372.115,421.57 93.355,421.57 93.355,395.69 346.235,395.69 346.235,43.88 
							"/>
			<polygon style="fill:#E2B369;" points="127.805,15.36 127.805,78.33 64.835,78.33 			"/>
			<path style="fill:#FFCC73;" d="M337.235,9v377.69H58.465V87.33h78.34V9H337.235z M294.315,342.82v-9h-192.93v9H294.315z
				 M294.315,305.42v-9h-192.93v9H294.315z M294.315,268.02v-9h-192.93v9H294.315z M294.315,230.63v-9h-192.93v9H294.315z
				 M294.315,193.23v-9h-192.93v9H294.315z M294.315,155.83v-9h-192.93v9H294.315z M294.315,118.43v-9h-192.93v9H294.315z
				 M246.675,81.03v-9h-92.01v9H246.675z"/>
			<path d="M415.995,69.76v395.7h-296.76v-34.89h-34.88v-34.88h-34.89V80.97L130.445,0h215.79v34.88h34.88v34.88H415.995z
				 M406.995,456.46V78.76h-25.88v351.81h-252.88v25.89H406.995z M372.115,421.57V43.88h-25.88v351.81H93.355v25.88H372.115z
				 M337.235,386.69V9h-200.43v78.33h-78.34v299.36H337.235z M127.805,78.33V15.36l-62.97,62.97H127.805z"/>
			<rect x="101.385" y="333.82" width="192.93" height="9"/>
			<rect x="101.385" y="296.42" width="192.93" height="9"/>
			<rect x="101.385" y="259.02" width="192.93" height="9"/>
			<rect x="101.385" y="221.63" width="192.93" height="9"/>
			<rect x="101.385" y="184.23" width="192.93" height="9"/>
			<rect x="101.385" y="146.83" width="192.93" height="9"/>
			<rect x="101.385" y="109.43" width="192.93" height="9"/>
			<rect x="154.665" y="72.03" width="92.01" height="9"/>
		</g>
	</g>
</g>
<g>
</g>
<g>
</g>
<g>
</g>
<g>
</g>
<g>
</g>
<g>
</g>
<g>
</g>
<g>
</g>
<g>
</g>
<g>
</g>
<g>
</g>
<g>
</g>
<g>
</g>
<g>
</g>
<g>
</g>
</svg>
