<?xml version="1.0" encoding="UTF-8" standalone="no"?>
<svg
   xmlns:dc="http://purl.org/dc/elements/1.1/"
   xmlns:cc="http://creativecommons.org/ns#"
   xmlns:rdf="http://www.w3.org/1999/02/22-rdf-syntax-ns#"
   xmlns:svg="http://www.w3.org/2000/svg"
   xmlns="http://www.w3.org/2000/svg"
   xmlns:sodipodi="http://sodipodi.sourceforge.net/DTD/sodipodi-0.dtd"
   xmlns:inkscape="http://www.inkscape.org/namespaces/inkscape"
   width="302.74518"
   height="597.44708"
   version="1"
   id="svg2"
   inkscape:version="0.92.4 (unknown)"
   sodipodi:docname="SAP1-Decoder.svg">
  <metadata
     id="metadata14">
    <rdf:RDF>
      <cc:Work
         rdf:about="">
        <dc:format>image/svg+xml</dc:format>
        <dc:type
           rdf:resource="http://purl.org/dc/dcmitype/StillImage" />
        <dc:title></dc:title>
      </cc:Work>
    </rdf:RDF>
  </metadata>
  <defs
     id="defs12">
    <marker
       inkscape:isstock="true"
       style="overflow:visible"
       id="Arrow2Mstart"
       refX="0"
       refY="0"
       orient="auto"
       inkscape:stockid="Arrow2Mstart">
      <path
         inkscape:connector-curvature="0"
         transform="scale(0.6)"
         d="M 8.7185878,4.0337352 -2.2072895,0.01601326 8.7185884,-4.0017078 c -1.7454984,2.3720609 -1.7354408,5.6174519 -6e-7,8.035443 z"
         style="fill:#000000;fill-opacity:1;fill-rule:evenodd;stroke:#000000;stroke-width:0.625;stroke-linejoin:round;stroke-opacity:1"
         id="path1197" />
    </marker>
    <marker
       inkscape:isstock="true"
       style="overflow:visible"
       id="Arrow2Sstart"
       refX="0"
       refY="0"
       orient="auto"
       inkscape:stockid="Arrow2Sstart">
      <path
         inkscape:connector-curvature="0"
         transform="matrix(0.3,0,0,0.3,-0.69,0)"
         d="M 8.7185878,4.0337352 -2.2072895,0.01601326 8.7185884,-4.0017078 c -1.7454984,2.3720609 -1.7354408,5.6174519 -6e-7,8.035443 z"
         style="fill:#000000;fill-opacity:1;fill-rule:evenodd;stroke:#000000;stroke-width:0.625;stroke-linejoin:round;stroke-opacity:1"
         id="path1203" />
    </marker>
    <marker
       inkscape:stockid="TriangleOutM"
       orient="auto"
       refY="0"
       refX="0"
       id="TriangleOutM"
       style="overflow:visible"
       inkscape:isstock="true">
      <path
         id="path972"
         d="M 5.77,0 -2.88,5 V -5 Z"
         style="fill:#000000;fill-opacity:1;fill-rule:evenodd;stroke:#000000;stroke-width:1.00000003pt;stroke-opacity:1"
         transform="scale(0.4)"
         inkscape:connector-curvature="0" />
    </marker>
    <marker
       inkscape:stockid="Arrow1Mend"
       orient="auto"
       refY="0"
       refX="0"
       id="Arrow1Mend"
       style="overflow:visible"
       inkscape:isstock="true">
      <path
         id="path836"
         d="M 0,0 5,-5 -12.5,0 5,5 Z"
         style="fill:#000000;fill-opacity:1;fill-rule:evenodd;stroke:#000000;stroke-width:1.00000003pt;stroke-opacity:1"
         transform="matrix(-0.4,0,0,-0.4,-4,0)"
         inkscape:connector-curvature="0" />
    </marker>
    <marker
       inkscape:stockid="Arrow2Mend"
       orient="auto"
       refY="0"
       refX="0"
       id="Arrow2Mend"
       style="overflow:visible"
       inkscape:isstock="true">
      <path
         id="path854"
         style="fill:#000000;fill-opacity:1;fill-rule:evenodd;stroke:#000000;stroke-width:0.625;stroke-linejoin:round;stroke-opacity:1"
         d="M 8.7185878,4.0337352 -2.2072895,0.01601326 8.7185884,-4.0017078 c -1.7454984,2.3720609 -1.7354408,5.6174519 -6e-7,8.035443 z"
         transform="scale(-0.6)"
         inkscape:connector-curvature="0" />
    </marker>
    <marker
       inkscape:stockid="Arrow2Mend"
       orient="auto"
       refY="0"
       refX="0"
       id="Arrow2Mend-3"
       style="overflow:visible"
       inkscape:isstock="true">
      <path
         inkscape:connector-curvature="0"
         id="path854-6"
         style="fill:#000000;fill-opacity:1;fill-rule:evenodd;stroke:#000000;stroke-width:0.625;stroke-linejoin:round;stroke-opacity:1"
         d="M 8.7185878,4.0337352 -2.2072895,0.01601326 8.7185884,-4.0017078 c -1.7454984,2.3720609 -1.7354408,5.6174519 -6e-7,8.035443 z"
         transform="scale(-0.6)" />
    </marker>
    <marker
       inkscape:stockid="Arrow1Mend"
       orient="auto"
       refY="0"
       refX="0"
       id="Arrow1Mend-5"
       style="overflow:visible"
       inkscape:isstock="true">
      <path
         inkscape:connector-curvature="0"
         id="path836-3"
         d="M 0,0 5,-5 -12.5,0 5,5 Z"
         style="fill:#000000;fill-opacity:1;fill-rule:evenodd;stroke:#000000;stroke-width:1.00000003pt;stroke-opacity:1"
         transform="matrix(-0.4,0,0,-0.4,-4,0)" />
    </marker>
    <marker
       inkscape:isstock="true"
       style="overflow:visible"
       id="TriangleOutM-7"
       refX="0"
       refY="0"
       orient="auto"
       inkscape:stockid="TriangleOutM">
      <path
         inkscape:connector-curvature="0"
         transform="scale(0.4)"
         style="fill:#000000;fill-opacity:1;fill-rule:evenodd;stroke:#000000;stroke-width:1.00000003pt;stroke-opacity:1"
         d="M 5.77,0 -2.88,5 V -5 Z"
         id="path972-5" />
    </marker>
    <marker
       inkscape:isstock="true"
       style="overflow:visible"
       id="Arrow1Mend-3"
       refX="0"
       refY="0"
       orient="auto"
       inkscape:stockid="Arrow1Mend">
      <path
         inkscape:connector-curvature="0"
         transform="matrix(-0.4,0,0,-0.4,-4,0)"
         style="fill:#000000;fill-opacity:1;fill-rule:evenodd;stroke:#000000;stroke-width:1.00000003pt;stroke-opacity:1"
         d="M 0,0 5,-5 -12.5,0 5,5 Z"
         id="path836-5" />
    </marker>
    <marker
       inkscape:isstock="true"
       style="overflow:visible"
       id="Arrow2Mend-6"
       refX="0"
       refY="0"
       orient="auto"
       inkscape:stockid="Arrow2Mend">
      <path
         inkscape:connector-curvature="0"
         transform="scale(-0.6)"
         d="M 8.7185878,4.0337352 -2.2072895,0.01601326 8.7185884,-4.0017078 c -1.7454984,2.3720609 -1.7354408,5.6174519 -6e-7,8.035443 z"
         style="fill:#000000;fill-opacity:1;fill-rule:evenodd;stroke:#000000;stroke-width:0.625;stroke-linejoin:round;stroke-opacity:1"
         id="path854-2" />
    </marker>
    <marker
       inkscape:isstock="true"
       style="overflow:visible"
       id="Arrow2Mend-3-9"
       refX="0"
       refY="0"
       orient="auto"
       inkscape:stockid="Arrow2Mend">
      <path
         transform="scale(-0.6)"
         d="M 8.7185878,4.0337352 -2.2072895,0.01601326 8.7185884,-4.0017078 c -1.7454984,2.3720609 -1.7354408,5.6174519 -6e-7,8.035443 z"
         style="fill:#000000;fill-opacity:1;fill-rule:evenodd;stroke:#000000;stroke-width:0.625;stroke-linejoin:round;stroke-opacity:1"
         id="path854-6-1"
         inkscape:connector-curvature="0" />
    </marker>
    <marker
       inkscape:isstock="true"
       style="overflow:visible"
       id="Arrow1Mend-5-2"
       refX="0"
       refY="0"
       orient="auto"
       inkscape:stockid="Arrow1Mend">
      <path
         transform="matrix(-0.4,0,0,-0.4,-4,0)"
         style="fill:#000000;fill-opacity:1;fill-rule:evenodd;stroke:#000000;stroke-width:1.00000003pt;stroke-opacity:1"
         d="M 0,0 5,-5 -12.5,0 5,5 Z"
         id="path836-3-7"
         inkscape:connector-curvature="0" />
    </marker>
    <defs
       id="defs3">
      <path
         d="M -58.3,-45 H 595.3 V 595 H -58.3 Z"
         id="a"
         inkscape:connector-curvature="0" />
    </defs>
    <path
       d="M -58.3,-45 H 595.3 V 595 H -58.3 Z"
       id="path898"
       inkscape:connector-curvature="0" />
    <marker
       inkscape:stockid="TriangleOutM"
       orient="auto"
       refY="0"
       refX="0"
       id="TriangleOutM-3"
       style="overflow:visible"
       inkscape:isstock="true">
      <path
         id="path972-6"
         d="M 5.77,0 -2.88,5 V -5 Z"
         style="fill:#000000;fill-opacity:1;fill-rule:evenodd;stroke:#000000;stroke-width:1.00000003pt;stroke-opacity:1"
         transform="scale(0.4)"
         inkscape:connector-curvature="0" />
    </marker>
    <marker
       inkscape:stockid="Arrow1Mend"
       orient="auto"
       refY="0"
       refX="0"
       id="Arrow1Mend-7"
       style="overflow:visible"
       inkscape:isstock="true">
      <path
         id="path836-53"
         d="M 0,0 5,-5 -12.5,0 5,5 Z"
         style="fill:#000000;fill-opacity:1;fill-rule:evenodd;stroke:#000000;stroke-width:1.00000003pt;stroke-opacity:1"
         transform="matrix(-0.4,0,0,-0.4,-4,0)"
         inkscape:connector-curvature="0" />
    </marker>
    <marker
       inkscape:stockid="Arrow2Mend"
       orient="auto"
       refY="0"
       refX="0"
       id="Arrow2Mend-5"
       style="overflow:visible"
       inkscape:isstock="true">
      <path
         id="path854-62"
         style="fill:#000000;fill-opacity:1;fill-rule:evenodd;stroke:#000000;stroke-width:0.625;stroke-linejoin:round;stroke-opacity:1"
         d="M 8.7185878,4.0337352 -2.2072895,0.01601326 8.7185884,-4.0017078 c -1.7454984,2.3720609 -1.7354408,5.6174519 -6e-7,8.035443 z"
         transform="scale(-0.6)"
         inkscape:connector-curvature="0" />
    </marker>
    <marker
       inkscape:stockid="Arrow2Mend"
       orient="auto"
       refY="0"
       refX="0"
       id="Arrow2Mend-3-91"
       style="overflow:visible"
       inkscape:isstock="true">
      <path
         inkscape:connector-curvature="0"
         id="path854-6-2"
         style="fill:#000000;fill-opacity:1;fill-rule:evenodd;stroke:#000000;stroke-width:0.625;stroke-linejoin:round;stroke-opacity:1"
         d="M 8.7185878,4.0337352 -2.2072895,0.01601326 8.7185884,-4.0017078 c -1.7454984,2.3720609 -1.7354408,5.6174519 -6e-7,8.035443 z"
         transform="scale(-0.6)" />
    </marker>
    <marker
       inkscape:stockid="Arrow1Mend"
       orient="auto"
       refY="0"
       refX="0"
       id="Arrow1Mend-5-7"
       style="overflow:visible"
       inkscape:isstock="true">
      <path
         inkscape:connector-curvature="0"
         id="path836-3-0"
         d="M 0,0 5,-5 -12.5,0 5,5 Z"
         style="fill:#000000;fill-opacity:1;fill-rule:evenodd;stroke:#000000;stroke-width:1.00000003pt;stroke-opacity:1"
         transform="matrix(-0.4,0,0,-0.4,-4,0)" />
    </marker>
    <marker
       inkscape:isstock="true"
       style="overflow:visible"
       id="TriangleOutM-7-9"
       refX="0"
       refY="0"
       orient="auto"
       inkscape:stockid="TriangleOutM">
      <path
         inkscape:connector-curvature="0"
         transform="scale(0.4)"
         style="fill:#000000;fill-opacity:1;fill-rule:evenodd;stroke:#000000;stroke-width:1.00000003pt;stroke-opacity:1"
         d="M 5.77,0 -2.88,5 V -5 Z"
         id="path972-5-3" />
    </marker>
    <marker
       inkscape:isstock="true"
       style="overflow:visible"
       id="Arrow1Mend-3-6"
       refX="0"
       refY="0"
       orient="auto"
       inkscape:stockid="Arrow1Mend">
      <path
         inkscape:connector-curvature="0"
         transform="matrix(-0.4,0,0,-0.4,-4,0)"
         style="fill:#000000;fill-opacity:1;fill-rule:evenodd;stroke:#000000;stroke-width:1.00000003pt;stroke-opacity:1"
         d="M 0,0 5,-5 -12.5,0 5,5 Z"
         id="path836-5-0" />
    </marker>
    <marker
       inkscape:isstock="true"
       style="overflow:visible"
       id="Arrow2Mend-6-6"
       refX="0"
       refY="0"
       orient="auto"
       inkscape:stockid="Arrow2Mend">
      <path
         inkscape:connector-curvature="0"
         transform="scale(-0.6)"
         d="M 8.7185878,4.0337352 -2.2072895,0.01601326 8.7185884,-4.0017078 c -1.7454984,2.3720609 -1.7354408,5.6174519 -6e-7,8.035443 z"
         style="fill:#000000;fill-opacity:1;fill-rule:evenodd;stroke:#000000;stroke-width:0.625;stroke-linejoin:round;stroke-opacity:1"
         id="path854-2-2" />
    </marker>
    <marker
       inkscape:isstock="true"
       style="overflow:visible"
       id="Arrow2Mend-3-9-6"
       refX="0"
       refY="0"
       orient="auto"
       inkscape:stockid="Arrow2Mend">
      <path
         transform="scale(-0.6)"
         d="M 8.7185878,4.0337352 -2.2072895,0.01601326 8.7185884,-4.0017078 c -1.7454984,2.3720609 -1.7354408,5.6174519 -6e-7,8.035443 z"
         style="fill:#000000;fill-opacity:1;fill-rule:evenodd;stroke:#000000;stroke-width:0.625;stroke-linejoin:round;stroke-opacity:1"
         id="path854-6-1-1"
         inkscape:connector-curvature="0" />
    </marker>
    <marker
       inkscape:isstock="true"
       style="overflow:visible"
       id="Arrow1Mend-5-2-8"
       refX="0"
       refY="0"
       orient="auto"
       inkscape:stockid="Arrow1Mend">
      <path
         transform="matrix(-0.4,0,0,-0.4,-4,0)"
         style="fill:#000000;fill-opacity:1;fill-rule:evenodd;stroke:#000000;stroke-width:1.00000003pt;stroke-opacity:1"
         d="M 0,0 5,-5 -12.5,0 5,5 Z"
         id="path836-3-7-7"
         inkscape:connector-curvature="0" />
    </marker>
    <defs
       id="defs3-9">
      <path
         d="M -58.3,-45 H 595.3 V 595 H -58.3 Z"
         id="a-2"
         inkscape:connector-curvature="0" />
    </defs>
    <path
       d="M -58.3,-45 H 595.3 V 595 H -58.3 Z"
       id="path974"
       inkscape:connector-curvature="0" />
    <marker
       inkscape:stockid="TriangleInM"
       orient="auto"
       refY="0"
       refX="0"
       id="TriangleInM"
       style="overflow:visible">
      <path
         inkscape:connector-curvature="0"
         id="path4321"
         d="M 5.77,0 -2.88,5 V -5 Z"
         style="fill:#0000ff;fill-opacity:1;fill-rule:evenodd;stroke:#0000ff;stroke-width:1.00000003pt;stroke-opacity:1"
         transform="scale(-0.4)" />
    </marker>
    <path
       d="M -58.3,-45 H 595.3 V 595 H -58.3 Z"
       id="path955"
       inkscape:connector-curvature="0" />
    <path
       d="M -58.3,-45 H 595.3 V 595 H -58.3 Z"
       id="path957"
       inkscape:connector-curvature="0" />
  </defs>
  <sodipodi:namedview
     pagecolor="#ffffff"
     bordercolor="#666666"
     borderopacity="1"
     objecttolerance="10"
     gridtolerance="10"
     guidetolerance="10"
     inkscape:pageopacity="0"
     inkscape:pageshadow="2"
     inkscape:window-width="1853"
     inkscape:window-height="1025"
     id="namedview10"
     showgrid="false"
     inkscape:zoom="0.43959029"
     inkscape:cx="549.46898"
     inkscape:cy="551.42199"
     inkscape:window-x="67"
     inkscape:window-y="1051"
     inkscape:window-maximized="1"
     inkscape:current-layer="svg2"
     fit-margin-top="0"
     fit-margin-left="0"
     fit-margin-right="0"
     fit-margin-bottom="0"
     showguides="true"
     inkscape:guide-bbox="true" />
  <text
     xml:space="preserve"
     style="font-style:normal;font-weight:normal;font-size:19.67781448px;line-height:0%;font-family:sans-serif;letter-spacing:0px;word-spacing:0px;fill:#ff0000;fill-opacity:1;stroke:none;stroke-width:1.63981783px;stroke-linecap:butt;stroke-linejoin:miter;stroke-opacity:1"
     x="-6.8330321"
     y="70.65448"
     id="text4142-5"><tspan
       sodipodi:role="line"
       id="tspan4144-6"
       x="-6.8330321"
       y="70.65448"
       style="font-style:normal;font-variant:normal;font-weight:bold;font-stretch:normal;font-size:95.19761658px;line-height:1.25;font-family:sans-serif;-inkscape-font-specification:'sans-serif Bold';fill:#ff0000;stroke-width:1.63981783px">SAP-1</tspan></text>
  <text
     xml:space="preserve"
     style="font-style:normal;font-weight:normal;font-size:9.71757793px;line-height:0%;font-family:sans-serif;text-align:center;letter-spacing:0px;word-spacing:0px;text-anchor:middle;fill:#0000ff;fill-opacity:1;stroke:none;stroke-width:0.80979812px;stroke-linecap:butt;stroke-linejoin:miter;stroke-opacity:1"
     x="150.28912"
     y="150.63098"
     id="text4142-5-3"><tspan
       sodipodi:role="line"
       id="tspan4144-6-6"
       x="150.28912"
       y="150.63098"
       style="font-style:normal;font-variant:normal;font-weight:bold;font-stretch:normal;font-size:47.01184082px;line-height:1.25;font-family:sans-serif;-inkscape-font-specification:'sans-serif Bold';text-align:center;text-anchor:middle;fill:#0000ff;stroke-width:0.80979812px">Instruction</tspan><tspan
       sodipodi:role="line"
       x="150.28912"
       y="209.39581"
       style="font-style:normal;font-variant:normal;font-weight:bold;font-stretch:normal;font-size:47.01184082px;line-height:1.25;font-family:sans-serif;-inkscape-font-specification:'sans-serif Bold';text-align:center;text-anchor:middle;fill:#0000ff;stroke-width:0.80979812px"
       id="tspan1161">Decoder</tspan></text>
  <g
     id="g1213"
     transform="translate(69.566441,240.85109)">
    <path
       id="path1199"
       d="m 130.817,197.651 c 0,-6.286 -1.87,-12.518 -5.411,-18.025 -7.306,-11.352 -11.168,-24.924 -11.168,-39.247 v -9.94 a 5.63,5.63 0 0 0 -5.629,-5.63 H 60.222 a 5.63,5.63 0 0 0 -5.629,5.63 v 9.94 c 0,14.324 -3.861,27.895 -11.168,39.25 -3.54,5.504 -5.412,11.736 -5.412,18.023 0,9.492 4.123,18.426 11.65,25.43 v 44.017 c 0,19.164 15.589,34.755 34.75,34.755 19.163,0 34.754,-15.59 34.754,-34.755 v -44.017 c 7.528,-7.004 11.65,-15.938 11.65,-25.43 z M 107.91,267.1 c 0,12.956 -10.54,23.497 -23.497,23.497 -12.953,0 -23.49,-10.541 -23.49,-23.497 v -50.18 c 0,-6.38 2.55,-12.304 6.872,-16.623 1.274,8.027 8.241,14.184 16.62,14.184 8.375,0 15.339,-6.149 16.619,-14.169 4.434,4.439 6.877,10.336 6.877,16.608 V 267.1 Z M 78.842,197.65 v -22.403 c 0,-3.073 2.499,-5.573 5.572,-5.573 3.073,0 5.572,2.5 5.572,5.573 v 22.403 c 0,3.073 -2.5,5.573 -5.572,5.573 a 5.578,5.578 0 0 1 -5.572,-5.573 z m 38.752,8.896 c -1.651,-5.302 -4.569,-10.162 -8.608,-14.201 a 34.654,34.654 0 0 0 -7.742,-5.829 v -11.269 c 0,-9.28 -7.55,-16.83 -16.83,-16.83 -9.28,0 -16.83,7.55 -16.83,16.83 v 11.257 a 34.626,34.626 0 0 0 -16.348,20.044 c -1.29,-2.834 -1.966,-5.834 -1.966,-8.896 0,-4.181 1.219,-8.196 3.622,-11.932 8.478,-13.173 12.958,-28.851 12.958,-45.34 v -4.313 h 37.13 v 4.312 c 0,16.489 4.48,32.167 12.957,45.339 2.404,3.737 3.623,7.752 3.623,11.933 -0.001,3.062 -0.677,6.062 -1.966,8.895 z"
       inkscape:connector-curvature="0"
       style="fill:#0000ff" />
    <path
       id="path1201"
       d="m 84.414,244.445 c -8.291,0 -15.038,6.746 -15.038,15.038 v 7.617 c 0,8.291 6.746,15.037 15.038,15.037 8.292,0 15.038,-6.746 15.038,-15.037 v -7.617 c 0,-8.292 -6.746,-15.038 -15.038,-15.038 z m 3.78,22.655 a 3.784,3.784 0 0 1 -3.78,3.78 3.784,3.784 0 0 1 -3.78,-3.78 v -7.617 a 3.784,3.784 0 0 1 3.78,-3.78 3.784,3.784 0 0 1 3.78,3.78 z m -21.701,49.07 h 18.819 a 5.63,5.63 0 0 0 0,-11.257 h -18.82 a 5.63,5.63 0 0 0 0,11.258 z m 35.845,2.218 H 83.52 a 5.63,5.63 0 0 0 0,11.258 h 18.82 a 5.63,5.63 0 0 0 0,-11.258 z M 66.493,343.12 h 18.819 a 5.63,5.63 0 0 0 0,-11.257 h -18.82 a 5.63,5.63 0 0 0 0,11.258 z m 35.845,2.218 H 83.52 a 5.63,5.63 0 0 0 0,11.258 h 18.82 a 5.63,5.63 0 0 0 0,-11.258 z M 10.525,30.22 19.817,13.856 a 5.63,5.63 0 0 0 -9.79,-5.56 L 0.735,24.662 a 5.63,5.63 0 0 0 9.79,5.56 z m 144.83,2.306 -11.64,-14.788 a 5.63,5.63 0 0 0 -8.846,6.963 l 11.64,14.788 a 5.63,5.63 0 0 0 8.846,-6.963 z M 30.63,45.73 42.189,30.879 a 5.63,5.63 0 0 0 -8.884,-6.915 l -11.56,14.85 a 5.63,5.63 0 0 0 8.884,6.915 z m 104.244,2.518 -13.616,-12.991 a 5.63,5.63 0 0 0 -7.771,8.145 l 13.615,12.991 a 5.63,5.63 0 0 0 7.772,-8.145 z M 63.518,45.414 A 5.63,5.63 0 0 0 55.564,45.085 L 41.718,57.831 a 5.63,5.63 0 0 0 7.625,8.283 L 63.188,53.368 a 5.63,5.63 0 0 0 0.33,-7.954 z m 54.337,21.891 -16.457,-9.129 a 5.63,5.63 0 0 0 -5.461,9.845 l 16.456,9.129 a 5.63,5.63 0 0 0 5.462,-9.845 z m -37.688,4.897 a 5.63,5.63 0 0 0 -7.417,-2.89 l -17.231,7.565 a 5.63,5.63 0 0 0 4.526,10.308 l 17.231,-7.566 a 5.63,5.63 0 0 0 2.89,-7.417 z M 107.766,88.12 89.63,83.1 a 5.63,5.63 0 0 0 -3.003,10.85 l 18.138,5.02 a 5.63,5.63 0 0 0 3.002,-10.85 z m -17.332,11.947 a 5.63,5.63 0 0 0 -7.016,-3.76 l -18.015,5.44 a 5.63,5.63 0 0 0 3.255,10.777 l 18.015,-5.44 a 5.63,5.63 0 0 0 3.761,-7.017 z m 12.04,12.195 H 83.655 a 5.63,5.63 0 0 0 0,11.258 h 18.819 a 5.63,5.63 0 0 0 0,-11.258 z M 178.633,20.61 171.083,3.372 a 5.63,5.63 0 0 0 -10.312,4.517 l 7.55,17.238 a 5.63,5.63 0 0 0 10.312,-4.517 z"
       inkscape:connector-curvature="0"
       style="fill:#0000ff" />
  </g>
</svg>
