<?xml version="1.0" encoding="UTF-8" standalone="no"?>
<svg
   xmlns:dc="http://purl.org/dc/elements/1.1/"
   xmlns:cc="http://creativecommons.org/ns#"
   xmlns:rdf="http://www.w3.org/1999/02/22-rdf-syntax-ns#"
   xmlns:svg="http://www.w3.org/2000/svg"
   xmlns="http://www.w3.org/2000/svg"
   xmlns:sodipodi="http://sodipodi.sourceforge.net/DTD/sodipodi-0.dtd"
   xmlns:inkscape="http://www.inkscape.org/namespaces/inkscape"
   width="306.42252"
   height="510.57129"
   version="1"
   id="svg2"
   inkscape:version="0.92.4 (unknown)"
   sodipodi:docname="SAP1-Control-unit.svg">
  <metadata
     id="metadata14">
    <rdf:RDF>
      <cc:Work
         rdf:about="">
        <dc:format>image/svg+xml</dc:format>
        <dc:type
           rdf:resource="http://purl.org/dc/dcmitype/StillImage" />
        <dc:title></dc:title>
      </cc:Work>
    </rdf:RDF>
  </metadata>
  <defs
     id="defs12">
    <marker
       inkscape:isstock="true"
       style="overflow:visible"
       id="Arrow2Mstart"
       refX="0"
       refY="0"
       orient="auto"
       inkscape:stockid="Arrow2Mstart">
      <path
         inkscape:connector-curvature="0"
         transform="scale(0.6)"
         d="M 8.7185878,4.0337352 -2.2072895,0.01601326 8.7185884,-4.0017078 c -1.7454984,2.3720609 -1.7354408,5.6174519 -6e-7,8.035443 z"
         style="fill:#000000;fill-opacity:1;fill-rule:evenodd;stroke:#000000;stroke-width:0.625;stroke-linejoin:round;stroke-opacity:1"
         id="path1197" />
    </marker>
    <marker
       inkscape:isstock="true"
       style="overflow:visible"
       id="Arrow2Sstart"
       refX="0"
       refY="0"
       orient="auto"
       inkscape:stockid="Arrow2Sstart">
      <path
         inkscape:connector-curvature="0"
         transform="matrix(0.3,0,0,0.3,-0.69,0)"
         d="M 8.7185878,4.0337352 -2.2072895,0.01601326 8.7185884,-4.0017078 c -1.7454984,2.3720609 -1.7354408,5.6174519 -6e-7,8.035443 z"
         style="fill:#000000;fill-opacity:1;fill-rule:evenodd;stroke:#000000;stroke-width:0.625;stroke-linejoin:round;stroke-opacity:1"
         id="path1203" />
    </marker>
    <marker
       inkscape:stockid="TriangleOutM"
       orient="auto"
       refY="0"
       refX="0"
       id="TriangleOutM"
       style="overflow:visible"
       inkscape:isstock="true">
      <path
         id="path972"
         d="M 5.77,0 -2.88,5 V -5 Z"
         style="fill:#000000;fill-opacity:1;fill-rule:evenodd;stroke:#000000;stroke-width:1.00000003pt;stroke-opacity:1"
         transform="scale(0.4)"
         inkscape:connector-curvature="0" />
    </marker>
    <marker
       inkscape:stockid="Arrow1Mend"
       orient="auto"
       refY="0"
       refX="0"
       id="Arrow1Mend"
       style="overflow:visible"
       inkscape:isstock="true">
      <path
         id="path836"
         d="M 0,0 5,-5 -12.5,0 5,5 Z"
         style="fill:#000000;fill-opacity:1;fill-rule:evenodd;stroke:#000000;stroke-width:1.00000003pt;stroke-opacity:1"
         transform="matrix(-0.4,0,0,-0.4,-4,0)"
         inkscape:connector-curvature="0" />
    </marker>
    <marker
       inkscape:stockid="Arrow2Mend"
       orient="auto"
       refY="0"
       refX="0"
       id="Arrow2Mend"
       style="overflow:visible"
       inkscape:isstock="true">
      <path
         id="path854"
         style="fill:#000000;fill-opacity:1;fill-rule:evenodd;stroke:#000000;stroke-width:0.625;stroke-linejoin:round;stroke-opacity:1"
         d="M 8.7185878,4.0337352 -2.2072895,0.01601326 8.7185884,-4.0017078 c -1.7454984,2.3720609 -1.7354408,5.6174519 -6e-7,8.035443 z"
         transform="scale(-0.6)"
         inkscape:connector-curvature="0" />
    </marker>
    <marker
       inkscape:stockid="Arrow2Mend"
       orient="auto"
       refY="0"
       refX="0"
       id="Arrow2Mend-3"
       style="overflow:visible"
       inkscape:isstock="true">
      <path
         inkscape:connector-curvature="0"
         id="path854-6"
         style="fill:#000000;fill-opacity:1;fill-rule:evenodd;stroke:#000000;stroke-width:0.625;stroke-linejoin:round;stroke-opacity:1"
         d="M 8.7185878,4.0337352 -2.2072895,0.01601326 8.7185884,-4.0017078 c -1.7454984,2.3720609 -1.7354408,5.6174519 -6e-7,8.035443 z"
         transform="scale(-0.6)" />
    </marker>
    <marker
       inkscape:stockid="Arrow1Mend"
       orient="auto"
       refY="0"
       refX="0"
       id="Arrow1Mend-5"
       style="overflow:visible"
       inkscape:isstock="true">
      <path
         inkscape:connector-curvature="0"
         id="path836-3"
         d="M 0,0 5,-5 -12.5,0 5,5 Z"
         style="fill:#000000;fill-opacity:1;fill-rule:evenodd;stroke:#000000;stroke-width:1.00000003pt;stroke-opacity:1"
         transform="matrix(-0.4,0,0,-0.4,-4,0)" />
    </marker>
    <marker
       inkscape:isstock="true"
       style="overflow:visible"
       id="TriangleOutM-7"
       refX="0"
       refY="0"
       orient="auto"
       inkscape:stockid="TriangleOutM">
      <path
         inkscape:connector-curvature="0"
         transform="scale(0.4)"
         style="fill:#000000;fill-opacity:1;fill-rule:evenodd;stroke:#000000;stroke-width:1.00000003pt;stroke-opacity:1"
         d="M 5.77,0 -2.88,5 V -5 Z"
         id="path972-5" />
    </marker>
    <marker
       inkscape:isstock="true"
       style="overflow:visible"
       id="Arrow1Mend-3"
       refX="0"
       refY="0"
       orient="auto"
       inkscape:stockid="Arrow1Mend">
      <path
         inkscape:connector-curvature="0"
         transform="matrix(-0.4,0,0,-0.4,-4,0)"
         style="fill:#000000;fill-opacity:1;fill-rule:evenodd;stroke:#000000;stroke-width:1.00000003pt;stroke-opacity:1"
         d="M 0,0 5,-5 -12.5,0 5,5 Z"
         id="path836-5" />
    </marker>
    <marker
       inkscape:isstock="true"
       style="overflow:visible"
       id="Arrow2Mend-6"
       refX="0"
       refY="0"
       orient="auto"
       inkscape:stockid="Arrow2Mend">
      <path
         inkscape:connector-curvature="0"
         transform="scale(-0.6)"
         d="M 8.7185878,4.0337352 -2.2072895,0.01601326 8.7185884,-4.0017078 c -1.7454984,2.3720609 -1.7354408,5.6174519 -6e-7,8.035443 z"
         style="fill:#000000;fill-opacity:1;fill-rule:evenodd;stroke:#000000;stroke-width:0.625;stroke-linejoin:round;stroke-opacity:1"
         id="path854-2" />
    </marker>
    <marker
       inkscape:isstock="true"
       style="overflow:visible"
       id="Arrow2Mend-3-9"
       refX="0"
       refY="0"
       orient="auto"
       inkscape:stockid="Arrow2Mend">
      <path
         transform="scale(-0.6)"
         d="M 8.7185878,4.0337352 -2.2072895,0.01601326 8.7185884,-4.0017078 c -1.7454984,2.3720609 -1.7354408,5.6174519 -6e-7,8.035443 z"
         style="fill:#000000;fill-opacity:1;fill-rule:evenodd;stroke:#000000;stroke-width:0.625;stroke-linejoin:round;stroke-opacity:1"
         id="path854-6-1"
         inkscape:connector-curvature="0" />
    </marker>
    <marker
       inkscape:isstock="true"
       style="overflow:visible"
       id="Arrow1Mend-5-2"
       refX="0"
       refY="0"
       orient="auto"
       inkscape:stockid="Arrow1Mend">
      <path
         transform="matrix(-0.4,0,0,-0.4,-4,0)"
         style="fill:#000000;fill-opacity:1;fill-rule:evenodd;stroke:#000000;stroke-width:1.00000003pt;stroke-opacity:1"
         d="M 0,0 5,-5 -12.5,0 5,5 Z"
         id="path836-3-7"
         inkscape:connector-curvature="0" />
    </marker>
    <defs
       id="defs3">
      <path
         d="M -58.3,-45 H 595.3 V 595 H -58.3 Z"
         id="a"
         inkscape:connector-curvature="0" />
    </defs>
    <path
       d="M -58.3,-45 H 595.3 V 595 H -58.3 Z"
       id="path898"
       inkscape:connector-curvature="0" />
    <marker
       inkscape:stockid="TriangleOutM"
       orient="auto"
       refY="0"
       refX="0"
       id="TriangleOutM-3"
       style="overflow:visible"
       inkscape:isstock="true">
      <path
         id="path972-6"
         d="M 5.77,0 -2.88,5 V -5 Z"
         style="fill:#000000;fill-opacity:1;fill-rule:evenodd;stroke:#000000;stroke-width:1.00000003pt;stroke-opacity:1"
         transform="scale(0.4)"
         inkscape:connector-curvature="0" />
    </marker>
    <marker
       inkscape:stockid="Arrow1Mend"
       orient="auto"
       refY="0"
       refX="0"
       id="Arrow1Mend-7"
       style="overflow:visible"
       inkscape:isstock="true">
      <path
         id="path836-53"
         d="M 0,0 5,-5 -12.5,0 5,5 Z"
         style="fill:#000000;fill-opacity:1;fill-rule:evenodd;stroke:#000000;stroke-width:1.00000003pt;stroke-opacity:1"
         transform="matrix(-0.4,0,0,-0.4,-4,0)"
         inkscape:connector-curvature="0" />
    </marker>
    <marker
       inkscape:stockid="Arrow2Mend"
       orient="auto"
       refY="0"
       refX="0"
       id="Arrow2Mend-5"
       style="overflow:visible"
       inkscape:isstock="true">
      <path
         id="path854-62"
         style="fill:#000000;fill-opacity:1;fill-rule:evenodd;stroke:#000000;stroke-width:0.625;stroke-linejoin:round;stroke-opacity:1"
         d="M 8.7185878,4.0337352 -2.2072895,0.01601326 8.7185884,-4.0017078 c -1.7454984,2.3720609 -1.7354408,5.6174519 -6e-7,8.035443 z"
         transform="scale(-0.6)"
         inkscape:connector-curvature="0" />
    </marker>
    <marker
       inkscape:stockid="Arrow2Mend"
       orient="auto"
       refY="0"
       refX="0"
       id="Arrow2Mend-3-91"
       style="overflow:visible"
       inkscape:isstock="true">
      <path
         inkscape:connector-curvature="0"
         id="path854-6-2"
         style="fill:#000000;fill-opacity:1;fill-rule:evenodd;stroke:#000000;stroke-width:0.625;stroke-linejoin:round;stroke-opacity:1"
         d="M 8.7185878,4.0337352 -2.2072895,0.01601326 8.7185884,-4.0017078 c -1.7454984,2.3720609 -1.7354408,5.6174519 -6e-7,8.035443 z"
         transform="scale(-0.6)" />
    </marker>
    <marker
       inkscape:stockid="Arrow1Mend"
       orient="auto"
       refY="0"
       refX="0"
       id="Arrow1Mend-5-7"
       style="overflow:visible"
       inkscape:isstock="true">
      <path
         inkscape:connector-curvature="0"
         id="path836-3-0"
         d="M 0,0 5,-5 -12.5,0 5,5 Z"
         style="fill:#000000;fill-opacity:1;fill-rule:evenodd;stroke:#000000;stroke-width:1.00000003pt;stroke-opacity:1"
         transform="matrix(-0.4,0,0,-0.4,-4,0)" />
    </marker>
    <marker
       inkscape:isstock="true"
       style="overflow:visible"
       id="TriangleOutM-7-9"
       refX="0"
       refY="0"
       orient="auto"
       inkscape:stockid="TriangleOutM">
      <path
         inkscape:connector-curvature="0"
         transform="scale(0.4)"
         style="fill:#000000;fill-opacity:1;fill-rule:evenodd;stroke:#000000;stroke-width:1.00000003pt;stroke-opacity:1"
         d="M 5.77,0 -2.88,5 V -5 Z"
         id="path972-5-3" />
    </marker>
    <marker
       inkscape:isstock="true"
       style="overflow:visible"
       id="Arrow1Mend-3-6"
       refX="0"
       refY="0"
       orient="auto"
       inkscape:stockid="Arrow1Mend">
      <path
         inkscape:connector-curvature="0"
         transform="matrix(-0.4,0,0,-0.4,-4,0)"
         style="fill:#000000;fill-opacity:1;fill-rule:evenodd;stroke:#000000;stroke-width:1.00000003pt;stroke-opacity:1"
         d="M 0,0 5,-5 -12.5,0 5,5 Z"
         id="path836-5-0" />
    </marker>
    <marker
       inkscape:isstock="true"
       style="overflow:visible"
       id="Arrow2Mend-6-6"
       refX="0"
       refY="0"
       orient="auto"
       inkscape:stockid="Arrow2Mend">
      <path
         inkscape:connector-curvature="0"
         transform="scale(-0.6)"
         d="M 8.7185878,4.0337352 -2.2072895,0.01601326 8.7185884,-4.0017078 c -1.7454984,2.3720609 -1.7354408,5.6174519 -6e-7,8.035443 z"
         style="fill:#000000;fill-opacity:1;fill-rule:evenodd;stroke:#000000;stroke-width:0.625;stroke-linejoin:round;stroke-opacity:1"
         id="path854-2-2" />
    </marker>
    <marker
       inkscape:isstock="true"
       style="overflow:visible"
       id="Arrow2Mend-3-9-6"
       refX="0"
       refY="0"
       orient="auto"
       inkscape:stockid="Arrow2Mend">
      <path
         transform="scale(-0.6)"
         d="M 8.7185878,4.0337352 -2.2072895,0.01601326 8.7185884,-4.0017078 c -1.7454984,2.3720609 -1.7354408,5.6174519 -6e-7,8.035443 z"
         style="fill:#000000;fill-opacity:1;fill-rule:evenodd;stroke:#000000;stroke-width:0.625;stroke-linejoin:round;stroke-opacity:1"
         id="path854-6-1-1"
         inkscape:connector-curvature="0" />
    </marker>
    <marker
       inkscape:isstock="true"
       style="overflow:visible"
       id="Arrow1Mend-5-2-8"
       refX="0"
       refY="0"
       orient="auto"
       inkscape:stockid="Arrow1Mend">
      <path
         transform="matrix(-0.4,0,0,-0.4,-4,0)"
         style="fill:#000000;fill-opacity:1;fill-rule:evenodd;stroke:#000000;stroke-width:1.00000003pt;stroke-opacity:1"
         d="M 0,0 5,-5 -12.5,0 5,5 Z"
         id="path836-3-7-7"
         inkscape:connector-curvature="0" />
    </marker>
    <defs
       id="defs3-9">
      <path
         d="M -58.3,-45 H 595.3 V 595 H -58.3 Z"
         id="a-2"
         inkscape:connector-curvature="0" />
    </defs>
    <path
       d="M -58.3,-45 H 595.3 V 595 H -58.3 Z"
       id="path974"
       inkscape:connector-curvature="0" />
    <marker
       inkscape:stockid="TriangleInM"
       orient="auto"
       refY="0"
       refX="0"
       id="TriangleInM"
       style="overflow:visible">
      <path
         inkscape:connector-curvature="0"
         id="path4321"
         d="M 5.77,0 -2.88,5 V -5 Z"
         style="fill:#0000ff;fill-opacity:1;fill-rule:evenodd;stroke:#0000ff;stroke-width:1.00000003pt;stroke-opacity:1"
         transform="scale(-0.4)" />
    </marker>
    <path
       d="M -58.3,-45 H 595.3 V 595 H -58.3 Z"
       id="path955"
       inkscape:connector-curvature="0" />
    <path
       d="M -58.3,-45 H 595.3 V 595 H -58.3 Z"
       id="path957"
       inkscape:connector-curvature="0" />
  </defs>
  <sodipodi:namedview
     pagecolor="#ffffff"
     bordercolor="#666666"
     borderopacity="1"
     objecttolerance="10"
     gridtolerance="10"
     guidetolerance="10"
     inkscape:pageopacity="0"
     inkscape:pageshadow="2"
     inkscape:window-width="1280"
     inkscape:window-height="996"
     id="namedview10"
     showgrid="false"
     inkscape:zoom="0.43959029"
     inkscape:cx="152.50844"
     inkscape:cy="464.54619"
     inkscape:window-x="14"
     inkscape:window-y="0"
     inkscape:window-maximized="1"
     inkscape:current-layer="svg2"
     fit-margin-top="0"
     fit-margin-left="0"
     fit-margin-right="0"
     fit-margin-bottom="0"
     showguides="true"
     inkscape:guide-bbox="true" />
  <text
     xml:space="preserve"
     style="font-style:normal;font-weight:normal;font-size:19.67781448px;line-height:0%;font-family:sans-serif;letter-spacing:0px;word-spacing:0px;fill:#ff0000;fill-opacity:1;stroke:none;stroke-width:1.63981783px;stroke-linecap:butt;stroke-linejoin:miter;stroke-opacity:1"
     x="-6.8330321"
     y="70.65448"
     id="text4142-5"><tspan
       sodipodi:role="line"
       id="tspan4144-6"
       x="-6.8330321"
       y="70.65448"
       style="font-style:normal;font-variant:normal;font-weight:bold;font-stretch:normal;font-size:95.19761658px;line-height:1.25;font-family:sans-serif;-inkscape-font-specification:'sans-serif Bold';fill:#ff0000;stroke-width:1.63981783px">SAP-1</tspan></text>
  <text
     xml:space="preserve"
     style="font-style:normal;font-weight:normal;font-size:9.71757793px;line-height:0%;font-family:sans-serif;text-align:center;letter-spacing:0px;word-spacing:0px;text-anchor:middle;fill:#0000ff;fill-opacity:1;stroke:none;stroke-width:0.80979812px;stroke-linecap:butt;stroke-linejoin:miter;stroke-opacity:1"
     x="150.28912"
     y="150.63098"
     id="text4142-5-3"><tspan
       sodipodi:role="line"
       id="tspan4144-6-6"
       x="150.28912"
       y="150.63098"
       style="font-style:normal;font-variant:normal;font-weight:bold;font-stretch:normal;font-size:47.01184082px;line-height:1.25;font-family:sans-serif;-inkscape-font-specification:'sans-serif Bold';text-align:center;text-anchor:middle;fill:#0000ff;stroke-width:0.80979812px">Control</tspan><tspan
       sodipodi:role="line"
       x="150.28912"
       y="209.39578"
       style="font-style:normal;font-variant:normal;font-weight:bold;font-stretch:normal;font-size:47.01184082px;line-height:1.25;font-family:sans-serif;-inkscape-font-specification:'sans-serif Bold';text-align:center;text-anchor:middle;fill:#0000ff;stroke-width:0.80979812px"
       id="tspan1161">Unit</tspan></text>
  <g
     id="g1157"
     transform="matrix(4.3373699,0,0,4.3447917,-1.0051992,244.43614)"
     style="stroke-width:0.24571244">
    <path
       style="fill:#ffaaaa;stroke:#000000;stroke-width:0.24571244"
       inkscape:connector-curvature="0"
       id="path2"
       d="m 22.716853,60.21633 a 12.161,12.161 0 0 1 -2.118,-0.807 c -1.344,-0.702 -3.332,-2.71 -4.051,-4.09 l -0.556,-1.067 -1.712,-0.046 c -1.368,-0.036 -1.925,-0.125 -2.77,-0.44 -2.9800003,-1.112 -5.2170003,-3.415 -6.1230003,-6.304 -0.435,-1.39 -0.46,-3.63 -0.054,-4.987 0.15,-0.504 0.252,-0.93 0.225,-0.945 -2.14,-1.239 -4.028,-3.672 -4.69,-6.043 -0.326,-1.167 -0.26,-3.509 0.134,-4.775 0.583,-1.871 1.933,-3.8 3.478,-4.968 0.433,-0.327 0.503,-0.452 0.356,-0.628 -0.357,-0.43 -0.964,-2.302 -1.061,-3.276 -0.333,-3.32 2.195,-6.876 5.615,-7.9 l 0.9000003,-0.27 -0.095,-1.03 c -0.4410003,-4.7309996 4.034,-8.8829996 8.792,-8.1569996 0.916,0.14 1.274,0.145 1.316,0.018 0.122,-0.364 1.286,-1.712 1.946,-2.251 0.91,-0.744 2.532,-1.48999997 3.628,-1.66699997 2.928,-0.476 6.381,1.55199997 7.889,4.63099997 l 0.604,1.235 0.042,22.3639996 c 0.045,24.049 0.061,23.5 -0.749,25.66 -1.618,4.316 -6.536,6.896 -10.946,5.743 z m 21.797,0.077 c -2.924,-0.634 -5.726,-3.036 -6.76,-5.794 -0.826,-2.203 -0.803,-1.41 -0.758,-25.614 l 0.04,-22.4519996 0.611,-1.233 c 1.51,-3.05 4.937,-5.09099997 7.778,-4.63399997 1.12,0.18 2.076,0.55999997 3.1,1.22699997 0.863,0.563 2.163,1.9 2.444,2.514 0.154,0.337 0.222,0.354 0.96,0.235 0.436,-0.07 1.322,-0.118 1.97,-0.105 4.173,0.081 7.7,4.047 7.312,8.2199996 l -0.097,1.046 0.51,0.106 c 1.982,0.41 4.256,2.248 5.22,4.217 0.783,1.596 0.99,3.02 0.66,4.537 -0.143,0.654 -0.442,1.552 -0.666,1.997 l -0.408,0.81 0.518,0.39 c 1.519,1.147 2.872,3.083 3.462,4.952 0.397,1.26 0.46,3.584 0.129,4.775 -0.58,2.08 -2.194,4.35 -3.927,5.517 -0.393,0.265 -0.736,0.498 -0.763,0.518 -0.027,0.02 0.075,0.449 0.226,0.953 0.405,1.356 0.38,3.598 -0.055,4.987 -0.902,2.875 -3.158,5.198 -6.123,6.304 -0.845,0.315 -1.402,0.404 -2.77,0.44 l -1.712,0.046 -0.556,1.066 c -0.718,1.38 -2.707,3.389 -4.048,4.09 -1.96,1.023 -4.202,1.338 -6.297,0.885 z" />
    <path
       style="stroke:#000000;stroke-width:0.24571244"
       inkscape:connector-curvature="0"
       id="path12"
       d="m 22.572853,60.85233 a 12.161,12.161 0 0 1 -2.117,-0.808 c -1.344,-0.702 -3.332,-2.709 -4.052,-4.09 l -0.555,-1.066 -1.712,-0.046 c -1.368,-0.036 -1.925,-0.125 -2.77,-0.44 -2.9800003,-1.112 -5.2170003,-3.415 -6.1230003,-6.305 -0.436,-1.389 -0.46,-3.63 -0.055,-4.986 0.151,-0.505 0.252,-0.93 0.226,-0.945 -2.14,-1.24 -4.028,-3.672 -4.69,-6.044 -0.327,-1.166 -0.26,-3.508 0.133,-4.774 0.583,-1.872 1.934,-3.8 3.479,-4.969 0.432,-0.326 0.503,-0.45 0.356,-0.627 -0.358,-0.43 -0.964,-2.302 -1.062,-3.277 -0.332,-3.32 2.196,-6.876 5.616,-7.9 l 0.9000003,-0.27 -0.096,-1.028 c -0.4400003,-4.7329996 4.035,-8.8849996 8.792,-8.1579996 0.917,0.14 1.274,0.145 1.317,0.018 0.121,-0.365 1.286,-1.712 1.946,-2.252 0.909,-0.743 2.532,-1.489 3.628,-1.667 2.927,-0.47499997 6.381,1.553 7.888,4.632 l 0.605,1.235 0.042,22.3629996 c 0.045,24.05 0.06,23.5 -0.75,25.662 -1.617,4.315 -6.535,6.895 -10.946,5.742 z m 4.125,-2.401 c 2.45,-0.653 4.236,-2.498 4.822,-4.98 0.154,-0.65 0.197,-5.87 0.197,-23.532 V 7.2413304 l -0.46,-0.83 c -0.575,-1.035 -1.437,-1.823 -2.58,-2.358 -1.253,-0.586 -2.884,-0.573 -4.063,0.033 -1.099,0.565 -1.94,1.458 -2.573,2.73 -0.312,0.627 -0.686,1.135 -0.939,1.276 -0.386,0.215 -0.492,0.203 -1.333,-0.152 -1.356,-0.573 -3.24,-0.552 -4.465,0.048 a 5.034,5.034 0 0 0 -2.481,2.7099996 c -0.286,0.755 -0.339,1.158 -0.287,2.182 0.037,0.731 0.168,1.45 0.313,1.722 0.137,0.256 0.469,0.934 0.738,1.506 1.436,3.059 5.58,4.902 8.783,3.907 1.323,-0.41 2.31,-1.084 3.589,-2.45 0.873,-0.932 1.184,-1.166 1.547,-1.166 1.022,0 1.555,0.95 1.065,1.895 -0.467,0.902 -2.43,2.684 -3.677,3.338 l -1.16,0.609 0.384,0.236 c 0.211,0.13 0.985,0.84 1.718,1.58 1.654,1.664 2.427,3.034 2.59,4.589 0.13,1.223 0.042,1.316 -1.088,1.147 -0.674,-0.101 -0.705,-0.132 -1.449,-1.462 -1.533,-2.74 -3.819,-4.537 -7.112,-5.588 -1.925,-0.614 -3.188,-1.145 -4.038,-1.698 -1.11,-0.72 -2.576,-2.292 -3.161,-3.388 l -0.517,-0.968 -0.651,0.1 c -0.9950003,0.152 -2.5420003,0.96 -3.0760003,1.608 -0.905,1.094 -1.166,1.852 -1.175,3.402 -0.01,1.605 0.247,2.34 1.223,3.498 0.902,1.071 0.724,1.738 -0.652,2.45 -1.062,0.548 -2.526,1.948 -2.992,2.86 -0.784,1.533 -0.998,3.451 -0.568,5.096 0.534,2.046 1.665,3.403 3.627,4.35 1.71,0.827 1.77,1.01 0.98,3.035 -0.503,1.294 -0.51,3.643 -0.015,4.988 1.24,3.363 4.8200003,5.04 8.5900003,4.024 a 12.888,12.888 0 0 0 2.375,-0.954 c 3.909,-2.154 5.068,-5.599 3.31,-9.831 -1.132,-2.728 -3.72,-4.343 -6.765,-4.223 -0.837,0.033 -0.958,-0.004 -1.297,-0.397 -0.476,-0.552 -0.474,-1.065 0.005,-1.62 0.366,-0.426 0.425,-0.44 1.845,-0.427 4.5,0.04 7.807,2.715 9.08,7.344 0.403,1.47 0.434,3.64 0.071,4.995 -0.729,2.72 -2.955,5.28 -5.854,6.734 -0.951,0.476 -0.96,0.578 -0.163,1.84 0.872,1.378 2.517,2.58 4.013,2.933 0.904,0.212 2.852,0.19 3.726,-0.043 z m 17.672,2.477 c -2.923,-0.633 -5.726,-3.035 -6.76,-5.794 -0.826,-2.203 -0.802,-1.41 -0.758,-25.613 l 0.041,-22.4529996 0.61,-1.232 c 1.511,-3.05 4.938,-5.09099997 7.779,-4.634 1.119,0.18 2.076,0.559 3.099,1.226 0.864,0.564 2.163,1.9 2.445,2.515 0.154,0.337 0.221,0.354 0.96,0.235 0.436,-0.07 1.322,-0.118 1.969,-0.105 4.174,0.08 7.701,4.046 7.313,8.2199996 l -0.098,1.046 0.51,0.105 c 1.982,0.411 4.257,2.249 5.221,4.218 0.782,1.596 0.989,3.02 0.659,4.537 -0.142,0.653 -0.442,1.552 -0.666,1.997 l -0.407,0.81 0.518,0.39 c 1.518,1.146 2.872,3.083 3.461,4.952 0.398,1.26 0.46,3.584 0.13,4.774 -0.58,2.08 -2.195,4.35 -3.927,5.518 a 85.5,85.5 0 0 0 -0.763,0.518 c -0.027,0.02 0.075,0.448 0.225,0.953 0.406,1.356 0.381,3.597 -0.054,4.986 -0.902,2.876 -3.158,5.199 -6.124,6.305 -0.845,0.315 -1.401,0.404 -2.77,0.44 l -1.712,0.046 -0.555,1.066 c -0.719,1.38 -2.708,3.388 -4.049,4.089 -1.96,1.024 -4.202,1.339 -6.297,0.885 z m 4.878,-2.85 c 1.88,-0.879 2.957,-2.155 3.729,-4.421 0.526,-1.547 0.785,-1.705 2.317,-1.417 1.385,0.26 3.113,0.142 4.265,-0.293 1.759,-0.664 3.273,-2.262 3.87,-4.084 0.336,-1.023 0.384,-3.355 0.09,-4.318 l -0.194,-0.64 -2.158,-0.016 c -2.26,-0.017 -3.944,-0.265 -5.658,-0.835 -0.892,-0.296 -1.116,-0.313 -2.145,-0.16 -0.632,0.094 -1.535,0.315 -2.006,0.49 -1.918,0.717 -3.663,2.476 -4.367,4.402 -0.373,1.022 -0.753,1.39 -1.434,1.39 -0.561,0 -1.213,-0.633 -1.213,-1.177 0,-0.225 0.155,-0.774 0.343,-1.22 1.156,-2.73 3.426,-4.927 6.034,-5.837 l 0.81,-0.283 -0.673,-0.868 c -0.946,-1.223 -1.412,-2.09 -1.888,-3.514 -0.74,-2.206 -0.734,-5.714 0.009,-6.456 0.473,-0.471 1.256,-0.489 1.736,-0.038 0.338,0.317 0.35,0.407 0.266,2.23 -0.068,1.499 -0.03,2.115 0.18,2.918 0.616,2.346 2.367,4.57 4.299,5.458 1.675,0.77 3.046,1.013 5.746,1.017 2.214,0.003 2.405,-0.021 3.257,-0.411 1.038,-0.475 2.43,-1.782 2.922,-2.745 1.037,-2.03 1.036,-4.611 -0.002,-6.643 -0.455,-0.889 -1.913,-2.292 -2.962,-2.85 -0.474,-0.252 -0.948,-0.569 -1.054,-0.703 -0.35,-0.45 -0.223,-1.05 0.372,-1.757 0.975,-1.158 1.232,-1.893 1.223,-3.498 -0.01,-1.55 -0.27,-2.308 -1.175,-3.402 -0.532,-0.645 -2.08,-1.456 -3.066,-1.607 l -0.642,-0.098 -0.691,1.067 c -0.969,1.494 -2.681,3.157 -3.829,3.716 -1.202,0.586 -3.052,0.719 -4.689,0.336 -1.368,-0.32 -3.62,-1.365 -3.845,-1.785 -0.28,-0.522 -0.197,-1.111 0.214,-1.521 0.486,-0.486 1.028,-0.487 1.861,-0.005 1.725,0.999 4.074,1.322 5.361,0.738 0.853,-0.388 1.976,-1.51 2.791,-2.793 1.109,-1.743 1.287,-2.28 1.287,-3.878 0,-1.228 -0.057,-1.528 -0.436,-2.299 a 5.227,5.227 0 0 0 -2.446,-2.3779996 c -1.05,-0.484 -3.25,-0.474 -4.285,0.018 -0.405,0.193 -0.83,0.35 -0.946,0.35 -0.431,0 -0.909,-0.51 -1.361,-1.452 -1.191,-2.483 -3.54,-3.678 -5.919,-3.012 -1.662,0.466 -3.252,1.998 -3.667,3.536 -0.252,0.934 -0.123,45.3939996 0.134,46.3059996 0.672,2.386 2.387,4.13 4.731,4.813 0.439,0.128 1.305,0.188 2.288,0.159 1.383,-0.041 1.712,-0.108 2.616,-0.53 z" />
  </g>
</svg>
