<?xml version="1.0" encoding="UTF-8" standalone="no"?>
<svg
   xmlns:dc="http://purl.org/dc/elements/1.1/"
   xmlns:cc="http://creativecommons.org/ns#"
   xmlns:rdf="http://www.w3.org/1999/02/22-rdf-syntax-ns#"
   xmlns:svg="http://www.w3.org/2000/svg"
   xmlns="http://www.w3.org/2000/svg"
   xmlns:sodipodi="http://sodipodi.sourceforge.net/DTD/sodipodi-0.dtd"
   xmlns:inkscape="http://www.inkscape.org/namespaces/inkscape"
   width="260.3092"
   height="172.10149"
   viewBox="0 0 244.03962 161.34581"
   id="svg2"
   version="1.1"
   inkscape:version="0.92.3 (2405546, 2018-03-11)"
   sodipodi:docname="Turtle-pres.svg">
  <metadata
     id="metadata22">
    <rdf:RDF>
      <cc:Work
         rdf:about="">
        <dc:format>image/svg+xml</dc:format>
        <dc:type
           rdf:resource="http://purl.org/dc/dcmitype/StillImage" />
        <dc:title></dc:title>
      </cc:Work>
    </rdf:RDF>
  </metadata>
  <defs
     id="defs20" />
  <sodipodi:namedview
     pagecolor="#ffffff"
     bordercolor="#666666"
     borderopacity="1"
     objecttolerance="10"
     gridtolerance="10"
     guidetolerance="10"
     inkscape:pageopacity="0"
     inkscape:pageshadow="2"
     inkscape:window-width="1853"
     inkscape:window-height="1025"
     id="namedview18"
     showgrid="false"
     fit-margin-top="0"
     fit-margin-left="0"
     fit-margin-right="0"
     fit-margin-bottom="0"
     inkscape:zoom="1.1128123"
     inkscape:cx="103.47796"
     inkscape:cy="128.89706"
     inkscape:window-x="67"
     inkscape:window-y="1051"
     inkscape:window-maximized="1"
     inkscape:current-layer="g6"
     inkscape:snap-global="false" />
  <path
     d="m 101.06706,120.27942 c -1.391602,-0.36347 -2.895702,-0.99004 -3.340522,-1.39333 -1.97316,-1.78449 -3.4011,-5.63733 -3.94632,-10.65503 -0.21635,-1.96624 -0.36693,-2.3401 -0.88273,-2.18086 -0.34097,0.10557 -1.85199,0.45002 -3.35609,0.76156 -10.7537,2.2449 -24.08635,2.37472 -36.0949,0.3531 -1.84162,-0.31156 -3.41149,-0.49848 -3.4911,-0.41887 -0.16789,0.16616 1.48505,5.83639 2.30201,7.90301 0.70965,1.79661 0.47079,2.36779 -1.29293,3.07397 -6.79527,2.71742 -16.46027,2.52356 -23.22266,-0.46733 -2.57029,-1.13716 -3.04628,-2.34701 -2.98743,-7.59664 0.0312,-3.11551 0.27348,-5.1856 0.84812,-7.32664 0.44136,-1.64257 0.8031,-3.099935 0.8031,-3.240132 0,-0.140199 -0.93119,-0.896575 -2.07008,-1.678914 -2.03201,-1.401979 -8.65766,-8.008589 -9.84328,-9.817315 -0.43617,-0.668104 -1.60968,-1.251397 -4.2544,-2.122008 C 6.4819279,84.236441 5.3499679,83.575261 2.9042879,81.181512 0.10725793,78.450249 -0.76855207,75.133964 0.70957793,72.889067 1.8121279,71.215345 4.3512679,69.704324 7.9046879,68.608703 l 3.2107001,-0.990039 3.27129,-6.62911 C 28.347608,32.69035 47.312408,14.81079 67.532058,10.88352 c 4.69403,-0.91043 12.69744,-0.8135 17.6407,0.21462 18.694792,3.88573 37.271872,17.80686 57.436142,43.040755 l 3.44436,4.313249 2.74339,0.692336 c 2.84549,0.718297 4.28382,1.521407 4.97962,2.781457 0.22501,0.405016 0.45002,0.808301 0.5054,0.898305 0.20771,0.337514 2.45434,-2.109892 3.09474,-3.369942 1.55776,-3.070507 1.35006,-6.070049 -0.98485,-14.13576 -2.83338,-9.79308 -3.71092,-16.1591 -3.42705,-24.85483 0.20769,-6.41449 0.68714,-8.99517 2.34182,-12.61782 1.21678,-2.66376 3.99131,-5.53868 6.56854,-6.80219 C 163.80128,0.09347 164.37766,0 168.14915,0 c 3.56033,0 4.61096,0.15405 7.36126,1.07312 14.86097,4.97616 32.76823,19.65367 38.84693,31.84051 4.52961,9.08343 3.75073,16.98471 -2.21548,22.497432 -3.76803,3.480716 -8.42917,5.157898 -14.35902,5.164822 -5.50926,0.0069 -10.33312,-1.180432 -15.65198,-3.851116 -1.65295,-0.830802 -3.05493,-1.363901 -3.11551,-1.183893 -0.0554,0.180007 -0.96581,1.770648 -2.01642,3.534372 -6.69835,11.267757 -16.96568,19.636359 -28.89462,23.556707 -3.46513,1.138893 -3.92554,1.69103 -3.92554,4.714804 0,3.373404 2.43702,8.996898 6.77277,15.632932 1.46602,2.24317 2.6655,4.37556 2.6655,4.73904 0,1.26351 -4.00517,4.47076 -7.10683,5.69099 -4.10209,1.61315 -9.09902,1.68757 -13.80863,0.20771 -4.765,-1.49891 -7.01855,-6.29161 -7.01855,-14.930219 0,-2.063159 -0.15231,-3.750727 -0.33924,-3.750727 -0.24925,0 -6.45429,3.613991 -7.53262,4.387676 -0.22154,0.157506 1.84508,6.11332 3.58285,10.32445 l 1.62871,3.95323 -2.16181,2.0874 c -4.84116,4.67326 -12.59012,6.46987 -19.79386,4.59018 z m 12.04489,-2.71742 c 2.26221,-0.77888 5.24271,-2.53395 6.31583,-3.71957 0.61618,-0.68195 0.56598,-0.92253 -1.04023,-4.99692 -2.95974,-7.51358 -4.63,-14.604823 -4.31844,-18.353818 0.11078,-1.344862 0.0312,-1.955848 -0.24405,-1.851998 -0.58848,0.218086 -12.08644,2.803958 -14.622122,3.286862 -2.49414,0.475981 -2.36433,0.152315 -2.94935,7.349141 -0.7581,9.351713 0.89658,16.870483 3.999972,18.168613 3.31802,1.38467 9.01766,1.43659 12.85839,0.11769 z m -66.592262,-1.06273 c 1.61832,-0.38598 3.03242,-0.79446 3.1432,-0.90523 0.1125,-0.11251 -0.30463,-1.78969 -0.92427,-3.72996 -2.15144,-6.72603 -2.52356,-13.55246 -0.88793,-16.323533 0.43272,-0.735606 0.66985,-1.40371 0.52272,-1.488521 -0.14366,-0.08135 -1.53698,-0.270011 -3.09473,-0.418863 -1.55776,-0.148852 -5.19252,-0.683681 -8.07609,-1.189085 -2.88532,-0.505406 -5.28599,-0.874074 -5.33619,-0.816957 -0.3202,0.366938 -2.90261,7.80435 -3.57244,10.293299 -0.92081,3.42533 -1.35871,8.3184 -0.9762,10.88005 0.25444,1.6893 0.30809,1.74468 2.41106,2.53914 5.21675,1.96795 11.57931,2.40759 16.79087,1.15966 z m 99.563002,-5.65292 c 1.3414,-0.65598 2.99089,-1.67026 3.66418,-2.25355 l 1.22717,-1.06447 -2.11508,-3.18128 c -4.59538,-6.914696 -7.74723,-14.942325 -7.19683,-18.331306 l 0.21116,-1.311976 -1.27562,1.119852 c -0.701,0.616179 -1.66853,1.241011 -2.14971,1.388132 -0.48117,0.147122 -3.04107,1.536985 -5.68753,3.089547 l -4.81173,2.821267 v 3.335325 c 0,6.625649 1.19948,11.693549 3.21935,13.590549 1.50238,1.41062 5.1631,2.26739 9.06441,2.11854 2.9078,-0.11077 3.77323,-0.30462 5.85023,-1.32063 z m -62.111132,-5.52483 c 2.07701,-0.31329 3.99997,-0.65426 4.2769,-0.75811 0.3254,-0.12116 -0.20769,-0.83946 -1.5266,-2.04239 -2.03719,-1.86238 -3.73515,-4.716536 -4.25786,-7.155288 -0.26655,-1.247934 -0.29943,-1.266974 -1.83469,-1.035041 -0.86196,0.129813 -5.94024,0.346168 -11.28507,0.481173 -10.90427,0.273472 -10.22751,0.03635 -9.14228,3.172627 0.78926,2.284709 2.79184,4.919039 5.17174,6.807389 l 1.98874,1.57506 6.41622,-0.23712 c 3.53091,-0.12982 8.11763,-0.49329 10.1929,-0.8083 z m -20.81852,-0.38079 c -1.85373,-1.46256 -4.01554,-5.019431 -4.70442,-7.736847 l -0.61964,-2.454329 -2.72953,-0.112505 c -3.03935,-0.12462 -4.14709,0.335782 -5.04885,2.097777 -0.746,1.457366 -1.10774,3.984394 -0.81349,5.711764 l 0.2475,1.46775 3.27648,0.6231 c 4.46037,0.84812 7.44779,1.24621 9.69269,1.29813 l 1.88835,0.0433 -1.18736,-0.93638 z m 30.09928,-1.65295 c 0.21462,-0.2302 1.18216,-10.291565 1.00389,-10.450802 -0.052,-0.04327 -1.6218,0.148852 -3.49111,0.429247 -1.8693,0.280396 -4.12805,0.548676 -5.02289,0.595408 -0.89484,0.045 -1.71353,0.228471 -1.82084,0.401555 -0.42233,0.68195 1.11812,4.10728 2.60664,5.798312 2.33317,2.64991 4.31152,3.97573 5.51445,3.69188 0.54349,-0.12636 1.08697,-0.33752 1.20813,-0.46733 z M 124.08893,92.6362 a 942.98666,942.98666 0 0 0 7.17952,-4.361713 l 0.86542,-0.548675 -0.9935,-1.182163 c -0.76157,-0.905228 -0.94331,-1.438327 -0.77369,-2.284707 0.18867,-0.938114 0.12289,-1.064465 -0.4379,-0.84811 -0.36348,0.141929 -3.36475,1.173508 -6.66892,2.29336 -3.30591,1.121583 -6.14967,2.255282 -6.31756,2.521832 -0.36348,0.571177 -0.42059,5.356945 -0.083,7.04105 0.12981,0.649065 0.38944,1.180432 0.5781,1.180432 0.18693,0 3.18128,-1.713529 6.65335,-3.811306 z m -95.630542,0.934653 c 0.55041,-1.376016 0.95023,-2.535679 0.88965,-2.578949 -0.29252,-0.2077 -10.69831,-2.748572 -10.81775,-2.639529 -0.46213,0.424056 7.54646,7.717808 8.47419,7.717808 0.24925,0 0.90351,-1.125045 1.45391,-2.49933 z m 53.62483,-1.845074 c 14.05786,-1.237549 28.333822,-4.240554 41.332422,-8.69227 8.61091,-2.949348 10.27598,-3.764574 11.37507,-5.5733 2.71568,-4.472485 8.32533,-9.696154 13.69785,-12.752814 1.57506,-0.894845 2.86281,-1.737762 2.86281,-1.869306 0,-0.394631 -1.59064,-1.003886 -3.83381,-1.471212 -1.9645,-0.406748 -2.29683,-0.361746 -5.24444,0.714835 -4.89308,1.784495 -8.05879,3.852847 -11.98087,7.826851 -3.77323,3.81996 -4.42402,4.202475 -10.47676,6.141013 -26.326052,8.432645 -59.090822,9.606153 -88.691612,3.176089 -5.26175,-1.144084 -13.70651,-3.420137 -18.30881,-4.93635 -3.1795501,-1.047157 -3.2072401,-1.067927 -3.1518601,-2.284707 0.0312,-0.675026 -0.0917,-1.225434 -0.27,-1.225434 -0.89659,0 -4.65942,1.687568 -5.68408,2.551256 -1.06619,0.896575 -1.151,1.131968 -0.97446,2.7053 0.17136,1.509291 0.46906,1.980079 2.41452,3.800921 1.95931,1.834688 2.70357,2.241436 6.3573701,3.477254 14.39538,4.863655 25.37063,7.12413 42.454,8.735541 4.13151,0.391169 22.41089,0.180007 28.12266,-0.321936 z M 142.24715,81.669608 c 8.10379,-1.742954 15.6537,-5.557721 22.20666,-11.221023 4.41364,-3.814768 10.42657,-11.64508 12.16606,-15.844094 0.46387,-1.121583 0.42233,-1.228895 -1.10773,-2.783191 -1.71353,-1.74122 -3.44437,-4.8325 -4.12632,-7.36471 l -0.42406,-1.57853 -2.53914,-0.11077 c -2.42491,-0.10558 -2.53741,-0.15232 -2.53741,-1.05581 0,-0.90004 0.12809,-0.9537 2.88704,-1.20467 3.91169,-0.35482 5.42791,-1.03677 6.14794,-2.75895 0.4552,-1.09043 0.75292,-1.35006 1.43141,-1.25313 1.99738,0.28386 0.315,4.68019 -2.0822,5.44002 -0.62311,0.19905 -0.69407,0.45868 -0.48291,1.78277 0.54867,3.42186 4.30113,7.95839 8.6715,10.480225 2.67241,1.542176 8.32533,3.298977 11.89779,3.698801 8.95362,1.002155 15.89082,-1.93854 18.99941,-8.053596 2.85934,-5.62176 1.27043,-13.13706 -4.48287,-21.19584 -4.07613,-5.71523 -11.76971,-12.74589 -19.39405,-17.72379 -16.88086,-11.02197 -27.61726,-11.53257 -32.07936,-1.52486 -1.6616,3.72476 -2.08739,6.54256 -2.03892,13.43996 0.0571,8.22494 1.2237,15.06002 4.14882,24.3477 1.16484,3.69534 1.55775,8.406679 0.92253,11.053132 -1.01773,4.244015 -3.62611,6.681035 -8.63688,8.070899 -1.36736,0.379053 -3.42533,1.308513 -4.57634,2.068351 -2.76934,1.824304 -8.63688,7.712615 -10.32098,10.359066 -0.73907,1.159662 -1.78623,2.398943 -2.32798,2.753765 -2.46126,1.61314 0.6733,1.685836 7.67799,0.178275 z M 174.41306,23.8198 c -1.78797,-1.90392 -1.22544,-5.83292 0.95195,-6.66026 3.07224,-1.16832 5.46946,2.69318 3.74554,6.0285 -0.93639,1.81219 -3.29032,2.12894 -4.69749,0.63003 z m 14.31921,-2.48202 c -1.47293,-1.47294 -1.43659,-3.94804 0.0849,-5.57676 2.16527,-2.31933 5.36386,0.61098 4.4344,4.06401 -0.60925,2.2622 -2.97704,3.05493 -4.51748,1.51275 z M 75.883358,61.95363 c 0,-10.35561 -0.052,-18.87652 -0.10905,-18.93537 -0.56252,-0.54348 -5.97139,-2.93204 -7.70742,-3.4011 -4.76499,-1.2912 -11.59142,-1.05062 -14.85751,0.52098 -1.59237,0.76677 -3.80266,4.42403 -7.45819,12.332228 -3.68322,7.972241 -10.29156,24.880799 -9.86924,25.249467 0.28905,0.252703 13.80171,2.118546 18.07861,2.495869 6.45602,0.571177 7.87012,0.624833 15.20887,0.595409 l 6.71566,-0.03288 V 61.950176 Z m 10.59619,18.246497 c 4.86884,-0.488097 12.88262,-1.656413 16.797782,-2.449136 7.21068,-1.459098 18.25342,-4.56422 18.25342,-5.133666 0,-0.981386 -2.58587,-7.099899 -4.81346,-11.388915 -2.88184,-5.547338 -6.85759,-11.80432 -11.46507,-18.04745 -2.70011,-3.65553 -3.33186,-4.28383 -5.375982,-5.32925 -1.96278,-1.00389 -2.83339,-1.20813 -5.71177,-1.34313 -4.91039,-0.22847 -8.56765,1.09042 -13.68574,4.93808 l -1.9818,1.48852 v 37.657847 h 2.03719 c 1.11985,0 3.79573,-0.176545 5.94543,-0.3929 z m -52.90307,-3.568989 c 0,-0.82561 4.18689,-11.925475 7.04451,-18.675744 2.54779,-6.023317 6.30025,-13.760164 7.89955,-16.294114 0.50194,-0.79445 0.91041,-1.68757 0.91041,-1.987 0,-0.79099 -4.01208,-4.24055 -6.19813,-5.33098 -2.21547,-1.10428 -5.10597,-1.23928 -7.34568,-0.34271 -2.26393,0.90523 -8.35821,8.84805 -14.02671,18.281116 -3.06185,5.093857 -9.56115,18.346885 -9.31364,18.990758 0.21462,0.56079 6.07871,2.371248 14.4248,4.453446 6.58584,1.642565 6.60489,1.644297 6.60489,0.905228 z M 125.24686,71.53382 c 0.13847,0 1.01773,-0.957153 1.95065,-2.1272 0.9312,-1.170046 2.85762,-3.037621 4.28037,-4.152281 2.46644,-1.931615 9.56115,-5.800039 10.63774,-5.800039 1.23754,0 0.77541,-0.995232 -2.14278,-4.621338 -5.09732,-6.331412 -9.40365,-11.181212 -14.22231,-16.010252 -6.09081,-6.1064 -8.44129,-8.06571 -10.15482,-8.4638 -1.92989,-0.44656 -5.2756,-0.42752 -6.96316,0.0381 -1.7568,0.4881 -3.60188,2.57029 -3.91342,4.4171 -0.13328,0.78234 -0.31156,1.68064 -0.39464,1.99738 -0.0848,0.31502 1.49372,2.86281 3.50668,5.66158 7.27124,10.109824 13.60785,21.304887 15.43908,27.278009 0.47597,1.547369 0.82387,2.123738 1.19427,1.98181 0.28905,-0.110774 0.64041,-0.200778 0.78234,-0.200778 z M 79.708508,38.97156 c 6.95277,-4.98655 13.88478,-6.36429 19.86656,-3.94977 l 2.289902,0.926 0.2527,-1.17698 c 0.90523,-4.19382 3.93766,-6.80046 8.46899,-7.27471 l 2.27778,-0.23712 -2.55645,-1.852 C 102.38076,19.65714 93.207318,15.35081 85.103538,13.56632 c -4.1471,-0.91216 -11.80433,-1.10428 -16.04315,-0.40156 -6.97528,1.15793 -12.89994,3.5863 -19.43212,7.96186 -3.85112,2.58068 -11.14313,8.62823 -11.14313,9.23921 0,0.14712 1.02292,0.45694 2.27604,0.69061 3.16744,0.58848 5.34137,1.7741 8.33227,4.54172 l 2.57029,2.3799 2.37644,-0.73388 c 6.43007,-1.98527 14.73462,-0.971 20.87044,2.54953 l 1.95931,1.12331 c 0.0381,0.026 1.31717,-0.8533 2.83858,-1.94546 z"
     id="path4"
     inkscape:connector-curvature="0" />
  <g
     transform="matrix(1.7308383,0,0,1.7308383,442.02142,-685.59716)"
     id="g6"
     style="fill:#ff0000">
    <g
       id="g821"
       transform="translate(-18.92964,24.116729)">
      <circle
         id="circle12"
         r="3.6619999"
         cy="443.444"
         cx="-155.91299" />
      <path
         style="fill-rule:evenodd;stroke:#ff0000;stroke-width:4;stroke-linecap:round"
         inkscape:connector-curvature="0"
         id="path14"
         d="m -164.858,451.147 h 17.25" />
      <circle
         id="circle16"
         r="3.6619999"
         cy="458.59601"
         cx="-155.91299" />
    </g>
    <g
       id="g992"
       transform="matrix(1.6238363,0,0,1.6238363,-301.88153,345.32536)">
      <circle
         r="14.559162"
         cy="73.815468"
         cx="100.60208"
         id="path992-2"
         style="opacity:1;fill:#ececec;fill-opacity:1;stroke:#008000;stroke-width:0.60844254;stroke-linecap:round;stroke-linejoin:round;stroke-miterlimit:4;stroke-dasharray:none;stroke-opacity:1" />
      <path
         sodipodi:nodetypes="cccc"
         inkscape:connector-curvature="0"
         id="path1773-2-3-1-8-9"
         d="m 106.97785,82.141683 h -3.35236 V 63.316223 H 97.540294 V 81.99432 h -3.65214"
         style="fill:none;stroke:#008000;stroke-width:1.52110636;stroke-linecap:round;stroke-linejoin:miter;stroke-miterlimit:4;stroke-dasharray:none;stroke-opacity:1" />
    </g>
  </g>
</svg>
