<?xml version="1.0" encoding="UTF-8" standalone="no"?>
<!-- Created with Inkscape (http://www.inkscape.org/) -->

<svg
   xmlns:dc="http://purl.org/dc/elements/1.1/"
   xmlns:cc="http://creativecommons.org/ns#"
   xmlns:rdf="http://www.w3.org/1999/02/22-rdf-syntax-ns#"
   xmlns:svg="http://www.w3.org/2000/svg"
   xmlns="http://www.w3.org/2000/svg"
   xmlns:xlink="http://www.w3.org/1999/xlink"
   xmlns:sodipodi="http://sodipodi.sourceforge.net/DTD/sodipodi-0.dtd"
   xmlns:inkscape="http://www.inkscape.org/namespaces/inkscape"
   width="121.79741mm"
   height="67.719391mm"
   viewBox="0 0 121.79741 67.719391"
   version="1.1"
   id="svg8"
   inkscape:version="0.92.3 (2405546, 2018-03-11)"
   sodipodi:docname="Toggle-button-1.svg">
  <defs
     id="defs2">
    <linearGradient
       gradientTransform="matrix(-0.01299404,-0.01966182,0.0193174,-0.0149319,151.65408,290.08242)"
       gradientUnits="userSpaceOnUse"
       y2="2300.2148"
       x2="6069.0566"
       y1="2538.05"
       x1="5466.6807"
       id="linearGradient4148"
       xlink:href="#linearGradient4142"
       inkscape:collect="always" />
    <linearGradient
       id="linearGradient4142"
       inkscape:collect="always">
      <stop
         id="stop4144"
         offset="0"
         style="stop-color:#c3875c;stop-opacity:1" />
      <stop
         style="stop-color:#eccba3;stop-opacity:1"
         offset="0.47961685"
         id="stop4150" />
      <stop
         id="stop4146"
         offset="1"
         style="stop-color:#fce0cb;stop-opacity:1" />
    </linearGradient>
  </defs>
  <sodipodi:namedview
     id="base"
     pagecolor="#ffffff"
     bordercolor="#666666"
     borderopacity="1.0"
     inkscape:pageopacity="0.0"
     inkscape:pageshadow="2"
     inkscape:zoom="0.7"
     inkscape:cx="226.94328"
     inkscape:cy="21.101418"
     inkscape:document-units="mm"
     inkscape:current-layer="layer1"
     showgrid="false"
     inkscape:window-width="1853"
     inkscape:window-height="1025"
     inkscape:window-x="67"
     inkscape:window-y="1107"
     inkscape:window-maximized="1"
     fit-margin-top="0"
     fit-margin-left="0"
     fit-margin-right="0"
     fit-margin-bottom="0" />
  <metadata
     id="metadata5">
    <rdf:RDF>
      <cc:Work
         rdf:about="">
        <dc:format>image/svg+xml</dc:format>
        <dc:type
           rdf:resource="http://purl.org/dc/dcmitype/StillImage" />
        <dc:title></dc:title>
      </cc:Work>
    </rdf:RDF>
  </metadata>
  <g
     inkscape:label="Layer 1"
     inkscape:groupmode="layer"
     id="layer1"
     transform="translate(-45.775979,-83.713605)">
    <g
       id="g904"
       transform="translate(183.79755,-51.174105)">
      <path
         inkscape:export-filename="/home/obijuan/develop/digital-electronics-with-open-FPGAs-tutorial/wiki/Tutorial-09/src/temp/anim/Button-off.png"
         inkscape:export-ydpi="90"
         inkscape:export-xdpi="90"
         inkscape:connector-curvature="0"
         id="path4192-6"
         d="m -117.19042,184.27813 a 20.690073,9.0937903 0 0 0 -13.73338,2.30728 l -5.43375,0.006 -1.28492,5.48157 a 20.690073,9.0937903 0 0 0 -0.23799,1.2993 20.690073,9.0937903 0 0 0 20.69004,9.09371 20.690073,9.0937903 0 0 0 20.690241,-9.09371 20.690073,9.0937903 0 0 0 -0.0284,-0.35137 l 0.0638,7.1e-4 -1.277581,-6.47145 -5.77809,0.006 a 20.690073,9.0937903 0 0 0 -13.66996,-2.27804 z"
         style="display:inline;opacity:1;fill:#333333;fill-opacity:1;stroke:#000000;stroke-width:0.28222221;stroke-linecap:round;stroke-linejoin:round;stroke-miterlimit:4;stroke-dasharray:none;stroke-dashoffset:0;stroke-opacity:1" />
      <ellipse
         inkscape:export-filename="/home/obijuan/develop/digital-electronics-with-open-FPGAs-tutorial/wiki/Tutorial-09/src/temp/anim/Button-off.png"
         inkscape:export-ydpi="90"
         inkscape:export-xdpi="90"
         ry="6.7620497"
         rx="19.407871"
         cy="187.34097"
         cx="-117.07378"
         id="path4192"
         style="display:inline;opacity:1;fill:#666666;fill-opacity:1;stroke:#000000;stroke-width:0.28222224;stroke-linecap:round;stroke-linejoin:round;stroke-miterlimit:4;stroke-dasharray:none;stroke-dashoffset:0;stroke-opacity:1" />
      <g
         inkscape:export-filename="/home/obijuan/develop/digital-electronics-with-open-FPGAs-tutorial/wiki/Tutorial-09/src/temp/anim/Button-off.png"
         inkscape:export-ydpi="90"
         inkscape:export-xdpi="90"
         transform="matrix(0.10179206,0,0,0.10181238,-158.55951,146.07913)"
         inkscape:label="Layer 2"
         id="layer2-2"
         style="display:inline;stroke-width:2.77225995">
        <g
           transform="translate(0.31156048,-5.3326452)"
           id="g4187"
           style="stroke-width:2.77225995">
          <ellipse
             style="opacity:1;fill:#008000;fill-opacity:1;stroke:#000000;stroke-width:2.77225971;stroke-linecap:round;stroke-linejoin:round;stroke-miterlimit:4;stroke-dasharray:none;stroke-dashoffset:0;stroke-opacity:1"
             id="path4170-3-7"
             cx="406.08701"
             cy="399.21625"
             rx="184.22064"
             ry="72.858047" />
          <ellipse
             style="opacity:1;fill:#00ff00;fill-opacity:1;stroke:#000000;stroke-width:2.77225971;stroke-linecap:round;stroke-linejoin:round;stroke-miterlimit:4;stroke-dasharray:none;stroke-dashoffset:0;stroke-opacity:1"
             id="path4170-0"
             cx="406.23013"
             cy="383.32779"
             rx="179.49704"
             ry="60.977467" />
        </g>
      </g>
    </g>
    <g
       transform="translate(-44.500064,-31.519335)"
       id="g1020">
      <g
         id="g981">
        <path
           sodipodi:nodetypes="cccccccccccccccc"
           inkscape:connector-curvature="0"
           id="path3338"
           d="m 126.16067,115.38711 c -1.52338,1.51389 -2.14039,3.3069 -2.02374,5.32583 -0.50685,1.09707 -2.4109,2.34584 -2.02665,3.26683 -1.19649,1.92371 -1.6238,3.38923 -1.57181,4.56926 -0.54468,1.23936 -0.40343,1.7047 -0.34889,2.26804 -2.2657,3.4969 -4.09142,8.2545 -5.87792,13.12449 -2.30176,2.76536 -3.63916,5.7923 -4.89794,8.84056 -2.19098,3.7003 -3.75532,7.66981 -4.01902,11.39373 l -0.26617,0.55839 c 2.99614,3.107 4.94624,1.52332 7.01831,0.74627 6.63698,-3.11177 9.5037,-8.51998 12.21254,-14.02437 0.47261,-1.57181 1.57011,-3.12686 3.15082,-4.66892 4.41427,-4.7853 6.88557,-10.02183 9.85692,-15.14224 0.22837,-0.42844 0.57921,-1.03246 1.14248,-1.94104 1.67496,-1.79454 3.41809,-4.99706 5.13275,-7.61149 z"
           style="fill:url(#linearGradient4148);fill-opacity:1;fill-rule:evenodd;stroke:#000000;stroke-width:0.26458335px;stroke-linecap:butt;stroke-linejoin:miter;stroke-opacity:1" />
      </g>
      <path
         style="fill:#f8ecf8;fill-opacity:1;fill-rule:evenodd;stroke:#000000;stroke-width:0.26458335px;stroke-linecap:butt;stroke-linejoin:miter;stroke-opacity:1"
         d="m 108.76195,154.14435 c -2.36188,2.82307 -3.50605,6.29719 -4.22813,10.20357 0.51781,0.12911 1.30265,-0.44447 2.15489,-1.19549 2.57527,-6.0679 1.84829,-7.14281 2.07324,-9.00808 z"
         id="path3340"
         inkscape:connector-curvature="0"
         sodipodi:nodetypes="cccc" />
      <path
         style="fill:none;fill-rule:evenodd;stroke:#000000;stroke-width:0.26458335px;stroke-linecap:butt;stroke-linejoin:miter;stroke-opacity:1"
         d="m 124.06572,120.89898 c 2.09364,-0.057 3.85338,0.53081 5.37343,1.58168"
         id="path4207"
         inkscape:connector-curvature="0"
         sodipodi:nodetypes="cc" />
      <path
         style="fill:none;fill-rule:evenodd;stroke:#000000;stroke-width:0.26458335px;stroke-linecap:butt;stroke-linejoin:miter;stroke-opacity:1"
         d="m 122.10802,123.99151 c 2.00116,0.28671 3.9463,0.66384 5.42844,1.7885"
         id="path4209"
         inkscape:connector-curvature="0"
         sodipodi:nodetypes="cc" />
      <path
         style="fill:none;fill-rule:evenodd;stroke:#000000;stroke-width:0.26458335px;stroke-linecap:butt;stroke-linejoin:miter;stroke-opacity:1"
         d="m 120.60721,128.39323 c 1.32501,-0.48065 3.01987,0.0985 4.82903,1.00505"
         id="path4211"
         inkscape:connector-curvature="0"
         sodipodi:nodetypes="cc" />
      <path
         style="fill:none;fill-rule:evenodd;stroke:#000000;stroke-width:0.26458335px;stroke-linecap:butt;stroke-linejoin:miter;stroke-opacity:1"
         d="m 120.25529,130.82635 1.79049,0.36153"
         id="path4213"
         inkscape:connector-curvature="0" />
    </g>
    <text
       xml:space="preserve"
       style="font-style:normal;font-variant:normal;font-weight:normal;font-stretch:normal;font-size:32.21253967px;line-height:1.25;font-family:ubuntu;-inkscape-font-specification:ubuntu;letter-spacing:0px;word-spacing:0px;fill:#000000;fill-opacity:1;stroke:none;stroke-width:2.01328373"
       x="95.622704"
       y="119.34039"
       id="text829-8"><tspan
         sodipodi:role="line"
         id="tspan827-3"
         x="95.622704"
         y="119.34039"
         style="font-style:normal;font-variant:normal;font-weight:500;font-stretch:normal;font-family:ubuntu;-inkscape-font-specification:'ubuntu Medium';stroke-width:2.01328373">1</tspan></text>
    <path
       style="fill:#008000;stroke:#000000;stroke-width:0.52916676;stroke-linecap:butt;stroke-linejoin:miter;stroke-miterlimit:4;stroke-dasharray:none;stroke-opacity:1"
       d="m 156.85297,93.759379 6.4234,-6.173128 -0.75079,20.271229 -19.85412,-0.75079 6.08971,-6.00629 c 0,0 -4.67156,-4.921821 -12.9302,-5.005241 -8.25866,-0.0834 -13.26389,4.588141 -13.26389,4.588141 l 0.0834,-6.840501 -5.17208,-2.252358 c 0,0 8.0918,-6.33997 18.85307,-5.83944 10.76127,0.50052 20.52148,8.008378 20.52148,8.008378 z"
       id="path849-7"
       inkscape:connector-curvature="0" />
    <path
       style="fill:#008000;stroke:#000000;stroke-width:0.52916676;stroke-linecap:butt;stroke-linejoin:miter;stroke-miterlimit:4;stroke-dasharray:none;stroke-opacity:1"
       d="m 113.21532,140.40728 -6.42339,6.17313 0.75078,-20.27122 19.85413,0.75079 -6.08971,6.00628 c 0,0 4.67156,4.92182 12.9302,5.00524 8.25865,0.0834 13.26389,-4.58813 13.26389,-4.58813 l -0.0834,6.84048 5.17208,2.25236 c 0,0 -8.09181,6.33997 -18.85307,5.83946 -10.76127,-0.50053 -20.52149,-8.00839 -20.52149,-8.00839 z"
       id="path849-3-8"
       inkscape:connector-curvature="0" />
    <text
       xml:space="preserve"
       style="font-style:normal;font-variant:normal;font-weight:normal;font-stretch:normal;font-size:32.21253967px;line-height:1.25;font-family:ubuntu;-inkscape-font-specification:ubuntu;letter-spacing:0px;word-spacing:0px;fill:#000000;fill-opacity:1;stroke:none;stroke-width:2.01328373"
       x="150.6618"
       y="135.94098"
       id="text829-7-4"><tspan
         sodipodi:role="line"
         id="tspan827-9-9"
         x="150.6618"
         y="135.94098"
         style="font-style:normal;font-variant:normal;font-weight:500;font-stretch:normal;font-family:ubuntu;-inkscape-font-specification:'ubuntu Medium';stroke-width:2.01328373">0</tspan></text>
  </g>
</svg>
