<?xml version="1.0" encoding="UTF-8" standalone="no"?>
<!-- Created with Inkscape (http://www.inkscape.org/) -->

<svg
   xmlns:dc="http://purl.org/dc/elements/1.1/"
   xmlns:cc="http://creativecommons.org/ns#"
   xmlns:rdf="http://www.w3.org/1999/02/22-rdf-syntax-ns#"
   xmlns:svg="http://www.w3.org/2000/svg"
   xmlns="http://www.w3.org/2000/svg"
   xmlns:sodipodi="http://sodipodi.sourceforge.net/DTD/sodipodi-0.dtd"
   xmlns:inkscape="http://www.inkscape.org/namespaces/inkscape"
   width="93.865692mm"
   height="63.779968mm"
   viewBox="0 0 332.59497 225.99201"
   id="svg2"
   version="1.1"
   inkscape:version="0.92.0 r15299"
   sodipodi:docname="3_ splitter.svg">
  <defs
     id="defs4" />
  <sodipodi:namedview
     id="base"
     pagecolor="#ffffff"
     bordercolor="#666666"
     borderopacity="1.0"
     inkscape:pageopacity="0.0"
     inkscape:pageshadow="2"
     inkscape:zoom="1.979899"
     inkscape:cx="155.55065"
     inkscape:cy="85.921379"
     inkscape:document-units="px"
     inkscape:current-layer="layer2"
     showgrid="false"
     showguides="true"
     inkscape:guide-bbox="true"
     inkscape:window-width="1920"
     inkscape:window-height="1017"
     inkscape:window-x="-8"
     inkscape:window-y="-8"
     inkscape:window-maximized="1"
     inkscape:snap-global="true"
     fit-margin-top="0"
     fit-margin-left="0"
     fit-margin-right="0"
     fit-margin-bottom="0" />
  <metadata
     id="metadata7">
    <rdf:RDF>
      <cc:Work
         rdf:about="">
        <dc:format>image/svg+xml</dc:format>
        <dc:type
           rdf:resource="http://purl.org/dc/dcmitype/StillImage" />
        <dc:title></dc:title>
      </cc:Work>
    </rdf:RDF>
  </metadata>
  <g
     inkscape:label="Layer 1"
     inkscape:groupmode="layer"
     id="layer1"
     style="display:inline"
     transform="translate(-184.13054,-190.83615)" />
  <g
     inkscape:groupmode="layer"
     id="layer2"
     inkscape:label="Layer 2"
     style="display:inline"
     transform="translate(-184.13054,-190.83615)">
    <path
       id="path4302-1-2"
       style="display:inline;opacity:1;fill:#008000;fill-opacity:1;stroke:#000000;stroke-width:0.99999994;stroke-linecap:round;stroke-linejoin:round;stroke-miterlimit:4;stroke-dasharray:none;stroke-dashoffset:0;stroke-opacity:1"
       d="m 352.02343,268.47913 61.14709,-60.93784 c 10.68433,-10.45534 25.03442,-16.2442 39.95909,-16.20494 h 62.6117 v 26.18621 l -61.69807,0.0456 c -8.01174,-0.0428 -15.70507,3.13284 -21.46956,8.81038 l -61.4484,61.31435 c -10.71816,10.38367 -25.06825,16.17257 -39.99292,16.13927 14.92467,-0.0333 29.27476,5.75561 39.99292,16.13928 l 61.4484,61.31434 c 5.76449,5.67753 13.45782,8.8532 21.46956,8.81038 l 61.69807,0.0456 v 26.18621 h -62.6117 c -14.92467,0.0392 -29.46299,-5.90016 -40.2038,-16.28023 l -60.90238,-60.86255 c -5.64787,-5.68127 -13.34121,-8.85693 -21.34706,-8.80954 l -146.53004,-0.11399 v -52.96843 h 146.52415 c 8.01174,0.0428 15.70508,-3.13284 21.35295,-8.81412 z"
       inkscape:connector-curvature="0"
       sodipodi:nodetypes="cccccccccccccccccccccc" />
    <rect
       style="opacity:0.61499999;fill:#00000e;fill-opacity:1;stroke:none;stroke-width:0.93897629;stroke-miterlimit:4;stroke-dasharray:none;stroke-opacity:1"
       id="rect17"
       width="187.5"
       height="27.120535"
       x="-516.24133"
       y="290.26566"
       transform="scale(-1,1)" />
    <path
       style="opacity:1;fill:#008000;fill-opacity:1;stroke:none;stroke-width:0.33534867;stroke-miterlimit:4;stroke-dasharray:none;stroke-opacity:1"
       d="M 516.25652,303.73578 V 290.3444 l -73.66072,-0.0852 c -40.51339,-0.0469 -73.66072,0.0166 -73.66071,0.14095 0,0.41735 -5.38083,4.28598 -8.58053,6.1691 -5.2048,3.06318 -12.07771,5.6514 -18.21162,6.85817 l -2.11215,0.41554 3.15193,0.63439 c 4.40526,0.88665 8.49736,2.30663 13.26923,4.60451 3.94362,1.89904 10.37347,5.96938 11.63936,7.36818 0.61146,0.67566 0.76774,0.67708 74.38898,0.67708 h 73.77623 z"
       id="path19"
       inkscape:connector-curvature="0" />
    <path
       style="opacity:1;fill:#008000;fill-opacity:1;stroke:none;stroke-width:0.33534867;stroke-miterlimit:4;stroke-dasharray:none;stroke-opacity:1"
       d="m 516.25652,303.72988 v -13.39727 l -73.58595,0.0881 -73.58596,0.0881 -1.49775,1.21179 c -6.39871,5.17709 -14.97495,9.3222 -23.51402,11.36494 l -3.26628,0.78137 3.26628,0.74125 c 4.28944,0.97346 8.53831,2.50011 12.54383,4.5071 3.92362,1.96596 8.94466,5.0371 10.57078,6.46568 l 1.1883,1.04394 14.42588,0.20942 c 7.93423,0.11519 41.2074,0.22818 73.94038,0.25112 l 59.51451,0.0417 z"
       id="path4496"
       inkscape:connector-curvature="0" />
    <path
       style="opacity:1;fill:#008000;fill-opacity:1;stroke:none;stroke-width:0.33534867;stroke-miterlimit:4;stroke-dasharray:none;stroke-opacity:1"
       d="m 365.07106,315.51765 c -9.1746,-6.69359 -19.45124,-10.43636 -30.20405,-11.00036 -5.73819,-0.30098 -5.46524,-0.867 0.66965,-1.38868 7.66233,-0.65157 13.59076,-2.24197 20.331,-5.45415 3.09653,-1.4757 8.31282,-4.70826 10.72368,-6.64552 l 0.83706,-0.67262 -19.33594,-0.007 -19.33594,-0.007 v 13.56027 13.56027 h 19.48976 19.48975 z"
       id="path4500"
       inkscape:connector-curvature="0" />
    <path
       style="opacity:1;fill:#008000;fill-opacity:1;stroke:none;stroke-width:0.33534867;stroke-miterlimit:4;stroke-dasharray:none;stroke-opacity:1"
       d="m 515.25205,403.34366 v -12.55581 l -30.88727,-9.4e-4 c -20.27439,-6.6e-4 -31.92268,-0.12667 -33.90067,-0.36686 -3.96934,-0.482 -8.37504,-1.92568 -11.88616,-3.89488 -3.35591,-1.88216 -5.39218,-3.8404 -45.3683,-43.62979 -16.13612,-16.06074 -26.65809,-26.27971 -28.125,-27.31512 -9.82245,-6.93304 -18.81626,-10.2071 -30.30134,-11.03074 -5.57915,-0.40011 -5.26578,-0.86629 1.00446,-1.49429 7.92992,-0.79424 14.1924,-2.54312 20.59152,-5.7505 3.69663,-1.85283 8.13787,-4.64404 10.71428,-6.73368 0.92077,-0.74686 16.43974,-16.07145 34.48661,-34.05472 24.95673,-24.86871 33.38833,-33.073 35.21765,-34.26816 2.98019,-1.94706 5.9266,-3.29819 9.35583,-4.2903 l 2.63634,-0.76272 33.23103,-0.10063 33.23102,-0.10064 V 204.4489 191.90393 l -32.56138,0.003 c -19.55777,0.002 -33.7648,0.13703 -35.57477,0.33901 -9.50647,1.06085 -17.83161,4.09602 -25.81716,9.4124 -4.19605,2.79352 -6.15554,4.68387 -45.83463,44.21738 -13.62723,13.57723 -25.60546,25.30611 -26.6183,26.06418 -2.4912,1.86456 -7.25599,4.11628 -10.71429,5.0633 l -2.84598,0.77934 -75.25111,0.0918 -75.25112,0.0918 v 25.94227 25.94224 l 74.58147,0.005 c 71.49956,0.005 74.70599,0.0303 77.59487,0.62946 1.65736,0.34379 3.99031,1.02359 5.18433,1.51067 5.42914,2.21472 5.54341,2.31535 28.1304,24.77378 45.49036,45.23145 46.69091,46.39305 50.70019,49.05529 8.71543,5.78723 18.02813,8.9965 28.28457,9.74721 2.3201,0.16982 18.11764,0.31316 35.10564,0.31853 l 30.88727,0.01 z"
       id="path4506"
       inkscape:connector-curvature="0" />
    <path
       style="opacity:1;fill:#008000;fill-opacity:1;stroke:none;stroke-width:0.35770527;stroke-miterlimit:4;stroke-dasharray:none;stroke-opacity:1"
       d=""
       id="path4508"
       inkscape:connector-curvature="0"
       transform="matrix(0.93749998,0,0,0.93749998,184.13054,190.83615)" />
    <path
       style="opacity:1;fill:#008000;fill-opacity:1;stroke:none;stroke-width:0.93897629;stroke-miterlimit:4;stroke-dasharray:none;stroke-opacity:1"
       id="path4510"
       d="m 339.61186,298.86075 c 0.20625,0.92677 0.41348,1.85089 0.53889,2.79267 0.0876,0.71742 0.10137,1.44053 0.10857,2.16232 0.004,0.57439 -0.34897,0.64947 -0.83758,0.70926 -0.63248,0.0483 -1.26773,0.0345 -1.90147,0.0295 -0.67341,-0.007 -1.34683,-0.009 -2.02026,-0.0109 -0.63574,0.0741 -1.22027,-0.0691 -1.83346,-0.1952 -0.61336,-0.10892 -1.23765,-0.12382 -1.85885,-0.13681 -0.55643,-0.18039 -1.1318,-0.25779 -1.71248,-0.30231 -0.27683,-0.006 -0.58631,-0.0563 -0.84214,-0.17221 -0.0756,-0.0342 -0.2787,-0.17963 -0.20654,-0.13874 4.18015,2.36842 5.67562,2.03377 4.03699,2.37797 -0.1865,0.34995 0.20276,0.061 0.33543,0.0153 0.17078,-0.0589 0.27143,-0.0714 0.4512,-0.10641 0.60767,-0.0907 1.22385,-0.0936 1.83689,-0.0999 0.66872,-0.14345 1.34344,-0.2406 2.02506,-0.29228 0.56823,-0.18223 1.14892,-0.28551 1.74199,-0.33626 0.54789,-0.10494 1.0351,-0.36035 1.5582,-0.53439 0.56005,-0.11211 1.11237,-0.15745 1.66429,-0.30778 0.57097,-0.1464 1.16162,-0.17124 1.74775,-0.19128 0.65978,-0.0157 1.31983,-0.0129 1.97974,-0.0121 0.66258,0.024 1.30151,0.0189 1.94724,-0.13009 0.68462,-0.0862 1.35192,-0.24284 2.02923,-0.37367 0.76213,-0.0667 1.48618,-0.26472 2.20301,-0.52054 0.57556,-0.17414 1.1718,-0.33208 1.70353,-0.61816 0.63828,-0.31209 1.26101,-0.64835 1.89781,-0.96403 0.5728,-0.24624 1.1246,-0.53414 1.68064,-0.81491 0.38607,-0.32847 0.86365,-0.49295 1.31957,-0.69736 0.45799,-0.28474 0.90964,-0.5523 1.35478,-0.85905 0.44993,-0.27049 0.89681,-0.53872 1.35955,-0.78835 0.47786,-0.15477 0.8335,-0.52338 1.28248,-0.73221 0.3909,-0.30054 0.8246,-0.53426 1.22158,-0.82237 0.26244,-0.21233 0.61393,-0.20633 0.89116,-0.38724 0.14792,-0.0965 0.27517,-0.22164 0.41686,-0.32708 2.16877,-0.94922 -2.35334,-3.92408 -4.02383,-2.83299 -0.48595,0.27883 -0.9975,0.52304 -1.47948,0.81055 -0.41217,0.3709 -0.87658,0.6699 -1.32361,0.99608 -0.57244,0.3179 -1.09489,0.71253 -1.63946,1.07318 -0.51182,0.29623 -1.02123,0.59998 -1.52864,0.90597 -0.55232,0.3518 -1.12331,0.70367 -1.7322,0.9504 -0.44605,0.28091 -0.91726,0.52589 -1.34677,0.82975 -0.4464,0.23809 -0.93135,0.35013 -1.35346,0.63995 -0.3973,0.27609 -0.7834,0.56175 -1.1999,0.81209 -0.43924,0.21711 -0.86545,0.45561 -1.30228,0.68053 -0.37459,0.32144 -0.79212,0.57726 -1.18115,0.87569 -0.39725,0.27546 -0.77424,0.57753 -1.21806,0.7775 -0.59937,0.3091 -1.23806,0.55773 -1.88629,0.74612 -0.58736,0.10519 -1.2734,0.3464 -1.80495,-0.0134 -1.59641,-0.963 0.64698,0.39249 3.86588,2.20345 0.0691,0.0389 -0.12658,-0.0956 -0.1897,-0.1437 -0.15042,-0.11453 -0.26746,-0.19945 -0.37012,-0.35632 -0.0406,-0.37447 0.59123,-0.69699 0.85922,-0.86062 0.47495,-0.33523 0.97669,-0.66566 1.51909,-0.88195 0.10164,-0.0626 0.33598,-0.18821 0.41165,-0.30056 0.0357,-0.053 0.23423,-0.49617 0.11183,-0.57594 -3.8493,-2.50852 -2.80607,-2.26398 -4.7506,-2.65639 -0.73457,-0.1585 -1.48574,-0.20103 -2.23457,-0.22676 -0.69435,-0.0169 -1.38899,-0.0132 -2.08349,-0.0118 -0.78113,9e-5 -1.56222,0.007 -2.34334,0.0103 -0.87218,9.4e-4 -1.74434,-0.003 -2.61651,-0.005 -1.15526,0.004 -2.31043,0.0171 -3.46571,0.0171 -1.10269,-0.005 -2.20536,-0.0106 -3.30806,-0.0131 -0.73718,0.0484 -1.54917,-0.1757 -2.21345,0.21015 -0.14896,0.23012 -0.23555,0.29212 -0.24128,0.57833 -0.007,0.34784 0.276,0.55445 0.54607,0.71229 1.52047,0.88861 3.05078,1.76026 4.57617,2.6404 0.65973,0.32284 1.31666,0.67968 2.01199,0.9215 0.59587,0.0796 1.15557,0.26237 1.7387,0.3953 0.5853,0.24351 1.20601,0.37558 1.8132,0.55362 0.59164,0.19276 1.14731,0.42329 1.77089,0.5157 0.63986,0.0999 1.29427,0.007 1.92705,0.13838 0.69311,0.1617 1.40119,0.20842 2.10964,0.23847 0.79522,0.0301 1.59108,0.0252 2.38669,0.0263 0.73657,7.6e-4 1.47314,8.1e-4 2.20971,8.7e-4 0.7643,-0.005 1.52863,-0.003 2.29293,-0.002 0.6956,-0.0543 1.36484,0.13817 2.04858,0.23242 0.69692,-0.0221 1.28461,0.31534 1.93099,0.51514 0.3507,0.26127 0.78262,0.31809 1.17787,0.46367 0.17198,0.0634 0.32933,0.16156 0.49894,0.231 -1.35343,-0.76864 -2.70603,-1.53874 -4.06028,-2.30594 -0.0724,-0.0411 0.14242,0.0862 0.21474,0.1274 1.49898,0.8539 2.97747,1.74505 4.49911,2.55787 1.37598,0.73502 -2.7064,-1.55234 -4.06197,-2.32436 -0.13829,-0.0788 0.27165,0.16596 0.40971,0.24512 2.68108,1.73228 9.08266,5.24707 0.60363,0.40675 -0.0711,-0.0406 0.13435,0.0937 0.20319,0.13796 0.33213,0.2138 0.0677,0.0172 0.38738,0.27018 0.42283,0.312 0.73397,0.75222 1.08647,1.14143 0.43061,0.4911 0.8438,0.99625 1.23546,1.51907 0.4207,0.42856 0.82916,0.86431 1.22613,1.31568 0.32432,0.41496 0.48605,0.923 0.76729,1.36612 0.29983,0.47746 0.3972,1.0434 0.5794,1.57082 0.27073,0.50743 0.37443,1.07227 0.55525,1.61162 0.59999,2.02425 2.99852,3.7396 5.15942,3.47073 0.55675,-0.006 0.99818,-0.25952 1.46296,-0.52855 0.35813,-0.34378 0.7643,-0.61622 1.14918,-0.92306 0.38208,-0.28616 0.76992,-0.55476 1.1836,-0.79597 0.36831,-0.32888 0.83272,-0.45541 1.05876,-0.91924 0.69705,-3.84537 -3.57964,-2.557 -5.38371,-2.99911 -0.0988,-0.0427 -0.19642,-0.0882 -0.29639,-0.12802 -0.60374,-0.24047 -0.059,0.0212 -0.60012,-0.29257 -0.0917,-0.0532 -0.37259,-0.20233 -0.28073,-0.14942 4.19824,2.41787 5.26973,3.17061 3.77867,2.13678 -0.40426,-0.2847 -0.77437,-0.62142 -1.11326,-0.98117 -0.3348,-0.33368 -0.67962,-0.65904 -0.99986,-1.00713 -0.35326,-0.32308 -0.64925,-0.70317 -1.04942,-0.97071 -0.43259,-0.29553 -0.82545,-0.64143 -1.20571,-1.00145 -0.39063,-0.32453 -0.71228,-0.72298 -1.1359,-1.00593 -1.57473,-1.19804 -0.0416,-0.0451 -4.68716,-2.72509 -1.35111,-0.77943 5.38767,3.1454 4.05989,2.32686 -1.52858,-0.94232 -3.13645,-2.3162 -4.9927,-2.72545 0.15568,0.0457 -0.60369,-0.30066 -0.45765,-0.21618 1.2802,0.74056 5.1455,2.91911 3.86042,2.18706 -9.37564,-5.34089 -2.80909,-1.58976 -0.43471,-0.23152 -0.39726,0.25275 -3.23842,-2.40306 -4.9826,-2.73722 -0.2927,-0.0561 -0.55299,-0.0617 -0.83405,-0.16675 -0.34827,-0.16551 -0.74627,-0.13386 -1.10991,-0.22169 -0.17185,-0.0415 -0.33066,-0.12554 -0.49855,-0.18092 -0.0892,-0.0218 -0.18223,-0.0314 -0.26746,-0.0654 -0.0774,-0.0309 -0.14356,-0.0849 -0.21533,-0.12741 -0.0771,-0.0347 -0.15219,-0.0742 -0.2312,-0.10422 -0.26272,-0.0998 -0.53556,-0.13976 -0.81185,-0.17996 -0.63769,-0.0705 -1.2804,-0.0697 -1.92113,-0.0724 -0.6145,0.0671 -1.18754,-0.14352 -1.78688,-0.23516 -0.6306,-0.08 -1.26721,-0.0873 -1.90189,-0.0947 -0.008,0.26099 -0.29587,-0.1159 -0.36828,-0.0166 -0.11003,0.15084 -0.19881,0.3222 -0.24769,0.50239 -0.0137,0.0505 0.19902,0.28918 0.20594,0.29333 1.47457,0.88413 2.97168,1.73012 4.45752,2.59518 0.79948,0.27237 1.59517,0.56564 2.40027,0.82715 1.3423,0.46075 2.73069,0.75278 4.10341,1.10654 1.05357,0.18356 2.043,0.59752 3.0825,0.83088 0.66166,0.147 1.30749,0.32546 1.98461,0.4034 0.11129,0.008 0.22414,0.006 0.33386,0.0263 0.32324,0.0606 0.60519,0.2825 0.4569,0.18883 -1.39806,-0.8831 -2.80305,-1.7552 -4.20037,-2.63945 -0.16481,-0.10429 0.0707,-0.0548 -0.24977,-0.0689 -0.71832,-0.1269 -1.42189,-0.26526 -2.09914,-0.5446 -0.75795,-0.17983 -1.48587,-0.44667 -2.23557,-0.65178 -0.64873,-0.0998 -1.26794,-0.30435 -1.91706,-0.40744 -0.17588,-0.10055 -0.57312,0.0362 -0.73603,-0.11159 -0.0211,-0.0191 -0.0117,-0.10078 0.0116,-0.0845 4.50365,3.14949 2.54456,2.44294 4.38167,3.085 0.62937,0.16846 1.23827,0.44098 1.81553,0.74439 0.58342,0.28355 1.2348,0.46571 1.78131,0.81631 2.03836,1.02031 -5.53403,-3.18429 -3.60572,-2.06339 2.15899,1.25499 3.07566,2.36334 5.02334,2.70269 0.58777,0.14448 1.13113,0.39869 1.70921,0.5694 0.0976,0.0204 0.1983,0.0292 0.29266,0.0614 0.0841,0.0286 0.15895,0.0796 0.23843,0.11933 0.0827,0.0327 0.32495,0.14248 0.24799,0.098 -1.34913,-0.77945 -2.71086,-1.53688 -4.06685,-2.30434 -0.0718,-0.0407 0.14257,0.0831 0.21432,0.12388 1.4998,0.8519 3.00021,1.70271 4.50032,2.55407 0.54567,0.24447 1.16524,0.29636 1.70987,0.53125 0.25938,0.1449 0.56855,0.1396 0.84281,0.22796 0.18737,0.0604 0.30573,0.16342 0.46323,0.27541 -1.34337,-0.77045 -2.68673,-1.54091 -4.03009,-2.31138 0.41479,0.34082 0.69107,0.79271 0.8464,1.30096 0.17605,0.4733 -0.0416,0.87736 -0.12993,1.33014 -0.0174,2.73613 3.48375,2.86622 5.44682,2.86906 0.59149,-0.12506 1.17145,-0.26521 1.75013,-0.43643 3.10276,-0.75297 -1.85374,-2.28144 -3.38701,-3.18539 -0.21287,0.1599 -0.83919,0.73685 -1.07732,0.61527 -0.0584,-1.80223 -0.0579,-0.13337 4.15078,2.26423 0.0453,0.0258 -0.0635,-0.0845 -0.0819,-0.13317 -0.0894,-0.23551 -0.0817,-0.52002 -0.0958,-0.76649 -0.021,-0.65981 -0.013,-1.32016 -0.0102,-1.98019 -0.0364,-0.61197 -0.16698,-1.21882 -0.33252,-1.80821 -0.19506,-0.78739 -0.50927,-1.53622 -0.76822,-2.30358 -0.23717,-0.77673 -0.50051,-1.54794 -0.70585,-2.3341 -0.16641,-0.61915 -0.41641,-1.21124 -0.59821,-1.82549 -0.14565,-0.64677 -0.34065,-1.28012 -0.51108,-1.92061 -0.18422,-0.65854 -0.37148,-1.31528 -0.58918,-1.96378 -0.25714,-0.50617 -0.35039,-1.06589 -0.52423,-1.60014 -0.16263,-0.52302 -0.26099,-1.05931 -0.41842,-1.58428 -0.12954,-0.5514 -0.20284,-1.10865 -0.34705,-1.65729 -0.1534,-0.58138 -0.18605,-1.18282 -0.20947,-1.78069 0.0178,-0.23006 -0.0469,-0.4765 0.0118,-0.70479 0.002,-0.006 0.0115,-0.004 0.0172,-0.005 -0.0198,0.0828 0.0172,0.28576 -0.0592,0.24826 -1.44261,-0.70863 -2.80821,-1.5643 -4.21232,-2.34646 0.37591,0.36318 0.76925,0.70644 1.17255,1.03864 0.33571,0.3815 0.67203,0.75263 1.06827,1.07452 1.54822,1.45277 3.38618,2.87137 5.50385,3.25367 0.74106,-0.0306 0.99082,-0.65208 0.86714,-1.30382 -0.21839,-0.54117 -0.54242,-1.02568 -0.85635,-1.51397 -0.27167,-0.44713 -0.6421,-0.82505 -0.98827,-1.2154 -0.16461,-0.27034 0.53223,0.85179 -0.28312,0.51325 -3.65496,-1.51754 -5.51509,-3.50823 -3.54427,-1.83429 0.78658,0.66001 1.55196,1.34431 2.34964,1.99112 1.72858,1.2343 3.63152,2.20345 5.48417,3.23271 1.34771,0.74872 -5.34104,-3.08265 -4.01324,-2.29915 1.48983,0.87912 2.9996,1.72401 4.49939,2.58601 0.10582,-0.0862 0.27066,0.10513 0.38683,0.0471 0.0727,-0.0364 0.1287,-0.10412 0.17264,-0.17261 0.2108,-0.32856 0.17464,-0.48509 -0.0461,-0.76383 -0.40384,-0.52006 -0.89577,-0.95906 -1.35009,-1.43259 -0.37427,-0.39282 -0.76645,-0.76892 -1.13406,-1.16781 -0.3341,-0.33926 -0.68377,-0.66393 -1.00729,-1.01346 -1.10685,-1.17322 -6.26146,-3.48442 -4.45683,-1.73075 0.41196,0.46125 0.85558,0.89118 1.33495,1.28152 1.54089,1.19711 3.21137,1.86348 4.97456,2.9743 1.31043,0.82557 -5.37595,-3.07885 -4.02634,-2.31899 4.57887,2.57801 2.78678,2.96473 4.65674,2.50942 0.51651,-0.41598 0.35338,-0.90507 0.0307,-1.3779 -0.32685,-0.47369 -0.6359,-0.95968 -1.00407,-1.40287 -0.34686,-0.38215 -0.65592,-0.79192 -0.96736,-1.20285 -0.59052,-1.6182 -0.086,-0.32866 -4.53239,-1.83756 -0.1061,-0.036 0.13649,0.17772 0.20639,0.26527 0.26917,0.33715 0.55053,0.65886 0.84466,0.97431 1.40985,1.33944 3.91045,4.65616 5.59633,3.388 0.0574,-0.13768 0.14253,-0.26684 0.17208,-0.41304 0.0885,-0.43796 -0.47402,-0.99259 -0.70941,-1.29643 -0.34997,-0.49253 -0.72831,-0.96186 -1.11024,-1.42936 -0.16417,0.0436 -0.0922,-0.21755 -0.19224,-0.23898 -0.0312,-0.007 -0.0346,0.0535 -0.0519,0.0803 -0.0861,0.18358 -0.0719,0.63035 -0.25844,0.55073 -3.24412,-1.38476 -5.26711,-3.67731 -4.02029,-2.28351 0.35966,0.32827 0.65739,0.7144 1.05888,0.99499 1.41216,1.29005 4.51453,4.74897 5.22202,2.32829 -0.11168,-0.44413 -0.34384,-0.85101 -0.61715,-1.21519 -0.0362,-0.0543 -0.0519,-0.13053 -0.1087,-0.16278 -1.47269,-0.83725 -2.93144,-1.70645 -4.46081,-2.43506 -0.0858,-0.0409 -0.12712,0.14408 -0.16983,0.22897 -0.12884,0.25607 -0.0972,0.45051 0.0216,0.69047 0.25263,0.30671 0.40688,0.74908 0.70606,1.01412 11.03051,4.30215 4.01963,2.72193 4.04151,0.95407 0.5349,-2.04109 2.09155,0.15914 -4.39144,-2.63306 -0.003,-9.4e-4 -0.16916,0.21324 -0.27199,0.34542 -0.38653,0.36822 -0.71256,0.81361 -0.96407,1.28438 -0.26648,0.58857 -0.30576,1.23541 -0.3354,1.87111 -0.0202,0.67012 -0.0143,1.34068 -0.0121,2.01099 0.003,0.67052 0.004,1.34104 0.004,2.01156 4.7e-4,0.66969 4.5e-4,1.33938 4.5e-4,2.00907 -0.0202,0.64511 0.0393,1.29498 -0.0274,1.93763 -0.12724,0.58331 -0.21478,1.1711 -0.26307,1.76592 -0.043,0.66091 -0.0442,1.32356 -0.0464,1.98557 -8e-4,0.67041 5.5e-4,1.34081 9.4e-4,2.01122 6e-4,0.66982 7.1e-4,1.33964 7.9e-4,2.00946 5e-5,0.66964 3e-5,1.33928 3e-5,2.00893 -10e-6,0.44642 -10e-6,0.22321 -10e-6,0.66963 0,0 4.42561,2.25496 4.42561,2.25496 v 0 c 0,-0.44633 0,-0.2233 10e-6,-0.66963 0,-0.66966 2e-5,-1.33932 -2e-5,-2.00898 -4e-5,-0.66994 -1.2e-4,-1.33989 -6.4e-4,-2.00983 -5.8e-4,-0.66988 -0.002,-1.33976 -0.002,-2.00964 9.4e-4,-0.6509 2.7e-4,-1.30224 0.0334,-1.9525 0.0387,-0.58567 0.10998,-1.16678 0.25114,-1.73771 0.10681,-0.66003 0.0302,-1.33341 0.0528,-2.00007 0,-0.66981 4e-5,-1.33963 -3.1e-4,-2.00944 -4.7e-4,-0.67091 -9.4e-4,-1.34184 -0.004,-2.01276 -0.002,-0.66376 -0.007,-1.32762 0.004,-1.99132 0.0176,-0.56219 0.0255,-1.14087 0.23754,-1.67038 0.2351,-0.4472 0.56091,-0.84449 0.92079,-1.19727 1.28963,-1.51557 0.62943,0.30794 -4.08661,-2.65003 -0.0797,-0.05 0.0909,-0.16576 0.15018,-0.23876 0.0542,-0.0667 -0.18417,0.36405 -0.0716,0.24793 -0.70294,2.24523 4.86193,3.30434 4.97024,3.34338 -0.21529,-0.26708 0.11485,0.11912 -0.23051,-0.18061 -0.23504,-0.20399 -0.24745,-0.56677 -0.53954,-0.7195 -0.24323,-0.41453 -0.34629,-0.0248 -0.35626,-0.0302 -3.75127,-2.04781 -5.42696,-3.51085 -4.04882,-2.31976 0.2296,0.34496 0.51994,0.64517 0.6747,1.03199 0.0461,-0.0388 0.099,-0.0709 0.13846,-0.11643 0.0361,-0.0417 0.0365,-0.16749 0.0852,-0.14179 10.00769,5.27273 4.53793,3.16734 3.69058,1.94896 -0.36024,-0.31641 -0.80759,-0.52629 -1.06383,-0.95731 -1.43291,-1.03674 -2.5935,-1.88235 -4.49589,-2.75402 -0.1867,-0.0856 -0.27526,0.30645 -0.39115,0.47599 -0.0271,0.0396 -0.0471,0.0957 -0.0303,0.14055 0.0372,0.0994 0.32197,-0.0133 0.22494,0.22521 0.44812,0.39388 0.79548,0.9061 1.13912,1.38994 0.23935,0.29622 0.49965,0.58057 0.7169,0.89057 0.0278,0.0396 0.0398,0.12933 0.0865,0.11647 0.0859,-0.0237 0.12408,-0.12778 0.18612,-0.19167 0.002,-1.70201 -0.0317,-0.0928 4.10994,2.31396 0.075,0.0436 -0.14402,-0.0979 -0.20758,-0.15691 -0.27795,-0.25817 -0.5439,-0.53363 -0.80935,-0.80533 -0.39068,-0.3542 -0.25796,-0.21178 -0.60323,-0.61381 -0.084,-0.0978 -0.16695,-0.19651 -0.24868,-0.29622 -0.0665,-0.0811 -0.10099,-0.20166 -0.19596,-0.24619 -1.56538,-0.73393 -3.17755,-1.36406 -4.75374,-2.07447 -0.0354,-0.0159 0.077,-0.0107 0.11542,-0.016 0.34741,0.38643 0.59191,0.84974 0.98581,1.19315 0.33307,0.46055 0.72888,0.87159 1.01513,1.3679 0.0406,0.063 0.53367,0.83617 0.52342,0.39145 -1.11004,-1.05646 5.29441,3.08795 3.98915,2.28508 -14.37331,-8.841 2.79312,2.1478 -0.96091,-0.64294 -0.52053,-0.31202 -0.95671,-0.73853 -1.36599,-1.18035 -1.15532,-1.38874 -6.56544,-3.90237 -4.74787,-2.08084 0.37575,0.2909 0.67692,0.67506 1.01036,1.01068 0.42508,0.33852 0.76547,0.78103 1.1486,1.16545 0.48035,0.42706 0.90411,0.91552 1.36838,1.35835 0.0479,0.0652 0.075,0.15277 0.14358,0.19558 0.127,0.0793 0.37493,-0.21961 0.3244,-0.31809 -0.0173,-0.0337 -0.0717,-0.0255 -0.10549,-0.0428 -0.0601,-0.0307 -0.11699,-0.0672 -0.17548,-0.10077 13.46636,7.78726 -9.86139,-5.71715 3.47889,2.03846 0.0989,0.0575 -0.20119,-0.10934 -0.2972,-0.1715 -0.76953,-0.49823 0.17844,0.0534 -0.68284,-0.43197 -0.82745,-0.59631 -1.56423,-1.30507 -2.34825,-1.9544 -0.20084,-0.18251 -0.3934,-0.39153 -0.62887,-0.53031 -3.00552,-1.77134 -3.58542,-4.06452 -4.75303,-2.06315 -0.0113,0.0194 0.0258,0.0368 0.0386,0.0552 0.26003,0.46252 0.66347,0.80558 1.02041,1.18771 0.26893,0.49923 0.62679,0.93703 0.87707,1.44533 0.34412,0.40371 0.16028,0.49281 -0.28606,0.35091 -1.68348,-0.71755 -0.12083,-0.0631 3.80206,2.24458 0.0683,0.0402 -0.1488,-0.0571 -0.21733,-0.097 -0.28515,-0.16625 -0.10317,-0.10265 -0.34719,-0.32826 -0.0577,-0.0533 -0.12826,-0.0909 -0.19238,-0.13642 -0.34185,-0.38105 -0.83499,-0.60559 -1.07257,-1.07916 -0.35328,-0.38122 -0.79522,-0.65273 -1.15243,-1.03073 -1.85043,-1.06514 -4.63731,-3.75252 -4.82752,-1.92068 -0.0202,0.19464 0.0491,0.39236 0.0127,0.5869 0.0146,0.62602 0.0318,1.25587 0.15566,1.87181 0.1305,0.55719 0.29382,1.09404 0.34067,1.66881 0.13718,0.53909 0.32088,1.05564 0.40647,1.60815 0.18737,0.54289 0.28272,1.1051 0.51576,1.63303 0.30121,0.60107 0.42304,1.28012 0.61211,1.92087 0.21183,0.62191 0.35026,1.27738 0.52527,1.90874 0.14678,0.62258 0.36052,1.22216 0.60124,1.81454 0.17996,0.8111 0.48734,1.5831 0.69974,2.38497 0.26857,0.75077 0.54615,1.50117 0.75967,2.26819 0.16042,0.55646 0.28853,1.11436 0.39759,1.68431 -0.003,0.66519 -0.009,1.33038 -0.005,1.99556 0.0353,2.05782 0.68064,5.15112 4.56119,3.74355 0.38148,-0.20495 0.72121,-0.48662 1.11106,-0.67187 -5.18441,-3.42574 -2.45539,-3.0881 -4.84297,-2.43169 -0.54103,0.15258 -1.10198,0.28846 -1.66458,0.30951 -0.18338,-0.01 -0.37966,-0.0143 -0.56176,-0.0445 -0.38981,-0.0648 -0.43969,-0.18076 -0.38505,-0.14758 4.14379,2.51541 5.65635,2.08992 3.97018,2.52561 -0.10669,-0.18945 0.42184,-1.18635 0.159,-1.44507 -0.11079,-0.6107 -0.33675,-1.10465 -0.71445,-1.59561 -2.87161,-1.71596 -3.4569,-2.42262 -5.81786,-3.10394 -0.57543,-0.14525 -1.14177,-0.32709 -1.67843,-0.58287 1.34824,0.77871 2.69636,1.55761 4.0447,2.33613 0.0716,0.0413 -0.14256,-0.0837 -0.21442,-0.12455 -1.49944,-0.85212 -2.99341,-1.71398 -4.49948,-2.55434 -0.24382,-0.13606 -0.53829,-0.14494 -0.79112,-0.25728 -0.5675,-0.21224 -1.14669,-0.38223 -1.72992,-0.54678 -0.16194,-0.06 -0.623,-0.29666 -0.47393,-0.20943 8.58338,5.02333 1.70239,0.93266 -0.87539,-0.51577 -0.59967,-0.24904 -1.18437,-0.53388 -1.77922,-0.79409 -0.6198,-0.27273 -1.24655,-0.55825 -1.92671,-0.63592 -1.88163,0.0339 -0.48065,-0.049 3.5184,3.0423 0.0235,0.0182 0.0428,-0.047 0.072,-0.0525 0.22491,-0.0428 0.48499,0.11192 0.70628,0.0995 0.63168,0.13644 1.25923,0.29484 1.88659,0.4484 0.73392,0.23386 1.48415,0.40726 2.21014,0.666 0.73507,0.22215 1.50786,0.42543 2.28088,0.34476 2.45207,-0.90902 -2.58796,-3.27846 -4.40753,-3.33298 -0.65738,-0.11458 -1.29642,-0.30382 -1.94965,-0.43877 -1.00657,-0.27297 -2.00303,-0.58063 -3.02612,-0.79114 -1.38629,-0.34438 -2.77201,-0.68851 -4.11999,-1.16688 -0.80238,-0.2792 -1.62567,-0.52873 -2.38138,-0.92003 1.35399,0.79392 2.70798,1.58785 4.06198,2.38178 -0.0528,-0.0224 -0.10658,-0.0426 -0.15837,-0.0671 -0.033,-0.0157 -0.069,-0.0786 -0.0956,-0.0535 -0.12542,0.11842 -0.22108,0.26891 -0.29675,0.42392 -0.0494,0.10123 0.65131,-0.30322 0.33788,-0.005 0.62302,0.0175 1.24829,0.0423 1.86218,0.15905 0.60677,0.11752 1.20696,0.2094 1.8288,0.16702 0.62542,0.0112 1.25663,0.0195 1.87037,0.15397 0.51323,0.13977 0.98155,0.39066 1.49989,0.51508 0.53377,0.14985 1.09165,0.2051 1.61809,0.38871 1.90229,0.33056 4.59866,2.39913 -2.77773,-1.92543 5.66129,3.26258 6.11783,3.52832 0.43113,0.24131 -0.0704,-0.0407 0.14055,0.0818 0.21116,0.12224 1.49587,0.85505 2.98761,1.71739 4.48829,2.564 0.13592,0.0767 0.33647,0.13349 0.4829,0.18102 0.15583,0.0665 0.60335,0.30789 0.45683,0.22282 -1.34791,-0.78259 -5.40916,-3.0996 -4.0462,-2.34353 15.05843,8.35324 -2.89638,-1.3506 0.64573,0.35105 0.42421,0.36616 -0.0576,-0.0206 0.40883,0.26728 0.28941,0.17864 0.48847,0.4945 0.74145,0.71588 0.41861,0.31812 0.74675,0.74449 1.19097,1.02293 0.40631,0.35338 -0.0477,-0.0112 0.39821,0.25849 0.26625,0.16106 0.44898,0.45644 0.6682,0.6692 0.37274,0.28997 0.67132,0.67255 0.99979,1.00853 0.39614,0.31312 0.70447,0.72582 1.09282,1.05125 1.86632,1.24915 3.79094,2.68085 6.00226,3.24073 0.26461,0.0278 0.57127,0.0264 0.82496,0.11883 0.0592,0.0216 0.21887,0.12426 0.16517,0.0914 -4.15958,-2.54251 -5.39825,-1.5433 -3.95915,-2.61847 -0.16091,0.22159 -0.61419,0.40348 -0.86367,0.63471 -0.41362,0.26626 -0.82172,0.53534 -1.21049,0.83718 -0.38387,0.27566 -0.7287,0.59263 -1.11273,0.86734 -0.4043,0.2247 -0.82514,0.35099 -1.29304,0.27266 -1.6273,-0.69602 0.006,-0.006 3.92579,2.32415 0.0659,0.0392 -0.14642,-0.0495 -0.21194,-0.0892 -0.22987,-0.1396 -0.30915,-0.37094 -0.35986,-0.62138 -0.19271,-0.54859 -0.29719,-1.11795 -0.54294,-1.64807 -0.27606,-0.51435 -0.31971,-1.09708 -0.54293,-1.63185 -0.27474,-0.4651 -0.57085,-0.90602 -0.7489,-1.42439 -0.35044,-0.48636 -0.75056,-0.96118 -1.23038,-1.32523 -0.43387,-0.48466 -0.76121,-1.06349 -1.23417,-1.51574 -0.31965,-0.4403 -0.73957,-0.79475 -1.02467,-1.25795 -0.84536,-0.55704 0.46484,0.32525 -0.37397,-0.30606 -1.43955,-1.08344 -3.1226,-1.79867 -4.66788,-2.7251 -1.33786,-0.80207 2.69169,1.57723 4.04092,2.36001 0.0684,0.0397 -0.13218,-0.0871 -0.19827,-0.13063 -0.26275,-0.25907 -0.0782,-0.11001 -0.39273,-0.29088 -1.49334,-0.85874 -2.97687,-1.73459 -4.47651,-2.5823 -1.35507,-0.76599 2.69501,1.55849 4.04284,2.33716 0.0722,0.0417 -0.14391,-0.0842 -0.21586,-0.12625 -1.49891,-0.85492 -2.99781,-1.70985 -4.49673,-2.56477 -0.55738,-0.23035 -1.13396,-0.41602 -1.68701,-0.65843 -0.65031,-0.23066 -1.28974,-0.41776 -1.98538,-0.44889 -0.69326,-0.11076 -1.38304,-0.22014 -2.08872,-0.17091 -0.76529,9.3e-4 -1.53059,0.004 -2.29587,-1.4e-4 -0.73357,9.4e-4 -1.46714,0.004 -2.2007,0.004 -0.79104,-0.002 -1.5826,-0.007 -2.37265,-0.0499 -0.70431,-0.0507 -1.39953,-0.15612 -2.09552,-0.2734 -0.63832,-0.04 -1.2837,-0.0308 -1.91194,-0.16784 -0.59098,-0.14948 -1.14404,-0.40717 -1.73798,-0.54835 -0.6107,-0.18362 -1.22872,-0.34132 -1.8337,-0.54345 -0.56366,-0.15658 -1.14885,-0.22262 -1.69319,-0.44341 -0.6644,-0.30196 -1.3345,-0.595 -1.96652,-0.96195 8.26353,4.81003 4.45249,2.33046 3.13167,1.93896 0.66958,-0.15686 1.38394,-0.002 2.06373,-0.0607 1.0907,-0.003 2.18137,-0.008 3.27206,-0.013 1.17096,-3e-5 2.34183,0.0134 3.51279,0.0171 0.8674,-0.002 1.7348,-0.007 2.6022,-0.006 0.78786,0.003 1.57571,0.007 2.36358,0.004 0.68866,-4.9e-4 1.3777,-0.003 2.06582,0.0283 0.72789,0.0428 1.46505,0.10025 2.15727,0.3468 1.7906,0.91613 -1.61447,-0.81957 -3.81469,-2.25952 -0.0689,-0.0451 0.13429,-0.0954 0.20159,-0.14281 0.0323,-0.0228 0.12562,-0.0954 0.0972,-0.0679 -0.0899,0.0872 -0.22232,0.14214 -0.32836,0.19748 -0.54041,0.27458 -1.06057,0.59352 -1.55079,0.94998 -0.51242,0.35277 -1.0576,0.74736 -1.18585,1.39507 0.029,0.34492 0.12017,0.61586 0.43659,0.80423 4.38088,2.60804 2.83564,2.0484 4.69279,2.70023 0.66892,0.0694 1.33839,-0.0644 1.97923,-0.25378 0.6634,-0.22781 1.32238,-0.47927 1.94298,-0.80819 0.44192,-0.25102 0.85584,-0.53671 1.2646,-0.83783 0.38915,-0.26362 0.74608,-0.56606 1.14268,-0.81838 0.43939,-0.24073 0.89143,-0.45674 1.32338,-0.71153 0.40152,-0.2657 0.79385,-0.54261 1.1959,-0.80597 0.4481,-0.23358 0.94515,-0.36144 1.3624,-0.65399 0.43029,-0.25978 0.84273,-0.54833 1.2956,-0.76888 0.6037,-0.29847 1.1877,-0.6393 1.7582,-0.99658 0.52372,-0.29841 1.03382,-0.61805 1.54691,-0.93416 0.53925,-0.37738 1.09013,-0.73551 1.65184,-1.0787 0.43854,-0.30722 0.86584,-0.62933 1.29037,-0.95514 0.5081,-0.27123 1.01396,-0.5449 1.51682,-0.82548 1.67849,-1.10851 -3.10263,-3.8988 -4.38922,-2.52928 -0.40405,0.29625 -0.88552,0.4112 -1.29716,0.69771 -0.40302,0.25224 -0.78266,0.53589 -1.19186,0.77837 -0.4264,0.25271 -0.82614,0.55045 -1.28766,0.74204 -0.46465,0.27121 -0.93467,0.53059 -1.38173,0.83103 -0.41866,0.29448 -0.87203,0.52247 -1.31157,0.7836 -0.45636,0.21809 -0.92427,0.407 -1.32972,0.7174 -0.54514,0.29039 -1.10573,0.5519 -1.6611,0.82186 -0.63059,0.32608 -1.26682,0.64049 -1.9091,0.94273 -0.54415,0.22143 -1.09887,0.40896 -1.66036,0.58105 -0.70397,0.23901 -1.43057,0.34756 -2.16264,0.46585 -0.67725,0.14127 -1.3583,0.24399 -2.03918,0.36428 -0.6234,0.1 -1.2554,0.0434 -1.88446,0.0561 -0.66535,4.8e-4 -1.33108,-9.3e-4 -1.99586,0.0302 -0.61051,0.0377 -1.21991,0.10052 -1.8107,0.26802 -0.56275,0.13028 -1.15177,0.13403 -1.69512,0.34866 -0.48138,0.19025 -0.96502,0.37991 -1.48411,0.44021 -0.58544,0.0781 -1.1518,0.23219 -1.73253,0.33209 -0.67081,0.0722 -1.33196,0.2116 -2.00437,0.26206 -0.64009,0.0162 -1.28658,0.0325 -1.9116,0.18594 -0.50735,0.15298 -1.01423,0.31846 -1.23983,0.83829 0.0137,2.07839 3.62058,2.76713 5.55565,2.97597 0.58042,0.0757 1.14624,0.23568 1.73059,0.27237 0.60901,0.0271 1.2186,0.0709 1.81462,0.20734 0.62415,0.12409 1.24952,0.12588 1.88481,0.11168 0.67326,0.003 1.34649,0.007 2.01974,0.0114 0.65791,9.4e-4 1.32341,0.0162 1.97175,-0.11272 0.65567,-0.1952 1.1256,-0.56826 1.17706,-1.29647 -0.005,-0.74129 -0.0143,-1.4839 -0.0954,-2.2216 -0.11502,-0.93871 -0.29853,-1.86504 -0.5236,-2.78361 0,0 -4.45507,-2.20063 -4.45507,-2.20063 z"
       inkscape:connector-curvature="0" />
    <path
       style="fill:none;stroke:#000000;stroke-width:0.9375px;stroke-linecap:butt;stroke-linejoin:miter;stroke-opacity:1"
       d="m 369.08462,290.50886 147.15669,-0.24321 0.0152,26.86146 -148.52048,0.33475 1.01366,-0.50213"
       id="path4518"
       inkscape:connector-curvature="0" />
  </g>
</svg>
