<?xml version="1.0" encoding="UTF-8" standalone="no"?>
<!-- Created with Inkscape (http://www.inkscape.org/) -->

<svg
   xmlns:dc="http://purl.org/dc/elements/1.1/"
   xmlns:cc="http://creativecommons.org/ns#"
   xmlns:rdf="http://www.w3.org/1999/02/22-rdf-syntax-ns#"
   xmlns:svg="http://www.w3.org/2000/svg"
   xmlns="http://www.w3.org/2000/svg"
   xmlns:sodipodi="http://sodipodi.sourceforge.net/DTD/sodipodi-0.dtd"
   xmlns:inkscape="http://www.inkscape.org/namespaces/inkscape"
   width="93.8657mm"
   height="63.779968mm"
   viewBox="0 0 332.595 225.99201"
   id="svg2"
   version="1.1"
   inkscape:version="0.92.0 r15299"
   sodipodi:docname="6_ splitter.svg">
  <defs
     id="defs4" />
  <sodipodi:namedview
     id="base"
     pagecolor="#ffffff"
     bordercolor="#666666"
     borderopacity="1.0"
     inkscape:pageopacity="0.0"
     inkscape:pageshadow="2"
     inkscape:zoom="2.4985326"
     inkscape:cx="82.310035"
     inkscape:cy="113.41532"
     inkscape:document-units="px"
     inkscape:current-layer="layer3"
     showgrid="false"
     showguides="true"
     inkscape:guide-bbox="true"
     inkscape:window-width="1920"
     inkscape:window-height="1017"
     inkscape:window-x="-8"
     inkscape:window-y="-8"
     inkscape:window-maximized="1"
     inkscape:snap-global="true"
     fit-margin-top="0"
     fit-margin-left="0"
     fit-margin-right="0"
     fit-margin-bottom="0" />
  <metadata
     id="metadata7">
    <rdf:RDF>
      <cc:Work
         rdf:about="">
        <dc:format>image/svg+xml</dc:format>
        <dc:type
           rdf:resource="http://purl.org/dc/dcmitype/StillImage" />
        <dc:title></dc:title>
      </cc:Work>
    </rdf:RDF>
  </metadata>
  <g
     inkscape:label="Layer 1"
     inkscape:groupmode="layer"
     id="layer1"
     style="display:none"
     transform="translate(-184.11983,-192.25668)" />
  <g
     inkscape:groupmode="layer"
     id="layer2"
     inkscape:label="Layer 2"
     style="display:inline"
     transform="translate(-184.11983,-192.25668)">
    <path
       style="opacity:1;fill:#008000;fill-opacity:1;stroke:none;stroke-width:0.35770527;stroke-miterlimit:4;stroke-dasharray:none;stroke-opacity:1"
       d=""
       id="path4508"
       inkscape:connector-curvature="0"
       transform="matrix(0.93749998,0,0,0.93749998,184.13054,190.83615)" />
    <flowRoot
       xml:space="preserve"
       id="flowRoot5179"
       style="font-style:normal;font-variant:normal;font-weight:bold;font-stretch:normal;font-size:21.33333397px;line-height:25px;font-family:Arial;-inkscape-font-specification:'Arial, Bold';font-variant-ligatures:normal;font-variant-caps:normal;font-variant-numeric:normal;text-align:start;letter-spacing:0px;word-spacing:0px;writing-mode:lr-tb;text-anchor:start;fill:#000000;fill-opacity:1;stroke:none"><flowRegion
         id="flowRegion5181"><rect
           id="rect5183"
           width="92.102409"
           height="158.6208"
           x="-293.93176"
           y="-21.604267" /></flowRegion><flowPara
         id="flowPara5185" /></flowRoot>  </g>
  <g
     inkscape:groupmode="layer"
     id="layer3"
     inkscape:label="Layer 3">
    <flowRoot
       xml:space="preserve"
       id="flowRoot4586"
       style="fill:black;fill-opacity:1;stroke:none;font-family:Arial;font-style:normal;font-weight:bold;font-size:16px;line-height:25px;letter-spacing:0px;word-spacing:0px;-inkscape-font-specification:'Arial, Bold';font-stretch:normal;font-variant:normal;text-anchor:start;text-align:start;writing-mode:lr;font-variant-ligatures:normal;font-variant-caps:normal;font-variant-numeric:normal;font-feature-settings:normal"><flowRegion
         id="flowRegion4588"><rect
           id="rect4590"
           width="54.43195"
           height="85.250038"
           x="266.9567"
           y="86.167236" /></flowRegion><flowPara
         id="flowPara4592" /></flowRoot>    <g
       aria-label="6"
       style="font-style:normal;font-variant:normal;font-weight:bold;font-stretch:normal;font-size:15px;line-height:23.4375px;font-family:Arial;-inkscape-font-specification:'Arial, Bold';font-variant-ligatures:normal;font-variant-caps:normal;font-variant-numeric:normal;font-feature-settings:normal;text-align:start;letter-spacing:0px;word-spacing:0px;writing-mode:lr-tb;text-anchor:start;fill:#008000;fill-opacity:1;stroke:none;stroke-width:0.9375"
       id="text4596">
      <path
         id="path4497"
         style="font-style:normal;font-variant:normal;font-weight:bold;font-stretch:normal;font-size:140px;font-family:Arial;-inkscape-font-specification:'Arial, Bold';font-variant-ligatures:normal;font-variant-caps:normal;font-variant-numeric:normal;font-feature-settings:normal;text-align:start;writing-mode:lr-tb;text-anchor:start;fill:#008000;fill-opacity:1;stroke-width:0.9375"
         d="m 314.16809,83.153748 -18.59375,2.050781 q -0.68359,-5.742188 -3.55469,-8.476563 -2.87109,-2.734375 -7.45117,-2.734375 -6.08398,0 -10.32226,5.46875 -4.16993,5.46875 -5.26368,22.763669 7.17774,-8.476559 17.8418,-8.476559 12.03125,0 20.57617,9.160159 8.61328,9.16015 8.61328,23.65234 0,15.38086 -9.02343,24.67774 -9.02344,9.29687 -23.17383,9.29687 -15.17578,0 -24.95117,-11.75781 -9.77539,-11.82617 -9.77539,-38.69141 0,-27.548827 10.18554,-39.716796 10.18555,-12.167968 26.45508,-12.167968 11.41602,0 18.86719,6.425781 7.51953,6.357422 9.57031,18.525391 z m -43.54492,41.904292 q 0,9.36524 4.30664,14.49219 4.30664,5.0586 9.84375,5.0586 5.33203,0 8.88672,-4.16993 3.55469,-4.16992 3.55469,-13.67187 0,-9.77539 -3.82813,-14.28711 -3.82812,-4.58008 -9.57031,-4.58008 -5.53711,0 -9.36524,4.375 -3.82812,4.30664 -3.82812,12.7832 z M 168.3771,77.64298 229.52419,16.70514 C 240.20852,6.2498 254.55861,0.46094 269.48328,0.5002 h 62.6117 v 26.18621 l -61.69807,0.0456 c -8.01174,-0.0428 -15.70507,3.13284 -21.46956,8.81038 l -61.4484,61.31435 c -10.71816,10.38367 -25.06825,16.17257 -39.99292,16.13927 14.92467,-0.0333 29.27476,5.75561 39.99292,16.13928 l 61.4484,61.31434 c 5.76449,5.67753 13.45782,8.8532 21.46956,8.81038 l 61.69807,0.0456 v 26.18621 h -62.6117 c -14.92467,0.0392 -29.46299,-5.90016 -40.2038,-16.28023 L 168.3771,148.34904 c -5.64787,-5.68127 -13.34121,-8.85693 -21.34706,-8.80954 L 0.5,139.42551 V 86.45708 h 146.52415 c 8.01174,0.0428 15.70508,-3.13284 21.35295,-8.81412 z" />
    </g>
    <g
       style="font-style:normal;font-variant:normal;font-weight:bold;font-stretch:normal;font-size:16px;line-height:25px;font-family:Arial;-inkscape-font-specification:'Arial, Bold';font-variant-ligatures:normal;font-variant-caps:normal;font-variant-numeric:normal;font-feature-settings:normal;text-align:start;letter-spacing:0px;word-spacing:0px;writing-mode:lr-tb;text-anchor:start;fill:#000000;fill-opacity:1;stroke:none"
       id="flowRoot4602" />
  </g>
</svg>
