<?xml version="1.0" encoding="UTF-8" standalone="no"?>
<!-- Created with Inkscape (http://www.inkscape.org/) -->

<svg
   xmlns:dc="http://purl.org/dc/elements/1.1/"
   xmlns:cc="http://creativecommons.org/ns#"
   xmlns:rdf="http://www.w3.org/1999/02/22-rdf-syntax-ns#"
   xmlns:svg="http://www.w3.org/2000/svg"
   xmlns="http://www.w3.org/2000/svg"
   xmlns:sodipodi="http://sodipodi.sourceforge.net/DTD/sodipodi-0.dtd"
   xmlns:inkscape="http://www.inkscape.org/namespaces/inkscape"
   width="93.8657mm"
   height="63.779968mm"
   viewBox="0 0 332.595 225.99201"
   id="svg2"
   version="1.1"
   inkscape:version="0.92.0 r15299"
   sodipodi:docname="8_ joiner.svg">
  <defs
     id="defs4" />
  <sodipodi:namedview
     id="base"
     pagecolor="#ffffff"
     bordercolor="#666666"
     borderopacity="1.0"
     inkscape:pageopacity="0.0"
     inkscape:pageshadow="2"
     inkscape:zoom="2.4985326"
     inkscape:cx="147.34821"
     inkscape:cy="113.41532"
     inkscape:document-units="px"
     inkscape:current-layer="layer3"
     showgrid="false"
     showguides="true"
     inkscape:guide-bbox="true"
     inkscape:window-width="1920"
     inkscape:window-height="1017"
     inkscape:window-x="-8"
     inkscape:window-y="-8"
     inkscape:window-maximized="1"
     inkscape:snap-global="true"
     fit-margin-top="0"
     fit-margin-left="0"
     fit-margin-right="0"
     fit-margin-bottom="0" />
  <metadata
     id="metadata7">
    <rdf:RDF>
      <cc:Work
         rdf:about="">
        <dc:format>image/svg+xml</dc:format>
        <dc:type
           rdf:resource="http://purl.org/dc/dcmitype/StillImage" />
        <dc:title></dc:title>
      </cc:Work>
    </rdf:RDF>
  </metadata>
  <g
     inkscape:label="Layer 1"
     inkscape:groupmode="layer"
     id="layer1"
     style="display:none"
     transform="translate(-184.11983,-192.25668)" />
  <g
     inkscape:groupmode="layer"
     id="layer2"
     inkscape:label="Layer 2"
     style="display:inline"
     transform="translate(-184.11983,-192.25668)">
    <path
       style="opacity:1;fill:#008000;fill-opacity:1;stroke:none;stroke-width:0.35770527;stroke-miterlimit:4;stroke-dasharray:none;stroke-opacity:1"
       d=""
       id="path4508"
       inkscape:connector-curvature="0"
       transform="matrix(0.93749998,0,0,0.93749998,184.13054,190.83615)" />
    <flowRoot
       xml:space="preserve"
       id="flowRoot5179"
       style="font-style:normal;font-variant:normal;font-weight:bold;font-stretch:normal;font-size:21.33333397px;line-height:25px;font-family:Arial;-inkscape-font-specification:'Arial, Bold';font-variant-ligatures:normal;font-variant-caps:normal;font-variant-numeric:normal;text-align:start;letter-spacing:0px;word-spacing:0px;writing-mode:lr-tb;text-anchor:start;fill:#000000;fill-opacity:1;stroke:none"><flowRegion
         id="flowRegion5181"><rect
           id="rect5183"
           width="92.102409"
           height="158.6208"
           x="-293.93176"
           y="-21.604267" /></flowRegion><flowPara
         id="flowPara5185" /></flowRoot>  </g>
  <g
     inkscape:groupmode="layer"
     id="layer3"
     inkscape:label="Layer 3">
    <g
       aria-label="8"
       style="font-style:normal;font-variant:normal;font-weight:bold;font-stretch:normal;font-size:139.99998474px;line-height:23.4375px;font-family:Arial;-inkscape-font-specification:'Arial, Bold';font-variant-ligatures:normal;font-variant-caps:normal;font-variant-numeric:normal;font-feature-settings:normal;text-align:start;letter-spacing:0px;word-spacing:0px;writing-mode:lr-tb;text-anchor:start;fill:#008000;fill-opacity:1;stroke:none;stroke-width:0.9375"
       id="text5666">
      <path
         id="path5668"
         style="fill:#008000;fill-opacity:1;stroke-width:0.9375"
         d="m 36.680242,110.38363 q -7.451171,-3.14453 -10.869139,-8.61328 -3.349609,-5.537112 -3.349609,-12.099611 0,-11.210937 7.792967,-18.525389 7.861328,-7.314452 22.285154,-7.314452 14.287108,0 22.148435,7.314452 7.929687,7.314452 7.929687,18.525389 0,6.972655 -3.623046,12.441401 -3.623047,5.40039 -10.185546,8.27149 8.339843,3.34961 12.646483,9.77539 4.374999,6.42578 4.374999,14.83398 0,13.87695 -8.886718,22.55859 -8.818358,8.68164 -23.515622,8.68164 -13.671873,0 -22.763669,-7.17773 -10.732421,-8.47656 -10.732421,-23.24219 0,-8.13476 4.033203,-14.90234 4.033202,-6.83594 12.714842,-10.52734 z m 3.964843,-19.345704 q 0,5.742187 3.212891,8.955077 3.281249,3.212887 8.681639,3.212887 5.46875,0 8.749999,-3.212887 3.28125,-3.281249 3.28125,-9.023436 0,-5.40039 -3.28125,-8.613281 -3.21289,-3.281249 -8.544921,-3.281249 -5.537108,0 -8.818358,3.281249 -3.28125,3.28125 -3.28125,8.68164 z m -1.777343,42.929684 q 0,7.92969 4.033202,12.37304 4.101563,4.44336 10.185546,4.44336 5.947265,0 9.843749,-4.23828 3.896484,-4.30664 3.896484,-12.37304 0,-7.04102 -3.964843,-11.2793 -3.964844,-4.30664 -10.048827,-4.30664 -7.041015,0 -10.527343,4.85352 -3.417968,4.85351 -3.417968,10.52734 z M 164.21788,77.64298 103.07079,16.70514 C 92.38646,6.2498 78.03637,0.46094 63.1117,0.5002 H 0.5 v 26.18621 l 61.69807,0.0456 c 8.01174,-0.0428 15.70507,3.13284 21.46956,8.81038 l 61.4484,61.31435 c 10.71816,10.38367 25.06825,16.17257 39.99292,16.13927 -14.92467,-0.0333 -29.27476,5.75561 -39.99292,16.13928 l -61.4484,61.31434 c -5.76449,5.67753 -13.45782,8.8532 -21.46956,8.81038 L 0.5,199.30561 v 26.18621 h 62.6117 c 14.92467,0.0392 29.46299,-5.90016 40.2038,-16.28023 l 60.90238,-60.86255 c 5.64787,-5.68127 13.34121,-8.85693 21.34706,-8.80954 l 146.53004,-0.11399 V 86.45708 H 185.57083 c -8.01174,0.0428 -15.70508,-3.13284 -21.35295,-8.81412 z" />
    </g>
  </g>
</svg>
