<?xml version="1.0" encoding="UTF-8" standalone="no"?>
<!-- Created with Inkscape (http://www.inkscape.org/) -->

<svg
   xmlns:dc="http://purl.org/dc/elements/1.1/"
   xmlns:cc="http://creativecommons.org/ns#"
   xmlns:rdf="http://www.w3.org/1999/02/22-rdf-syntax-ns#"
   xmlns:svg="http://www.w3.org/2000/svg"
   xmlns="http://www.w3.org/2000/svg"
   xmlns:sodipodi="http://sodipodi.sourceforge.net/DTD/sodipodi-0.dtd"
   xmlns:inkscape="http://www.inkscape.org/namespaces/inkscape"
   width="93.8657mm"
   height="63.779968mm"
   viewBox="0 0 332.595 225.99201"
   id="svg2"
   version="1.1"
   inkscape:version="0.92.0 r15299"
   sodipodi:docname="8_ splitter.svg">
  <defs
     id="defs4" />
  <sodipodi:namedview
     id="base"
     pagecolor="#ffffff"
     bordercolor="#666666"
     borderopacity="1.0"
     inkscape:pageopacity="0.0"
     inkscape:pageshadow="2"
     inkscape:zoom="2.4985326"
     inkscape:cx="147.34821"
     inkscape:cy="113.41532"
     inkscape:document-units="px"
     inkscape:current-layer="layer3"
     showgrid="false"
     showguides="true"
     inkscape:guide-bbox="true"
     inkscape:window-width="1920"
     inkscape:window-height="1017"
     inkscape:window-x="-8"
     inkscape:window-y="-8"
     inkscape:window-maximized="1"
     inkscape:snap-global="true"
     fit-margin-top="0"
     fit-margin-left="0"
     fit-margin-right="0"
     fit-margin-bottom="0" />
  <metadata
     id="metadata7">
    <rdf:RDF>
      <cc:Work
         rdf:about="">
        <dc:format>image/svg+xml</dc:format>
        <dc:type
           rdf:resource="http://purl.org/dc/dcmitype/StillImage" />
        <dc:title></dc:title>
      </cc:Work>
    </rdf:RDF>
  </metadata>
  <g
     inkscape:label="Layer 1"
     inkscape:groupmode="layer"
     id="layer1"
     style="display:none"
     transform="translate(-184.11983,-192.25668)" />
  <g
     inkscape:groupmode="layer"
     id="layer2"
     inkscape:label="Layer 2"
     style="display:inline"
     transform="translate(-184.11983,-192.25668)">
    <path
       style="opacity:1;fill:#008000;fill-opacity:1;stroke:none;stroke-width:0.35770527;stroke-miterlimit:4;stroke-dasharray:none;stroke-opacity:1"
       d=""
       id="path4508"
       inkscape:connector-curvature="0"
       transform="matrix(0.93749998,0,0,0.93749998,184.13054,190.83615)" />
    <flowRoot
       xml:space="preserve"
       id="flowRoot5179"
       style="font-style:normal;font-variant:normal;font-weight:bold;font-stretch:normal;font-size:21.33333397px;line-height:25px;font-family:Arial;-inkscape-font-specification:'Arial, Bold';font-variant-ligatures:normal;font-variant-caps:normal;font-variant-numeric:normal;text-align:start;letter-spacing:0px;word-spacing:0px;writing-mode:lr-tb;text-anchor:start;fill:#000000;fill-opacity:1;stroke:none"><flowRegion
         id="flowRegion5181"><rect
           id="rect5183"
           width="92.102409"
           height="158.6208"
           x="-293.93176"
           y="-21.604267" /></flowRegion><flowPara
         id="flowPara5185" /></flowRoot>  </g>
  <g
     inkscape:groupmode="layer"
     id="layer3"
     inkscape:label="Layer 3">
    <g
       aria-label="8"
       style="font-style:normal;font-variant:normal;font-weight:bold;font-stretch:normal;font-size:139.99998474px;line-height:23.4375px;font-family:Arial;-inkscape-font-specification:'Arial, Bold';font-variant-ligatures:normal;font-variant-caps:normal;font-variant-numeric:normal;font-feature-settings:normal;text-align:start;letter-spacing:0px;word-spacing:0px;writing-mode:lr-tb;text-anchor:start;fill:#008000;fill-opacity:1;stroke:none;stroke-width:0.9375"
       id="text5666">
      <path
         id="path5668"
         style="fill:#008000;fill-opacity:1;stroke-width:0.9375"
         d="m 295.91474,110.38363 q 7.45117,-3.14453 10.86914,-8.61328 3.34961,-5.537112 3.34961,-12.099611 0,-11.210937 -7.79297,-18.525389 -7.86133,-7.314452 -22.28515,-7.314452 -14.28711,0 -22.14844,7.314452 -7.92969,7.314452 -7.92969,18.525389 0,6.972655 3.62305,12.441401 3.62305,5.40039 10.18555,8.27149 -8.33985,3.34961 -12.64649,9.77539 -4.375,6.42578 -4.375,14.83398 0,13.87695 8.88672,22.55859 8.81836,8.68164 23.51562,8.68164 13.67188,0 22.76367,-7.17773 10.73242,-8.47656 10.73242,-23.24219 0,-8.13476 -4.0332,-14.90234 -4.0332,-6.83594 -12.71484,-10.52734 z M 291.9499,91.037926 q 0,5.742187 -3.2129,8.955077 -3.28125,3.212887 -8.68163,3.212887 -5.46875,0 -8.75,-3.212887 -3.28125,-3.281249 -3.28125,-9.023436 0,-5.40039 3.28125,-8.613281 3.21289,-3.281249 8.54492,-3.281249 5.53711,0 8.81836,3.281249 3.28125,3.28125 3.28125,8.68164 z m 1.77734,42.929684 q 0,7.92969 -4.0332,12.37304 -4.10157,4.44336 -10.18555,4.44336 -5.94726,0 -9.84375,-4.23828 -3.89648,-4.30664 -3.89648,-12.37304 0,-7.04102 3.96484,-11.2793 3.96484,-4.30664 10.04883,-4.30664 7.04101,0 10.52734,4.85352 3.41797,4.85351 3.41797,10.52734 z M 168.3771,77.64298 229.52419,16.70514 C 240.20852,6.2498 254.55861,0.46094 269.48328,0.5002 h 62.6117 v 26.18621 l -61.69807,0.0456 c -8.01174,-0.0428 -15.70507,3.13284 -21.46956,8.81038 l -61.4484,61.31435 c -10.71816,10.38367 -25.06825,16.17257 -39.99292,16.13927 14.92467,-0.0333 29.27476,5.75561 39.99292,16.13928 l 61.4484,61.31434 c 5.76449,5.67753 13.45782,8.8532 21.46956,8.81038 l 61.69807,0.0456 v 26.18621 h -62.6117 c -14.92467,0.0392 -29.46299,-5.90016 -40.2038,-16.28023 L 168.3771,148.34904 c -5.64787,-5.68127 -13.34121,-8.85693 -21.34706,-8.80954 L 0.5,139.42551 V 86.45708 h 146.52415 c 8.01174,0.0428 15.70508,-3.13284 21.35295,-8.81412 z"
         inkscape:connector-curvature="0" />
    </g>
  </g>
</svg>
