<?xml version="1.0" encoding="UTF-8" standalone="no"?>
<!-- Created with Inkscape (http://www.inkscape.org/) -->

<svg
   xmlns:dc="http://purl.org/dc/elements/1.1/"
   xmlns:cc="http://creativecommons.org/ns#"
   xmlns:rdf="http://www.w3.org/1999/02/22-rdf-syntax-ns#"
   xmlns:svg="http://www.w3.org/2000/svg"
   xmlns="http://www.w3.org/2000/svg"
   xmlns:sodipodi="http://sodipodi.sourceforge.net/DTD/sodipodi-0.dtd"
   xmlns:inkscape="http://www.inkscape.org/namespaces/inkscape"
   width="93.8657mm"
   height="63.779968mm"
   viewBox="0 0 332.595 225.99201"
   id="svg2"
   version="1.1"
   inkscape:version="0.92.0 r15299"
   sodipodi:docname="8_3_ joiner.svg">
  <defs
     id="defs4" />
  <sodipodi:namedview
     id="base"
     pagecolor="#ffffff"
     bordercolor="#666666"
     borderopacity="1.0"
     inkscape:pageopacity="0.0"
     inkscape:pageshadow="2"
     inkscape:zoom="2.4985326"
     inkscape:cx="145.74727"
     inkscape:cy="113.41532"
     inkscape:document-units="px"
     inkscape:current-layer="text5666"
     showgrid="false"
     showguides="true"
     inkscape:guide-bbox="true"
     inkscape:window-width="1920"
     inkscape:window-height="1017"
     inkscape:window-x="-8"
     inkscape:window-y="-8"
     inkscape:window-maximized="1"
     inkscape:snap-global="true"
     fit-margin-top="0"
     fit-margin-left="0"
     fit-margin-right="0"
     fit-margin-bottom="0" />
  <metadata
     id="metadata7">
    <rdf:RDF>
      <cc:Work
         rdf:about="">
        <dc:format>image/svg+xml</dc:format>
        <dc:type
           rdf:resource="http://purl.org/dc/dcmitype/StillImage" />
        <dc:title></dc:title>
      </cc:Work>
    </rdf:RDF>
  </metadata>
  <g
     inkscape:label="Layer 1"
     inkscape:groupmode="layer"
     id="layer1"
     style="display:none"
     transform="translate(-184.11983,-192.25668)" />
  <g
     inkscape:groupmode="layer"
     id="layer2"
     inkscape:label="Layer 2"
     style="display:inline"
     transform="translate(-184.11983,-192.25668)">
    <path
       style="opacity:1;fill:#008000;fill-opacity:1;stroke:none;stroke-width:0.35770527;stroke-miterlimit:4;stroke-dasharray:none;stroke-opacity:1"
       d=""
       id="path4508"
       inkscape:connector-curvature="0"
       transform="matrix(0.93749998,0,0,0.93749998,184.13054,190.83615)" />
    <flowRoot
       xml:space="preserve"
       id="flowRoot5179"
       style="font-style:normal;font-variant:normal;font-weight:bold;font-stretch:normal;font-size:21.33333397px;line-height:25px;font-family:Arial;-inkscape-font-specification:'Arial, Bold';font-variant-ligatures:normal;font-variant-caps:normal;font-variant-numeric:normal;text-align:start;letter-spacing:0px;word-spacing:0px;writing-mode:lr-tb;text-anchor:start;fill:#000000;fill-opacity:1;stroke:none"><flowRegion
         id="flowRegion5181"><rect
           id="rect5183"
           width="92.102409"
           height="158.6208"
           x="-293.93176"
           y="-21.604267" /></flowRegion><flowPara
         id="flowPara5185" /></flowRoot>  </g>
  <g
     inkscape:groupmode="layer"
     id="layer3"
     inkscape:label="Layer 3">
    <g
       aria-label="8"
       style="font-style:normal;font-variant:normal;font-weight:bold;font-stretch:normal;font-size:139.99998474px;line-height:23.4375px;font-family:Arial;-inkscape-font-specification:'Arial, Bold';font-variant-ligatures:normal;font-variant-caps:normal;font-variant-numeric:normal;font-feature-settings:normal;text-align:start;letter-spacing:0px;word-spacing:0px;writing-mode:lr-tb;text-anchor:start;fill:#008000;fill-opacity:1;stroke:none;stroke-width:0.9375"
       id="text5666">
      <text
         xml:space="preserve"
         style="font-style:normal;font-variant:normal;font-weight:bold;font-stretch:normal;font-size:15px;line-height:23.4375px;font-family:Arial;-inkscape-font-specification:'Arial, Bold';font-variant-ligatures:normal;font-variant-caps:normal;font-variant-numeric:normal;font-feature-settings:normal;text-align:start;letter-spacing:0px;word-spacing:0px;writing-mode:lr-tb;text-anchor:start;fill:#000000;fill-opacity:1;stroke:none;stroke-width:0.87890625"
         x="46.152088"
         y="66.523407"
         id="text4537"><tspan
           sodipodi:role="line"
           id="tspan4535"
           x="46.152088"
           y="82.378471"
           style="stroke-width:0.87890625" /></text>
      <flowRoot
         xml:space="preserve"
         id="flowRoot4539"
         style="fill:black;fill-opacity:1;stroke:none;font-family:Arial;font-style:normal;font-weight:bold;font-size:16px;line-height:25px;letter-spacing:0px;word-spacing:0px;-inkscape-font-specification:'Arial, Bold';font-stretch:normal;font-variant:normal;text-anchor:start;text-align:start;writing-mode:lr;font-variant-ligatures:normal;font-variant-caps:normal;font-variant-numeric:normal;font-feature-settings:normal"><flowRegion
           id="flowRegion4541"><rect
             id="rect4543"
             width="78.045807"
             height="70.441345"
             x="34.01997"
             y="49.345619" /></flowRegion><flowPara
           id="flowPara4545"></flowPara></flowRoot>      <flowRoot
         xml:space="preserve"
         id="flowRoot4547"
         style="fill:black;fill-opacity:1;stroke:none;font-family:Arial;font-style:normal;font-weight:bold;font-size:80px;line-height:25px;letter-spacing:0px;word-spacing:0px;-inkscape-font-specification:'Arial, Bold';font-stretch:normal;font-variant:normal;text-anchor:start;text-align:start;writing-mode:lr;font-variant-ligatures:normal;font-variant-caps:normal;font-variant-numeric:normal;font-feature-settings:normal;"><flowRegion
           id="flowRegion4549"
           style="-inkscape-font-specification:'Arial, Bold';font-family:Arial;font-weight:bold;font-style:normal;font-stretch:normal;font-variant:normal;font-size:80px;text-anchor:start;text-align:start;writing-mode:lr;font-variant-ligatures:normal;font-variant-caps:normal;font-variant-numeric:normal;font-feature-settings:normal;"><rect
             id="rect4551"
             width="60.03524"
             height="74.443695"
             x="17.210102"
             y="92.170753"
             style="-inkscape-font-specification:'Arial, Bold';font-family:Arial;font-weight:bold;font-style:normal;font-stretch:normal;font-variant:normal;font-size:80px;text-anchor:start;text-align:start;writing-mode:lr;font-variant-ligatures:normal;font-variant-caps:normal;font-variant-numeric:normal;font-feature-settings:normal;" /></flowRegion><flowPara
           id="flowPara4553"></flowPara></flowRoot>      <g
         aria-label="8"
         style="font-style:normal;font-variant:normal;font-weight:bold;font-stretch:normal;font-size:15px;line-height:23.4375px;font-family:Arial;-inkscape-font-specification:'Arial, Bold';font-variant-ligatures:normal;font-variant-caps:normal;font-variant-numeric:normal;font-feature-settings:normal;text-align:start;letter-spacing:0px;word-spacing:0px;writing-mode:lr-tb;text-anchor:start;fill:#008000;fill-opacity:1;stroke:none;stroke-width:0.87890625"
         id="text4557" />
      <g
         aria-label="3"
         style="font-style:normal;font-variant:normal;font-weight:bold;font-stretch:normal;font-size:15px;line-height:23.4375px;font-family:Arial;-inkscape-font-specification:'Arial, Bold';font-variant-ligatures:normal;font-variant-caps:normal;font-variant-numeric:normal;font-feature-settings:normal;text-align:start;letter-spacing:0px;word-spacing:0px;writing-mode:lr-tb;text-anchor:start;fill:#008000;fill-opacity:1;stroke:none;stroke-width:0.87890625"
         id="text4557-1">
        <path
           id="path4580"
           style="font-style:normal;font-variant:normal;font-weight:bold;font-stretch:normal;font-size:80px;font-family:Arial;-inkscape-font-specification:'Arial, Bold';font-variant-ligatures:normal;font-variant-caps:normal;font-variant-numeric:normal;font-feature-settings:normal;text-align:start;writing-mode:lr-tb;text-anchor:start;fill:#008000;fill-opacity:1;stroke-width:0.87890625"
           d="m 16.958641,174.87622 10.625,-1.28906 q 0.507813,4.0625 2.734375,6.21094 2.226563,2.14843 5.390625,2.14843 3.398438,0 5.703125,-2.57812 2.34375,-2.57813 2.34375,-6.95313 0,-4.14062 -2.226562,-6.5625 -2.226563,-2.42187 -5.429688,-2.42187 -2.109375,0 -5.039062,0.82031 l 1.210937,-8.94531 q 4.453125,0.11719 6.796875,-1.91406 2.34375,-2.07032 2.34375,-5.46875 0,-2.89063 -1.71875,-4.60938 -1.71875,-1.71875 -4.570312,-1.71875 -2.8125,0 -4.804688,1.95313 -1.992187,1.95312 -2.421875,5.70312 l -10.117187,-1.71875 q 1.054687,-5.19531 3.164062,-8.28125 2.148438,-3.125 5.9375,-4.88281 3.828125,-1.79688 8.554688,-1.79688 8.085937,0 12.96875,5.15625 4.023437,4.21875 4.023437,9.53125 0,7.53907 -8.242187,12.03125 4.921875,1.05469 7.851562,4.72657 2.96875,3.67187 2.96875,8.86718 0,7.53907 -5.507812,12.85157 -5.507813,5.3125 -13.710938,5.3125 -7.773437,0 -12.890625,-4.45313 -5.117187,-4.49219 -5.9375,-11.71875 z M 27.44609,65.26738 q -4.257813,-1.796875 -6.210938,-4.921875 -1.914062,-3.164063 -1.914062,-6.914063 0,-6.40625 4.453125,-10.585937 4.492187,-4.179688 12.734375,-4.179688 8.164062,0 12.65625,4.179688 4.53125,4.179687 4.53125,10.585937 0,3.984375 -2.070313,7.109375 -2.070312,3.085938 -5.820312,4.726563 4.765625,1.914062 7.226562,5.585937 2.5,3.671875 2.5,8.476563 0,7.929687 -5.078125,12.890625 -5.039062,4.960937 -13.4375,4.960937 -7.8125,0 -13.007812,-4.101562 -6.132813,-4.84375 -6.132813,-13.28125 0,-4.648438 2.304688,-8.515625 2.304687,-3.90625 7.265625,-6.015625 z m 2.265625,-11.054688 q 0,3.28125 1.835937,5.117188 1.875,1.835937 4.960938,1.835937 3.125,0 5,-1.835937 1.875,-1.875 1.875,-5.15625 0,-3.085938 -1.875,-4.921875 -1.835938,-1.875 -4.882813,-1.875 -3.164062,0 -5.039062,1.875 -1.875,1.875 -1.875,4.960937 z m -1.015625,24.53125 q 0,4.53125 2.304687,7.070313 2.34375,2.539062 5.820313,2.539062 3.398437,0 5.625,-2.421875 2.226562,-2.460937 2.226562,-7.070312 0,-4.023438 -2.265625,-6.445313 -2.265625,-2.460937 -5.742187,-2.460937 -4.023438,0 -6.015625,2.773437 -1.953125,2.773438 -1.953125,6.015625 z M 164.21788,77.64298 103.07079,16.70514 C 92.38646,6.2498 78.03637,0.46094 63.1117,0.5002 H 0.5 v 26.18621 l 61.69807,0.0456 c 8.01174,-0.0428 15.70507,3.13284 21.46956,8.81038 l 61.4484,61.31435 c 10.71816,10.38367 25.06825,16.17257 39.99292,16.13927 -14.92467,-0.0333 -29.27476,5.75561 -39.99292,16.13928 l -61.4484,61.31434 c -5.76449,5.67753 -13.45782,8.8532 -21.46956,8.81038 L 0.5,199.30561 v 26.18621 h 62.6117 c 14.92467,0.0392 29.46299,-5.90016 40.2038,-16.28023 l 60.90238,-60.86255 c 5.64787,-5.68127 13.34121,-8.85693 21.34706,-8.80954 l 146.53004,-0.11399 V 86.45708 H 185.57083 c -8.01174,0.0428 -15.70508,-3.13284 -21.35295,-8.81412 z" />
      </g>
    </g>
  </g>
</svg>
