<?xml version="1.0" encoding="UTF-8" standalone="no"?>
<svg
   xmlns:dc="http://purl.org/dc/elements/1.1/"
   xmlns:cc="http://creativecommons.org/ns#"
   xmlns:rdf="http://www.w3.org/1999/02/22-rdf-syntax-ns#"
   xmlns:svg="http://www.w3.org/2000/svg"
   xmlns="http://www.w3.org/2000/svg"
   xmlns:sodipodi="http://sodipodi.sourceforge.net/DTD/sodipodi-0.dtd"
   xmlns:inkscape="http://www.inkscape.org/namespaces/inkscape"
   version="1.1"
   id="svg2"
   viewBox="0 0 429.99999 304.0665"
   height="85.814323mm"
   width="121.35555mm"
   inkscape:version="0.91 r13725"
   sodipodi:docname="bus_5bit_enabler.svg">
  <sodipodi:namedview
     pagecolor="#ffffff"
     bordercolor="#666666"
     borderopacity="1"
     objecttolerance="10"
     gridtolerance="10"
     guidetolerance="10"
     inkscape:pageopacity="0"
     inkscape:pageshadow="2"
     inkscape:window-width="1920"
     inkscape:window-height="1018"
     id="namedview49"
     showgrid="false"
     inkscape:zoom="0.77614601"
     inkscape:cx="214.99999"
     inkscape:cy="152.03325"
     inkscape:window-x="-8"
     inkscape:window-y="-8"
     inkscape:window-maximized="1"
     inkscape:current-layer="svg2" />
  <defs
     id="defs4" />
  <metadata
     id="metadata7">
    <rdf:RDF>
      <cc:Work
         rdf:about="">
        <dc:format>image/svg+xml</dc:format>
        <dc:type
           rdf:resource="http://purl.org/dc/dcmitype/StillImage" />
        <dc:title></dc:title>
      </cc:Work>
    </rdf:RDF>
  </metadata>
  <g
     transform="translate(1.1256354e-8,-193.35157)"
     id="layer1">
    <path
       id="rect4136"
       d="m 2.512405,227.46454 424.975185,0 c 1.19945,0 2.16508,1.01139 2.16508,2.26771 l 0,14.76993 c 0,1.25632 -0.96563,2.26771 -2.16508,2.26771 l -424.975185,0 c -1.1994538,0 -2.16507906,-1.01139 -2.16507906,-2.26771 l 0,-14.76993 c 0,-1.25632 0.96562526,-2.26771 2.16507906,-2.26771 z"
       style="fill:#008000;fill-opacity:1;fill-rule:nonzero;stroke:#000000;stroke-width:0.69465166;stroke-linecap:round;stroke-linejoin:round;stroke-miterlimit:4;stroke-dasharray:none;stroke-opacity:1" />
    <path
       id="rect4136-0"
       d="m 2.5124049,277.46454 424.9751851,0 c 1.19945,0 2.16508,1.01139 2.16508,2.26771 l 0,14.76993 c 0,1.25632 -0.96563,2.26771 -2.16508,2.26771 l -424.9751851,0 c -1.1994538,0 -2.16507902,-1.01139 -2.16507902,-2.26771 l 0,-14.76993 c 0,-1.25632 0.96562522,-2.26771 2.16507902,-2.26771 z"
       style="fill:#008000;fill-opacity:1;fill-rule:nonzero;stroke:#000000;stroke-width:0.69465178;stroke-linecap:round;stroke-linejoin:round;stroke-miterlimit:4;stroke-dasharray:none;stroke-opacity:1" />
    <path
       id="rect4136-2"
       d="m 2.5124047,252.46453 424.9751853,0 c 1.19945,0 2.16508,1.0114 2.16508,2.26772 l 0,14.76992 c 0,1.25632 -0.96563,2.26772 -2.16508,2.26772 l -424.9751853,0 c -1.1994537,0 -2.16507882,-1.0114 -2.16507882,-2.26772 l 0,-14.76992 c 0,-1.25632 0.96562512,-2.26772 2.16507882,-2.26772 z"
       style="fill:#008000;fill-opacity:1;fill-rule:nonzero;stroke:#000000;stroke-width:0.69465178;stroke-linecap:round;stroke-linejoin:round;stroke-miterlimit:4;stroke-dasharray:none;stroke-opacity:1" />
    <path
       id="rect4136-0-7"
       d="m 2.5124049,402.46454 424.9751851,0 c 1.19945,0 2.16508,1.01139 2.16508,2.26771 l 0,14.76993 c 0,1.25632 -0.96563,2.26771 -2.16508,2.26771 l -424.9751851,0 c -1.1994537,0 -2.16507899,-1.01139 -2.16507899,-2.26771 l 0,-14.76993 c 0,-1.25632 0.96562529,-2.26771 2.16507899,-2.26771 z"
       style="fill:#008000;fill-opacity:1;fill-rule:nonzero;stroke:#000000;stroke-width:0.69465184;stroke-linecap:round;stroke-linejoin:round;stroke-miterlimit:4;stroke-dasharray:none;stroke-opacity:1" />
    <path
       id="rect4136-0-9"
       d="m 2.5124049,377.46454 424.9751851,0 c 1.19945,0 2.16508,1.01139 2.16508,2.26771 l 0,14.76993 c 0,1.25632 -0.96563,2.26771 -2.16508,2.26771 l -424.9751851,0 c -1.1994537,0 -2.16507899,-1.01139 -2.16507899,-2.26771 l 0,-14.76993 c 0,-1.25632 0.96562529,-2.26771 2.16507899,-2.26771 z"
       style="fill:#008000;fill-opacity:1;fill-rule:nonzero;stroke:#000000;stroke-width:0.69465184;stroke-linecap:round;stroke-linejoin:round;stroke-miterlimit:4;stroke-dasharray:none;stroke-opacity:1" />
    <path
       id="rect4136-0-4"
       d="m 2.5124049,352.46454 424.9751851,0 c 1.19945,0 2.16508,1.01139 2.16508,2.26771 l 0,14.76993 c 0,1.25632 -0.96563,2.26771 -2.16508,2.26771 l -424.9751851,0 c -1.1994537,0 -2.16507899,-1.01139 -2.16507899,-2.26771 l 0,-14.76993 c 0,-1.25632 0.96562529,-2.26771 2.16507899,-2.26771 z"
       style="fill:#008000;fill-opacity:1;fill-rule:nonzero;stroke:#000000;stroke-width:0.69465184;stroke-linecap:round;stroke-linejoin:round;stroke-miterlimit:4;stroke-dasharray:none;stroke-opacity:1" />
    <path
       id="rect4136-0-1"
       d="m 2.5124049,327.46454 424.9751851,0 c 1.19945,0 2.16508,1.01139 2.16508,2.26771 l 0,14.76993 c 0,1.25632 -0.96563,2.26771 -2.16508,2.26771 l -424.9751851,0 c -1.1994537,0 -2.16507899,-1.01139 -2.16507899,-2.26771 l 0,-14.76993 c 0,-1.25632 0.96562529,-2.26771 2.16507899,-2.26771 z"
       style="fill:#008000;fill-opacity:1;fill-rule:nonzero;stroke:#000000;stroke-width:0.69465184;stroke-linecap:round;stroke-linejoin:round;stroke-miterlimit:4;stroke-dasharray:none;stroke-opacity:1" />
    <path
       id="rect4136-0-2"
       d="m 2.512405,202.46454 424.975185,0 c 1.19945,0 2.16508,1.01138 2.16508,2.26769 l 0,14.76996 c 0,1.25631 -0.96563,2.2677 -2.16508,2.2677 l -424.975185,0 c -1.1994537,0 -2.16507902,-1.01139 -2.16507902,-2.2677 l 0,-14.76996 c 0,-1.25631 0.96562532,-2.26769 2.16507902,-2.26769 z"
       style="fill:#008000;fill-opacity:1;fill-rule:nonzero;stroke:#000000;stroke-width:0.69465196;stroke-linecap:round;stroke-linejoin:round;stroke-miterlimit:4;stroke-dasharray:none;stroke-opacity:1" />
    <path
       id="rect4136-0-42"
       d="m 2.5124049,302.46454 424.9751851,0 c 1.19945,0 2.16508,1.01139 2.16508,2.26771 l 0,14.76993 c 0,1.25632 -0.96563,2.26771 -2.16508,2.26771 l -424.9751851,0 c -1.1994537,0 -2.16507899,-1.01139 -2.16507899,-2.26771 l 0,-14.76993 c 0,-1.25632 0.96562529,-2.26771 2.16507899,-2.26771 z"
       style="fill:#008000;fill-opacity:1;fill-rule:nonzero;stroke:#000000;stroke-width:0.69465184;stroke-linecap:round;stroke-linejoin:round;stroke-miterlimit:4;stroke-dasharray:none;stroke-opacity:1" />
    <g
       id="flowRoot4219"
       style="font-style:normal;font-variant:normal;font-weight:bold;font-stretch:normal;font-size:80px;line-height:125%;font-family:sans-serif;-inkscape-font-specification:'sans-serif Bold';letter-spacing:0px;word-spacing:0px;fill:#ff0000;fill-opacity:1;stroke:#000000;stroke-width:1px;stroke-linecap:butt;stroke-linejoin:miter;stroke-opacity:1"
       transform="matrix(1.484815,0,0,1.5631588,-73.259419,62.933175)">
      <path
         id="path4350"
         style="fill:#ff0000;fill-opacity:1;stroke:#000000;stroke-opacity:1"
         d="m 103.48438,141.34703 q 0,4.21875 -1.71875,7.53906 -1.67969,3.32032 -4.648443,5.50782 -3.4375,2.57812 -7.578125,3.67187 -4.101562,1.09375 -10.429687,1.09375 l -25.390625,0 0,-58.16406 22.578125,0 q 7.03125,0 10.273437,0.46875 3.28125,0.46875 6.484375,2.07031 3.320313,1.67969 4.921875,4.53125 1.640625,2.8125 1.640625,6.44531 0,4.21875 -2.226562,7.46094 -2.226563,3.20313 -6.289063,5 l 0,0.3125 q 5.703125,1.13281 9.023438,4.6875 3.35938,3.55469 3.35938,9.375 z M 84.265625,117.44078 q 0,-1.44531 -0.742188,-2.89062 -0.703125,-1.44532 -2.539062,-2.14844 -1.640625,-0.625 -4.101563,-0.66406 -2.421875,-0.0781 -6.835937,-0.0781 l -1.40625,0 0,12.30469 2.34375,0 q 3.554687,0 6.054687,-0.11719 2.5,-0.11719 3.945313,-0.78125 2.03125,-0.89844 2.65625,-2.30469 0.625,-1.44531 0.625,-3.32031 z m 3.671875,23.67188 q 0,-2.77344 -1.09375,-4.25782 -1.054688,-1.52343 -3.632813,-2.26562 -1.757812,-0.50781 -4.84375,-0.54688 -3.085937,-0.0391 -6.445312,-0.0391 l -3.28125,0 0,14.49219 1.09375,0 q 6.328125,0 9.0625,-0.0391 2.734375,-0.0391 5.039062,-1.01563 2.34375,-0.97656 3.203125,-2.57812 0.898438,-1.64063 0.898438,-3.75 z" />
      <path
         id="path4352"
         style="fill:#ff0000;fill-opacity:1;stroke:#000000;stroke-opacity:1"
         d="m 165.59375,138.10484 q 0,10.78125 -6.5625,16.52344 -6.5625,5.74219 -19.33594,5.74219 -12.77343,0 -19.33593,-5.74219 -6.52344,-5.74219 -6.52344,-16.48437 l 0,-37.14844 15.07812,0 0,36.28906 q 0,6.05469 2.53906,9.02344 2.53907,2.96875 8.24219,2.96875 5.625,0 8.20313,-2.85156 2.61718,-2.85157 2.61718,-9.14063 l 0,-36.28906 15.07813,0 0,37.10937 z" />
      <path
         id="path4354"
         style="fill:#ff0000;fill-opacity:1;stroke:#000000;stroke-opacity:1"
         d="m 226.21875,140.87828 q 0,8.59375 -7.30469,13.98438 -7.26562,5.35156 -19.76562,5.35156 -7.22657,0 -12.61719,-1.25 -5.35156,-1.28906 -10.03906,-3.24219 l 0,-13.94531 1.64062,0 q 4.64844,3.71094 10.39063,5.70312 5.78125,1.99219 11.09375,1.99219 1.36718,0 3.59375,-0.23437 2.22656,-0.23438 3.63281,-0.78125 1.71875,-0.70313 2.8125,-1.75782 1.13281,-1.05468 1.13281,-3.125 0,-1.91406 -1.64062,-3.28125 -1.60157,-1.40625 -4.72657,-2.14843 -3.28125,-0.78125 -6.95312,-1.44532 -3.63281,-0.70312 -6.83594,-1.75781 -7.34375,-2.38281 -10.58594,-6.44531 -3.20312,-4.10156 -3.20312,-10.15625 0,-8.125 7.26562,-13.24219 7.30469,-5.156248 18.75,-5.156248 5.74219,0 11.32813,1.132808 5.625,1.09375 9.72656,2.77344 l 0,13.39844 -1.60156,0 q -3.51563,-2.8125 -8.63281,-4.6875 -5.07813,-1.91406 -10.39063,-1.91406 -1.875,0 -3.75,0.27343 -1.83594,0.23438 -3.55469,0.9375 -1.52343,0.58594 -2.61718,1.79688 -1.09375,1.17187 -1.09375,2.69531 0,2.30469 1.75781,3.55469 1.75781,1.21094 6.64062,2.22656 3.20313,0.66406 6.13282,1.28906 2.96875,0.625 6.36718,1.71875 6.67969,2.1875 9.84375,5.97657 3.20313,3.75 3.20313,9.76562 z" />
    </g>
    <path
       id="rect4227"
       d="m 408.95137,194.08266 4.86371,0 c 1.17686,0 2.12429,0.94743 2.12429,2.12428 l 0,286.77859 c 0,1.17686 -0.94743,2.12429 -2.12429,2.12429 l -4.86371,0 c -1.17685,0 -2.12428,-0.94743 -2.12428,-2.12429 l 0,-286.77859 c 0,-1.17685 0.94743,-2.12428 2.12428,-2.12428 z"
       style="fill:#ff0000;fill-opacity:1;fill-rule:nonzero;stroke:#000000;stroke-width:1.46218693;stroke-linecap:round;stroke-linejoin:round;stroke-miterlimit:4;stroke-dasharray:none;stroke-opacity:1" />
    <g
       id="flowRoot4231"
       style="font-style:normal;font-weight:normal;font-size:35px;line-height:125%;font-family:sans-serif;letter-spacing:0px;word-spacing:0px;fill:#000000;fill-opacity:1;stroke:#000000;stroke-width:1px;stroke-linecap:butt;stroke-linejoin:miter;stroke-opacity:1"
       transform="matrix(1.9823698,0,0,2.8878146,-223.96509,38.201007)">
      <path
         id="path4334"
         style="font-style:normal;font-variant:normal;font-weight:bold;font-stretch:normal;font-size:35px;font-family:sans-serif;-inkscape-font-specification:'sans-serif Bold';fill:#ff0000;fill-opacity:1;stroke:#000000;stroke-opacity:1"
         d="m 135.63672,117.32797 -14.08203,0 q 0.13672,2.25586 1.70898,3.45215 1.58936,1.19629 4.66553,1.19629 1.94824,0 3.77685,-0.70068 1.82862,-0.70069 2.88819,-1.50391 l 0.68359,0 0,4.93897 q -2.08496,0.8374 -3.93066,1.21338 -1.84571,0.37597 -4.08447,0.37597 -5.77637,0 -8.85254,-2.59765 -3.07618,-2.59766 -3.07618,-7.39991 0,-4.75097 2.90528,-7.51953 2.92236,-2.78564 7.99804,-2.78564 4.68262,0 7.04102,2.37549 2.3584,2.35839 2.3584,6.80175 l 0,2.15332 z m -6.11817,-3.60595 q -0.0513,-1.93116 -0.95703,-2.90528 -0.90576,-0.97412 -2.81982,-0.97412 -1.77734,0 -2.92236,0.92285 -1.14502,0.92286 -1.28174,2.95655 l 7.98095,0 z" />
      <path
         id="path4336"
         style="font-style:normal;font-variant:normal;font-weight:bold;font-stretch:normal;font-size:35px;font-family:sans-serif;-inkscape-font-specification:'sans-serif Bold';fill:#ff0000;fill-opacity:1;stroke:#000000;stroke-opacity:1"
         d="m 159.25488,125.78745 -6.18652,0 0,-9.51905 q 0,-1.16211 -0.11963,-2.30713 -0.11963,-1.1621 -0.41016,-1.70898 -0.34179,-0.63232 -1.0083,-0.92285 -0.64941,-0.29053 -1.82861,-0.29053 -0.8374,0 -1.70898,0.27344 -0.8545,0.27344 -1.8628,0.87158 l 0,13.60352 -6.15234,0 0,-19.1919 6.15234,0 0,2.11914 q 1.64063,-1.28174 3.14453,-1.96533 1.521,-0.68359 3.3667,-0.68359 3.11035,0 4.85352,1.81152 1.76025,1.81152 1.76025,5.41748 l 0,12.49268 z" />
      <path
         id="path4338"
         style="font-style:normal;font-variant:normal;font-weight:bold;font-stretch:normal;font-size:35px;font-family:sans-serif;-inkscape-font-specification:'sans-serif Bold';fill:#ff0000;fill-opacity:1;stroke:#000000;stroke-opacity:1"
         d="m 176.5498,120.78012 0,-3.99902 q -1.24755,0.10254 -2.70019,0.29053 -1.45264,0.17089 -2.20459,0.41015 -0.92285,0.29053 -1.41846,0.85449 -0.47851,0.54688 -0.47851,1.45264 0,0.59815 0.10254,0.97412 0.10253,0.37598 0.51269,0.71778 0.39307,0.34179 0.93994,0.51269 0.54688,0.15381 1.70899,0.15381 0.92285,0 1.86279,-0.37598 0.95703,-0.37597 1.6748,-0.99121 z m 0,2.97364 q -0.4956,0.37597 -1.23046,0.90576 -0.73487,0.52978 -1.38428,0.8374 -0.90576,0.41016 -1.87988,0.59814 -0.97413,0.20508 -2.13623,0.20508 -2.73438,0 -4.58008,-1.69189 -1.84571,-1.6919 -1.84571,-4.32373 0,-2.10205 0.93995,-3.43506 0.93994,-1.33301 2.66601,-2.10205 1.70899,-0.76905 4.23828,-1.09375 2.5293,-0.32471 5.24658,-0.47852 l 0,-0.10254 q 0,-1.58935 -1.29882,-2.1875 -1.29883,-0.61523 -3.82813,-0.61523 -1.52099,0 -3.24707,0.54687 -1.72607,0.52979 -2.47803,0.82032 l -0.56396,0 0,-4.63135 q 0.97412,-0.25635 3.16162,-0.59815 2.20459,-0.35888 4.40918,-0.35888 5.24658,0 7.5708,1.62353 2.34131,1.60645 2.34131,5.0586 l 0,13.05664 -6.10108,0 0,-2.03369 z" />
      <path
         id="path4340"
         style="font-style:normal;font-variant:normal;font-weight:bold;font-stretch:normal;font-size:35px;font-family:sans-serif;-inkscape-font-specification:'sans-serif Bold';fill:#ff0000;fill-opacity:1;stroke:#000000;stroke-opacity:1"
         d="m 208.33691,115.92661 q 0,4.52881 -2.5122,7.38281 -2.49512,2.854 -6.2378,2.854 -1.60644,0 -2.81982,-0.34179 -1.21338,-0.3418 -2.30713,-0.99121 l -0.25635,0.95703 -5.89599,0 0,-26.5918 6.15234,0 0,9.39941 q 1.41846,-1.12793 2.88818,-1.82861 1.48682,-0.70068 3.41797,-0.70068 3.64014,0 5.60547,2.63183 1.96533,2.61475 1.96533,7.22901 z m -6.34033,0.11963 q 0,-2.56348 -0.87158,-3.94776 -0.87158,-1.38428 -3.11035,-1.38428 -0.87158,0 -1.79444,0.27344 -0.92285,0.25635 -1.76025,0.75196 l 0,9.63867 q 0.6665,0.23925 1.26465,0.3247 0.59814,0.0855 1.43555,0.0855 2.44384,0 3.64013,-1.43554 1.19629,-1.43555 1.19629,-4.30664 z" />
      <path
         id="path4342"
         style="font-style:normal;font-variant:normal;font-weight:bold;font-stretch:normal;font-size:35px;font-family:sans-serif;-inkscape-font-specification:'sans-serif Bold';fill:#ff0000;fill-opacity:1;stroke:#000000;stroke-opacity:1"
         d="m 218.93262,125.78745 -6.15235,0 0,-26.5918 6.15235,0 0,26.5918 z" />
      <path
         id="path4344"
         style="font-style:normal;font-variant:normal;font-weight:bold;font-stretch:normal;font-size:35px;font-family:sans-serif;-inkscape-font-specification:'sans-serif Bold';fill:#ff0000;fill-opacity:1;stroke:#000000;stroke-opacity:1"
         d="m 243.64453,117.32797 -14.08203,0 q 0.13672,2.25586 1.70898,3.45215 1.58936,1.19629 4.66553,1.19629 1.94824,0 3.77686,-0.70068 1.82861,-0.70069 2.88818,-1.50391 l 0.68359,0 0,4.93897 q -2.08496,0.8374 -3.93066,1.21338 -1.8457,0.37597 -4.08447,0.37597 -5.77637,0 -8.85254,-2.59765 -3.07617,-2.59766 -3.07617,-7.39991 0,-4.75097 2.90527,-7.51953 2.92236,-2.78564 7.99805,-2.78564 4.68261,0 7.04101,2.37549 2.3584,2.35839 2.3584,6.80175 l 0,2.15332 z m -6.11816,-3.60595 q -0.0513,-1.93116 -0.95703,-2.90528 -0.90577,-0.97412 -2.81983,-0.97412 -1.77734,0 -2.92236,0.92285 -1.14502,0.92286 -1.28174,2.95655 l 7.98096,0 z" />
      <path
         id="path4346"
         style="font-style:normal;font-variant:normal;font-weight:bold;font-stretch:normal;font-size:35px;font-family:sans-serif;-inkscape-font-specification:'sans-serif Bold';fill:#ff0000;fill-opacity:1;stroke:#000000;stroke-opacity:1"
         d="m 261.89648,112.45737 -0.54687,0 q -0.39307,-0.13672 -1.26465,-0.20508 -0.87158,-0.0684 -1.45264,-0.0684 -1.31591,0 -2.32421,0.1709 -1.00831,0.1709 -2.17041,0.58105 l 0,12.85157 -6.15235,0 0,-19.1919 6.15235,0 0,2.81983 q 2.03369,-1.74317 3.53759,-2.30713 1.50391,-0.58106 2.76856,-0.58106 0.3247,0 0.73486,0.0171 0.41016,0.0171 0.71777,0.0513 l 0,5.86182 z" />
    </g>
    <path
       id="rect4227-4"
       d="m 0.5108277,482.22827 98.9783413,0 c 0.0392,0 0.07076,0.0316 0.07076,0.0708 l 0,9.55234 c 0,0.0392 -0.03156,0.0708 -0.07076,0.0708 l -98.9783413,0 c -0.0392,0 -0.0707581,-0.0316 -0.0707581,-0.0708 l 0,-9.55234 c 0,-0.0392 0.0315581,-0.0708 0.0707581,-0.0708 z"
       style="fill:#ff0000;fill-opacity:1;fill-rule:nonzero;stroke:#000000;stroke-width:0.88013917;stroke-linecap:round;stroke-linejoin:round;stroke-miterlimit:4;stroke-dasharray:none;stroke-opacity:1" />
    <path
       id="rect4227-4-2"
       d="m 180.72119,482.44177 228.5576,0 c 0.0375,0 0.0676,0.0302 0.0676,0.0676 l 0,9.1316 c 0,0.0375 -0.0302,0.0676 -0.0676,0.0676 l -228.5576,0 c -0.0375,0 -0.0676,-0.0302 -0.0676,-0.0676 l 0,-9.1316 c 0,-0.0375 0.0302,-0.0676 0.0676,-0.0676 z"
       style="fill:#ff0000;fill-opacity:1;fill-rule:nonzero;stroke:#000000;stroke-width:1.3071208;stroke-linecap:round;stroke-linejoin:round;stroke-miterlimit:4;stroke-dasharray:none;stroke-opacity:1" />
    <path
       id="rect4227-4-2-0"
       d="M 89.897974,483.39022 172.3039,428.56345 c 0.0326,-0.0217 0.0764,-0.0129 0.0981,0.0197 l 5.2913,7.95296 c 0.0217,0.0326 0.0129,0.0763 -0.0197,0.0981 l -82.405931,54.82677 c -0.03264,0.0217 -0.07636,0.013 -0.09808,-0.0197 l -5.291304,-7.95296 c -0.02171,-0.0326 -0.01294,-0.0764 0.01969,-0.0981 z"
       style="fill:#ff0000;fill-opacity:1;fill-rule:nonzero;stroke:#000000;stroke-width:0.88013917;stroke-linecap:round;stroke-linejoin:round;stroke-miterlimit:4;stroke-dasharray:none;stroke-opacity:1" />
    <path
       id="path4311"
       d="m 105.31914,485.97891 a 10.106383,10.638298 0 0 1 -10.106379,10.6383 10.106383,10.638298 0 0 1 -10.106383,-10.6383 10.106383,10.638298 0 0 1 10.106383,-10.6383 10.106383,10.638298 0 0 1 10.106379,10.6383 z"
       style="fill:#ff0000;fill-opacity:1;fill-rule:nonzero;stroke:#000000;stroke-width:1;stroke-linecap:round;stroke-linejoin:round;stroke-miterlimit:4;stroke-dasharray:none;stroke-opacity:1" />
    <path
       id="path4311-7"
       d="m 418.82977,483.21326 a 10.106383,10.638298 0 0 1 -10.10638,10.63829 10.106383,10.638298 0 0 1 -10.10638,-10.63829 10.106383,10.638298 0 0 1 10.10638,-10.6383 10.106383,10.638298 0 0 1 10.10638,10.6383 z"
       style="fill:#ff0000;fill-opacity:1;fill-rule:nonzero;stroke:#000000;stroke-width:1;stroke-linecap:round;stroke-linejoin:round;stroke-miterlimit:4;stroke-dasharray:none;stroke-opacity:1" />
    <path
       id="path4311-2"
       d="m 193.67276,486.27976 a 10.106383,10.638298 0 0 1 -10.10638,10.6383 10.106383,10.638298 0 0 1 -10.10638,-10.6383 10.106383,10.638298 0 0 1 10.10638,-10.6383 10.106383,10.638298 0 0 1 10.10638,10.6383 z"
       style="fill:#ff0000;fill-opacity:1;fill-rule:nonzero;stroke:#000000;stroke-width:1;stroke-linecap:round;stroke-linejoin:round;stroke-miterlimit:4;stroke-dasharray:none;stroke-opacity:1" />
    <g
       id="text4381-0"
       style="font-style:normal;font-weight:normal;font-size:57.91862869px;line-height:125%;font-family:sans-serif;letter-spacing:0px;word-spacing:0px;fill:#000000;fill-opacity:1;stroke:#000000;stroke-width:1px;stroke-linecap:butt;stroke-linejoin:miter;stroke-opacity:1"
       transform="matrix(0.87278488,0,0,1.1457577,-408.89761,58.181112)">
      <g
         transform="matrix(1.1457577,0,0,0.87278488,477.52819,117.97473)"
         style="font-style:normal;font-weight:normal;font-size:40px;line-height:125%;font-family:sans-serif;letter-spacing:0px;word-spacing:0px;fill:#000000;fill-opacity:1;stroke:none;stroke-width:1px;stroke-linecap:butt;stroke-linejoin:miter;stroke-opacity:1"
         id="flowRoot4413" />
      <g
         transform="scale(1.1457577,0.87278488)"
         style="font-style:normal;font-weight:normal;font-size:40px;line-height:125%;font-family:sans-serif;letter-spacing:0px;word-spacing:0px;fill:#000000;fill-opacity:1;stroke:none;stroke-width:1px;stroke-linecap:butt;stroke-linejoin:miter;stroke-opacity:1"
         id="text4452" />
    </g>
    <g
       style="font-style:normal;font-weight:normal;font-size:40px;line-height:125%;font-family:sans-serif;letter-spacing:0px;word-spacing:0px;fill:#000000;fill-opacity:1;stroke:none;stroke-width:1px;stroke-linecap:butt;stroke-linejoin:miter;stroke-opacity:1"
       id="flowRoot4463" />
    <g
       transform="matrix(1.6593902,0,0,1.6911527,515.01787,-102.22259)"
       style="font-style:normal;font-weight:normal;font-size:40px;line-height:125%;font-family:sans-serif;letter-spacing:0px;word-spacing:0px;fill:#000000;fill-opacity:1;stroke:none;stroke-width:1px;stroke-linecap:butt;stroke-linejoin:miter;stroke-opacity:1"
       id="flowRoot4471">
      <path
         d="m -78.849609,228.67776 q 0,5.09766 -1.933594,9.49219 -1.889649,4.35059 -5.537109,7.47071 -4.042969,3.33984 -9.316407,4.96582 -5.229491,1.58203 -11.953121,1.58203 -7.86621,-0.0439 -13.31543,-1.27442 -5.40528,-1.18652 -8.83301,-2.68066 l 0,-14.45801 1.8457,0 q 3.99903,2.37305 8.61328,3.95508 4.61426,1.58203 9.18457,1.58203 2.76856,0 5.97657,-0.61523 3.25195,-0.65918 5.141598,-2.32911 1.49414,-1.3623 2.24121,-2.76855 0.791016,-1.40625 0.791016,-4.35059 0,-2.28515 -1.054687,-3.91113 -1.010743,-1.66992 -2.636719,-2.68066 -2.373048,-1.4502 -5.712888,-1.88965 -3.33985,-0.4834 -6.06446,-0.4834 -3.95507,0 -7.60254,0.70313 -3.60351,0.65917 -6.32812,1.31835 l -1.93359,0 0,-36.91406 46.538082,0 0,12.52442 -30.673832,0 0,10.67871 q 1.36231,-0.0879 3.42774,-0.13184 2.10937,-0.0879 3.6914,-0.0879 5.405278,0 9.624028,1.05469 4.262695,1.01074 7.338867,2.85644 3.999024,2.417 6.240235,6.41602 2.241211,3.95508 2.241211,9.97558 z"
         style="font-style:normal;font-variant:normal;font-weight:bold;font-stretch:normal;font-size:90px;font-family:sans-serif;-inkscape-font-specification:'sans-serif Bold';fill:#0000ff;fill-opacity:1;stroke:#000000;stroke-opacity:1"
         id="path4181" />
    </g>
  </g>
</svg>
