<?xml version="1.0" encoding="UTF-8" standalone="no"?>
<!-- Created with Inkscape (http://www.inkscape.org/) -->

<svg
   xmlns:dc="http://purl.org/dc/elements/1.1/"
   xmlns:cc="http://creativecommons.org/ns#"
   xmlns:rdf="http://www.w3.org/1999/02/22-rdf-syntax-ns#"
   xmlns:svg="http://www.w3.org/2000/svg"
   xmlns="http://www.w3.org/2000/svg"
   xmlns:sodipodi="http://sodipodi.sourceforge.net/DTD/sodipodi-0.dtd"
   xmlns:inkscape="http://www.inkscape.org/namespaces/inkscape"
   width="121.49458mm"
   height="76.929222mm"
   viewBox="0 0 430.49262 272.58386"
   id="svg2"
   version="1.1"
   inkscape:version="0.91 r13725"
   sodipodi:docname="line_1bit_enabler.svg">
  <defs
     id="defs4" />
  <sodipodi:namedview
     id="base"
     pagecolor="#ffffff"
     bordercolor="#666666"
     borderopacity="1.0"
     inkscape:pageopacity="0.0"
     inkscape:pageshadow="2"
     inkscape:zoom="2.34"
     inkscape:cx="275.88534"
     inkscape:cy="84.114325"
     inkscape:document-units="px"
     inkscape:current-layer="layer1"
     showgrid="false"
     inkscape:window-width="1920"
     inkscape:window-height="1178"
     inkscape:window-x="1912"
     inkscape:window-y="-8"
     inkscape:window-maximized="1"
     fit-margin-top="0"
     fit-margin-left="0"
     fit-margin-right="0"
     fit-margin-bottom="0" />
  <metadata
     id="metadata7">
    <rdf:RDF>
      <cc:Work
         rdf:about="">
        <dc:format>image/svg+xml</dc:format>
        <dc:type
           rdf:resource="http://purl.org/dc/dcmitype/StillImage" />
        <dc:title></dc:title>
      </cc:Work>
    </rdf:RDF>
  </metadata>
  <g
     inkscape:label="Capa 1"
     inkscape:groupmode="layer"
     id="layer1"
     transform="translate(-1.0814683e-7,-203.17767)">
    <path
       style="fill:#008000;fill-opacity:1;fill-rule:nonzero;stroke:#000000;stroke-width:0.69465178;stroke-linecap:round;stroke-linejoin:round;stroke-miterlimit:4;stroke-dasharray:none;stroke-opacity:1"
       d="m 3.0050155,342.1197 424.9751845,0 c 1.19945,0 2.16508,1.0114 2.16508,2.26772 l 0,14.76992 c 0,1.25632 -0.96563,2.26772 -2.16508,2.26772 l -424.9751845,0 c -1.1994537,0 -2.16507878,-1.0114 -2.16507878,-2.26772 l 0,-14.76992 c 0,-1.25632 0.96562508,-2.26772 2.16507878,-2.26772 z"
       id="rect4136-2"
       inkscape:connector-curvature="0" />
    <g
       transform="matrix(2.4269723,0,0,3.3229258,-246.00124,54.41407)"
       style="font-style:normal;font-weight:normal;font-size:35px;line-height:125%;font-family:sans-serif;letter-spacing:0px;word-spacing:0px;fill:#000000;fill-opacity:1;stroke:#000000;stroke-width:1px;stroke-linecap:butt;stroke-linejoin:miter;stroke-opacity:1"
       id="flowRoot4231">
      <path
         d="m 135.63672,117.32797 -14.08203,0 q 0.13672,2.25586 1.70898,3.45215 1.58936,1.19629 4.66553,1.19629 1.94824,0 3.77685,-0.70068 1.82862,-0.70069 2.88819,-1.50391 l 0.68359,0 0,4.93897 q -2.08496,0.8374 -3.93066,1.21338 -1.84571,0.37597 -4.08447,0.37597 -5.77637,0 -8.85254,-2.59765 -3.07618,-2.59766 -3.07618,-7.39991 0,-4.75097 2.90528,-7.51953 2.92236,-2.78564 7.99804,-2.78564 4.68262,0 7.04102,2.37549 2.3584,2.35839 2.3584,6.80175 l 0,2.15332 z m -6.11817,-3.60595 q -0.0513,-1.93116 -0.95703,-2.90528 -0.90576,-0.97412 -2.81982,-0.97412 -1.77734,0 -2.92236,0.92285 -1.14502,0.92286 -1.28174,2.95655 l 7.98095,0 z"
         style="font-style:normal;font-variant:normal;font-weight:bold;font-stretch:normal;font-size:35px;font-family:sans-serif;-inkscape-font-specification:'sans-serif Bold';fill:#ff0000;fill-opacity:1;stroke:#000000;stroke-opacity:1"
         id="path4334"
         inkscape:connector-curvature="0" />
      <path
         d="m 159.25488,125.78745 -6.18652,0 0,-9.51905 q 0,-1.16211 -0.11963,-2.30713 -0.11963,-1.1621 -0.41016,-1.70898 -0.34179,-0.63232 -1.0083,-0.92285 -0.64941,-0.29053 -1.82861,-0.29053 -0.8374,0 -1.70898,0.27344 -0.8545,0.27344 -1.8628,0.87158 l 0,13.60352 -6.15234,0 0,-19.1919 6.15234,0 0,2.11914 q 1.64063,-1.28174 3.14453,-1.96533 1.521,-0.68359 3.3667,-0.68359 3.11035,0 4.85352,1.81152 1.76025,1.81152 1.76025,5.41748 l 0,12.49268 z"
         style="font-style:normal;font-variant:normal;font-weight:bold;font-stretch:normal;font-size:35px;font-family:sans-serif;-inkscape-font-specification:'sans-serif Bold';fill:#ff0000;fill-opacity:1;stroke:#000000;stroke-opacity:1"
         id="path4336"
         inkscape:connector-curvature="0" />
      <path
         d="m 176.5498,120.78012 0,-3.99902 q -1.24755,0.10254 -2.70019,0.29053 -1.45264,0.17089 -2.20459,0.41015 -0.92285,0.29053 -1.41846,0.85449 -0.47851,0.54688 -0.47851,1.45264 0,0.59815 0.10254,0.97412 0.10253,0.37598 0.51269,0.71778 0.39307,0.34179 0.93994,0.51269 0.54688,0.15381 1.70899,0.15381 0.92285,0 1.86279,-0.37598 0.95703,-0.37597 1.6748,-0.99121 z m 0,2.97364 q -0.4956,0.37597 -1.23046,0.90576 -0.73487,0.52978 -1.38428,0.8374 -0.90576,0.41016 -1.87988,0.59814 -0.97413,0.20508 -2.13623,0.20508 -2.73438,0 -4.58008,-1.69189 -1.84571,-1.6919 -1.84571,-4.32373 0,-2.10205 0.93995,-3.43506 0.93994,-1.33301 2.66601,-2.10205 1.70899,-0.76905 4.23828,-1.09375 2.5293,-0.32471 5.24658,-0.47852 l 0,-0.10254 q 0,-1.58935 -1.29882,-2.1875 -1.29883,-0.61523 -3.82813,-0.61523 -1.52099,0 -3.24707,0.54687 -1.72607,0.52979 -2.47803,0.82032 l -0.56396,0 0,-4.63135 q 0.97412,-0.25635 3.16162,-0.59815 2.20459,-0.35888 4.40918,-0.35888 5.24658,0 7.5708,1.62353 2.34131,1.60645 2.34131,5.0586 l 0,13.05664 -6.10108,0 0,-2.03369 z"
         style="font-style:normal;font-variant:normal;font-weight:bold;font-stretch:normal;font-size:35px;font-family:sans-serif;-inkscape-font-specification:'sans-serif Bold';fill:#ff0000;fill-opacity:1;stroke:#000000;stroke-opacity:1"
         id="path4338"
         inkscape:connector-curvature="0" />
      <path
         d="m 208.33691,115.92661 q 0,4.52881 -2.5122,7.38281 -2.49512,2.854 -6.2378,2.854 -1.60644,0 -2.81982,-0.34179 -1.21338,-0.3418 -2.30713,-0.99121 l -0.25635,0.95703 -5.89599,0 0,-26.5918 6.15234,0 0,9.39941 q 1.41846,-1.12793 2.88818,-1.82861 1.48682,-0.70068 3.41797,-0.70068 3.64014,0 5.60547,2.63183 1.96533,2.61475 1.96533,7.22901 z m -6.34033,0.11963 q 0,-2.56348 -0.87158,-3.94776 -0.87158,-1.38428 -3.11035,-1.38428 -0.87158,0 -1.79444,0.27344 -0.92285,0.25635 -1.76025,0.75196 l 0,9.63867 q 0.6665,0.23925 1.26465,0.3247 0.59814,0.0855 1.43555,0.0855 2.44384,0 3.64013,-1.43554 1.19629,-1.43555 1.19629,-4.30664 z"
         style="font-style:normal;font-variant:normal;font-weight:bold;font-stretch:normal;font-size:35px;font-family:sans-serif;-inkscape-font-specification:'sans-serif Bold';fill:#ff0000;fill-opacity:1;stroke:#000000;stroke-opacity:1"
         id="path4340"
         inkscape:connector-curvature="0" />
      <path
         d="m 218.93262,125.78745 -6.15235,0 0,-26.5918 6.15235,0 0,26.5918 z"
         style="font-style:normal;font-variant:normal;font-weight:bold;font-stretch:normal;font-size:35px;font-family:sans-serif;-inkscape-font-specification:'sans-serif Bold';fill:#ff0000;fill-opacity:1;stroke:#000000;stroke-opacity:1"
         id="path4342"
         inkscape:connector-curvature="0" />
      <path
         d="m 243.64453,117.32797 -14.08203,0 q 0.13672,2.25586 1.70898,3.45215 1.58936,1.19629 4.66553,1.19629 1.94824,0 3.77686,-0.70068 1.82861,-0.70069 2.88818,-1.50391 l 0.68359,0 0,4.93897 q -2.08496,0.8374 -3.93066,1.21338 -1.8457,0.37597 -4.08447,0.37597 -5.77637,0 -8.85254,-2.59765 -3.07617,-2.59766 -3.07617,-7.39991 0,-4.75097 2.90527,-7.51953 2.92236,-2.78564 7.99805,-2.78564 4.68261,0 7.04101,2.37549 2.3584,2.35839 2.3584,6.80175 l 0,2.15332 z m -6.11816,-3.60595 q -0.0513,-1.93116 -0.95703,-2.90528 -0.90577,-0.97412 -2.81983,-0.97412 -1.77734,0 -2.92236,0.92285 -1.14502,0.92286 -1.28174,2.95655 l 7.98096,0 z"
         style="font-style:normal;font-variant:normal;font-weight:bold;font-stretch:normal;font-size:35px;font-family:sans-serif;-inkscape-font-specification:'sans-serif Bold';fill:#ff0000;fill-opacity:1;stroke:#000000;stroke-opacity:1"
         id="path4344"
         inkscape:connector-curvature="0" />
      <path
         d="m 261.89648,112.45737 -0.54687,0 q -0.39307,-0.13672 -1.26465,-0.20508 -0.87158,-0.0684 -1.45264,-0.0684 -1.31591,0 -2.32421,0.1709 -1.00831,0.1709 -2.17041,0.58105 l 0,12.85157 -6.15235,0 0,-19.1919 6.15235,0 0,2.81983 q 2.03369,-1.74317 3.53759,-2.30713 1.50391,-0.58106 2.76856,-0.58106 0.3247,0 0.73486,0.0171 0.41016,0.0171 0.71777,0.0513 l 0,5.86182 z"
         style="font-style:normal;font-variant:normal;font-weight:bold;font-stretch:normal;font-size:35px;font-family:sans-serif;-inkscape-font-specification:'sans-serif Bold';fill:#ff0000;fill-opacity:1;stroke:#000000;stroke-opacity:1"
         id="path4346"
         inkscape:connector-curvature="0" />
    </g>
    <path
       style="fill:#ff0000;fill-opacity:1;fill-rule:nonzero;stroke:#000000;stroke-width:1.1038686;stroke-linecap:round;stroke-linejoin:round;stroke-miterlimit:4;stroke-dasharray:none;stroke-opacity:1"
       d="m 0.66586996,361.65046 159.37221004,0 c 0.0629,0 0.11428,0.0313 0.11428,0.0702 l 0,9.33182 c 0,0.0389 -0.0511,0.0702 -0.11428,0.0702 l -159.37221004,0 c -0.0631169,0 -0.11393555,-0.0313 -0.11393555,-0.0702 l 0,-9.33182 c 0,-0.0389 0.0508183,-0.0702 0.11393555,-0.0702 z"
       id="rect4227-4"
       inkscape:connector-curvature="0" />
    <path
       style="fill:#ff0000;fill-opacity:1;fill-rule:nonzero;stroke:#000000;stroke-width:1.15613794;stroke-linecap:round;stroke-linejoin:round;stroke-miterlimit:4;stroke-dasharray:none;stroke-opacity:1"
       d="m 253.33027,361.67667 175.93959,0 c 0.0293,0 0.0521,0.0302 0.0521,0.0676 l 0,9.28036 c 0,0.0375 -0.0242,0.0676 -0.0521,0.0676 l -175.93959,0 c -0.0292,0 -0.0522,-0.0302 -0.0522,-0.0676 l 0,-9.28036 c 0,-0.0375 0.0241,-0.0676 0.0522,-0.0676 z"
       id="rect4227-4-2"
       inkscape:connector-curvature="0" />
    <path
       style="fill:#ff0000;fill-opacity:1;fill-rule:nonzero;stroke:#000000;stroke-width:0.88013917;stroke-linecap:round;stroke-linejoin:round;stroke-miterlimit:4;stroke-dasharray:none;stroke-opacity:1"
       d="m 164.4688,362.70056 82.40592,-54.82677 c 0.0326,-0.0217 0.0764,-0.0129 0.0981,0.0197 l 5.2913,7.95296 c 0.0217,0.0326 0.0129,0.0763 -0.0197,0.0981 l -82.40593,54.82677 c -0.0326,0.0217 -0.0764,0.013 -0.0981,-0.0197 l -5.2913,-7.95296 c -0.0217,-0.0326 -0.0129,-0.0764 0.0197,-0.0981 z"
       id="rect4227-4-2-0"
       inkscape:connector-curvature="0" />
    <path
       style="fill:#ff0000;fill-opacity:1;fill-rule:nonzero;stroke:#000000;stroke-width:1;stroke-linecap:round;stroke-linejoin:round;stroke-miterlimit:4;stroke-dasharray:none;stroke-opacity:1"
       d="m 176.84276,364.79664 a 10.106383,10.638298 0 0 1 -10.10638,10.6383 10.106383,10.638298 0 0 1 -10.10638,-10.6383 10.106383,10.638298 0 0 1 10.10638,-10.6383 10.106383,10.638298 0 0 1 10.10638,10.6383 z"
       id="path4311"
       inkscape:connector-curvature="0" />
    <path
       style="fill:#ff0000;fill-opacity:1;fill-rule:nonzero;stroke:#000000;stroke-width:1;stroke-linecap:round;stroke-linejoin:round;stroke-miterlimit:4;stroke-dasharray:none;stroke-opacity:1"
       d="m 265.38076,365.09749 a 10.106383,10.638298 0 0 1 -10.10638,10.6383 10.106383,10.638298 0 0 1 -10.10638,-10.6383 10.106383,10.638298 0 0 1 10.10638,-10.6383 10.106383,10.638298 0 0 1 10.10638,10.6383 z"
       id="path4311-2"
       inkscape:connector-curvature="0" />
    <g
       transform="matrix(0.87278488,0,0,1.1457577,-408.89761,58.181112)"
       style="font-style:normal;font-weight:normal;font-size:57.91862869px;line-height:125%;font-family:sans-serif;letter-spacing:0px;word-spacing:0px;fill:#000000;fill-opacity:1;stroke:#000000;stroke-width:1px;stroke-linecap:butt;stroke-linejoin:miter;stroke-opacity:1"
       id="text4381-0">
      <flowRoot
         xml:space="preserve"
         id="flowRoot4413"
         style="font-style:normal;font-weight:normal;font-size:40px;line-height:125%;font-family:sans-serif;letter-spacing:0px;word-spacing:0px;fill:#000000;fill-opacity:1;stroke:none;stroke-width:1px;stroke-linecap:butt;stroke-linejoin:miter;stroke-opacity:1"
         transform="matrix(1.1457577,0,0,0.87278488,477.52819,117.97473)"><flowRegion
           id="flowRegion4415"><rect
             id="rect4417"
             width="54.679802"
             height="96.059113"
             x="-145.81281"
             y="78.943344" /></flowRegion><flowPara
           id="flowPara4419" /></flowRoot>      <text
         xml:space="preserve"
         style="font-style:normal;font-weight:normal;font-size:40px;line-height:125%;font-family:sans-serif;letter-spacing:0px;word-spacing:0px;fill:#000000;fill-opacity:1;stroke:none;stroke-width:1px;stroke-linecap:butt;stroke-linejoin:miter;stroke-opacity:1"
         x="262.59219"
         y="326.92169"
         id="text4452"
         sodipodi:linespacing="125%"
         transform="scale(1.1457577,0.87278488)"><tspan
           sodipodi:role="line"
           id="tspan4454"
           x="262.59219"
           y="326.92169" /></text>
    </g>
    <flowRoot
       xml:space="preserve"
       id="flowRoot4463"
       style="font-style:normal;font-weight:normal;font-size:40px;line-height:125%;font-family:sans-serif;letter-spacing:0px;word-spacing:0px;fill:#000000;fill-opacity:1;stroke:none;stroke-width:1px;stroke-linecap:butt;stroke-linejoin:miter;stroke-opacity:1"><flowRegion
         id="flowRegion4465"><rect
           id="rect4467"
           width="53.201969"
           height="45.812809"
           x="-132.51231"
           y="145.93842" /></flowRegion><flowPara
         id="flowPara4469" /></flowRoot>    <g
       transform="matrix(1.651134,0,0,1.9350269,392.50776,210.71112)"
       style="font-style:normal;font-variant:normal;font-weight:bold;font-stretch:normal;font-size:80px;line-height:125%;font-family:sans-serif;-inkscape-font-specification:'sans-serif Bold';letter-spacing:0px;word-spacing:0px;fill:#ff0000;fill-opacity:1;stroke:#000000;stroke-width:1px;stroke-linecap:butt;stroke-linejoin:miter;stroke-opacity:1"
       id="flowRoot4182">
      <path
         d="m -168.35937,54.770861 -41.95313,0 0,-58.164063 15,0 0,46.914063 26.95313,0 0,11.25 z"
         id="path4191"
         inkscape:connector-curvature="0" />
      <path
         d="m -127.92969,54.770861 -34.0625,0 0,-10.3125 9.53125,0 0,-37.539063 -9.53125,0 0,-10.3125 34.0625,0 0,10.3125 -9.53125,0 0,37.539063 9.53125,0 0,10.3125 z"
         id="path4193"
         inkscape:connector-curvature="0" />
      <path
         d="m -62.734375,54.770861 -14.453125,0 -24.6875,-39.921875 0,39.921875 -13.75,0 0,-58.164063 17.929688,0 21.210937,33.320313 0,-33.320313 13.75,0 0,58.164063 z"
         id="path4195"
         inkscape:connector-curvature="0" />
      <path
         d="m -5.7421875,54.770861 -42.0703125,0 0,-58.164063 42.0703125,0 0,11.25 -27.1484375,0 0,10.039063 25.1953125,0 0,11.25 -25.1953125,0 0,14.375 27.1484375,0 0,11.25 z"
         id="path4197"
         inkscape:connector-curvature="0" />
    </g>
  </g>
</svg>
