<?xml version="1.0" encoding="UTF-8" standalone="no"?>
<!-- Created with Inkscape (http://www.inkscape.org/) -->

<svg
   xmlns:dc="http://purl.org/dc/elements/1.1/"
   xmlns:cc="http://creativecommons.org/ns#"
   xmlns:rdf="http://www.w3.org/1999/02/22-rdf-syntax-ns#"
   xmlns:svg="http://www.w3.org/2000/svg"
   xmlns="http://www.w3.org/2000/svg"
   xmlns:sodipodi="http://sodipodi.sourceforge.net/DTD/sodipodi-0.dtd"
   xmlns:inkscape="http://www.inkscape.org/namespaces/inkscape"
   width="93.865692mm"
   height="63.779968mm"
   viewBox="0 0 332.59497 225.99201"
   id="svg2"
   version="1.1"
   inkscape:version="0.91 r13725"
   sodipodi:docname="splitter.svg">
  <defs
     id="defs4" />
  <sodipodi:namedview
     id="base"
     pagecolor="#ffffff"
     bordercolor="#666666"
     borderopacity="1.0"
     inkscape:pageopacity="0.0"
     inkscape:pageshadow="2"
     inkscape:zoom="0.7"
     inkscape:cx="39.751213"
     inkscape:cy="73.060056"
     inkscape:document-units="px"
     inkscape:current-layer="layer2"
     showgrid="false"
     showguides="true"
     inkscape:guide-bbox="true"
     inkscape:window-width="1855"
     inkscape:window-height="1056"
     inkscape:window-x="65"
     inkscape:window-y="24"
     inkscape:window-maximized="1"
     inkscape:snap-global="true"
     fit-margin-top="0"
     fit-margin-left="0"
     fit-margin-right="0"
     fit-margin-bottom="0" />
  <metadata
     id="metadata7">
    <rdf:RDF>
      <cc:Work
         rdf:about="">
        <dc:format>image/svg+xml</dc:format>
        <dc:type
           rdf:resource="http://purl.org/dc/dcmitype/StillImage" />
        <dc:title></dc:title>
      </cc:Work>
    </rdf:RDF>
  </metadata>
  <g
     inkscape:label="Layer 1"
     inkscape:groupmode="layer"
     id="layer1"
     style="display:inline"
     transform="translate(-184.13054,-190.83615)" />
  <g
     inkscape:groupmode="layer"
     id="layer2"
     inkscape:label="Layer 2"
     style="display:inline"
     transform="translate(-184.13054,-190.83615)">
    <path
       id="path4302-1-2"
       style="display:inline;opacity:1;fill:#008000;fill-opacity:1;stroke:#000000;stroke-width:0.99999994;stroke-linecap:round;stroke-linejoin:round;stroke-miterlimit:4;stroke-dasharray:none;stroke-dashoffset:0;stroke-opacity:1"
       d="m 352.50764,268.47913 61.14709,-60.93784 c 10.68433,-10.45534 25.03442,-16.2442 39.95909,-16.20494 l 62.6117,0 0,26.18621 -61.69807,0.0456 c -8.01174,-0.0428 -15.70507,3.13284 -21.46956,8.81038 l -61.4484,61.31435 c -10.71816,10.38367 -25.06825,16.17257 -39.99292,16.13927 14.92467,-0.0333 29.27476,5.75561 39.99292,16.13928 l 61.4484,61.31434 c 5.76449,5.67753 13.45782,8.8532 21.46956,8.81038 l 61.69807,0.0456 0,26.18621 -62.6117,0 c -14.92467,0.0392 -29.46299,-5.90016 -40.2038,-16.28023 l -60.90238,-60.86255 c -5.64787,-5.68127 -13.34121,-8.85693 -21.34706,-8.80954 l -146.53004,-0.11399 0,-52.96843 146.52415,0 c 8.01174,0.0428 15.70508,-3.13284 21.35295,-8.81412 z"
       inkscape:connector-curvature="0"
       sodipodi:nodetypes="cccccccccccccccccccccc" />
  </g>
</svg>
