<?xml version="1.0" encoding="UTF-8" standalone="no"?>
<!-- Created with Inkscape (http://www.inkscape.org/) -->

<svg
   xmlns:dc="http://purl.org/dc/elements/1.1/"
   xmlns:cc="http://creativecommons.org/ns#"
   xmlns:rdf="http://www.w3.org/1999/02/22-rdf-syntax-ns#"
   xmlns:svg="http://www.w3.org/2000/svg"
   xmlns="http://www.w3.org/2000/svg"
   xmlns:sodipodi="http://sodipodi.sourceforge.net/DTD/sodipodi-0.dtd"
   xmlns:inkscape="http://www.inkscape.org/namespaces/inkscape"
   width="42.856571mm"
   height="61.194092mm"
   viewBox="0 0 42.856571 61.194094"
   version="1.1"
   id="svg8"
   inkscape:version="0.92.3 (2405546, 2018-03-11)"
   sodipodi:docname="5-7seg.svg">
  <defs
     id="defs2">
    <marker
       inkscape:stockid="Arrow2Mend"
       orient="auto"
       refY="0"
       refX="0"
       id="marker2645"
       style="overflow:visible"
       inkscape:isstock="true">
      <path
         id="path2643"
         style="fill:#000000;fill-opacity:1;fill-rule:evenodd;stroke:#000000;stroke-width:0.625;stroke-linejoin:round;stroke-opacity:1"
         d="M 8.7185878,4.0337352 -2.2072895,0.01601326 8.7185884,-4.0017078 c -1.7454984,2.3720609 -1.7354408,5.6174519 -6e-7,8.035443 z"
         transform="scale(-0.6)"
         inkscape:connector-curvature="0" />
    </marker>
    <marker
       inkscape:stockid="Arrow2Mend"
       orient="auto"
       refY="0"
       refX="0"
       id="Arrow2Mend"
       style="overflow:visible"
       inkscape:isstock="true">
      <path
         id="path906"
         style="fill:#000000;fill-opacity:1;fill-rule:evenodd;stroke:#000000;stroke-width:0.625;stroke-linejoin:round;stroke-opacity:1"
         d="M 8.7185878,4.0337352 -2.2072895,0.01601326 8.7185884,-4.0017078 c -1.7454984,2.3720609 -1.7354408,5.6174519 -6e-7,8.035443 z"
         transform="scale(-0.6)"
         inkscape:connector-curvature="0" />
    </marker>
    <marker
       inkscape:stockid="Arrow2Send"
       orient="auto"
       refY="0"
       refX="0"
       id="Arrow2Send"
       style="overflow:visible"
       inkscape:isstock="true">
      <path
         id="path912"
         style="fill:#000000;fill-opacity:1;fill-rule:evenodd;stroke:#000000;stroke-width:0.625;stroke-linejoin:round;stroke-opacity:1"
         d="M 8.7185878,4.0337352 -2.2072895,0.01601326 8.7185884,-4.0017078 c -1.7454984,2.3720609 -1.7354408,5.6174519 -6e-7,8.035443 z"
         transform="matrix(-0.3,0,0,-0.3,0.69,0)"
         inkscape:connector-curvature="0" />
    </marker>
    <marker
       inkscape:stockid="Arrow2Mend"
       orient="auto"
       refY="0"
       refX="0"
       id="Arrow2Mend-3"
       style="overflow:visible"
       inkscape:isstock="true">
      <path
         inkscape:connector-curvature="0"
         id="path906-6"
         style="fill:#000000;fill-opacity:1;fill-rule:evenodd;stroke:#000000;stroke-width:0.625;stroke-linejoin:round;stroke-opacity:1"
         d="M 8.7185878,4.0337352 -2.2072895,0.01601326 8.7185884,-4.0017078 c -1.7454984,2.3720609 -1.7354408,5.6174519 -6e-7,8.035443 z"
         transform="scale(-0.6)" />
    </marker>
    <marker
       inkscape:stockid="Arrow2Mend"
       orient="auto"
       refY="0"
       refX="0"
       id="Arrow2Mend-5"
       style="overflow:visible"
       inkscape:isstock="true">
      <path
         inkscape:connector-curvature="0"
         id="path906-3"
         style="fill:#000000;fill-opacity:1;fill-rule:evenodd;stroke:#000000;stroke-width:0.625;stroke-linejoin:round;stroke-opacity:1"
         d="M 8.7185878,4.0337352 -2.2072895,0.01601326 8.7185884,-4.0017078 c -1.7454984,2.3720609 -1.7354408,5.6174519 -6e-7,8.035443 z"
         transform="scale(-0.6)" />
    </marker>
    <marker
       inkscape:stockid="Arrow2Mend"
       orient="auto"
       refY="0"
       refX="0"
       id="marker2645-6"
       style="overflow:visible"
       inkscape:isstock="true">
      <path
         inkscape:connector-curvature="0"
         id="path2643-2"
         style="fill:#ffffff;fill-opacity:1;fill-rule:evenodd;stroke:#ffffff;stroke-width:0.625;stroke-linejoin:round;stroke-opacity:1"
         d="M 8.7185878,4.0337352 -2.2072895,0.01601326 8.7185884,-4.0017078 c -1.7454984,2.3720609 -1.7354408,5.6174519 -6e-7,8.035443 z"
         transform="scale(-0.6)" />
    </marker>
    <marker
       inkscape:stockid="Arrow2Mend"
       orient="auto"
       refY="0"
       refX="0"
       id="Arrow2Mend-1"
       style="overflow:visible"
       inkscape:isstock="true">
      <path
         inkscape:connector-curvature="0"
         id="path906-2"
         style="fill:#ffffff;fill-opacity:1;fill-rule:evenodd;stroke:#ffffff;stroke-width:0.625;stroke-linejoin:round;stroke-opacity:1"
         d="M 8.7185878,4.0337352 -2.2072895,0.01601326 8.7185884,-4.0017078 c -1.7454984,2.3720609 -1.7354408,5.6174519 -6e-7,8.035443 z"
         transform="scale(-0.6)" />
    </marker>
    <marker
       inkscape:stockid="Arrow2Mend"
       orient="auto"
       refY="0"
       refX="0"
       id="Arrow2Mend-9"
       style="overflow:visible"
       inkscape:isstock="true">
      <path
         inkscape:connector-curvature="0"
         id="path906-36"
         style="fill:#000000;fill-opacity:1;fill-rule:evenodd;stroke:#000000;stroke-width:0.625;stroke-linejoin:round;stroke-opacity:1"
         d="M 8.7185878,4.0337352 -2.2072895,0.01601326 8.7185884,-4.0017078 c -1.7454984,2.3720609 -1.7354408,5.6174519 -6e-7,8.035443 z"
         transform="scale(-0.6)" />
    </marker>
    <marker
       inkscape:stockid="Arrow2Mend"
       orient="auto"
       refY="0"
       refX="0"
       id="Arrow2Mend-92"
       style="overflow:visible"
       inkscape:isstock="true">
      <path
         inkscape:connector-curvature="0"
         id="path906-0"
         style="fill:#000000;fill-opacity:1;fill-rule:evenodd;stroke:#000000;stroke-width:0.625;stroke-linejoin:round;stroke-opacity:1"
         d="M 8.7185878,4.0337352 -2.2072895,0.01601326 8.7185884,-4.0017078 c -1.7454984,2.3720609 -1.7354408,5.6174519 -6e-7,8.035443 z"
         transform="scale(-0.6)" />
    </marker>
    <marker
       inkscape:stockid="Arrow2Mend"
       orient="auto"
       refY="0"
       refX="0"
       id="marker2645-2"
       style="overflow:visible"
       inkscape:isstock="true">
      <path
         inkscape:connector-curvature="0"
         id="path2643-28"
         style="fill:#ffffff;fill-opacity:1;fill-rule:evenodd;stroke:#ffffff;stroke-width:0.625;stroke-linejoin:round;stroke-opacity:1"
         d="M 8.7185878,4.0337352 -2.2072895,0.01601326 8.7185884,-4.0017078 c -1.7454984,2.3720609 -1.7354408,5.6174519 -6e-7,8.035443 z"
         transform="scale(-0.6)" />
    </marker>
  </defs>
  <sodipodi:namedview
     id="base"
     pagecolor="#ffffff"
     bordercolor="#666666"
     borderopacity="1.0"
     inkscape:pageopacity="0.0"
     inkscape:pageshadow="2"
     inkscape:zoom="1"
     inkscape:cx="16.492648"
     inkscape:cy="134.68417"
     inkscape:document-units="mm"
     inkscape:current-layer="layer2"
     showgrid="false"
     inkscape:snap-global="false"
     inkscape:window-width="1280"
     inkscape:window-height="996"
     inkscape:window-x="378"
     inkscape:window-y="0"
     inkscape:window-maximized="1"
     fit-margin-top="0"
     fit-margin-left="0"
     fit-margin-right="0"
     fit-margin-bottom="0"
     showguides="false"
     inkscape:guide-bbox="true" />
  <metadata
     id="metadata5">
    <rdf:RDF>
      <cc:Work
         rdf:about="">
        <dc:format>image/svg+xml</dc:format>
        <dc:type
           rdf:resource="http://purl.org/dc/dcmitype/StillImage" />
        <dc:title />
      </cc:Work>
    </rdf:RDF>
  </metadata>
  <g
     inkscape:groupmode="layer"
     id="layer4"
     inkscape:label="back"
     transform="translate(312.70984,220.90625)"
     style="display:inline" />
  <g
     inkscape:groupmode="layer"
     id="layer3"
     inkscape:label="Layer 3"
     transform="translate(312.70984,220.90625)"
     style="display:inline" />
  <g
     inkscape:groupmode="layer"
     id="layer2"
     inkscape:label="segments"
     transform="translate(312.70984,220.90625)"
     style="display:inline">
    <path
       style="fill:#008000;stroke:#000000;stroke-width:0.95762765;stroke-linecap:butt;stroke-linejoin:miter;stroke-miterlimit:4;stroke-dasharray:none;stroke-opacity:1"
       d="m -306.7991,-195.77965 c -0.23159,-0.75707 3.65886,-20.62058 3.94274,-20.87437 0.28388,-0.2538 1.38785,-0.92 1.67173,-0.88828 0.28387,0.0317 3.59578,3.67998 3.72195,4.0924 0.12617,0.41241 -2.85852,18.29862 -3.1542,18.78058 -0.22143,0.36094 -2.17639,2.44275 -2.90186,2.3793 -0.72547,-0.0634 -3.04878,-2.73257 -3.28036,-3.48963 z"
       id="path827"
       inkscape:connector-curvature="0"
       sodipodi:nodetypes="zcccscz"
       inkscape:export-filename="/home/obijuan/develop/digital-electronics-with-open-FPGAs-tutorial/wiki/Tutorial-24/display-04.png"
       inkscape:export-xdpi="25"
       inkscape:export-ydpi="25" />
    <path
       style="fill:#008000;stroke:#000000;stroke-width:0.95762765;stroke-linecap:butt;stroke-linejoin:miter;stroke-miterlimit:4;stroke-dasharray:none;stroke-opacity:1"
       d="m -300.04912,-217.95471 2.80723,3.42619 19.74528,-0.22207 c 0,0 4.57359,-3.48963 4.28971,-4.28273 -0.28387,-0.7931 -1.45093,-1.36413 -1.45093,-1.36413 0,0 -22.23709,-0.15862 -23.43569,0.25379 -1.1986,0.41241 -2.08177,1.30068 -2.08177,1.5862 0,0.28551 0.12617,0.60275 0.12617,0.60275 z"
       id="path829"
       inkscape:connector-curvature="0"
       inkscape:export-filename="/home/obijuan/develop/digital-electronics-with-open-FPGAs-tutorial/wiki/Tutorial-24/display-04.png"
       inkscape:export-xdpi="25"
       inkscape:export-ydpi="25" />
    <path
       style="fill:#008000;stroke:#000000;stroke-width:0.95762765;stroke-linecap:butt;stroke-linejoin:miter;stroke-miterlimit:4;stroke-dasharray:none;stroke-opacity:1"
       d="m -299.74297,-194.04557 c 0.88558,-0.23637 17.43285,-0.19594 18.27748,-0.009 0.84464,0.1865 2.6441,1.8755 2.67566,2.90707 0.0316,1.03156 -1.86097,2.31584 -2.61798,2.7917 -0.75701,0.47586 -18.04202,0.41242 -18.60977,0.1269 -0.56776,-0.28552 -2.83878,-2.3793 -2.83878,-3.07722 0,-0.69793 2.22782,-2.50262 3.11339,-2.73899 z"
       id="path852"
       inkscape:connector-curvature="0"
       sodipodi:nodetypes="zzzzcsz"
       inkscape:export-filename="/home/obijuan/develop/digital-electronics-with-open-FPGAs-tutorial/wiki/Tutorial-24/display-04.png"
       inkscape:export-xdpi="25"
       inkscape:export-ydpi="25" />
    <path
       style="fill:#008000;stroke:#000000;stroke-width:0.95762765;stroke-linecap:butt;stroke-linejoin:miter;stroke-miterlimit:4;stroke-dasharray:none;stroke-opacity:1"
       d="m -304.78042,-166.56188 c 1.15724,-0.54596 19.78201,-0.68248 20.47075,-0.38069 0.68873,0.30179 3.21728,2.72826 3.28036,3.7117 0.0631,0.98345 -1.70327,2.31585 -2.42873,2.44275 -0.72547,0.1269 -24.06653,0.88827 -24.72891,0.47586 -0.66238,-0.41241 -1.32476,-1.23724 -1.38785,-1.80827 -0.0631,-0.57103 3.63715,-3.89539 4.79438,-4.44135 z"
       id="path856"
       inkscape:connector-curvature="0"
       sodipodi:nodetypes="zzccssz"
       inkscape:export-filename="/home/obijuan/develop/digital-electronics-with-open-FPGAs-tutorial/wiki/Tutorial-24/display-04.png"
       inkscape:export-xdpi="25"
       inkscape:export-ydpi="25" />
    <path
       style="fill:#008000;fill-opacity:1;stroke:#000000;stroke-width:0.95762765;stroke-linecap:butt;stroke-linejoin:miter;stroke-miterlimit:4;stroke-dasharray:none;stroke-opacity:1"
       d="m -284.08888,-168.75083 c -0.43366,-1.28404 2.88016,-18.20615 3.1478,-18.74452 0.26764,-0.53837 1.83903,-2.51512 2.85486,-2.42268 1.01582,0.0924 2.67642,1.97403 2.98867,2.82646 0.31225,0.85242 -2.25581,23.29136 -4.0863,23.34585 -1.8305,0.0545 -4.47137,-3.72108 -4.90503,-5.00511 z"
       id="path858"
       inkscape:connector-curvature="0"
       sodipodi:nodetypes="zczczz"
       inkscape:export-filename="/home/obijuan/develop/digital-electronics-with-open-FPGAs-tutorial/wiki/Tutorial-24/display-04.png"
       inkscape:export-xdpi="25"
       inkscape:export-ydpi="25" />
  </g>
</svg>
