<?xml version="1.0" encoding="UTF-8" standalone="no"?>
<svg
   xmlns:dc="http://purl.org/dc/elements/1.1/"
   xmlns:cc="http://creativecommons.org/ns#"
   xmlns:rdf="http://www.w3.org/1999/02/22-rdf-syntax-ns#"
   xmlns:svg="http://www.w3.org/2000/svg"
   xmlns="http://www.w3.org/2000/svg"
   id="svg2"
   version="1"
   height="194.04526"
   width="336.09">
  <metadata
     id="metadata14">
    <rdf:RDF>
      <cc:Work
         rdf:about="">
        <dc:format>image/svg+xml</dc:format>
        <dc:type
           rdf:resource="http://purl.org/dc/dcmitype/StillImage" />
        <dc:title></dc:title>
      </cc:Work>
    </rdf:RDF>
  </metadata>
  <defs
     id="defs12" />
  <path
     d="m 174.65599,190.04526 -96.352421,0 0,-186.04526 96.352421,0 c 0,0 87.46328,8.62453 87.46328,91.94023 0,83.31075 -87.46328,94.10503 -87.46328,94.10503 z"
     id="path6"
     style="fill:none;stroke:#000000;stroke-width:8;stroke-linejoin:round;stroke-miterlimit:4;stroke-dasharray:none" />
  <path
     id="path4140"
     d="m 4.05697,34.819661 74.017735,0"
     style="fill:none;stroke:#000000;stroke-width:8;stroke-linecap:round;stroke-miterlimit:4;stroke-dasharray:none" />
  <path
     id="path4138"
     d="m 4.05697,151.23856 74.017735,0"
     style="fill:none;stroke:#000000;stroke-width:8;stroke-linecap:round;stroke-miterlimit:4;stroke-dasharray:none" />
  <path
     id="path8-3"
     d="m 262.70748,94.77839 69.32556,0"
     style="fill:none;stroke:#000000;stroke-width:8;stroke-linecap:round;stroke-miterlimit:4;stroke-dasharray:none" />
  <g
     id="text4142-5"
     style="font-style:normal;font-weight:normal;font-size:58.05377579px;line-height:125%;font-family:sans-serif;letter-spacing:0px;word-spacing:0px;fill:#0000ff;fill-opacity:1;stroke:none;stroke-width:1px;stroke-linecap:butt;stroke-linejoin:miter;stroke-opacity:1">
    <path
       id="path4155"
       style="font-style:normal;font-variant:normal;font-weight:bold;font-stretch:normal;font-family:sans-serif;-inkscape-font-specification:'sans-serif Bold'"
       d="m 137.28476,114.58738 -11.25358,0 -2.9197,-8.53232 -15.64731,0 -2.91969,8.53232 -10.970127,0 15.590617,-42.208044 12.52918,0 15.59061,42.208044 z m -16.80951,-16.270932 -5.18742,-15.137068 -5.18743,15.137068 10.37485,0 z" />
    <path
       id="path4157"
       style="font-style:normal;font-variant:normal;font-weight:bold;font-stretch:normal;font-family:sans-serif;-inkscape-font-specification:'sans-serif Bold'"
       d="m 181.78888,114.58738 -10.48823,0 -17.91503,-28.970195 0,28.970195 -9.978,0 0,-42.208044 13.01108,0 15.39219,24.179625 0,-24.179625 9.97799,0 0,42.208044 z" />
    <path
       id="path4159"
       style="font-style:normal;font-variant:normal;font-weight:bold;font-stretch:normal;font-family:sans-serif;-inkscape-font-specification:'sans-serif Bold'"
       d="m 232.5009,93.525878 q 0,5.896086 -2.69293,10.573272 -2.69292,4.64884 -6.80318,7.14333 -3.08977,1.87088 -6.77483,2.60789 -3.68505,0.73701 -8.73074,0.73701 l -14.88195,0 0,-42.208044 15.30715,0 q 5.15907,0 8.90082,0.878744 3.74175,0.850397 6.29294,2.437805 4.36537,2.664578 6.85987,7.200029 2.52285,4.507105 2.52285,10.629964 z m -11.25359,-0.08504 q 0,-4.166946 -1.53072,-7.114989 -1.50237,-2.97639 -4.79057,-4.648838 -1.67245,-0.82205 -3.42993,-1.105516 -1.72914,-0.311812 -5.24412,-0.311812 l -2.74962,0 0,26.419007 2.74962,0 q 3.88348,0 5.69766,-0.34016 1.81418,-0.36851 3.54332,-1.30394 2.97639,-1.7008 4.36537,-4.53546 1.38899,-2.863 1.38899,-7.058292 z" />
  </g>
  <path
     id="path4140-3"
     d="m 4.05697,112.43226 74.017735,0"
     style="fill:none;stroke:#000000;stroke-width:8;stroke-linecap:round;stroke-miterlimit:4;stroke-dasharray:none" />
  <path
     id="path4140-39"
     d="m 4.05697,73.62596 74.017735,0"
     style="fill:none;stroke:#000000;stroke-width:8;stroke-linecap:round;stroke-miterlimit:4;stroke-dasharray:none" />
</svg>
