<?xml version="1.0" encoding="UTF-8" standalone="no"?>
<svg
   xmlns:dc="http://purl.org/dc/elements/1.1/"
   xmlns:cc="http://creativecommons.org/ns#"
   xmlns:rdf="http://www.w3.org/1999/02/22-rdf-syntax-ns#"
   xmlns:svg="http://www.w3.org/2000/svg"
   xmlns="http://www.w3.org/2000/svg"
   id="svg2"
   version="1"
   width="376.73993"
   height="192.71814">
  <defs
     id="defs16" />
  <metadata
     id="metadata4">
    <rdf:RDF>
      <cc:Work
         rdf:about="">
        <dc:format>image/svg+xml</dc:format>
        <dc:type
           rdf:resource="http://purl.org/dc/dcmitype/StillImage" />
        <dc:title></dc:title>
      </cc:Work>
    </rdf:RDF>
  </metadata>
  <path
     style="fill:none;stroke:#000000;stroke-width:8;stroke-linecap:round;stroke-linejoin:round;stroke-miterlimit:4;stroke-dasharray:none"
     id="path6"
     d="m 175.79794,188.7178 -91.032744,0 c 0,0 30.344494,-42.53778 31.085354,-94.03028 C 116.59331,43.19879 84.029642,4.39373 84.029642,4.39373 L 176.34705,4 c 46.44481,1.94783 103.89829,53.44034 123.04692,93.67786 -32.60157,67.50338 -92.15825,89.78976 -123.59641,91.04032 z" />
  <g
     id="text10"
     style="font-style:normal;font-weight:normal;font-size:66.31724548px;line-height:0%;font-family:sans-serif;letter-spacing:0px;word-spacing:0px;fill:#0000ff">
    <path
       id="path4171"
       style="font-style:normal;font-variant:normal;font-weight:bold;font-stretch:normal;font-family:sans-serif"
       d="m 184.85067,97.187981 q 0,11.527799 -6.60582,18.327909 -6.60582,6.76773 -18.26314,6.76773 -11.62495,0 -18.23077,-6.76773 -6.60582,-6.80011 -6.60582,-18.327909 0,-11.624947 6.60582,-18.360292 6.60582,-6.767727 18.23077,-6.767727 11.59256,0 18.23076,6.767727 6.6382,6.735345 6.6382,18.360292 z m -16.48216,12.207809 q 1.81336,-2.20194 2.68766,-5.18103 0.8743,-3.01148 0.8743,-7.059161 0,-4.339116 -1.00383,-7.382974 -1.00382,-3.043858 -2.6229,-4.921983 -1.65145,-1.942888 -3.82101,-2.817188 -2.13718,-0.874299 -4.46864,-0.874299 -2.36385,0 -4.46864,0.841918 -2.07242,0.841918 -3.82102,2.784806 -1.61907,1.813362 -2.65528,5.019127 -1.00382,3.173384 -1.00382,7.382975 0,4.306739 0.97144,7.350589 1.00383,3.01148 2.6229,4.92199 1.61907,1.9105 3.78863,2.81718 2.16956,0.90669 4.56579,0.90669 2.39623,0 4.56578,-0.90669 2.16956,-0.93906 3.78864,-2.88195 z" />
    <path
       id="path4173"
       style="font-style:normal;font-variant:normal;font-weight:bold;font-stretch:normal;font-family:sans-serif"
       d="m 221.34459,87.829737 q 0,-1.813362 -0.74478,-3.108621 -0.74477,-1.295259 -2.55813,-2.040032 -1.26288,-0.518104 -2.94672,-0.615248 -1.68383,-0.129526 -3.91815,-0.129526 l -4.50103,0 0,12.984968 3.82102,0 q 2.97909,0 4.98674,-0.291433 2.00765,-0.291433 3.36767,-1.32764 1.29526,-1.003826 1.87813,-2.20194 0.61525,-1.230496 0.61525,-3.270528 z m 19.3965,33.450053 -15.18691,0 -13.14688,-17.68028 -5.73152,0 0,17.68028 -12.36972,0 0,-48.216002 20.85367,0 q 4.27435,0 7.35059,0.485722 3.07624,0.485722 5.7639,2.104795 2.72005,1.619073 4.30674,4.209591 1.61907,2.558136 1.61907,6.443912 0,5.342942 -2.49337,8.710615 -2.46099,3.367672 -7.05916,5.601997 l 16.09359,20.65937 z" />
  </g>
  <path
     id="path817"
     d="M 3.9515462,111.29295 111.91855,111.73328"
     style="fill:none;fill-rule:evenodd;stroke:#000000;stroke-width:7.79211426;stroke-linecap:round;stroke-linejoin:miter;stroke-miterlimit:4;stroke-dasharray:none;stroke-opacity:1" />
  <path
     id="path817-0"
     d="m 3.9323043,34.185785 98.4346057,0.47828"
     style="fill:none;fill-rule:evenodd;stroke:#000000;stroke-width:7.75417089;stroke-linecap:round;stroke-linejoin:miter;stroke-miterlimit:4;stroke-dasharray:none;stroke-opacity:1" />
  <path
     id="path817-9"
     d="m 299.10644,97.815542 73.77089,0.615754"
     style="fill:none;fill-rule:evenodd;stroke:#000000;stroke-width:7.61669874;stroke-linecap:round;stroke-linejoin:miter;stroke-miterlimit:4;stroke-dasharray:none;stroke-opacity:1" />
  <path
     id="path817-4"
     d="M 3.9515462,72.748855 111.91854,73.189185"
     style="fill:none;fill-rule:evenodd;stroke:#000000;stroke-width:7.79211426;stroke-linecap:round;stroke-linejoin:miter;stroke-miterlimit:4;stroke-dasharray:none;stroke-opacity:1" />
  <path
     id="path817-5"
     d="m 3.9323043,149.81807 98.4346057,0.47827"
     style="fill:none;fill-rule:evenodd;stroke:#000000;stroke-width:7.75417089;stroke-linecap:round;stroke-linejoin:miter;stroke-miterlimit:4;stroke-dasharray:none;stroke-opacity:1" />
</svg>
