<?xml version="1.0" encoding="UTF-8" standalone="no"?>
<!-- Created with Inkscape (http://www.inkscape.org/) -->

<svg
   xmlns:dc="http://purl.org/dc/elements/1.1/"
   xmlns:cc="http://creativecommons.org/ns#"
   xmlns:rdf="http://www.w3.org/1999/02/22-rdf-syntax-ns#"
   xmlns:svg="http://www.w3.org/2000/svg"
   xmlns="http://www.w3.org/2000/svg"
   xmlns:sodipodi="http://sodipodi.sourceforge.net/DTD/sodipodi-0.dtd"
   xmlns:inkscape="http://www.inkscape.org/namespaces/inkscape"
   width="42.856571mm"
   height="61.194092mm"
   viewBox="0 0 42.856571 61.194094"
   version="1.1"
   id="svg8"
   inkscape:version="0.92.3 (2405546, 2018-03-11)"
   sodipodi:docname="J-7seg.svg">
  <defs
     id="defs2">
    <marker
       inkscape:stockid="Arrow2Mend"
       orient="auto"
       refY="0"
       refX="0"
       id="marker2645"
       style="overflow:visible"
       inkscape:isstock="true">
      <path
         id="path2643"
         style="fill:#000000;fill-opacity:1;fill-rule:evenodd;stroke:#000000;stroke-width:0.625;stroke-linejoin:round;stroke-opacity:1"
         d="M 8.7185878,4.0337352 -2.2072895,0.01601326 8.7185884,-4.0017078 c -1.7454984,2.3720609 -1.7354408,5.6174519 -6e-7,8.035443 z"
         transform="scale(-0.6)"
         inkscape:connector-curvature="0" />
    </marker>
    <marker
       inkscape:stockid="Arrow2Mend"
       orient="auto"
       refY="0"
       refX="0"
       id="Arrow2Mend"
       style="overflow:visible"
       inkscape:isstock="true">
      <path
         id="path906"
         style="fill:#000000;fill-opacity:1;fill-rule:evenodd;stroke:#000000;stroke-width:0.625;stroke-linejoin:round;stroke-opacity:1"
         d="M 8.7185878,4.0337352 -2.2072895,0.01601326 8.7185884,-4.0017078 c -1.7454984,2.3720609 -1.7354408,5.6174519 -6e-7,8.035443 z"
         transform="scale(-0.6)"
         inkscape:connector-curvature="0" />
    </marker>
    <marker
       inkscape:stockid="Arrow2Send"
       orient="auto"
       refY="0"
       refX="0"
       id="Arrow2Send"
       style="overflow:visible"
       inkscape:isstock="true">
      <path
         id="path912"
         style="fill:#000000;fill-opacity:1;fill-rule:evenodd;stroke:#000000;stroke-width:0.625;stroke-linejoin:round;stroke-opacity:1"
         d="M 8.7185878,4.0337352 -2.2072895,0.01601326 8.7185884,-4.0017078 c -1.7454984,2.3720609 -1.7354408,5.6174519 -6e-7,8.035443 z"
         transform="matrix(-0.3,0,0,-0.3,0.69,0)"
         inkscape:connector-curvature="0" />
    </marker>
    <marker
       inkscape:stockid="Arrow2Mend"
       orient="auto"
       refY="0"
       refX="0"
       id="Arrow2Mend-3"
       style="overflow:visible"
       inkscape:isstock="true">
      <path
         inkscape:connector-curvature="0"
         id="path906-6"
         style="fill:#000000;fill-opacity:1;fill-rule:evenodd;stroke:#000000;stroke-width:0.625;stroke-linejoin:round;stroke-opacity:1"
         d="M 8.7185878,4.0337352 -2.2072895,0.01601326 8.7185884,-4.0017078 c -1.7454984,2.3720609 -1.7354408,5.6174519 -6e-7,8.035443 z"
         transform="scale(-0.6)" />
    </marker>
    <marker
       inkscape:stockid="Arrow2Mend"
       orient="auto"
       refY="0"
       refX="0"
       id="Arrow2Mend-5"
       style="overflow:visible"
       inkscape:isstock="true">
      <path
         inkscape:connector-curvature="0"
         id="path906-3"
         style="fill:#000000;fill-opacity:1;fill-rule:evenodd;stroke:#000000;stroke-width:0.625;stroke-linejoin:round;stroke-opacity:1"
         d="M 8.7185878,4.0337352 -2.2072895,0.01601326 8.7185884,-4.0017078 c -1.7454984,2.3720609 -1.7354408,5.6174519 -6e-7,8.035443 z"
         transform="scale(-0.6)" />
    </marker>
    <marker
       inkscape:stockid="Arrow2Mend"
       orient="auto"
       refY="0"
       refX="0"
       id="marker2645-6"
       style="overflow:visible"
       inkscape:isstock="true">
      <path
         inkscape:connector-curvature="0"
         id="path2643-2"
         style="fill:#ffffff;fill-opacity:1;fill-rule:evenodd;stroke:#ffffff;stroke-width:0.625;stroke-linejoin:round;stroke-opacity:1"
         d="M 8.7185878,4.0337352 -2.2072895,0.01601326 8.7185884,-4.0017078 c -1.7454984,2.3720609 -1.7354408,5.6174519 -6e-7,8.035443 z"
         transform="scale(-0.6)" />
    </marker>
    <marker
       inkscape:stockid="Arrow2Mend"
       orient="auto"
       refY="0"
       refX="0"
       id="Arrow2Mend-1"
       style="overflow:visible"
       inkscape:isstock="true">
      <path
         inkscape:connector-curvature="0"
         id="path906-2"
         style="fill:#ffffff;fill-opacity:1;fill-rule:evenodd;stroke:#ffffff;stroke-width:0.625;stroke-linejoin:round;stroke-opacity:1"
         d="M 8.7185878,4.0337352 -2.2072895,0.01601326 8.7185884,-4.0017078 c -1.7454984,2.3720609 -1.7354408,5.6174519 -6e-7,8.035443 z"
         transform="scale(-0.6)" />
    </marker>
    <marker
       inkscape:stockid="Arrow2Mend"
       orient="auto"
       refY="0"
       refX="0"
       id="Arrow2Mend-9"
       style="overflow:visible"
       inkscape:isstock="true">
      <path
         inkscape:connector-curvature="0"
         id="path906-36"
         style="fill:#000000;fill-opacity:1;fill-rule:evenodd;stroke:#000000;stroke-width:0.625;stroke-linejoin:round;stroke-opacity:1"
         d="M 8.7185878,4.0337352 -2.2072895,0.01601326 8.7185884,-4.0017078 c -1.7454984,2.3720609 -1.7354408,5.6174519 -6e-7,8.035443 z"
         transform="scale(-0.6)" />
    </marker>
    <marker
       inkscape:stockid="Arrow2Mend"
       orient="auto"
       refY="0"
       refX="0"
       id="Arrow2Mend-92"
       style="overflow:visible"
       inkscape:isstock="true">
      <path
         inkscape:connector-curvature="0"
         id="path906-0"
         style="fill:#000000;fill-opacity:1;fill-rule:evenodd;stroke:#000000;stroke-width:0.625;stroke-linejoin:round;stroke-opacity:1"
         d="M 8.7185878,4.0337352 -2.2072895,0.01601326 8.7185884,-4.0017078 c -1.7454984,2.3720609 -1.7354408,5.6174519 -6e-7,8.035443 z"
         transform="scale(-0.6)" />
    </marker>
    <marker
       inkscape:stockid="Arrow2Mend"
       orient="auto"
       refY="0"
       refX="0"
       id="marker2645-2"
       style="overflow:visible"
       inkscape:isstock="true">
      <path
         inkscape:connector-curvature="0"
         id="path2643-28"
         style="fill:#ffffff;fill-opacity:1;fill-rule:evenodd;stroke:#ffffff;stroke-width:0.625;stroke-linejoin:round;stroke-opacity:1"
         d="M 8.7185878,4.0337352 -2.2072895,0.01601326 8.7185884,-4.0017078 c -1.7454984,2.3720609 -1.7354408,5.6174519 -6e-7,8.035443 z"
         transform="scale(-0.6)" />
    </marker>
  </defs>
  <sodipodi:namedview
     id="base"
     pagecolor="#ffffff"
     bordercolor="#666666"
     borderopacity="1.0"
     inkscape:pageopacity="0.0"
     inkscape:pageshadow="2"
     inkscape:zoom="1"
     inkscape:cx="-135.50735"
     inkscape:cy="123.68417"
     inkscape:document-units="mm"
     inkscape:current-layer="layer2"
     showgrid="false"
     inkscape:snap-global="false"
     inkscape:window-width="1853"
     inkscape:window-height="1025"
     inkscape:window-x="67"
     inkscape:window-y="27"
     inkscape:window-maximized="1"
     fit-margin-top="0"
     fit-margin-left="0"
     fit-margin-right="0"
     fit-margin-bottom="0"
     showguides="false"
     inkscape:guide-bbox="true" />
  <metadata
     id="metadata5">
    <rdf:RDF>
      <cc:Work
         rdf:about="">
        <dc:format>image/svg+xml</dc:format>
        <dc:type
           rdf:resource="http://purl.org/dc/dcmitype/StillImage" />
        <dc:title />
      </cc:Work>
    </rdf:RDF>
  </metadata>
  <g
     inkscape:groupmode="layer"
     id="layer4"
     inkscape:label="back"
     transform="translate(312.70984,220.90625)"
     style="display:inline" />
  <g
     inkscape:groupmode="layer"
     id="layer3"
     inkscape:label="Layer 3"
     transform="translate(312.70984,220.90625)"
     style="display:inline" />
  <g
     inkscape:groupmode="layer"
     id="layer2"
     inkscape:label="segments"
     transform="translate(312.70984,220.90625)"
     style="display:inline">
    <path
       style="fill:#008000;stroke:#000000;stroke-width:0.95762765;stroke-linecap:butt;stroke-linejoin:miter;stroke-miterlimit:4;stroke-dasharray:none;stroke-opacity:1"
       d="m -279.98203,-194.18015 c -0.39348,-1.03527 3.14481,-19.7628 3.32323,-20.07685 0.17843,-0.31405 3.94773,-3.3424 4.52762,-3.27511 0.57989,0.0673 1.62816,0.91972 1.78429,1.3908 0.15612,0.47108 -3.01098,20.36846 -3.21171,20.83954 -0.20074,0.47108 -2.96638,3.18538 -3.70239,3.25268 -0.73602,0.0673 -2.32755,-1.0958 -2.72104,-2.13106 z"
       id="path831"
       inkscape:connector-curvature="0"
       sodipodi:nodetypes="zccccsz"
       inkscape:export-filename="/home/obijuan/develop/digital-electronics-with-open-FPGAs-tutorial/wiki/Tutorial-24/display-04.png"
       inkscape:export-xdpi="25"
       inkscape:export-ydpi="25" />
    <path
       style="fill:#008000;stroke:#000000;stroke-width:0.95762765;stroke-linecap:butt;stroke-linejoin:miter;stroke-miterlimit:4;stroke-dasharray:none;stroke-opacity:1"
       d="m -308.31312,-187.21419 c 0.42537,-0.84531 3.31191,-3.10894 4.19508,-3.14067 0.88318,-0.0317 1.95561,1.36414 2.08177,2.09378 0.12617,0.72965 -3.3119,20.68403 -3.78503,21.44541 -0.47313,0.76137 -3.46962,3.48963 -4.22663,3.52136 -0.75701,0.0317 -2.08177,-1.52275 -2.1764,-2.28413 -0.0946,-0.76138 3.48584,-20.79043 3.91121,-21.63575 z"
       id="path854"
       inkscape:connector-curvature="0"
       sodipodi:nodetypes="zzsccsz"
       inkscape:export-filename="/home/obijuan/develop/digital-electronics-with-open-FPGAs-tutorial/wiki/Tutorial-24/display-04.png"
       inkscape:export-xdpi="25"
       inkscape:export-ydpi="25" />
    <path
       style="fill:#008000;stroke:#000000;stroke-width:0.95762765;stroke-linecap:butt;stroke-linejoin:miter;stroke-miterlimit:4;stroke-dasharray:none;stroke-opacity:1"
       d="m -304.78042,-166.56188 c 1.15724,-0.54596 19.78201,-0.68248 20.47075,-0.38069 0.68873,0.30179 3.21728,2.72826 3.28036,3.7117 0.0631,0.98345 -1.70327,2.31585 -2.42873,2.44275 -0.72547,0.1269 -24.06653,0.88827 -24.72891,0.47586 -0.66238,-0.41241 -1.32476,-1.23724 -1.38785,-1.80827 -0.0631,-0.57103 3.63715,-3.89539 4.79438,-4.44135 z"
       id="path856"
       inkscape:connector-curvature="0"
       sodipodi:nodetypes="zzccssz"
       inkscape:export-filename="/home/obijuan/develop/digital-electronics-with-open-FPGAs-tutorial/wiki/Tutorial-24/display-04.png"
       inkscape:export-xdpi="25"
       inkscape:export-ydpi="25" />
    <path
       style="fill:#008000;fill-opacity:1;stroke:#000000;stroke-width:0.95762765;stroke-linecap:butt;stroke-linejoin:miter;stroke-miterlimit:4;stroke-dasharray:none;stroke-opacity:1"
       d="m -284.08888,-168.75083 c -0.43366,-1.28404 2.88016,-18.20615 3.1478,-18.74452 0.26764,-0.53837 1.83903,-2.51512 2.85486,-2.42268 1.01582,0.0924 2.67642,1.97403 2.98867,2.82646 0.31225,0.85242 -2.25581,23.29136 -4.0863,23.34585 -1.8305,0.0545 -4.47137,-3.72108 -4.90503,-5.00511 z"
       id="path858"
       inkscape:connector-curvature="0"
       sodipodi:nodetypes="zczczz"
       inkscape:export-filename="/home/obijuan/develop/digital-electronics-with-open-FPGAs-tutorial/wiki/Tutorial-24/display-04.png"
       inkscape:export-xdpi="25"
       inkscape:export-ydpi="25" />
  </g>
</svg>
