<svg id="svg2" xmlns="http://www.w3.org/2000/svg" viewBox="-265 401.5 63.5 38.4"><style>.st0{display:none}.st1{fill:none;stroke:#000;stroke-width:.75;stroke-linejoin:round;stroke-miterlimit:10}.st2{fill:#010002}</style><path class="st0" d="M-242.5 411.8v11.8h-5.4v-11.8h5.4m1-1h-7.4v13.8h7.4v-13.8z"/><path d="M-212 425.6l-15.4-8.7v8.5h-17.4v-2.7c0-.2-.1-.4-.3-.4l-2.3-1.2 5.6-2.9c.2-.1.3-.3.3-.5s-.1-.4-.3-.4l-5.7-2.7 2.4-1.6c.1-.1.2-.2.2-.4v-2.7h3.1l-3.5-6.1-3.5 6.1h3v2.5l-2.9 2c-.1.1-.2.3-.2.5s.1.3.3.4l5.6 2.6-5.6 2.9c-.2.1-.3.3-.3.4s.1.4.3.4l2.9 1.5V425.5H-265v1.2h37.6v8.5l15.4-8.7h10.5v-.8H-212zm-33.3-20.4l2.2 3.9h-4.5l2.3-3.9zm19.2 27.7v-13.8l12.3 6.9-12.3 6.9z"/></svg>