<?xml version="1.0" encoding="UTF-8" standalone="no"?>
<!-- Created with Inkscape (http://www.inkscape.org/) -->

<svg
   xmlns:dc="http://purl.org/dc/elements/1.1/"
   xmlns:cc="http://creativecommons.org/ns#"
   xmlns:rdf="http://www.w3.org/1999/02/22-rdf-syntax-ns#"
   xmlns:svg="http://www.w3.org/2000/svg"
   xmlns="http://www.w3.org/2000/svg"
   xmlns:sodipodi="http://sodipodi.sourceforge.net/DTD/sodipodi-0.dtd"
   xmlns:inkscape="http://www.inkscape.org/namespaces/inkscape"
   width="32.689678mm"
   height="44.912018mm"
   viewBox="0 0 115.82957 159.13707"
   id="svg2"
   version="1.1"
   inkscape:version="0.91 r13725"
   sodipodi:docname="adder_8bit.svg">
  <defs
     id="defs4" />
  <sodipodi:namedview
     id="base"
     pagecolor="#ffffff"
     bordercolor="#666666"
     borderopacity="1.0"
     inkscape:pageopacity="0.0"
     inkscape:pageshadow="2"
     inkscape:zoom="2.1710399"
     inkscape:cx="-149.95522"
     inkscape:cy="131.81987"
     inkscape:document-units="px"
     inkscape:current-layer="layer1"
     showgrid="false"
     fit-margin-top="0"
     fit-margin-left="0"
     fit-margin-right="0"
     fit-margin-bottom="0"
     inkscape:window-width="1920"
     inkscape:window-height="1018"
     inkscape:window-x="-8"
     inkscape:window-y="-8"
     inkscape:window-maximized="1" />
  <metadata
     id="metadata7">
    <rdf:RDF>
      <cc:Work
         rdf:about="">
        <dc:format>image/svg+xml</dc:format>
        <dc:type
           rdf:resource="http://purl.org/dc/dcmitype/StillImage" />
        <dc:title></dc:title>
      </cc:Work>
    </rdf:RDF>
  </metadata>
  <g
     inkscape:label="Capa 1"
     inkscape:groupmode="layer"
     id="layer1"
     transform="translate(-123.65962,-214.70656)">
    <g
       transform="matrix(2.7172848,0,0,2.0242151,-215.91076,-307.22484)"
       style="font-style:normal;font-weight:normal;font-size:40px;line-height:125%;font-family:sans-serif;letter-spacing:0px;word-spacing:0px;fill:#000000;fill-opacity:1;stroke:none;stroke-width:1px;stroke-linecap:butt;stroke-linejoin:miter;stroke-opacity:1"
       id="flowRoot4136">
      <path
         d="m 136.78809,261.88681 15.07324,22.76367 0,2.59278 -16.91895,23.33496 19.90723,0 q 3.82324,0 5.53711,-1.71387 1.71387,-1.71387 2.8125,-7.77832 l 4.39453,0 -0.9668,16.74317 -41.66015,0 0,-2.15332 19.6875,-27.07032 -18.45703,-28.6084 0,-2.15332 40.60546,0 0,15.33692 -4.13086,0 q -1.80175,-7.0752 -3.73535,-9.18457 -1.88965,-2.10938 -5.49316,-2.10938 l -16.65527,0 z"
         style="font-style:normal;font-variant:normal;font-weight:normal;font-stretch:normal;font-size:90px;font-family:'Cambria Math';-inkscape-font-specification:'Cambria Math';fill:#ff0000;fill-opacity:1"
         id="path4151" />
    </g>
    <g
       style="font-style:normal;font-weight:normal;font-size:40px;line-height:125%;font-family:sans-serif;letter-spacing:0px;word-spacing:0px;fill:#000000;fill-opacity:1;stroke:none;stroke-width:1px;stroke-linecap:butt;stroke-linejoin:miter;stroke-opacity:1"
       id="text4144">
      <path
         d="m 142.84926,360.23035 q -2.28516,0 -3.82813,1.5625 -1.52343,1.54297 -1.52343,3.80859 0,1.62109 0.99609,2.57813 0.99609,0.9375 2.71484,0.9375 2.32422,0 3.84766,-1.52344 1.52344,-1.54297 1.52344,-3.82813 0,-1.62109 -1.01563,-2.57812 -0.99609,-0.95703 -2.71484,-0.95703 z m -4.80469,-2.48047 q -2.10937,-0.87891 -3.16406,-2.28516 -1.03516,-1.40625 -1.03516,-3.3789 0,-3.96485 3.24219,-6.23047 3.26172,-2.26563 9.00391,-2.26563 4.60937,0 7.14843,1.71875 2.53907,1.71875 2.53907,4.84375 0,2.77344 -1.77735,4.7461 -1.75781,1.97265 -5.03906,2.85156 2.38281,0.91797 3.51562,2.46094 1.13282,1.54296 1.13282,3.90625 0,4.49218 -3.51563,7.10937 -3.49609,2.61719 -9.60937,2.61719 -4.82422,0 -7.51953,-1.91406 -2.67579,-1.9336 -2.67579,-5.3711 0,-3.10547 2.05079,-5.42969 2.07031,-2.34375 5.70312,-3.3789 z m 7.36328,-9.4336 q -1.99219,0 -3.20312,1.17188 -1.19141,1.15234 -1.19141,3.06641 0,1.32812 0.85938,2.14843 0.8789,0.82032 2.30468,0.82032 1.99219,0 3.1836,-1.15235 1.21093,-1.17187 1.21093,-3.08594 0,-1.34765 -0.8789,-2.14843 -0.85938,-0.82032 -2.28516,-0.82032 z"
         style="font-style:italic;font-variant:normal;font-weight:bold;font-stretch:normal;font-family:sans-serif;-inkscape-font-specification:'sans-serif Bold Italic';fill:#0000ff;fill-opacity:1"
         id="path4140" />
      <path
         d="m 159.35316,358.92175 12.26563,0 -1.11328,5.6836 -12.28516,0 1.13281,-5.6836 z"
         style="font-style:italic;font-variant:normal;font-weight:bold;font-stretch:normal;font-family:sans-serif;-inkscape-font-specification:'sans-serif Bold Italic';fill:#0000ff;fill-opacity:1"
         id="path4142" />
      <path
         d="m 190.09535,355.953 q -2.69531,0 -4.41406,2.5 -1.69922,2.48047 -1.69922,6.46485 0,1.79687 0.95703,2.83203 0.97656,1.01562 2.69531,1.01562 2.63672,0 4.35547,-2.4414 1.71875,-2.46094 1.71875,-6.28907 0,-1.99218 -0.9375,-3.02734 -0.91797,-1.05469 -2.67578,-1.05469 z m -7.34375,14.16016 -0.64453,3.16406 -7.01172,0 5.89844,-30.39062 7.03125,0 -2.28516,11.71875 q 1.60157,-1.91407 3.35938,-2.8125 1.75781,-0.91797 3.84765,-0.91797 3.69141,0 5.83985,2.34375 2.14844,2.34375 2.14844,6.38672 0,2.51953 -0.76172,4.90234 -0.74219,2.38281 -2.14844,4.33594 -1.77734,2.46094 -4.02344,3.73047 -2.22656,1.26953 -4.78515,1.26953 -2.2461,0 -3.82813,-0.89844 -1.5625,-0.91797 -2.63672,-2.83203 z"
         style="font-style:italic;font-variant:normal;font-weight:bold;font-stretch:normal;font-family:sans-serif;-inkscape-font-specification:'sans-serif Bold Italic';fill:#0000ff;fill-opacity:1"
         id="path4144" />
      <path
         d="m 208.02504,351.40222 7.03125,0 -4.27734,21.875 -7.01172,0 4.25781,-21.875 z m 1.64062,-8.51562 7.03125,0 -1.11328,5.70312 -7.05078,0 1.13281,-5.70312 z"
         style="font-style:italic;font-variant:normal;font-weight:bold;font-stretch:normal;font-family:sans-serif;-inkscape-font-specification:'sans-serif Bold Italic';fill:#0000ff;fill-opacity:1"
         id="path4146" />
      <path
         d="m 230.68129,345.19128 -1.19141,6.21094 7.14844,0 -0.99609,5 -7.14844,0 -1.79688,9.25781 q -0.0781,0.3125 -0.11718,0.52735 -0.0195,0.21484 -0.0195,0.41015 0,0.89844 0.58593,1.28907 0.60547,0.39062 2.01172,0.39062 l 3.61328,0 -0.99609,5 -5.87891,0 q -3.16406,0 -4.82422,-1.32812 -1.66015,-1.32813 -1.66015,-3.82813 0,-0.54687 0.0586,-1.17187 0.0586,-0.625 0.17578,-1.26953 l 1.79688,-9.27735 -3.4375,0 0.95703,-5 3.47656,0 1.21094,-6.21094 7.03125,0 z"
         style="font-style:italic;font-variant:normal;font-weight:bold;font-stretch:normal;font-family:sans-serif;-inkscape-font-specification:'sans-serif Bold Italic';fill:#0000ff;fill-opacity:1"
         id="path4148" />
    </g>
  </g>
</svg>
