<?xml version="1.0" encoding="UTF-8" standalone="no"?>
<!-- Created with Inkscape (http://www.inkscape.org/) -->

<svg
   xmlns:dc="http://purl.org/dc/elements/1.1/"
   xmlns:cc="http://creativecommons.org/ns#"
   xmlns:rdf="http://www.w3.org/1999/02/22-rdf-syntax-ns#"
   xmlns:svg="http://www.w3.org/2000/svg"
   xmlns="http://www.w3.org/2000/svg"
   xmlns:sodipodi="http://sodipodi.sourceforge.net/DTD/sodipodi-0.dtd"
   xmlns:inkscape="http://www.inkscape.org/namespaces/inkscape"
   width="39.790379mm"
   height="45.035381mm"
   viewBox="0 0 140.98953 159.57418"
   id="svg2"
   version="1.1"
   inkscape:version="0.91 r13725"
   sodipodi:docname="half_adder_1bit.svg">
  <defs
     id="defs4" />
  <sodipodi:namedview
     id="base"
     pagecolor="#ffffff"
     bordercolor="#666666"
     borderopacity="1.0"
     inkscape:pageopacity="0.0"
     inkscape:pageshadow="2"
     inkscape:zoom="2.1710399"
     inkscape:cx="-93.974412"
     inkscape:cy="132.25699"
     inkscape:document-units="px"
     inkscape:current-layer="layer1"
     showgrid="false"
     fit-margin-top="0"
     fit-margin-left="0"
     fit-margin-right="0"
     fit-margin-bottom="0"
     inkscape:window-width="1920"
     inkscape:window-height="1018"
     inkscape:window-x="-8"
     inkscape:window-y="-8"
     inkscape:window-maximized="1" />
  <metadata
     id="metadata7">
    <rdf:RDF>
      <cc:Work
         rdf:about="">
        <dc:format>image/svg+xml</dc:format>
        <dc:type
           rdf:resource="http://purl.org/dc/dcmitype/StillImage" />
        <dc:title></dc:title>
      </cc:Work>
    </rdf:RDF>
  </metadata>
  <g
     inkscape:label="Capa 1"
     inkscape:groupmode="layer"
     id="layer1"
     transform="translate(-123.65963,-214.70655)">
    <g
       transform="matrix(2.7172848,0,0,2.0242151,-215.91076,-307.22484)"
       style="font-style:normal;font-weight:normal;font-size:40px;line-height:125%;font-family:sans-serif;letter-spacing:0px;word-spacing:0px;fill:#000000;fill-opacity:1;stroke:none;stroke-width:1px;stroke-linecap:butt;stroke-linejoin:miter;stroke-opacity:1"
       id="flowRoot4136">
      <path
         d="m 136.78809,261.88681 15.07324,22.76367 0,2.59278 -16.91895,23.33496 19.90723,0 q 3.82324,0 5.53711,-1.71387 1.71387,-1.71387 2.8125,-7.77832 l 4.39453,0 -0.9668,16.74317 -41.66015,0 0,-2.15332 19.6875,-27.07032 -18.45703,-28.6084 0,-2.15332 40.60546,0 0,15.33692 -4.13086,0 q -1.80175,-7.0752 -3.73535,-9.18457 -1.88965,-2.10938 -5.49316,-2.10938 l -16.65527,0 z"
         style="font-style:normal;font-variant:normal;font-weight:normal;font-stretch:normal;font-size:90px;font-family:'Cambria Math';-inkscape-font-specification:'Cambria Math';fill:#ff0000;fill-opacity:1"
         id="path4151"
         inkscape:connector-curvature="0" />
    </g>
    <g
       style="font-style:normal;font-weight:normal;font-size:40px;line-height:125%;font-family:sans-serif;letter-spacing:0px;word-spacing:0px;fill:#000000;fill-opacity:1;stroke:none;stroke-width:1px;stroke-linecap:butt;stroke-linejoin:miter;stroke-opacity:1"
       id="text4144">
      <path
         d="m 132.16566,368.08191 6.64063,0 3.65234,-18.84766 -7.08984,1.40625 0.99609,-5.11718 7.05078,-1.40625 7.14844,0 -4.6289,23.96484 6.60156,0 -0.9961,5.19531 -20.41015,0 1.03515,-5.19531 z"
         style="font-style:italic;font-variant:normal;font-weight:bold;font-stretch:normal;font-family:sans-serif;-inkscape-font-specification:'sans-serif Bold Italic';fill:#0000ff;fill-opacity:1"
         id="path4140"
         inkscape:connector-curvature="0" />
      <path
         d="m 159.35316,358.92175 12.26563,0 -1.11328,5.6836 -12.28516,0 1.13281,-5.6836 z"
         style="font-style:italic;font-variant:normal;font-weight:bold;font-stretch:normal;font-family:sans-serif;-inkscape-font-specification:'sans-serif Bold Italic';fill:#0000ff;fill-opacity:1"
         id="path4142"
         inkscape:connector-curvature="0" />
      <path
         d="m 190.09535,355.953 q -2.69531,0 -4.41406,2.5 -1.69922,2.48047 -1.69922,6.46485 0,1.79687 0.95703,2.83203 0.97656,1.01562 2.69531,1.01562 2.63672,0 4.35547,-2.4414 1.71875,-2.46094 1.71875,-6.28907 0,-1.99218 -0.9375,-3.02734 -0.91797,-1.05469 -2.67578,-1.05469 z m -7.34375,14.16016 -0.64453,3.16406 -7.01172,0 5.89844,-30.39062 7.03125,0 -2.28516,11.71875 q 1.60157,-1.91407 3.35938,-2.8125 1.75781,-0.91797 3.84765,-0.91797 3.69141,0 5.83985,2.34375 2.14844,2.34375 2.14844,6.38672 0,2.51953 -0.76172,4.90234 -0.74219,2.38281 -2.14844,4.33594 -1.77734,2.46094 -4.02344,3.73047 -2.22656,1.26953 -4.78515,1.26953 -2.2461,0 -3.82813,-0.89844 -1.5625,-0.91797 -2.63672,-2.83203 z"
         style="font-style:italic;font-variant:normal;font-weight:bold;font-stretch:normal;font-family:sans-serif;-inkscape-font-specification:'sans-serif Bold Italic';fill:#0000ff;fill-opacity:1"
         id="path4144"
         inkscape:connector-curvature="0" />
      <path
         d="m 208.02504,351.40222 7.03125,0 -4.27734,21.875 -7.01172,0 4.25781,-21.875 z m 1.64062,-8.51562 7.03125,0 -1.11328,5.70312 -7.05078,0 1.13281,-5.70312 z"
         style="font-style:italic;font-variant:normal;font-weight:bold;font-stretch:normal;font-family:sans-serif;-inkscape-font-specification:'sans-serif Bold Italic';fill:#0000ff;fill-opacity:1"
         id="path4146"
         inkscape:connector-curvature="0" />
      <path
         d="m 230.68129,345.19128 -1.19141,6.21094 7.14844,0 -0.99609,5 -7.14844,0 -1.79688,9.25781 q -0.0781,0.3125 -0.11718,0.52735 -0.0195,0.21484 -0.0195,0.41015 0,0.89844 0.58593,1.28907 0.60547,0.39062 2.01172,0.39062 l 3.61328,0 -0.99609,5 -5.87891,0 q -3.16406,0 -4.82422,-1.32812 -1.66015,-1.32813 -1.66015,-3.82813 0,-0.54687 0.0586,-1.17187 0.0586,-0.625 0.17578,-1.26953 l 1.79688,-9.27735 -3.4375,0 0.95703,-5 3.47656,0 1.21094,-6.21094 7.03125,0 z"
         style="font-style:italic;font-variant:normal;font-weight:bold;font-stretch:normal;font-family:sans-serif;-inkscape-font-specification:'sans-serif Bold Italic';fill:#0000ff;fill-opacity:1"
         id="path4148"
         inkscape:connector-curvature="0" />
    </g>
    <g
       style="font-style:normal;font-weight:normal;font-size:40px;line-height:125%;font-family:sans-serif;letter-spacing:0px;word-spacing:0px;fill:#000000;fill-opacity:1;stroke:none;stroke-width:1px;stroke-linecap:butt;stroke-linejoin:miter;stroke-opacity:1"
       id="text4141">
      <path
         d="m 264.64915,231.37547 0,11.65528 -6.15234,0 0,-1.89698 0,-6.98974 q 0,-2.51221 -0.11963,-3.45215 -0.10254,-0.93994 -0.37597,-1.38428 -0.35889,-0.59814 -0.97413,-0.92285 -0.61523,-0.3418 -1.40136,-0.3418 -1.91407,0 -3.00782,1.48682 -1.09375,1.46973 -1.09375,4.08447 l 0,9.41651 -6.11816,0 0,-26.5918 6.11816,0 0,10.25391 q 1.38428,-1.67481 2.93946,-2.46094 1.55517,-0.80322 3.43506,-0.80322 3.31543,0 5.02441,2.03369 1.72607,2.03369 1.72607,5.91308 z"
         style="font-style:normal;font-variant:normal;font-weight:bold;font-stretch:normal;font-size:35px;font-family:sans-serif;-inkscape-font-specification:'sans-serif Bold';text-align:center;text-anchor:middle;fill:#0000ff;fill-opacity:1"
         id="path4152" />
      <path
         d="m 254.63451,278.16747 q -1.91407,0 -2.88819,0.64941 -0.95703,0.64941 -0.95703,1.91406 0,1.16211 0.76904,1.82862 0.78614,0.64941 2.17041,0.64941 1.72608,0 2.90528,-1.23047 1.1792,-1.24756 1.1792,-3.11035 l 0,-0.70068 -3.17871,0 z m 9.34814,-2.30713 0,10.92041 -6.16943,0 0,-2.83692 q -1.23047,1.74317 -2.76856,2.54639 -1.53808,0.78613 -3.74267,0.78613 -2.97364,0 -4.83643,-1.72607 -1.8457,-1.74317 -1.8457,-4.51172 0,-3.3667 2.30713,-4.93897 2.32422,-1.57226 7.28027,-1.57226 l 3.60596,0 0,-0.47852 q 0,-1.45263 -1.14502,-2.11914 -1.14502,-0.68359 -3.57178,-0.68359 -1.96533,0 -3.65723,0.39306 -1.69189,0.39307 -3.14453,1.1792 l 0,-4.66552 q 1.96533,-0.47852 3.94776,-0.71778 1.98242,-0.25634 3.96484,-0.25634 5.17822,0 7.46826,2.05078 2.30713,2.03369 2.30713,6.63086 z"
         style="font-style:normal;font-variant:normal;font-weight:bold;font-stretch:normal;font-size:35px;font-family:sans-serif;-inkscape-font-specification:'sans-serif Bold';text-align:center;text-anchor:middle;fill:#0000ff;fill-opacity:1"
         id="path4154" />
      <path
         d="m 251.86595,303.93895 6.11817,0 0,26.5918 -6.11817,0 0,-26.5918 z"
         style="font-style:normal;font-variant:normal;font-weight:bold;font-stretch:normal;font-size:35px;font-family:sans-serif;-inkscape-font-specification:'sans-serif Bold';text-align:center;text-anchor:middle;fill:#0000ff;fill-opacity:1"
         id="path4156" />
      <path
         d="m 262.85472,347.68895 0,4.01611 -3.38379,0 q -1.29883,0 -1.81152,0.47852 -0.5127,0.46142 -0.5127,1.62353 l 0,1.33301 5.2295,0 0,4.375 -5.2295,0 0,14.76563 -6.11816,0 0,-14.76563 -3.04199,0 0,-4.375 3.04199,0 0,-1.33301 q 0,-3.12744 1.74316,-4.61425 1.74317,-1.50391 5.40039,-1.50391 l 4.68262,0 z"
         style="font-style:normal;font-variant:normal;font-weight:bold;font-stretch:normal;font-size:35px;font-family:sans-serif;-inkscape-font-specification:'sans-serif Bold';text-align:center;text-anchor:middle;fill:#0000ff;fill-opacity:1"
         id="path4158" />
    </g>
  </g>
</svg>
