<?xml version="1.0" encoding="UTF-8" standalone="no"?>
<svg
   xmlns:dc="http://purl.org/dc/elements/1.1/"
   xmlns:cc="http://creativecommons.org/ns#"
   xmlns:rdf="http://www.w3.org/1999/02/22-rdf-syntax-ns#"
   xmlns:svg="http://www.w3.org/2000/svg"
   xmlns="http://www.w3.org/2000/svg"
   xmlns:xlink="http://www.w3.org/1999/xlink"
   xmlns:sodipodi="http://sodipodi.sourceforge.net/DTD/sodipodi-0.dtd"
   xmlns:inkscape="http://www.inkscape.org/namespaces/inkscape"
   width="188.0571"
   height="121.41323"
   viewBox="0 0 176.30426 113.82536"
   id="svg2"
   version="1.1"
   inkscape:version="0.91 r13725"
   sodipodi:docname="Black.svg">
  <metadata
     id="metadata20">
    <rdf:RDF>
      <cc:Work
         rdf:about="">
        <dc:format>image/svg+xml</dc:format>
        <dc:type
           rdf:resource="http://purl.org/dc/dcmitype/StillImage" />
        <dc:title></dc:title>
      </cc:Work>
    </rdf:RDF>
  </metadata>
  <defs
     id="defs18">
    <linearGradient
       inkscape:collect="always"
       x1="0.99206001"
       x2="0.16836999"
       y1="0.75781"
       y2="0.10938"
       id="linearGradient21035">
      <stop
         offset="0"
         style="stop-color:#ffffff;stop-opacity:0"
         id="stop21037" />
      <stop
         offset="1"
         style="stop-color:#ffffff"
         id="stop21038" />
    </linearGradient>
    <linearGradient
       inkscape:collect="always"
       x1="31.341999"
       y1="60.653999"
       gradientTransform="matrix(6.1238716,0,0,7.5248424,-787.6993,-529.36521)"
       x2="25.261"
       gradientUnits="userSpaceOnUse"
       xlink:href="#linearGradient21035"
       y2="55.867001"
       id="linearGradient3011" />
    <linearGradient
       inkscape:collect="always"
       x1="57.889999"
       y1="52.687"
       gradientTransform="matrix(11.326352,0,0,11.510071,-566.27733,-516.35847)"
       x2="51.931"
       gradientUnits="userSpaceOnUse"
       xlink:href="#linearGradient21035"
       y2="47.995998"
       id="linearGradient3015" />
  </defs>
  <sodipodi:namedview
     pagecolor="#ffffff"
     bordercolor="#666666"
     borderopacity="1"
     objecttolerance="10"
     gridtolerance="10"
     guidetolerance="10"
     inkscape:pageopacity="0"
     inkscape:pageshadow="2"
     inkscape:window-width="1855"
     inkscape:window-height="1056"
     id="namedview16"
     showgrid="false"
     fit-margin-top="0"
     fit-margin-left="0"
     fit-margin-right="0"
     fit-margin-bottom="0"
     inkscape:zoom="1.3153249"
     inkscape:cx="22.166272"
     inkscape:cy="86.009975"
     inkscape:window-x="65"
     inkscape:window-y="24"
     inkscape:window-maximized="1"
     inkscape:current-layer="layer4"
     showguides="true"
     inkscape:guide-bbox="true" />
  <g
     id="g4195"
     transform="matrix(0.43547897,0,0,0.43547897,-328.74985,-47.450189)" />
  <g
     id="g4197"
     transform="matrix(0.43547897,0,0,0.43547897,-328.74985,-47.450189)" />
  <g
     id="g4199"
     transform="matrix(0.43547897,0,0,0.43547897,-328.74985,-47.450189)" />
  <g
     id="g4201"
     transform="matrix(0.43547897,0,0,0.43547897,-328.74985,-47.450189)" />
  <g
     id="g4203"
     transform="matrix(0.43547897,0,0,0.43547897,-328.74985,-47.450189)" />
  <g
     id="g4205"
     transform="matrix(0.43547897,0,0,0.43547897,-328.74985,-47.450189)" />
  <g
     id="g4207"
     transform="matrix(0.43547897,0,0,0.43547897,-328.74985,-47.450189)" />
  <g
     id="g4209"
     transform="matrix(0.43547897,0,0,0.43547897,-328.74985,-47.450189)" />
  <g
     id="g4211"
     transform="matrix(0.43547897,0,0,0.43547897,-328.74985,-47.450189)" />
  <g
     id="g4213"
     transform="matrix(0.43547897,0,0,0.43547897,-328.74985,-47.450189)" />
  <g
     id="g4215"
     transform="matrix(0.43547897,0,0,0.43547897,-328.74985,-47.450189)" />
  <g
     id="g4217"
     transform="matrix(0.43547897,0,0,0.43547897,-328.74985,-47.450189)" />
  <g
     id="g4219"
     transform="matrix(0.43547897,0,0,0.43547897,-328.74985,-47.450189)" />
  <g
     id="g4221"
     transform="matrix(0.43547897,0,0,0.43547897,-328.74985,-47.450189)" />
  <g
     id="g4223"
     transform="matrix(0.43547897,0,0,0.43547897,-328.74985,-47.450189)" />
  <g
     inkscape:groupmode="layer"
     id="layer2"
     inkscape:label="layer2"
     style="display:inline"
     transform="translate(6.4451109,-16.321228)">
    <path
       id="path21029"
       style="display:inline;fill:#000000;fill-opacity:0.21875;fill-rule:evenodd"
       inkscape:connector-curvature="0"
       d="M 52.246767,24.762256 C -52.588586,64.630689 -7.1186149,151.66449 110.82595,124.1675 224.13326,97.751617 157.08212,-15.106177 52.246767,24.762256 Z m 35.36283,4.250589 C 116.54764,26.84382 161.98866,48.803401 146.9324,81.645703 125.03049,127.49161 51.217952,121.50941 21.695207,102.94824 -7.8275389,84.387076 19.721883,38.375499 50.924186,34.005698 60.286103,30.740619 78.531407,28.251037 87.609597,29.012845 Z"
       sodipodi:nodetypes="zszcczcc" />
  </g>
  <g
     inkscape:groupmode="layer"
     id="layer3"
     inkscape:label="layer3"
     style="display:inline"
     transform="translate(6.4451109,-16.321228)">
    <path
       id="path21034"
       inkscape:connector-curvature="0"
       sodipodi:nodetypes="cccc"
       style="fill:url(#linearGradient3011);fill-rule:evenodd"
       d="m -625.47902,-106.15477 c -14.74421,8.702617 -23.44683,37.233886 -3.44846,45.345918 29.39339,7.623273 37.30177,-19.115883 31.97973,-53.627658 -10.75947,-2.26729 -19.31274,1.94825 -28.53127,8.28174 z" />
    <path
       id="path21028"
       inkscape:connector-curvature="0"
       sodipodi:nodetypes="zzz"
       style="fill:#000000;fill-opacity:0.75;fill-rule:evenodd"
       d="M 52.386729,24.469857 C 157.22207,-14.138592 225.11926,95.661136 109.36929,124.54646 -6.3806843,153.43177 -52.448612,63.078306 52.386729,24.469857 Z" />
  </g>
  <g
     inkscape:groupmode="layer"
     id="layer4"
     inkscape:label="layer4"
     style="display:inline"
     transform="translate(6.4451109,-16.321228)">
    <path
       id="path21041"
       inkscape:connector-curvature="0"
       sodipodi:nodetypes="cccc"
       style="fill:url(#linearGradient3015);fill-rule:evenodd"
       d="M 35.552732,40.313195 C 8.8282544,53.353778 -6.9562976,96.120371 29.299736,108.28156 82.56841,119.71376 96.899566,79.631629 87.255334,27.897454 67.752778,24.507144 52.249878,30.824926 35.552732,40.313195 Z" />
  </g>
</svg>
