<?xml version="1.0" encoding="UTF-8" standalone="no"?>
<svg
   xmlns:dc="http://purl.org/dc/elements/1.1/"
   xmlns:cc="http://creativecommons.org/ns#"
   xmlns:rdf="http://www.w3.org/1999/02/22-rdf-syntax-ns#"
   xmlns:svg="http://www.w3.org/2000/svg"
   xmlns="http://www.w3.org/2000/svg"
   xmlns:sodipodi="http://sodipodi.sourceforge.net/DTD/sodipodi-0.dtd"
   xmlns:inkscape="http://www.inkscape.org/namespaces/inkscape"
   width="174.32739"
   height="168.63573"
   viewBox="0 0 163.43261 158.09663"
   id="svg2"
   version="1.1"
   inkscape:version="0.91 r13725"
   sodipodi:docname="RGB.svg">
  <metadata
     id="metadata20">
    <rdf:RDF>
      <cc:Work
         rdf:about="">
        <dc:format>image/svg+xml</dc:format>
        <dc:type
           rdf:resource="http://purl.org/dc/dcmitype/StillImage" />
        <dc:title />
      </cc:Work>
    </rdf:RDF>
  </metadata>
  <defs
     id="defs18" />
  <sodipodi:namedview
     pagecolor="#ffffff"
     bordercolor="#666666"
     borderopacity="1"
     objecttolerance="10"
     gridtolerance="10"
     guidetolerance="10"
     inkscape:pageopacity="0"
     inkscape:pageshadow="2"
     inkscape:window-width="1449"
     inkscape:window-height="1028"
     id="namedview16"
     showgrid="false"
     fit-margin-top="0"
     fit-margin-left="0"
     fit-margin-right="0"
     fit-margin-bottom="0"
     inkscape:zoom="2.6306498"
     inkscape:cx="56.744149"
     inkscape:cy="120.66253"
     inkscape:window-x="181"
     inkscape:window-y="24"
     inkscape:window-maximized="0"
     inkscape:current-layer="svg2" />
  <path
     inkscape:connector-curvature="0"
     style="fill:#ff0000;stroke:#000000;stroke-width:0.93750398;stroke-miterlimit:4;stroke-dasharray:none"
     d="m 63.06322,60.22197 c -0.19004,-1.029311 -0.34863,-2.069109 -0.47511,-3.119394 -0.0126,-0.101698 -0.0232,-0.203701 -0.0349,-0.305394 -0.0407,-0.356239 -0.0781,-0.713748 -0.11155,-1.071894 -0.0133,-0.142369 -0.026,-0.285056 -0.0378,-0.428058 -0.0273,-0.325414 -0.0511,-0.651781 -0.0725,-0.979102 -0.0101,-0.156033 -0.021,-0.312067 -0.0299,-0.468735 -0.0185,-0.33177 -0.0324,-0.664811 -0.0445,-0.998486 -0.005,-0.144276 -0.0126,-0.287598 -0.0165,-0.431872 -0.0131,-0.473185 -0.021,-0.947641 -0.021,-1.423684 0,-0.476046 0.007,-0.950502 0.021,-1.423685 0.004,-0.144593 0.0113,-0.288233 0.0165,-0.432508 0.0126,-0.333358 0.026,-0.666399 0.0445,-0.997851 0.009,-0.156668 0.0197,-0.312701 0.0299,-0.469053 0.0213,-0.32732 0.0451,-0.65337 0.0725,-0.978466 0.0126,-0.143003 0.0245,-0.285689 0.0378,-0.428375 0.0333,-0.358147 0.0708,-0.715021 0.11155,-1.070941 0.0126,-0.102012 0.0229,-0.204337 0.0349,-0.306347 C 64.2464,31.136539 71.43096,19.088291 81.85742,11.026995 73.32315,4.4291078 62.61988,0.49999282 50.99786,0.49999282 23.10846,0.50030982 0.49999997,23.107658 0.49999997,50.995351 c 0,21.245312 13.12238003,39.423667 31.70333003,46.879258 3.172,-17.175734 15.03556,-31.30326 30.85989,-37.652639 z"
     id="path4139" />
  <g
     id="g4141"
     transform="matrix(0.31780245,0,0,0.31778673,0.49999997,-2.3051102)"
     style="stroke:#000000;stroke-width:2.95003129;fill:#0000ff;stroke-miterlimit:4;stroke-dasharray:none">
    <path
       inkscape:connector-curvature="0"
       style="fill:#0000ff;stroke:#000000;stroke-width:2.95003129;stroke-miterlimit:4;stroke-dasharray:none"
       d="M 512,167.724 C 512,79.968 440.86,8.828 353.103,8.828 c -36.57,0 -70.25,12.363 -97.103,33.126 -32.808,25.367 -55.415,63.279 -60.632,106.551 5.234,-43.206 27.878,-80.996 60.632,-106.361 37.532,29.064 61.793,74.438 61.793,125.581 0,9.92 -0.924,19.619 -2.669,29.028 49.801,19.978 87.135,64.436 97.117,118.489 C 470.709,291.782 512,234.578 512,167.724 Z"
       id="path4143" />
    <path
       inkscape:connector-curvature="0"
       style="fill:#0000ff;stroke:#000000;stroke-width:2.95003129;stroke-miterlimit:4;stroke-dasharray:none"
       d="m 194.465,176.705 c -0.058,-1.044 -0.102,-2.092 -0.14,-3.142 0.037,1.05 0.082,2.098 0.14,3.142 z"
       id="path4145" />
    <path
       inkscape:connector-curvature="0"
       style="fill:#0000ff;stroke:#000000;stroke-width:2.95003129;stroke-miterlimit:4;stroke-dasharray:none"
       d="m 194.786,181.261 c -0.087,-1.024 -0.161,-2.051 -0.228,-3.081 0.067,1.03 0.142,2.057 0.228,3.081 z"
       id="path4147" />
    <path
       inkscape:connector-curvature="0"
       style="fill:#0000ff;stroke:#000000;stroke-width:2.95003129;stroke-miterlimit:4;stroke-dasharray:none"
       d="m 194.273,172.204 c -0.041,-1.489 -0.066,-2.982 -0.066,-4.48 0,1.499 0.025,2.992 0.066,4.48 z"
       id="path4149" />
    <path
       inkscape:connector-curvature="0"
       style="fill:#0000ff;stroke:#000000;stroke-width:2.95003129;stroke-miterlimit:4;stroke-dasharray:none"
       d="m 195.257,185.981 c -0.129,-1.121 -0.245,-2.246 -0.351,-3.373 0.105,1.127 0.222,2.252 0.351,3.373 z"
       id="path4151" />
    <path
       inkscape:connector-curvature="0"
       style="fill:#0000ff;stroke:#000000;stroke-width:2.95003129;stroke-miterlimit:4;stroke-dasharray:none"
       d="m 196.862,196.758 c 0.004,-0.002 0.009,-0.003 0.013,-0.006 -0.6,-3.238 -1.109,-6.507 -1.508,-9.811 0.398,3.306 0.898,6.578 1.495,9.817 z"
       id="path4153" />
    <path
       inkscape:connector-curvature="0"
       style="fill:#0000ff;stroke:#000000;stroke-width:2.95003129;stroke-miterlimit:4;stroke-dasharray:none"
       d="m 194.325,161.885 c 0.039,-1.049 0.082,-2.097 0.14,-3.14 -0.058,1.042 -0.103,2.09 -0.14,3.14 z"
       id="path4155" />
    <path
       inkscape:connector-curvature="0"
       style="fill:#0000ff;stroke:#000000;stroke-width:2.95003129;stroke-miterlimit:4;stroke-dasharray:none"
       d="m 194.558,157.267 c 0.067,-1.03 0.141,-2.056 0.228,-3.079 -0.086,1.024 -0.161,2.05 -0.228,3.079 z"
       id="path4157" />
    <path
       inkscape:connector-curvature="0"
       style="fill:#0000ff;stroke:#000000;stroke-width:2.95003129;stroke-miterlimit:4;stroke-dasharray:none"
       d="m 194.906,152.84 c 0.105,-1.127 0.222,-2.25 0.351,-3.37 -0.129,1.12 -0.246,2.243 -0.351,3.37 z"
       id="path4159" />
    <path
       inkscape:connector-curvature="0"
       style="fill:#0000ff;stroke:#000000;stroke-width:2.95003129;stroke-miterlimit:4;stroke-dasharray:none"
       d="m 194.207,167.724 c 0,-1.498 0.025,-2.991 0.066,-4.48 -0.041,1.489 -0.066,2.982 -0.066,4.48 z"
       id="path4161" />
  </g>
  <path
     inkscape:connector-curvature="0"
     style="fill:#008000;stroke:#000000;stroke-width:0.93750398;stroke-miterlimit:4;stroke-dasharray:none"
     d="m 100.64717,60.220381 c 0,0 -3.1e-4,0.0025 -6.4e-4,0.0035 15.80337,6.349061 27.64342,20.468326 30.82431,37.628811 -5.80277,2.324928 -12.12004,3.638018 -18.75353,3.638018 -11.62935,0 -22.33166,-3.934518 -30.85957,-10.542891 -8.52823,6.608694 -19.23054,10.542891 -30.85957,10.542891 -6.63349,0 -12.95076,-1.31309 -18.75353,-3.638018 3.18089,-17.160168 15.02094,-31.27975 30.8243,-37.628811 0,-9.48e-4 -3.2e-4,-0.0025 -3.2e-4,-0.0025 -0.002,-6.36e-4 -0.002,0 -0.004,3.18e-4 -15.82464,6.349379 -27.68791,20.476906 -30.85957,37.65264 -0.55265,2.992281 -0.84407,6.075141 -0.84407,9.226951 0,27.88768 22.60845,50.49535 50.49784,50.49535 27.88939,0 50.49787,-22.60734 50.49787,-50.49535 0,-3.15181 -0.29143,-6.23467 -0.84377,-9.226637 -3.17322,-17.177632 -15.03839,-31.305795 -30.86527,-37.65422 z"
     id="path4163" />
  <path
     inkscape:connector-curvature="0"
     style="fill:#ff78ff;stroke:#000000;stroke-width:0.99999994"
     d="m 62.44159,46.265413 c -0.0133,0.142686 -0.026,0.285372 -0.0378,0.428375 -0.0276,0.325096 -0.0511,0.651463 -0.0725,0.978466 -0.01,0.156352 -0.021,0.312385 -0.0299,0.469053 -0.0185,0.33177 -0.0324,0.66481 -0.0445,0.997851 -0.005,0.144275 -0.0126,0.287915 -0.0165,0.432508 -0.0131,0.473183 -0.021,0.947639 -0.021,1.423685 0,0.476043 0.007,0.950499 0.021,1.423684 0.004,0.144592 0.0113,0.287914 0.0165,0.431872 0.0126,0.333358 0.026,0.666716 0.0445,0.998486 0.009,0.156668 0.0197,0.312383 0.0299,0.468735 0.0214,0.327321 0.0451,0.653688 0.0725,0.979102 0.0126,0.142686 0.0245,0.285372 0.0378,0.428058 0.0333,0.358463 0.0706,0.715655 0.11155,1.071894 0.0113,0.102012 0.0226,0.20402 0.0349,0.305394 0.12744,1.049967 0.28856,2.088812 0.47925,3.117805 0,0 3.1e-4,0.0025 6.2e-4,0.0035 5.07404,-2.038283 10.55645,-3.275745 16.29215,-3.555397 0.01,-3.17e-4 0.021,-0.0012 0.0314,-0.0019 0.35913,-0.01716 0.71951,-0.03019 1.08086,-0.04005 0.002,0 0.005,-3.17e-4 0.007,-3.17e-4 0.0451,-9.49e-4 0.0903,-0.0038 0.13538,-0.0048 0.007,0 0.0162,0 0.0239,-3.18e-4 0.40455,-0.0095 0.81039,-0.01494 1.21749,-0.01494 0.4071,0 0.81294,0.0057 1.2175,0.01494 0.0556,0.0012 0.11116,0.0041 0.16685,0.0057 0.36134,0.0098 0.72173,0.02287 1.08084,0.04005 0.01,3.18e-4 0.021,0.0012 0.0314,0.0019 5.73603,0.279336 11.21812,1.517114 16.29215,3.555399 0,-9.49e-4 3.1e-4,-0.0025 3.1e-4,-0.0025 0.5552,-2.991327 0.84854,-6.073858 0.84854,-9.226302 0,-16.252566 -7.71053,-30.67214 -19.63797,-39.907975 -10.40993,8.06066 -17.60625,20.070139 -19.269,33.800114 -0.0126,0.102012 -0.0235,0.204337 -0.0349,0.306347 -0.0403,0.356556 -0.0775,0.71343 -0.11091,1.071577 z"
     id="path4165" />
  <g
     id="g4167"
     transform="matrix(0.31780245,0,0,0.31778673,0.49999997,-2.3051102)"
     style="stroke:#000000;stroke-width:2.95003129;fill:#00ffff;stroke-miterlimit:4;stroke-dasharray:none">
    <path
       inkscape:connector-curvature="0"
       style="fill:#00ffff;stroke:#000000;stroke-width:2.95003129;stroke-miterlimit:4;stroke-dasharray:none"
       d="m 252.169,185.427 c -0.025,0 -0.051,0 -0.075,0.001 0.023,0 0.046,0 0.071,-0.001 0.001,0 0.003,0 0.004,0 z"
       id="path4169" />
    <path
       inkscape:connector-curvature="0"
       style="fill:#00ffff;stroke:#000000;stroke-width:2.95003129;stroke-miterlimit:4;stroke-dasharray:none"
       d="m 256,185.379 c 1.281,0 2.558,0.017 3.831,0.047 -1.273,-0.029 -2.55,-0.047 -3.831,-0.047 z"
       id="path4171" />
    <path
       inkscape:connector-curvature="0"
       style="fill:#00ffff;stroke:#000000;stroke-width:2.95003129;stroke-miterlimit:4;stroke-dasharray:none"
       d="m 263.857,185.576 c 18.009,0.898 35.2,4.86 51.154,11.251 -0.285,1.536 -0.599,3.061 -0.928,4.582 -0.077,0.359 -0.156,0.716 -0.236,1.074 -0.695,3.114 -1.482,6.193 -2.357,9.234 -0.054,0.188 -0.108,0.374 -0.163,0.561 -9.508,32.61 -29.161,60.892 -55.327,81.169 26.836,20.796 60.512,33.176 97.105,33.176 20.873,0 40.751,-4.132 59.01,-11.448 -10.009,-53.999 -47.265,-98.43 -96.992,-118.409 -15.967,-6.417 -33.217,-10.311 -51.266,-11.19 z"
       id="path4173" />
    <path
       inkscape:connector-curvature="0"
       style="fill:#00ffff;stroke:#000000;stroke-width:2.95003129;stroke-miterlimit:4;stroke-dasharray:none"
       d="m 248.22,185.571 c 0.008,0 0.015,-0.001 0.023,-0.001 -0.033,0.001 -0.066,0.004 -0.099,0.006 0.008,0 0.015,-0.001 0.023,-0.001 0.017,-10e-4 0.035,-0.003 0.053,-0.004 z"
       id="path4175" />
    <path
       inkscape:connector-curvature="0"
       style="fill:#00ffff;stroke:#000000;stroke-width:2.95003129;stroke-miterlimit:4;stroke-dasharray:none"
       d="m 260.356,185.444 c 1.137,0.031 2.271,0.071 3.401,0.126 -1.13,-0.054 -2.264,-0.095 -3.401,-0.126 z"
       id="path4177" />
    <path
       inkscape:connector-curvature="0"
       style="fill:#00ffff;stroke:#000000;stroke-width:2.95003129;stroke-miterlimit:4;stroke-dasharray:none"
       d="m 251.668,185.443 c -0.008,0 -0.017,0 -0.024,10e-4 0,0 0,0 0.001,0 0.007,0 0.015,-10e-4 0.023,-10e-4 z"
       id="path4179" />
  </g>
  <g
     id="g4181"
     transform="matrix(0.31780245,0,0,0.31778673,0.49999997,-2.3051102)"
     style="stroke:#000000;stroke-width:2.95003129;fill:#ffff00;stroke-miterlimit:4;stroke-dasharray:none">
    <path
       inkscape:connector-curvature="0"
       style="fill:#ffff00;stroke:#000000;stroke-width:2.95003129;stroke-miterlimit:4;stroke-dasharray:none"
       d="m 311.327,212.276 c -2.385,8.162 -5.402,16.054 -8.999,23.617 -0.087,0.182 -0.169,0.366 -0.256,0.548 -1.863,3.881 -3.887,7.668 -6.048,11.366 -0.313,0.532 -0.65,1.049 -0.969,1.578 -1.707,2.846 -3.526,5.615 -5.402,8.342 -0.701,1.013 -1.384,2.039 -2.108,3.034 -2.026,2.803 -4.15,5.527 -6.35,8.188 -1.221,1.471 -2.5,2.892 -3.774,4.318 -1.131,1.272 -2.287,2.52 -3.458,3.755 -5.352,5.62 -11.091,10.867 -17.206,15.662 -0.258,0.203 -0.521,0.401 -0.78,0.601 -30.205,-23.401 -51.785,-57.375 -59.06,-96.408 15.977,-6.421 33.198,-10.403 51.251,-11.303 -0.008,0 -0.015,10e-4 -0.023,10e-4 -18.049,0.879 -35.299,4.774 -51.265,11.188 -49.727,19.979 -86.983,64.409 -96.992,118.409 18.258,7.316 38.136,11.448 59.009,11.448 36.593,0 70.269,-12.381 97.103,-33.176 26.166,-20.277 45.817,-48.558 55.327,-81.168 z"
       id="path4183" />
    <path
       inkscape:connector-curvature="0"
       style="fill:#ffff00;stroke:#000000;stroke-width:2.95003129;stroke-miterlimit:4;stroke-dasharray:none"
       d="m 256,185.379 c -1.281,0 -2.558,0.018 -3.831,0.047 -0.002,0 -0.003,0 -0.006,0 1.276,-0.03 2.555,-0.047 3.837,-0.047 z"
       id="path4185" />
    <path
       inkscape:connector-curvature="0"
       style="fill:#ffff00;stroke:#000000;stroke-width:2.95003129;stroke-miterlimit:4;stroke-dasharray:none"
       d="m 313.846,202.482 c -0.696,3.113 -1.481,6.193 -2.357,9.234 0.875,-3.043 1.662,-6.122 2.357,-9.234 z"
       id="path4187" />
    <path
       inkscape:connector-curvature="0"
       style="fill:#ffff00;stroke:#000000;stroke-width:2.95003129;stroke-miterlimit:4;stroke-dasharray:none"
       d="m 251.645,185.444 c -0.001,0 -0.001,0 0,0 -1.138,0.031 -2.271,0.072 -3.402,0.126 -0.008,0 -0.015,0.001 -0.023,0.001 1.137,-0.056 2.28,-0.095 3.425,-0.127 z"
       id="path4189" />
    <path
       inkscape:connector-curvature="0"
       style="fill:#ffff00;stroke:#000000;stroke-width:2.95003129;stroke-miterlimit:4;stroke-dasharray:none"
       d="m 315.01,196.828 c -0.285,1.536 -0.599,3.061 -0.928,4.581 0.329,-1.522 0.644,-3.047 0.928,-4.581 z"
       id="path4191" />
  </g>
  <path
     inkscape:connector-curvature="0"
     style="fill:#ffffff;stroke:#000000;stroke-width:0.93750398;stroke-miterlimit:4;stroke-dasharray:none"
     d="m 79.38492,56.66689 c -0.006,3.18e-4 -0.0113,6.35e-4 -0.0168,9.48e-4 -5.73698,0.28569 -11.20985,1.551436 -16.28769,3.591944 2.31202,12.404487 9.1705,23.20129 18.7694,30.637183 0.0823,-0.06419 0.16589,-0.12648 0.24789,-0.190991 1.94337,-1.524105 3.76723,-3.191531 5.46811,-4.977176 0.37247,-0.392466 0.73953,-0.789063 1.09897,-1.193287 0.40455,-0.453165 0.81103,-0.90474 1.19937,-1.372204 0.69917,-0.845313 1.37419,-1.711599 2.01805,-2.602037 0.23009,-0.316199 0.44684,-0.642566 0.66994,-0.964166 0.5965,-0.866605 1.17396,-1.746556 1.71677,-2.650976 0.10136,-0.16811 0.20878,-0.332088 0.30794,-0.501469 0.68677,-1.175175 1.32969,-2.378632 1.92208,-3.611964 0.0276,-0.05783 0.054,-0.116307 0.0814,-0.174146 1.14282,-2.403738 2.10164,-4.911712 2.859919,-7.505169 0.0171,-0.05912 0.0347,-0.118857 0.0517,-0.178278 0.27838,-0.966389 0.527861,-1.945173 0.749061,-2.934444 0.0257,-0.11377 0.0505,-0.227216 0.075,-0.341303 0.1045,-0.482717 0.20434,-0.967978 0.29491,-1.456098 -5.07021,-2.030975 -10.53324,-3.290046 -16.25687,-3.575419 -0.01,-3.16e-4 -0.021,-0.0012 -0.0314,-0.0019 -0.35911,-0.01747 -0.7195,-0.03018 -1.08084,-0.04005 -0.0557,-0.0012 -0.11117,-0.0041 -0.16685,-0.0057 -0.40456,-0.0098 -0.81039,-0.01494 -1.2175,-0.01494 -0.40742,0 -0.8139,0.0054 -1.21941,0.01494 -0.007,0 -0.0146,0 -0.0226,3.17e-4 -0.0451,9.49e-4 -0.0902,0.0038 -0.13539,0.0048 -0.002,0 -0.005,3.18e-4 -0.008,3.18e-4 -0.36325,0.01118 -0.72648,0.02351 -1.08782,0.04131 z"
     id="path4193" />
  <g
     id="g4195"
     transform="matrix(0.43547897,0,0,0.43547897,-335.19496,-31.128961)" />
  <g
     id="g4197"
     transform="matrix(0.43547897,0,0,0.43547897,-335.19496,-31.128961)" />
  <g
     id="g4199"
     transform="matrix(0.43547897,0,0,0.43547897,-335.19496,-31.128961)" />
  <g
     id="g4201"
     transform="matrix(0.43547897,0,0,0.43547897,-335.19496,-31.128961)" />
  <g
     id="g4203"
     transform="matrix(0.43547897,0,0,0.43547897,-335.19496,-31.128961)" />
  <g
     id="g4205"
     transform="matrix(0.43547897,0,0,0.43547897,-335.19496,-31.128961)" />
  <g
     id="g4207"
     transform="matrix(0.43547897,0,0,0.43547897,-335.19496,-31.128961)" />
  <g
     id="g4209"
     transform="matrix(0.43547897,0,0,0.43547897,-335.19496,-31.128961)" />
  <g
     id="g4211"
     transform="matrix(0.43547897,0,0,0.43547897,-335.19496,-31.128961)" />
  <g
     id="g4213"
     transform="matrix(0.43547897,0,0,0.43547897,-335.19496,-31.128961)" />
  <g
     id="g4215"
     transform="matrix(0.43547897,0,0,0.43547897,-335.19496,-31.128961)" />
  <g
     id="g4217"
     transform="matrix(0.43547897,0,0,0.43547897,-335.19496,-31.128961)" />
  <g
     id="g4219"
     transform="matrix(0.43547897,0,0,0.43547897,-335.19496,-31.128961)" />
  <g
     id="g4221"
     transform="matrix(0.43547897,0,0,0.43547897,-335.19496,-31.128961)" />
  <g
     id="g4223"
     transform="matrix(0.43547897,0,0,0.43547897,-335.19496,-31.128961)" />
</svg>
