<?xml version="1.0" encoding="UTF-8" standalone="no"?>
<svg
   xmlns:dc="http://purl.org/dc/elements/1.1/"
   xmlns:cc="http://creativecommons.org/ns#"
   xmlns:rdf="http://www.w3.org/1999/02/22-rdf-syntax-ns#"
   xmlns:svg="http://www.w3.org/2000/svg"
   xmlns="http://www.w3.org/2000/svg"
   xmlns:sodipodi="http://sodipodi.sourceforge.net/DTD/sodipodi-0.dtd"
   xmlns:inkscape="http://www.inkscape.org/namespaces/inkscape"
   width="54.900864mm"
   height="52.61401mm"
   viewBox="0 0 182.37416 174.7744"
   id="svg2"
   version="1.1"
   inkscape:version="0.92.0 r15299"
   sodipodi:docname="cero-2.svg">
  <metadata
     id="metadata14">
    <rdf:RDF>
      <cc:Work
         rdf:about="">
        <dc:format>image/svg+xml</dc:format>
        <dc:type
           rdf:resource="http://purl.org/dc/dcmitype/StillImage" />
        <dc:title></dc:title>
      </cc:Work>
    </rdf:RDF>
  </metadata>
  <defs
     id="defs12" />
  <sodipodi:namedview
     pagecolor="#ffffff"
     bordercolor="#666666"
     borderopacity="1"
     objecttolerance="10"
     gridtolerance="10"
     guidetolerance="10"
     inkscape:pageopacity="0"
     inkscape:pageshadow="2"
     inkscape:window-width="1920"
     inkscape:window-height="1017"
     id="namedview10"
     showgrid="false"
     inkscape:snap-global="false"
     inkscape:zoom="2.013377"
     inkscape:cx="76.800539"
     inkscape:cy="58.257972"
     inkscape:window-x="-8"
     inkscape:window-y="-8"
     inkscape:window-maximized="1"
     inkscape:current-layer="svg2"
     fit-margin-top="0"
     fit-margin-left="0"
     fit-margin-right="0"
     fit-margin-bottom="0"
     units="mm" />
  <path
     style="fill:none;stroke:#008000;stroke-width:2;stroke-linecap:round;stroke-linejoin:round"
     d="m 69.663915,108.34072 13.49404,29.37369 -12.43879,31.77467 13.78754,4.28258"
     id="path5209" />
  <path
     style="fill:none;stroke:#008000;stroke-width:2;stroke-linecap:round;stroke-linejoin:round"
     d="m 41.745895,110.85603 c 0,0 -3.59775,26.95638 -8.52446,29.13197 -4.92342,2.17885 -32.22147896,22.40266 -32.22147896,22.40266 l 8.72891596,10.6362"
     id="path6" />
  <g
     aria-label="o"
     transform="scale(0.91185408,1.0966667)"
     style="font-style:normal;font-weight:normal;font-size:179.18403625px;line-height:125%;font-family:sans-serif;letter-spacing:0px;word-spacing:0px;fill:#008000;fill-opacity:1;stroke:none;stroke-width:1px;stroke-linecap:butt;stroke-linejoin:miter;stroke-opacity:1"
     id="text4142" />
  <path
     id="flowRoot5142"
     transform="matrix(0.87891446,0,0,0.87891446,0,-0.00154822)"
     style="font-style:normal;font-variant:normal;font-weight:bold;font-stretch:normal;font-size:96px;line-height:25px;font-family:Arial;-inkscape-font-specification:'Arial, Bold';font-variant-ligatures:normal;font-variant-caps:normal;font-variant-numeric:normal;font-feature-settings:normal;text-align:start;letter-spacing:0px;word-spacing:0px;writing-mode:lr-tb;text-anchor:start;fill:#008000;fill-opacity:1;stroke:none"
     d="m 160.37109,111.21484 c -6.1875,0 -11.34375,1.57813 -15.46875,4.73438 -4.125,3.15625 -6.57812,8.35937 -7.35937,15.60937 l 13.125,1.3125 c 0.25,-3.84375 1.1875,-6.59375 2.8125,-8.25 1.625,-1.65625 3.8125,-2.48437 6.5625,-2.48437 2.78125,0 4.95312,0.79687 6.51562,2.39062 1.59375,1.5625 2.39063,3.8125 2.39063,6.75 0,2.65625 -0.90625,5.34375 -2.71875,8.0625 -1.34375,1.96875 -4.98438,5.71875 -10.92188,11.25 -7.375,6.84375 -12.3125,12.34375 -14.8125,16.5 -2.5,4.125 -4,8.5 -4.5,13.125 h 46.17188 v -12.23437 h -26.15625 c 0.6875,-1.1875 1.57812,-2.40625 2.67187,-3.65625 1.125,-1.25 3.76563,-3.78125 7.92188,-7.59375 4.15625,-3.8125 7.03125,-6.73438 8.625,-8.76563 2.40625,-3.0625 4.15625,-5.98437 5.25,-8.76562 1.125,-2.8125 1.6875,-5.76563 1.6875,-8.85938 0,-5.4375 -1.9375,-9.98437 -5.8125,-13.64062 -3.875,-3.65625 -9.20313,-5.48438 -15.98438,-5.48438 z M 115.62555,48.689156 q 0,17.248625 -4.81087,32.313882 -4.81087,15.065254 -13.524911,25.872942 -9.077121,11.24435 -21.05892,17.35779 -11.981799,6.00427 -27.957531,6.00427 -22.783572,0 -34.946914,-13.10022 Q 1.1630629,104.03759 1.1630629,80.893868 q 0,-16.375276 4.5385603,-31.113027 Q 10.240183,35.043091 19.135761,23.798734 27.759026,12.772714 40.285452,6.44094 52.90265,-2.419743e-6 68.515297,-2.419743e-6 q 22.874344,0 34.946913,12.991053419743 12.16334,12.881885 12.16334,35.698105 z M 73.144628,88.86317 q 4.175476,-7.641796 6.263214,-16.702783 2.178509,-9.060987 2.178509,-22.052041 0,-11.244357 -4.084705,-17.248625 -4.084704,-6.113436 -12.980282,-6.113436 -6.898612,0 -12.163342,4.039234 -5.173958,4.039236 -9.167891,11.462695 -3.72162,6.877617 -5.900129,17.030289 -2.087737,10.152671 -2.087737,20.851186 0,12.55438 4.629331,18.012805 4.629332,5.349256 12.707969,5.349256 5.900128,0 11.3464,-3.820896 5.446273,-3.930068 9.258663,-10.807684 z" />
</svg>
