<?xml version="1.0" encoding="UTF-8" standalone="no"?>
<svg
   xmlns:dc="http://purl.org/dc/elements/1.1/"
   xmlns:cc="http://creativecommons.org/ns#"
   xmlns:rdf="http://www.w3.org/1999/02/22-rdf-syntax-ns#"
   xmlns:svg="http://www.w3.org/2000/svg"
   xmlns="http://www.w3.org/2000/svg"
   xmlns:sodipodi="http://sodipodi.sourceforge.net/DTD/sodipodi-0.dtd"
   xmlns:inkscape="http://www.inkscape.org/namespaces/inkscape"
   width="180"
   height="185.09308"
   viewBox="0 0 168.75248 173.52585"
   id="svg2"
   version="1.1"
   inkscape:version="0.92.0 r15299"
   sodipodi:docname="uno-2.svg">
  <metadata
     id="metadata12">
    <rdf:RDF>
      <cc:Work
         rdf:about="">
        <dc:format>image/svg+xml</dc:format>
        <dc:type
           rdf:resource="http://purl.org/dc/dcmitype/StillImage" />
        <dc:title></dc:title>
      </cc:Work>
    </rdf:RDF>
  </metadata>
  <defs
     id="defs10" />
  <sodipodi:namedview
     pagecolor="#ffffff"
     bordercolor="#666666"
     borderopacity="1"
     objecttolerance="10"
     gridtolerance="10"
     guidetolerance="10"
     inkscape:pageopacity="0"
     inkscape:pageshadow="2"
     inkscape:window-width="1920"
     inkscape:window-height="1017"
     id="namedview8"
     showgrid="false"
     inkscape:zoom="3.403519"
     inkscape:cx="2.8321823"
     inkscape:cy="76.244589"
     inkscape:window-x="-8"
     inkscape:window-y="-8"
     inkscape:window-maximized="1"
     inkscape:current-layer="svg2"
     showguides="true"
     inkscape:guide-bbox="true"
     fit-margin-top="0"
     fit-margin-left="0"
     fit-margin-right="0"
     fit-margin-bottom="0" />
  <path
     d="m 46.13026,117.28062 21.354503,28.25706 -17.909171,21.36821 6.197228,5.51272 m -14.03249,-54.44992 -12.399917,28.25978 -28.2424357,5.51272 2.066653,8.95851"
     id="path6"
     style="fill:none;stroke:#008000;stroke-width:2.1960001;stroke-linecap:round;stroke-linejoin:round"
     inkscape:connector-curvature="0"
     inkscape:export-filename="/home/obijuan/develop/FPGAwars/Icestudio-block-icons/Bits/png/1-legs.png"
     inkscape:export-xdpi="90"
     inkscape:export-ydpi="90" />
  <g
     aria-label="2"
     transform="matrix(0.93751378,0,0,0.93751378,-24.309499,44.064744)"
     style="font-style:normal;font-variant:normal;font-weight:bold;font-stretch:normal;font-size:96px;line-height:25px;font-family:Arial;-inkscape-font-specification:'Arial, Bold';font-variant-ligatures:normal;font-variant-caps:normal;font-variant-numeric:normal;font-feature-settings:normal;text-align:start;letter-spacing:0px;word-spacing:0px;writing-mode:lr-tb;text-anchor:start;fill:#008000;fill-opacity:1;stroke:none"
     id="flowRoot5142">
    <path
       id="path5880"
       style="font-style:normal;font-variant:normal;font-weight:bold;font-stretch:normal;font-size:96px;font-family:Arial;-inkscape-font-specification:'Arial, Bold';font-variant-ligatures:normal;font-variant-caps:normal;font-variant-numeric:normal;font-feature-settings:normal;text-align:start;writing-mode:lr-tb;text-anchor:start;fill:#008000;fill-opacity:1"
       d="m 183.16211,111.85524 v 12.23437 h -46.17188 q 0.75,-6.9375 4.5,-13.125 3.75,-6.23437 14.8125,-16.499998 8.90625,-8.296875 10.92188,-11.25 2.71875,-4.078125 2.71875,-8.0625 0,-4.40625 -2.39063,-6.75 -2.34375,-2.390625 -6.51562,-2.390625 -4.125,0 -6.5625,2.484375 -2.4375,2.484375 -2.8125,8.25 l -13.125,-1.3125 q 1.17187,-10.875 7.35937,-15.609375 6.1875,-4.734375 15.46875,-4.734375 10.17188,0 15.98438,5.484375 5.8125,5.484375 5.8125,13.640625 0,4.640625 -1.6875,8.859375 -1.64063,4.171875 -5.25,8.765625 -2.39063,3.046875 -8.625,8.765628 -6.23438,5.71875 -7.92188,7.59375 -1.64062,1.875 -2.67187,3.65625 z M 34.145081,-12.420505 79.231849,-47.001996 115.71943,-38.761729 86.564308,85.75465 58.183785,79.34492 80.606321,-20.044839 47.287016,0.14280643 Z" />
  </g>
</svg>
