<?xml version="1.0" encoding="UTF-8" standalone="no"?>
<svg
   xmlns:dc="http://purl.org/dc/elements/1.1/"
   xmlns:cc="http://creativecommons.org/ns#"
   xmlns:rdf="http://www.w3.org/1999/02/22-rdf-syntax-ns#"
   xmlns:svg="http://www.w3.org/2000/svg"
   xmlns="http://www.w3.org/2000/svg"
   xmlns:sodipodi="http://sodipodi.sourceforge.net/DTD/sodipodi-0.dtd"
   xmlns:inkscape="http://www.inkscape.org/namespaces/inkscape"
   width="180"
   height="185.09308"
   viewBox="0 0 168.75248 173.52585"
   id="svg2"
   version="1.1"
   inkscape:version="0.92.0 r15299"
   sodipodi:docname="uno-6.svg">
  <metadata
     id="metadata12">
    <rdf:RDF>
      <cc:Work
         rdf:about="">
        <dc:format>image/svg+xml</dc:format>
        <dc:type
           rdf:resource="http://purl.org/dc/dcmitype/StillImage" />
        <dc:title></dc:title>
      </cc:Work>
    </rdf:RDF>
  </metadata>
  <defs
     id="defs10" />
  <sodipodi:namedview
     pagecolor="#ffffff"
     bordercolor="#666666"
     borderopacity="1"
     objecttolerance="10"
     gridtolerance="10"
     guidetolerance="10"
     inkscape:pageopacity="0"
     inkscape:pageshadow="2"
     inkscape:window-width="1920"
     inkscape:window-height="1017"
     id="namedview8"
     showgrid="false"
     inkscape:zoom="3.403519"
     inkscape:cx="2.8321823"
     inkscape:cy="76.244589"
     inkscape:window-x="-8"
     inkscape:window-y="-8"
     inkscape:window-maximized="1"
     inkscape:current-layer="svg2"
     showguides="true"
     inkscape:guide-bbox="true"
     fit-margin-top="0"
     fit-margin-left="0"
     fit-margin-right="0"
     fit-margin-bottom="0" />
  <path
     d="m 46.13026,117.28062 21.354503,28.25706 -17.909171,21.36821 6.197228,5.51272 m -14.03249,-54.44992 -12.399917,28.25978 -28.2424357,5.51272 2.066653,8.95851"
     id="path6"
     style="fill:none;stroke:#008000;stroke-width:2.1960001;stroke-linecap:round;stroke-linejoin:round"
     inkscape:connector-curvature="0"
     inkscape:export-filename="/home/obijuan/develop/FPGAwars/Icestudio-block-icons/Bits/png/1-legs.png"
     inkscape:export-xdpi="90"
     inkscape:export-ydpi="90" />
  <g
     aria-label="6"
     transform="matrix(0.93751378,0,0,0.93751378,-24.309499,44.064744)"
     style="font-style:normal;font-variant:normal;font-weight:bold;font-stretch:normal;font-size:96px;line-height:25px;font-family:Arial;-inkscape-font-specification:'Arial, Bold';font-variant-ligatures:normal;font-variant-caps:normal;font-variant-numeric:normal;font-feature-settings:normal;text-align:start;letter-spacing:0px;word-spacing:0px;writing-mode:lr-tb;text-anchor:start;fill:#008000;fill-opacity:1;stroke:none"
     id="flowRoot5142">
    <path
       id="path5864"
       style="font-style:normal;font-variant:normal;font-weight:bold;font-stretch:normal;font-size:96px;font-family:Arial;-inkscape-font-specification:'Arial, Bold';font-variant-ligatures:normal;font-variant-caps:normal;font-variant-numeric:normal;font-feature-settings:normal;text-align:start;writing-mode:lr-tb;text-anchor:start;fill:#008000;fill-opacity:1"
       d="m 183.30273,72.198987 -12.75,1.40625 q -0.46875,-3.9375 -2.4375,-5.8125 -1.96875,-1.875 -5.10937,-1.875 -4.17188,0 -7.07813,3.75 -2.85937,3.75 -3.60937,15.609375 4.92187,-5.8125 12.23437,-5.8125 8.25,0 14.10938,6.28125 5.90625,6.28125 5.90625,16.218748 0,10.54688 -6.1875,16.92188 -6.1875,6.375 -15.89063,6.375 -10.40625,0 -17.10937,-8.0625 -6.70313,-8.10938 -6.70313,-26.531253 0,-18.890625 6.98438,-27.234375 6.98437,-8.34375 18.14062,-8.34375 7.82813,0 12.9375,4.40625 5.15625,4.359375 6.5625,12.703125 z m -29.85937,28.734373 q 0,6.42188 2.95312,9.9375 2.95313,3.46875 6.75,3.46875 3.65625,0 6.09375,-2.85937 2.4375,-2.85938 2.4375,-9.375 0,-6.703128 -2.625,-9.796878 -2.625,-3.140625 -6.5625,-3.140625 -3.79687,0 -6.42187,3 -2.625,2.953125 -2.625,8.765623 z M 34.145081,-12.420505 79.231849,-47.001996 115.71943,-38.761729 86.564308,85.75465 58.183785,79.34492 80.606321,-20.044839 47.287016,0.14280643 Z" />
  </g>
</svg>
