<?xml version="1.0" encoding="UTF-8" standalone="no"?>
<svg
   xmlns:dc="http://purl.org/dc/elements/1.1/"
   xmlns:cc="http://creativecommons.org/ns#"
   xmlns:rdf="http://www.w3.org/1999/02/22-rdf-syntax-ns#"
   xmlns:svg="http://www.w3.org/2000/svg"
   xmlns="http://www.w3.org/2000/svg"
   xmlns:sodipodi="http://sodipodi.sourceforge.net/DTD/sodipodi-0.dtd"
   xmlns:inkscape="http://www.inkscape.org/namespaces/inkscape"
   width="180"
   height="185.09308"
   viewBox="0 0 168.75248 173.52585"
   id="svg2"
   version="1.1"
   inkscape:version="0.92.0 r15299"
   sodipodi:docname="uno-3.svg">
  <metadata
     id="metadata12">
    <rdf:RDF>
      <cc:Work
         rdf:about="">
        <dc:format>image/svg+xml</dc:format>
        <dc:type
           rdf:resource="http://purl.org/dc/dcmitype/StillImage" />
        <dc:title></dc:title>
      </cc:Work>
    </rdf:RDF>
  </metadata>
  <defs
     id="defs10" />
  <sodipodi:namedview
     pagecolor="#ffffff"
     bordercolor="#666666"
     borderopacity="1"
     objecttolerance="10"
     gridtolerance="10"
     guidetolerance="10"
     inkscape:pageopacity="0"
     inkscape:pageshadow="2"
     inkscape:window-width="1920"
     inkscape:window-height="1017"
     id="namedview8"
     showgrid="false"
     inkscape:zoom="3.403519"
     inkscape:cx="2.8321823"
     inkscape:cy="76.244589"
     inkscape:window-x="-8"
     inkscape:window-y="-8"
     inkscape:window-maximized="1"
     inkscape:current-layer="svg2"
     showguides="true"
     inkscape:guide-bbox="true"
     fit-margin-top="0"
     fit-margin-left="0"
     fit-margin-right="0"
     fit-margin-bottom="0" />
  <path
     d="m 46.13026,117.28062 21.354503,28.25706 -17.909171,21.36821 6.197228,5.51272 m -14.03249,-54.44992 -12.399917,28.25978 -28.2424357,5.51272 2.066653,8.95851"
     id="path6"
     style="fill:none;stroke:#008000;stroke-width:2.1960001;stroke-linecap:round;stroke-linejoin:round"
     inkscape:connector-curvature="0"
     inkscape:export-filename="/home/obijuan/develop/FPGAwars/Icestudio-block-icons/Bits/png/1-legs.png"
     inkscape:export-xdpi="90"
     inkscape:export-ydpi="90" />
  <g
     aria-label="3"
     transform="matrix(0.93751378,0,0,0.93751378,-24.309499,44.064744)"
     style="font-style:normal;font-variant:normal;font-weight:bold;font-stretch:normal;font-size:96px;line-height:25px;font-family:Arial;-inkscape-font-specification:'Arial, Bold';font-variant-ligatures:normal;font-variant-caps:normal;font-variant-numeric:normal;font-feature-settings:normal;text-align:start;letter-spacing:0px;word-spacing:0px;writing-mode:lr-tb;text-anchor:start;fill:#008000;fill-opacity:1;stroke:none"
     id="flowRoot5142">
    <path
       id="path5876"
       style="font-style:normal;font-variant:normal;font-weight:bold;font-stretch:normal;font-size:96px;font-family:Arial;-inkscape-font-specification:'Arial, Bold';font-variant-ligatures:normal;font-variant-caps:normal;font-variant-numeric:normal;font-feature-settings:normal;text-align:start;writing-mode:lr-tb;text-anchor:start;fill:#008000;fill-opacity:1"
       d="m 138.20898,105.85524 12.75,-1.54688 q 0.60938,4.875 3.28125,7.45313 2.67188,2.57812 6.46875,2.57812 4.07813,0 6.84375,-3.09375 2.8125,-3.09375 2.8125,-8.34375 0,-4.968748 -2.67187,-7.874998 -2.67188,-2.90625 -6.51563,-2.90625 -2.53125,0 -6.04687,0.984375 l 1.45312,-10.734375 q 5.34375,0.140625 8.15625,-2.296875 2.8125,-2.484375 2.8125,-6.5625 0,-3.46875 -2.0625,-5.53125 -2.0625,-2.0625 -5.48437,-2.0625 -3.375,0 -5.76563,2.34375 -2.39062,2.34375 -2.90625,6.84375 l -12.14062,-2.0625 q 1.26562,-6.234375 3.79687,-9.9375 2.57813,-3.75 7.125,-5.859375 4.59375,-2.15625 10.26563,-2.15625 9.70312,0 15.5625,6.1875 4.82812,5.0625 4.82812,11.4375 0,9.046875 -9.89062,14.4375 5.90625,1.265625 9.42187,5.671875 3.5625,4.40625 3.5625,10.640623 0,9.04688 -6.60937,15.42188 -6.60938,6.375 -16.45313,6.375 -9.32812,0 -15.46875,-5.34375 -6.14062,-5.39063 -7.125,-14.0625 z M 34.145081,-12.420505 79.231849,-47.001996 115.71943,-38.761729 86.564308,85.75465 58.183785,79.34492 80.606321,-20.044839 47.287016,0.14280643 Z" />
  </g>
</svg>
