<?xml version="1.0" encoding="UTF-8" standalone="no"?>
<svg
   xmlns:dc="http://purl.org/dc/elements/1.1/"
   xmlns:cc="http://creativecommons.org/ns#"
   xmlns:rdf="http://www.w3.org/1999/02/22-rdf-syntax-ns#"
   xmlns:svg="http://www.w3.org/2000/svg"
   xmlns="http://www.w3.org/2000/svg"
   xmlns:sodipodi="http://sodipodi.sourceforge.net/DTD/sodipodi-0.dtd"
   xmlns:inkscape="http://www.inkscape.org/namespaces/inkscape"
   version="1.1"
   viewBox="0 0 234.62951 290.44458"
   xml:space="preserve"
   id="svg30"
   sodipodi:docname="FF-bell.svg"
   width="234.62952"
   height="290.44458"
   inkscape:version="0.92.3 (2405546, 2018-03-11)"><metadata
     id="metadata36"><rdf:RDF><cc:Work
         rdf:about=""><dc:format>image/svg+xml</dc:format><dc:type
           rdf:resource="http://purl.org/dc/dcmitype/StillImage" /><dc:title></dc:title></cc:Work></rdf:RDF></metadata><defs
     id="defs34" /><sodipodi:namedview
     pagecolor="#ffffff"
     bordercolor="#666666"
     borderopacity="1"
     objecttolerance="10"
     gridtolerance="10"
     guidetolerance="10"
     inkscape:pageopacity="0"
     inkscape:pageshadow="2"
     inkscape:window-width="1853"
     inkscape:window-height="1025"
     id="namedview32"
     showgrid="false"
     fit-margin-top="0"
     fit-margin-left="0"
     fit-margin-right="0"
     fit-margin-bottom="0"
     inkscape:zoom="0.86915209"
     inkscape:cx="58.871855"
     inkscape:cy="159.55239"
     inkscape:window-x="67"
     inkscape:window-y="27"
     inkscape:window-maximized="1"
     inkscape:current-layer="layer1"
     inkscape:snap-global="false"
     showguides="false" /><style
     type="text/css"
     id="style2">
	.st0{display:none;}
	.st1{fill:none;stroke:#303030;stroke-width:0.7;stroke-linecap:round;stroke-linejoin:round;stroke-miterlimit:10;}
	.st2{fill:#303030;}
</style><g
     class="st0"
     id="Padding__x26__Artboard"
     style="display:none"
     transform="translate(-152.22936,175.33247)" /><g
     inkscape:groupmode="layer"
     id="layer1"
     inkscape:label="Layer 1"
     transform="translate(3.4707638,3.1982158)"><path
       class="st1"
       d="m 21.357905,145.94703 c 0.06099,3.67081 0.439599,7.36611 1.151805,11.04892"
       id="path9"
       inkscape:connector-curvature="0"
       style="fill:none;stroke:#303030;stroke-width:6.77645969;stroke-linecap:round;stroke-linejoin:round;stroke-miterlimit:10" /><path
       class="st1"
       d="m 48.701696,92.115987 c -4.749234,3.365287 -8.955576,7.305019 -12.55833,11.679813 -5.99465,7.27918 -10.318225,15.76282 -12.69047,24.8091"
       id="path11"
       inkscape:connector-curvature="0"
       style="fill:none;stroke:#303030;stroke-width:6.77645969;stroke-linecap:round;stroke-linejoin:round;stroke-miterlimit:10" /><line
       style="fill:none;stroke:#303030;stroke-width:6.77645969;stroke-linecap:round;stroke-linejoin:round;stroke-miterlimit:10"
       id="line17"
       y2="262.80167"
       y1="207.59064"
       x2="41.297638"
       x1="184.86526"
       class="st1" /><path
       style="fill:#ffffff;stroke:#303030;stroke-width:6.77645969;stroke-linecap:round;stroke-linejoin:round;stroke-miterlimit:10"
       inkscape:connector-curvature="0"
       id="path23"
       d="m 109.72154,251.1353 c 4.62328,12.02202 -1.55578,25.59827 -13.577796,30.22156 l -2.43924,0.93805 c -12.02202,4.62329 -25.705529,-1.31453 -30.328817,-13.33665 z"
       class="st1" /><path
       id="path21-3"
       style="fill:#ffffff;stroke:#303030;stroke-width:6.77645969;stroke-linecap:round;stroke-linejoin:round;stroke-miterlimit:10"
       d="m 185.44784,175.07069 0.37048,0.15344 c 2.51959,0.83109 4.71748,2.3858 6.63396,4.24884 2.01978,2.322 3.69395,4.77702 4.4231,8.71317 1.49566,8.07416 -3.28678,16.04976 -10.95115,18.99723 l -1.05887,0.40717 -143.567625,55.21111 -0.733116,0.282 c -8.002902,3.07767 -17.550934,0.46138 -21.819814,-6.97472 -3.299458,-5.74751 -2.73556,-12.19831 0.418592,-21.6127 3.154152,-9.41439 2.860344,-21.85646 -1.644647,-33.54991 l 0.04124,0.003 L 5.0529682,168.28155 C -7.8274358,134.86722 4.3062992,97.906086 32.463603,77.971434 L 31.361412,75.22295 C 27.67618,65.640164 32.501503,54.784566 42.084289,51.099333 51.667074,47.414101 62.522673,52.239424 66.207905,61.82221 l 1.653646,3.238662 c 34.881469,-3.555921 68.594279,15.855393 81.318509,49.329478 l 15.24009,38.43247 c 4.79439,8.72323 11.83107,15.95545 21.02769,22.24787 z"
       inkscape:connector-curvature="0"
       sodipodi:nodetypes="cccccccccscccccsccccc" /></g><g
     inkscape:groupmode="layer"
     id="layer2"
     inkscape:label="Layer 2"
     style="display:inline"
     transform="translate(3.4707638,3.1982158)"><path
       class="st1"
       d="m 206.51779,135.57613 h -92.88077 c -11.68901,0 -21.252716,-9.56372 -21.252716,-21.25272 V 21.442637 c 0,-11.6890047 9.563706,-21.25262293 21.252716,-21.25262293 h 92.88077 c 11.68901,0 21.25273,9.56371523 21.25273,21.25262293 v 92.880773 c 0,11.689 -9.56372,21.25272 -21.25273,21.25272 z"
       id="path5"
       inkscape:connector-curvature="0"
       style="fill:#55acee;fill-opacity:1;stroke:#303030;stroke-width:6.77645969;stroke-linecap:round;stroke-linejoin:round;stroke-miterlimit:10" /><path
       class="st2"
       d="M 169.25364,49.335009 V 24.448647 h -9.88859 l -18.78832,10.053474 2.30733,8.899732 14.83288,-8.075756 h 0.32963 v 14.008912 27.523319 33.291592 h 2.1426 9.06462 V 103.88714 69.112192 49.335009 Z"
       id="path7"
       inkscape:connector-curvature="0"
       style="fill:#303030;stroke-width:14.42537212" /></g></svg>