<?xml version="1.0" encoding="UTF-8" standalone="no"?>
<svg
   xmlns:dc="http://purl.org/dc/elements/1.1/"
   xmlns:cc="http://creativecommons.org/ns#"
   xmlns:rdf="http://www.w3.org/1999/02/22-rdf-syntax-ns#"
   xmlns:svg="http://www.w3.org/2000/svg"
   xmlns="http://www.w3.org/2000/svg"
   xmlns:sodipodi="http://sodipodi.sourceforge.net/DTD/sodipodi-0.dtd"
   xmlns:inkscape="http://www.inkscape.org/namespaces/inkscape"
   version="1.1"
   viewBox="0 0 234.62951 290.44458"
   xml:space="preserve"
   id="svg30"
   sodipodi:docname="FF-bell.svg"
   width="234.62952"
   height="290.44458"
   inkscape:version="0.92.3 (2405546, 2018-03-11)"><metadata
     id="metadata36"><rdf:RDF><cc:Work
         rdf:about=""><dc:format>image/svg+xml</dc:format><dc:type
           rdf:resource="http://purl.org/dc/dcmitype/StillImage" /><dc:title /></cc:Work></rdf:RDF></metadata><defs
     id="defs34" /><sodipodi:namedview
     pagecolor="#ffffff"
     bordercolor="#666666"
     borderopacity="1"
     objecttolerance="10"
     gridtolerance="10"
     guidetolerance="10"
     inkscape:pageopacity="0"
     inkscape:pageshadow="2"
     inkscape:window-width="1853"
     inkscape:window-height="1025"
     id="namedview32"
     showgrid="false"
     fit-margin-top="0"
     fit-margin-left="0"
     fit-margin-right="0"
     fit-margin-bottom="0"
     inkscape:zoom="1.2291667"
     inkscape:cx="13.664421"
     inkscape:cy="210.0812"
     inkscape:window-x="67"
     inkscape:window-y="27"
     inkscape:window-maximized="1"
     inkscape:current-layer="layer4"
     inkscape:snap-global="false"
     showguides="false" /><style
     type="text/css"
     id="style2">
	.st0{display:none;}
	.st1{fill:none;stroke:#303030;stroke-width:0.7;stroke-linecap:round;stroke-linejoin:round;stroke-miterlimit:10;}
	.st2{fill:#303030;}
</style><g
     class="st0"
     id="Padding__x26__Artboard"
     style="display:none"
     transform="translate(-152.22936,175.33247)" /><g
     inkscape:groupmode="layer"
     id="layer1"
     inkscape:label="Layer 1"
     transform="translate(3.4707638,3.1982158)"><path
       class="st1"
       d="m 21.357905,145.94703 c 0.06099,3.67081 0.439599,7.36611 1.151805,11.04892"
       id="path9"
       inkscape:connector-curvature="0"
       style="fill:none;stroke:#303030;stroke-width:6.77645969;stroke-linecap:round;stroke-linejoin:round;stroke-miterlimit:10"
       inkscape:export-xdpi="26"
       inkscape:export-ydpi="26" /><path
       class="st1"
       d="m 48.701696,92.115987 c -4.749234,3.365287 -8.955576,7.305019 -12.55833,11.679813 -5.99465,7.27918 -10.318225,15.76282 -12.69047,24.8091"
       id="path11"
       inkscape:connector-curvature="0"
       style="fill:none;stroke:#303030;stroke-width:6.77645969;stroke-linecap:round;stroke-linejoin:round;stroke-miterlimit:10"
       inkscape:export-xdpi="26"
       inkscape:export-ydpi="26" /><line
       style="fill:none;stroke:#303030;stroke-width:6.77645969;stroke-linecap:round;stroke-linejoin:round;stroke-miterlimit:10"
       id="line17"
       y2="262.80167"
       y1="207.59064"
       x2="41.297638"
       x1="184.86526"
       class="st1"
       inkscape:export-xdpi="26"
       inkscape:export-ydpi="26" /><path
       id="path21-3"
       style="fill:#ffffff;stroke:#303030;stroke-width:7;stroke-linecap:round;stroke-linejoin:round;stroke-miterlimit:10;stroke-dasharray:none"
       d="m 185.44784,175.07069 0.37048,0.15344 c 2.51959,0.83109 4.71748,2.3858 6.63396,4.24884 2.01978,2.322 3.69395,4.77702 4.4231,8.71317 1.49566,8.07416 -3.28678,16.04976 -10.95115,18.99723 l -1.05887,0.40717 -143.567625,55.21111 -0.733116,0.282 c -8.002902,3.07767 -17.550934,0.46138 -21.819814,-6.97472 -3.299458,-5.74751 -2.73556,-12.19831 0.418592,-21.6127 3.154152,-9.41439 2.860344,-21.85646 -1.644647,-33.54991 l 0.04124,0.003 L 5.0529682,168.28155 C -7.8274358,134.86722 4.3062992,97.906086 32.463603,77.971434 L 31.361412,75.22295 C 27.67618,65.640164 32.501503,54.784566 42.084289,51.099333 51.667074,47.414101 62.522673,52.239424 66.207905,61.82221 l 1.653646,3.238662 c 34.881469,-3.555921 68.594279,15.855393 81.318509,49.329478 l 15.24009,38.43247 c 4.79439,8.72323 11.83107,15.95545 21.02769,22.24787 z"
       inkscape:connector-curvature="0"
       sodipodi:nodetypes="cccccccccscccccsccccc"
       inkscape:export-xdpi="26"
       inkscape:export-ydpi="26" /><path
       style="display:inline;fill:#ffffff;stroke:#000000;stroke-width:7;stroke-linecap:round;stroke-linejoin:round;stroke-miterlimit:4;stroke-dasharray:none;stroke-opacity:1"
       d="m 64.267668,268.83761 45.015142,-17.11438 c 0,0 7.96368,24.29535 -14.426955,30.38057 -22.390636,6.08522 -30.588187,-13.26619 -30.588187,-13.26619 z"
       id="path826"
       inkscape:connector-curvature="0"
       sodipodi:nodetypes="cczc" /></g><g
     inkscape:groupmode="layer"
     id="layer3"
     inkscape:label="Layer 3"
     style="display:inline"><rect
       style="opacity:1;fill:#55acee;fill-opacity:1;stroke:#303030;stroke-width:6.99999952;stroke-linecap:round;stroke-linejoin:round;stroke-miterlimit:10;stroke-dasharray:none;stroke-opacity:1"
       id="rect845"
       width="135.18922"
       height="135.18922"
       x="95.783005"
       y="3.6708348"
       ry="19.84693" /></g><g
     inkscape:groupmode="layer"
     id="layer4"
     inkscape:label="Layer 4"><path
       class="st2"
       d="M 172.7244,52.533222 V 27.64686 h -9.88859 l -18.78832,10.053474 2.30733,8.899732 14.83288,-8.075756 h 0.32963 v 14.008912 27.523319 33.291589 h 2.1426 9.06462 V 107.08535 72.310405 52.533222 Z"
       id="path7"
       inkscape:connector-curvature="0"
       style="display:inline;fill:#303030;stroke-width:14.42537212"
       inkscape:export-xdpi="26"
       inkscape:export-ydpi="26" /></g></svg>