<?xml version="1.0" encoding="UTF-8" standalone="no"?>
<!-- Created with Inkscape (http://www.inkscape.org/) -->

<svg
   xmlns:dc="http://purl.org/dc/elements/1.1/"
   xmlns:cc="http://creativecommons.org/ns#"
   xmlns:rdf="http://www.w3.org/1999/02/22-rdf-syntax-ns#"
   xmlns:svg="http://www.w3.org/2000/svg"
   xmlns="http://www.w3.org/2000/svg"
   xmlns:xlink="http://www.w3.org/1999/xlink"
   xmlns:sodipodi="http://sodipodi.sourceforge.net/DTD/sodipodi-0.dtd"
   xmlns:inkscape="http://www.inkscape.org/namespaces/inkscape"
   width="37.838352mm"
   height="59.866627mm"
   viewBox="0 0 134.0729 212.12584"
   id="svg2"
   version="1.1"
   inkscape:version="0.91 r13725"
   sodipodi:docname="Flip-flip-RS-Flag.svg">
  <defs
     id="defs4">
    <filter
       x="-0.063419998"
       y="-0.083264999"
       width="1.1267999"
       height="1.1665"
       style="color-interpolation-filters:sRGB"
       id="b">
      <feGaussianBlur
         id="feGaussianBlur4181"
         stdDeviation="61.200602" />
    </filter>
    <clipPath
       clipPathUnits="userSpaceOnUse"
       id="c">
      <path
         id="path4184"
         d="m 544.11,364.31 c -11.403,0.0689 -22.794,1.0906 -33.859,2.6781 -4.55,2.3 -6.35,8.0191 -3.5,12.339 17.1,90.69 24.71,182.71 33.73,274.26 7.93,97.83 19.07,195.65 29.5,293.41 -4.76,-2.79 1.54,3.2694 0,6.0594 5.13,65.54 7.3609,131.27 11.011,196.9 3.9,38.62 -0.06,77.34 -3.2703,115.9 -4.39,72.19 -10.42,146.2 -14.82,219.07 -11.58,18.61 -6.8903,41.49 -7.8703,62.13 0.37,19.55 -3.4094,42.351 -1.9594,60.061 -8.86,111.2 -16.71,223.17 -30.18,334.17 -3.95,46.7 -13.481,97.809 -15.841,146.44 4.19,-1.64 7.4006,2.9109 9.1906,-1.6391 78.27,-24.43 155.66,-54.31 237.6,-64.25 67.07,-9.35 137.26,-11.011 203.17,-13.691 27.82,0.28 55.48,-2.3006 83.12,-4.9906 57.02,-7.26 108.48,-34.499 164.32,-46.159 52.32,-13.79 130.57,-24.471 176.76,21.259 5.79,5.04 3.0312,9.03 9.0312,10.55 12.15,17.03 22.979,35.271 33.309,53.631 18.95,32.14 34.69,77.479 77.17,83.039 46.45,4.81 90.78,-14.42 131.83,-33.92 54.24,-28.95 111.24,-54.399 168.69,-75.319 35.42,-10.54 71.359,-20.63 108.39,-23.72 59.92,-4.22 126.88,0.52 173.22,43.2 16.36,10.64 24.25,33.87 37.13,49.35 10.28,15.03 37.48,30.599 53.4,30.109 15.5,4.14 35.31,4.2503 52.35,6.0203 97.42,3.34 195.42,-4.76 292.87,3.25 30.11,0.99 57.991,22.24 78.791,38.27 6.55,8.25 16.679,11.69 24.389,18.77 43.16,17.8 82.141,-12.211 122.74,-23.991 2,-1.59 6.7491,2.6503 4.6391,-1.5797 35.66,-9.7 74.64,-10.201 109.42,2.5391 20.87,4.18 39.51,15.681 59.18,22.691 31.68,15.89 64.531,31.049 98.531,41.609 34.49,6.15 69.84,8.4503 104.85,6.3203 6.73,0.72 16.199,-3.8997 13.959,-12.13 -2.11,-30.3 -14.07,-58.771 -23.77,-87.291 -14.12,-37.85 -28.889,-78.75 -46.409,-113.2 -4.54,-12.19 -9.4903,-24.4 -15.87,-35.73 -19.63,-62.15 -40.409,-124.19 -59.309,-186.74 -28.73,-89.44 -56.711,-179.23 -86.711,-268.2 -28.97,-90.52 -56.739,-181.3 -89.259,-270.62 -33.29,-94.42 -72.4,-188.22 -116.57,-277.2 -16.31,-29.51 -30.701,-60.291 -50.391,-87.791 -4.83,-7.55 -13.579,-12.67 -22.459,-13.65 -21.06,-0.82 -42.131,-3.5697 -62.341,-9.5797 0.43,-1.73 -3.0888,0.36064 -4.2188,-0.90936 -99.98,-30.44 -181.23,-99.871 -275.8,-142.01 -34.52,-16.01 -69.241,-33.569 -107.09,-39.989 -76.89,-9.66 -154.79,-1.6312 -232.02,-7.0812 -58.35,0.4 -116.8,-13.07 -170.12,-35.3 -101.24,-44.75 -199.73,-97.379 -304.53,-133.99 -30.899,-10.506 -64.815,-16.681 -97.141,-16.702 -7.4597,-0.005 -14.835,0.3175 -22.069,0.99063 -35.58,2.79 -72.34,6.5203 -104.88,22.22 -12.52,4.51 -24.691,10.67 -38.161,11.73 -29.69,6.79 -59.469,-8.3988 -80.789,-28.119 -20.54,-16.3 -41.041,-35.421 -68.061,-39.881 -6.72,-0.87188 -13.422,-1.245 -20.109,-1.2625 -28.98,-0.076 -57.702,6.536 -86.57,8.2828 -48.33,7.69 -97.92,11.15 -146.42,3 -69.38,-11.41 -128.16,-51.91 -187.78,-86.26 -21.86,-13.17 -47,-17.63 -72.09,-17.48 z"
         inkscape:connector-curvature="0"
         style="fill:#feda02" />
    </clipPath>
    <linearGradient
       x1="399.22"
       y1="2297"
       gradientTransform="matrix(1,0,0,0.90865816,-1.6879,101.5209)"
       x2="520.78003"
       gradientUnits="userSpaceOnUse"
       y2="2297"
       id="a">
      <stop
         id="stop4187"
         offset="0"
         stop-color="#282828" />
      <stop
         id="stop4189"
         offset=".5"
         stop-color="#878787" />
      <stop
         id="stop4191"
         offset="1"
         stop-color="#282828" />
    </linearGradient>
    <linearGradient
       inkscape:collect="always"
       xlink:href="#SVGID_1_"
       id="linearGradient4336"
       gradientUnits="userSpaceOnUse"
       gradientTransform="matrix(1,0,0,-1,-106,605)"
       x1="311.42001"
       y1="199.72"
       x2="331.42001"
       y2="199.72" />
    <linearGradient
       inkscape:collect="always"
       xlink:href="#SVGID_1_"
       id="linearGradient4338"
       gradientUnits="userSpaceOnUse"
       gradientTransform="matrix(1,0,0,-1,-106,605)"
       x1="311.42001"
       y1="199.72"
       x2="331.42001"
       y2="199.72" />
    <linearGradient
       x1="311.42001"
       y1="199.72"
       gradientTransform="matrix(1,0,0,-1,-106,605)"
       x2="331.42001"
       gradientUnits="userSpaceOnUse"
       y2="199.72"
       id="linearGradient4425">
      <stop
         id="stop4299-7"
         offset="0"
         style="stop-color:#A6A6A6" />
      <stop
         id="stop4301-0"
         offset=".3851"
         style="stop-color:#FFFFFF" />
      <stop
         id="stop4303-9"
         offset=".9138"
         style="stop-color:#999999" />
    </linearGradient>
    <linearGradient
       x1="311.42001"
       y1="437.03"
       gradientTransform="matrix(0.30971605,0,0,-0.26589435,1194.7123,-132.72052)"
       x2="700.58002"
       gradientUnits="userSpaceOnUse"
       y2="437.03"
       id="SVGID_2_-3">
      <stop
         id="stop4308-6"
         offset="0"
         style="stop-color:#EF0000" />
      <stop
         id="stop4310-0"
         offset=".431"
         style="stop-color:#FF4000" />
      <stop
         id="stop4312-6"
         offset=".9138"
         style="stop-color:#EF0000" />
    </linearGradient>
    <linearGradient
       id="linearGradient4375"
       y2="199.72"
       gradientUnits="userSpaceOnUse"
       x2="331.42001"
       gradientTransform="matrix(1,0,0,-1,-106,605)"
       y1="199.72"
       x1="311.42001">
      <stop
         style="stop-color:#A6A6A6"
         offset="0"
         id="stop4377" />
      <stop
         style="stop-color:#FFFFFF"
         offset=".3851"
         id="stop4379" />
      <stop
         style="stop-color:#999999"
         offset=".9138"
         id="stop4381" />
    </linearGradient>
    <linearGradient
       id="linearGradient4384"
       y2="437.03"
       gradientUnits="userSpaceOnUse"
       x2="700.58002"
       gradientTransform="matrix(1,0,0,-1,-106,605)"
       y1="437.03"
       x1="311.42001">
      <stop
         style="stop-color:#EF0000"
         offset="0"
         id="stop4386" />
      <stop
         style="stop-color:#FF4000"
         offset=".431"
         id="stop4388" />
      <stop
         style="stop-color:#EF0000"
         offset=".9138"
         id="stop4390" />
    </linearGradient>
  </defs>
  <sodipodi:namedview
     id="base"
     pagecolor="#ffffff"
     bordercolor="#666666"
     borderopacity="1.0"
     inkscape:pageopacity="0.0"
     inkscape:pageshadow="2"
     inkscape:zoom="0.98994949"
     inkscape:cx="129.65135"
     inkscape:cy="223.7893"
     inkscape:document-units="px"
     inkscape:current-layer="layer1"
     showgrid="false"
     inkscape:window-width="1855"
     inkscape:window-height="1056"
     inkscape:window-x="65"
     inkscape:window-y="24"
     inkscape:window-maximized="1"
     showguides="true"
     inkscape:guide-bbox="true"
     fit-margin-top="0"
     fit-margin-left="0"
     fit-margin-right="0"
     fit-margin-bottom="0" />
  <metadata
     id="metadata7">
    <rdf:RDF>
      <cc:Work
         rdf:about="">
        <dc:format>image/svg+xml</dc:format>
        <dc:type
           rdf:resource="http://purl.org/dc/dcmitype/StillImage" />
        <dc:title></dc:title>
      </cc:Work>
    </rdf:RDF>
  </metadata>
  <g
     inkscape:label="Layer 1"
     inkscape:groupmode="layer"
     id="layer1"
     transform="translate(-248.22642,-180.19014)">
    <g
       id="g4296"
       transform="matrix(0.34451871,0,0,0.29577278,177.45539,168.39884)">
      <linearGradient
         x1="311.42001"
         y1="199.72"
         gradientTransform="matrix(1,0,0,-1,-106,605)"
         x2="331.42001"
         gradientUnits="userSpaceOnUse"
         y2="199.72"
         id="SVGID_1_">
        <stop
           id="stop4299"
           offset="0"
           style="stop-color:#A6A6A6" />
        <stop
           id="stop4301"
           offset=".3851"
           style="stop-color:#FFFFFF" />
        <stop
           id="stop4303"
           offset=".9138"
           style="stop-color:#999999" />
      </linearGradient>
      <path
         id="path4305"
         d="m 225.42,53.506 0,665.97 c 0,5.523 -4.477,37.582 -10,37.582 -5.522,0 -10,-32.059 -10,-37.582 l 0,-665.97 20,0 z"
         inkscape:connector-curvature="0"
         style="fill:url(#linearGradient4336)" />
      <linearGradient
         x1="311.42001"
         y1="437.03"
         gradientTransform="matrix(1,0,0,-1,-106,605)"
         x2="700.58002"
         gradientUnits="userSpaceOnUse"
         y2="437.03"
         id="SVGID_2_">
        <stop
           id="stop4308"
           offset="0"
           style="stop-color:#EF0000" />
        <stop
           id="stop4310"
           offset=".431"
           style="stop-color:#FF4000" />
        <stop
           id="stop4312"
           offset=".9138"
           style="stop-color:#EF0000" />
      </linearGradient>
      <path
         id="path4314"
         d="M 225.42,53.506 C 348.26,75.462 471.74,18.084 594.58,49.503 l 0,236.99 c -129.72,-33.179 -259.44,33.179 -389.16,0 l 0,-232.98"
         inkscape:connector-curvature="0"
         style="fill:url(#SVGID_2_)" />
      <path
         id="path4316"
         d="m 225.42,53.506 0,665.97 c 0,5.523 -4.477,37.582 -10,37.582 -5.522,0 -10,-32.059 -10,-37.582 l 0,-665.97 20,0 z"
         enable-background="new    "
         inkscape:connector-curvature="0"
         style="opacity:0.5;fill:url(#linearGradient4338)" />
    </g>
    <circle
       style="opacity:1;fill:#ff0000;fill-opacity:1;stroke:none;stroke-width:1;stroke-linecap:round;stroke-linejoin:round;stroke-miterlimit:4;stroke-dasharray:none;stroke-dashoffset:0;stroke-opacity:1"
       id="path4342"
       cx="316.7868"
       cy="306.55615"
       r="29.398338" />
    <text
       xml:space="preserve"
       style="font-style:normal;font-weight:normal;font-size:37.66106796px;line-height:125%;font-family:sans-serif;letter-spacing:0px;word-spacing:0px;fill:#000000;fill-opacity:1;stroke:none;stroke-width:1px;stroke-linecap:butt;stroke-linejoin:miter;stroke-opacity:1"
       x="304.22812"
       y="319.95428"
       id="text4344"
       sodipodi:linespacing="125%"><tspan
         sodipodi:role="line"
         id="tspan4346"
         x="304.22812"
         y="319.95428"
         style="font-style:normal;font-variant:normal;font-weight:bold;font-stretch:normal;font-family:sans-serif;-inkscape-font-specification:'sans-serif Bold';fill:#ffffff">1</tspan></text>
  </g>
</svg>
