<?xml version="1.0" encoding="UTF-8" standalone="no"?>
<!-- Created with Inkscape (http://www.inkscape.org/) -->

<svg
   xmlns:dc="http://purl.org/dc/elements/1.1/"
   xmlns:cc="http://creativecommons.org/ns#"
   xmlns:rdf="http://www.w3.org/1999/02/22-rdf-syntax-ns#"
   xmlns:svg="http://www.w3.org/2000/svg"
   xmlns="http://www.w3.org/2000/svg"
   xmlns:sodipodi="http://sodipodi.sourceforge.net/DTD/sodipodi-0.dtd"
   xmlns:inkscape="http://www.inkscape.org/namespaces/inkscape"
   width="74.779663mm"
   height="69.457161mm"
   viewBox="0 0 74.779666 69.457161"
   version="1.1"
   id="svg8"
   inkscape:version="0.92.3 (2405546, 2018-03-11)"
   sodipodi:docname="First-course.svg">
  <defs
     id="defs2" />
  <sodipodi:namedview
     id="base"
     pagecolor="#ffffff"
     bordercolor="#666666"
     borderopacity="1.0"
     inkscape:pageopacity="0.0"
     inkscape:pageshadow="2"
     inkscape:zoom="1.4166667"
     inkscape:cx="248.99687"
     inkscape:cy="103.34362"
     inkscape:document-units="mm"
     inkscape:current-layer="layer7"
     showgrid="false"
     fit-margin-top="0"
     fit-margin-left="0"
     fit-margin-right="0"
     fit-margin-bottom="0"
     inkscape:window-width="1853"
     inkscape:window-height="1025"
     inkscape:window-x="67"
     inkscape:window-y="1107"
     inkscape:window-maximized="1"
     inkscape:snap-global="false" />
  <metadata
     id="metadata5">
    <rdf:RDF>
      <cc:Work
         rdf:about="">
        <dc:format>image/svg+xml</dc:format>
        <dc:type
           rdf:resource="http://purl.org/dc/dcmitype/StillImage" />
        <dc:title></dc:title>
      </cc:Work>
    </rdf:RDF>
  </metadata>
  <g
     inkscape:groupmode="layer"
     id="layer6"
     inkscape:label="back"
     transform="translate(-0.07369225,0.14947437)">
    <ellipse
       style="fill:#ffffff;fill-opacity:1;stroke:#000000;stroke-width:0.26458329;stroke-linejoin:round;stroke-miterlimit:4;stroke-dasharray:none;stroke-opacity:1"
       id="path924"
       cx="35.672054"
       cy="34.192635"
       rx="35.298523"
       ry="33.991173" />
  </g>
  <g
     inkscape:groupmode="layer"
     id="layer2"
     inkscape:label="Jedi-knight"
     style="display:inline;opacity:1"
     transform="translate(-0.07369225,0.14947437)">
    <g
       transform="matrix(0.91402157,0,0,0.87638119,180.47393,-26.813508)"
       id="layer1-35"
       inkscape:label="Layer 1"
       style="fill:#ff0000" />
    <path
       id="path855-6"
       style="fill:#000000;fill-opacity:1;stroke:#000000;stroke-width:0.333;stroke-linejoin:round;stroke-miterlimit:4;stroke-dasharray:none;stroke-opacity:1"
       d="m 35.739437,31.811295 c 0.792441,0 0.874576,0.318643 0.874576,0.318643 0,0 -0.860331,-18.415095 -1.088032,-22.4367456 -0.03967,-0.70058 -0.03568,-0.9009227 -0.07471,-0.5775793 -0.150768,1.2500449 -0.727293,23.0003639 -0.727293,23.0003639 0,0 0.223015,-0.304682 1.015456,-0.304682 z m -0.86003,37.274146 C 25.932196,68.729 17.438349,65.24995 11.129105,59.35738 9.4000043,57.742485 8.1013442,56.30426 6.8239442,54.589598 3.2240428,49.757421 1.0014988,44.016472 0.3843149,37.955716 0.13041799,35.462404 0.21772533,32.158674 0.60677861,29.537875 1.563814,23.090893 4.3824098,16.98456 8.6626814,12.08522 14.134307,5.8222176 21.792729,1.6741398 30.188502,0.42605296 39.144478,-0.90531029 48.37233,1.0406056 56.013998,5.8719803 64.563884,11.277563 70.400469,19.96384 71.895982,29.508293 72.521849,33.50257 72.414854,37.700076 71.586047,41.666841 70.505363,46.839153 68.16225,51.7594 64.809793,55.896187 58.81489,63.293613 50.003786,67.956303 40.157927,68.941548 c -0.814987,0.08159 -3.569757,0.217904 -3.982675,0.197125 -0.08482,-0.0044 -0.667976,-0.02822 -1.295845,-0.05328 z m 4.628011,-3.043417 c 2.673897,-0.24239 5.033206,-0.72128 7.559086,-1.534333 10.414143,-3.35222 18.347301,-11.516619 21.101632,-21.716703 0.439261,-1.626716 0.747268,-3.328657 0.936909,-5.176996 0.145247,-1.415689 0.145183,-4.434845 0,-5.798237 C 68.672539,27.758187 67.680186,24.3918 65.887067,20.899688 64.240403,17.692818 62.259096,15.049644 59.564881,12.465564 58.270105,11.223715 57.267625,10.383222 55.952293,9.4367248 48.591906,4.1402897 39.335015,1.9578612 30.313101,3.391967 27.223845,3.8830297 24.482274,4.7219912 21.643296,6.0450577 20.031026,6.7964328 19.297405,7.1981694 17.848324,8.1232362 14.252316,10.418855 11.353524,13.197584 8.9329576,16.669341 7.457416,18.78568 6.4440677,20.665571 5.488513,23.059234 3.8937281,27.0542 3.1083368,31.808662 3.3360196,36.089722 c 0.1235666,2.323527 0.3998296,4.15959 0.9415153,6.257525 2.9726267,11.512921 12.6113501,20.456662 24.8631421,23.070443 1.618055,0.345189 3.578385,0.60621 5.364118,0.714224 1.144657,0.06923 3.766948,0.02217 5.002623,-0.08989 z m -5.001581,-6.632129 c -0.0614,0.05887 -1.983098,-0.88705 -2.789311,-1.372997 -2.533777,-1.52728 -4.726999,-3.512801 -6.383965,-5.779401 -1.935907,-2.648151 -3.198198,-5.786234 -3.572782,-8.881952 -0.124092,-1.025545 -0.08925,-3.273727 0.06544,-4.223244 0.363698,-2.232324 1.210457,-4.442446 2.422888,-6.323976 0.398815,-0.618896 1.021264,-1.451953 1.135443,-1.519613 0.03217,-0.01907 -0.151316,-0.248525 -0.407772,-0.509908 -1.796226,-1.830776 -3.346242,-3.99641 -4.329245,-6.048713 -1.307051,-2.728842 -1.819095,-6.03972 -1.41443,-9.145731 0.106712,-0.819128 0.174203,-1.124489 0.385799,-1.745387 0.508809,-1.493014 1.4527,-2.868116 3.041325,-4.4306966 L 23.494505,8.6066883 23.104602,8.83662 c -0.539483,0.3181413 -1.870865,1.278626 -2.556491,1.84431 -0.821102,0.677465 -2.523284,2.370645 -3.108743,3.092321 -2.646055,3.261681 -3.956772,6.333979 -4.525595,10.607917 -0.415285,3.120261 -0.285019,6.542044 0.339514,8.918354 0.687984,2.617785 2.736791,6.483012 4.4979,8.485643 0.143081,0.162707 0.282077,0.331315 0.308857,0.374675 0.07088,0.114741 -0.263567,-0.06012 -0.9049,-0.473118 -3.514175,-2.263014 -6.230684,-6.774808 -6.90504,-11.468447 -0.119678,-0.832806 -0.102832,-3.034539 0.03099,-4.052849 0.188105,-1.431423 0.603912,-3.305205 1.09168,-4.91958 0.09984,-0.330266 0.181067,-0.623132 0.180363,-0.650822 -0.0017,-0.0805 -0.818515,1.140221 -1.165432,1.74174 -1.2924903,2.241017 -2.0784118,4.954355 -2.3514666,8.118176 -0.08781,1.017559 -0.08781,3.719179 -6.4e-5,4.644505 0.1657853,1.747497 0.562818,3.542579 1.171209,5.295328 1.0844226,3.124183 2.7971066,6.053525 4.9944786,8.542479 0.08732,0.09892 0.06726,0.09653 -0.179367,-0.0214 C 12.746685,48.305801 10.972624,46.380059 9.7426984,44.27013 9.3120754,43.531388 8.5626874,41.954441 7.9118127,40.41739 7.3602281,39.114781 7.345622,39.13206 7.6729788,40.700155 c 0.5177475,2.480118 1.6414182,5.21907 3.0666342,7.474909 2.463059,3.89856 5.972865,6.968519 10.849216,9.489598 4.029647,2.083332 8.77788,3.498302 12.704368,3.785878 h 7.3e-5 c 6.532275,0.478416 15.535652,-2.709419 21.412272,-7.581473 0.901069,-0.747037 2.339858,-2.161419 3.043033,-2.991396 2.373595,-2.801644 4.114615,-6.211857 4.946612,-9.689144 0.165383,-0.691227 0.378179,-1.866504 0.344449,-1.902884 -0.0074,-0.008 -0.105414,0.218296 -0.217757,0.502906 -0.403504,1.022166 -1.311045,3.00532 -1.796253,3.925138 -0.541613,1.026742 -1.298002,2.155084 -1.999148,2.982232 -0.564911,0.666428 -1.551003,1.587067 -2.037784,1.902516 -0.465648,0.301755 -0.829679,0.485528 -0.732359,0.369715 1.717839,-2.04435 2.685176,-3.477166 3.691038,-5.467177 1.308093,-2.587935 2.083503,-5.103624 2.452832,-7.957784 0.127205,-0.982985 0.105844,-4.763114 -0.03327,-5.886985 -0.342639,-2.768321 -1.028164,-5.027857 -2.142667,-7.062395 -0.358489,-0.654434 -1.225035,-1.984958 -1.266715,-1.944988 -0.01121,0.01075 0.04873,0.25796 0.133191,0.549362 1.226827,4.232617 1.514616,7.125365 0.982262,9.873094 -0.544802,2.81195 -1.998855,5.876083 -3.794039,7.995184 -0.553532,0.653422 -1.594685,1.640294 -2.230615,2.114338 -0.551219,0.41089 -1.568598,1.048112 -1.673409,1.048112 -0.03272,0 0.03449,-0.09984 0.14936,-0.221871 0.573165,-0.608953 1.567492,-1.99185 2.240203,-3.115623 0.990909,-1.655344 1.982047,-3.885384 2.408483,-5.419025 0.915923,-3.294057 0.826395,-8.203509 -0.222692,-12.212458 -0.725605,-2.772779 -2.098182,-5.351713 -4.108563,-7.7196 -0.756207,-0.890677 -2.619312,-2.653684 -3.580689,-3.388301 -0.677482,-0.5176886 -1.719137,-1.2273234 -2.114598,-1.4405689 -0.0509,-0.027453 0.242947,0.2822675 0.653004,0.6882669 1.979332,1.959763 3.009261,3.686946 3.355063,5.6264 0.360088,2.019525 0.280074,4.395296 -0.220727,6.553959 -0.710844,3.064046 -2.45094,6.062892 -5.218433,8.99335 l -0.642712,0.680573 0.418421,0.532323 c 1.396423,1.776543 2.522827,4.236302 3.007341,6.567222 0.479852,2.30852 0.401868,4.954821 -0.215399,7.309768 -0.72651,2.771718 -2.106856,5.426209 -4.013523,7.718316 -1.178402,1.416609 -3.175677,3.164806 -4.819718,4.218668 -1.280489,0.820804 -3.12918,1.784411 -3.425963,1.786111 -0.101583,5.08e-4 -0.107983,-0.19883 -0.107983,-3.362235 0,-1.849527 0.05653,-3.101011 0.05653,-3.101011 0,0 -0.381469,0.580011 -1.279602,0.584731 -0.898133,0.0047 -1.172785,-0.657967 -1.172785,-0.657967 0,0 0.01632,6.530826 -0.01412,6.559956 z"
       inkscape:connector-curvature="0"
       sodipodi:nodetypes="sccccsccsccssscccccccccscccscssccccsccccccsccccsccccsccccccscccccccsccccccsccscccccccccccccccccscccccccccsccccscccsccccc" />
  </g>
  <g
     inkscape:groupmode="layer"
     id="layer3"
     inkscape:label="fpgawars"
     style="display:inline"
     transform="translate(-0.07369225,0.14947437)">
    <g
       id="g853"
       transform="matrix(0.09670545,0,0,0.09670545,27.210925,32.270836)"
       style="fill:#000000">
      <path
         d="m 42.542454,0.12281925 c -3.0008,0.398334 -5.6829,1.76594695 -7.7808,3.93022795 -2.2307,2.310337 -3.3991,4.806562 -3.6912,7.9401218 -0.3851,3.930228 1.0091,7.740955 3.8638,10.595682 l 1.0357,1.035668 v 8.896124 8.882846 h 8.2322 8.2323 v -8.935958 -8.935957 l 0.9427,-0.916168 c 1.2215,-1.208279 1.9784,-2.270503 2.6954,-3.79745 0.8099,-1.699558 1.1419,-3.053893 1.2348,-4.926062 0.2656,-5.3775068 -2.4962,-10.0778468 -7.3293,-12.4678508 -2.2573,-1.11533495 -5.112,-1.61989095 -7.4356,-1.30122395 z"
         id="path4"
         style="fill:#000000;stroke:none;stroke-width:0.0132778"
         inkscape:connector-curvature="0" />
      <path
         d="m 86.372454,0.10954125 c -5.4173,0.66389 -9.7061,4.38167295 -11.2596,9.77245895 -0.2655,0.9028888 -0.3054,1.3543338 -0.3054,3.3061708 0,1.938558 0.04,2.416559 0.3054,3.385838 0.6241,2.283781 2.2307,4.965896 3.824,6.333509 l 0.717,0.624056 v 8.935957 8.935958 h 8.2323 8.2322 v -8.909402 -8.909402 l 0.9693,-0.956001 c 1.8854,-1.845614 3.160096,-4.195784 3.704496,-6.851343 0.2124,-1.02239 0.2523,-1.593336 0.1992,-3.053893 -0.08,-2.177559 -0.3718,-3.3725598 -1.287996,-5.2447298 -1.7394,-3.585005 -4.78,-6.054675 -8.6837,-7.03723195 -1.4074,-0.3585 -3.3327,-0.491278 -4.6472,-0.331945 z"
         id="path6"
         style="fill:#000000;stroke:none;stroke-width:0.0132778"
         inkscape:connector-curvature="0" />
      <path
         d="m 130.09625,0.10954125 c -3.5186,0.411612 -6.9045,2.35016995 -9.0422,5.17834095 -0.8365,1.102057 -1.8722,3.213227 -2.2439,4.58084 -0.4249,1.5933348 -0.4913,4.2488938 -0.1461,5.9086188 0.5444,2.655559 1.7925,4.965896 3.7045,6.851343 l 0.9693,0.956001 v 8.909402 8.909402 h 8.2322 8.2323 v -8.935958 -8.935957 l 0.717,-0.624056 c 1.5933,-1.367613 3.1999,-4.049728 3.824,-6.333509 0.2655,-0.969279 0.3054,-1.44728 0.3054,-3.385838 0,-1.951837 -0.04,-2.403282 -0.3054,-3.3061708 -0.717,-2.482948 -1.8457,-4.394951 -3.5718,-6.067953 -2.2041,-2.151004 -4.7534,-3.34600495 -7.8339,-3.70450595 -1.2879,-0.146055 -1.5667,-0.146055 -2.8414,0 z"
         id="path8"
         style="fill:#000000;stroke:none;stroke-width:0.0132778"
         inkscape:connector-curvature="0" />
      <path
         d="m 100.26105,44.736216 c -2.443096,0.239 -6.838096,1.26139 -8.630596,2.018225 -2.1377,0.916168 -5.0987,3.199949 -6.3468,4.899507 -0.2655,0.345222 -0.5178,0.637334 -0.5576,0.637334 -0.053,-0.01328 -0.332,-0.345223 -0.6241,-0.756834 -1.1153,-1.553503 -3.8506,-3.638117 -5.8024,-4.421507 -1.0489,-0.411611 -4.0497,-1.181724 -5.8157,-1.487113 -0.7568,-0.132778 -3.6115,-0.172611 -12.1492,-0.172611 -6.1343,0.01328 -11.5118,0.02656 -11.95,0.03983 -0.4381,0.01328 -7.5949,-0.01328 -15.9068,-0.05311 -14.8446,-0.05311 -15.1367,-0.05311 -16.252,0.212445 -0.8232,0.199167 -1.3145,0.398333 -1.7925,0.756834 -1.7527,1.274668 -2.2307,2.748504 -2.2307,6.81151 v 2.496225 l -2.7484996,0.06639 c -3.0406,0.06639 -3.5319,0.159334 -5.1119,0.982557 -1.7793,0.929446 -3.0938,2.443116 -3.86389997,4.461336 l -0.4249,1.08878 -0.04,44.254896 c -0.026,49.07473 -0.1062,45.21089 0.8498,47.16273 0.37179997,0.74356 0.75679997,1.26139 1.56679997,2.05806 1.2348,1.22156 2.2174,1.80578 3.7443,2.19083 1.0091,0.26556 1.7925,0.26556 81.6318996,0.26556 70.239496,0 80.728996,-0.0265 81.538996,-0.19917 1.8987,-0.39833 3.9435,-1.80578 5.0588,-3.47878 0.2788,-0.41161 0.6904,-1.27467 0.9029,-1.89872 l 0.4116,-1.12862 0.04,-44.12212 c 0.027,-49.180946 0.1062,-45.064826 -0.9162,-47.149446 -0.9692,-1.951833 -2.775,-3.465502 -5.0323,-4.209059 -0.6638,-0.212445 -1.4207,-0.252278 -7.7276,-0.292111 l -6.9974,-0.03983 -0.1461,-0.491278 c -0.066,-0.265556 -0.5045,-1.951836 -0.956,-3.744339 -0.7303,-2.907837 -0.8763,-3.319449 -1.3145,-3.930228 -0.7701,-1.048946 -1.58,-1.580058 -2.9477,-1.898725 -1.1153,-0.265556 -1.5269,-0.278833 -8.5907,-0.278833 -7.0638,0 -7.4754,0.01328 -8.5907,0.278833 -1.3676,0.318667 -2.1776,0.849779 -2.9477,1.898725 -0.4382,0.610779 -0.5842,1.035668 -1.3411,3.996617 -0.4647,1.819058 -0.8896,3.518616 -0.956,3.744339 l -0.1195,0.438167 h -2.39 -2.3767 l -0.146,-0.371778 c -0.5444,-1.434002 -2.1909,-3.943506 -3.4921,-5.324397 -1.1021,-1.155168 -3.2132,-2.695392 -4.6871,-3.425671 -1.3543,-0.650612 -4.3949,-1.473836 -6.7584,-1.832336 -1.4472,-0.212445 -5.1252,-0.239001 -7.0638,-0.05311 z m 7.7011,5.098674 c 4.5012,0.823223 7.5551,3.027337 9.3476,6.771676 1.2082,2.509503 1.7792,5.072118 1.7792,7.913568 v 1.71283 h -6.4397 -6.4398 v -1.69955 c 0,-2.27051 -0.1593,-3.21323 -0.7701,-4.40823 -0.4116,-0.82323 -0.5975,-1.048948 -1.1419,-1.394171 -0.5709,-0.345222 -0.7701,-0.398334 -1.5933,-0.385056 -2.4431,0.02656 -3.731096,1.739387 -3.996596,5.297837 -0.04,0.58423 -0.1594,3.59828 -0.2656,6.70529 -0.1726,5.00573 -0.1726,6.25384 0.013,11.02057 0.1992,5.43062 0.3983,7.58162 0.7834,8.88285 0.2921,0.96927 1.327796,2.00494 2.230696,2.25722 1.3012,0.37178 2.9476,-0.0797 3.9302,-1.0755 1.0224,-1.03567 1.2879,-2.21739 1.4207,-6.30695 l 0.093,-2.82817 -2.2439,-0.0266 -2.244,-0.0398 v -4.2489 -4.24889 l 8.3385,-0.0398 8.3251,-0.0266 v 13.41057 13.410576 h -4.4347 -4.4215 l -0.08,-0.504556 c -0.04,-0.26556 -0.1195,-1.10206 -0.1727,-1.85889 -0.053,-0.74356 -0.1327,-1.35434 -0.1858,-1.35434 -0.053,0 -0.3718,0.31867 -0.717,0.717 -1.4208,1.67301 -3.5187,3.000786 -5.59,3.545166 -1.4871,0.39834 -5.550096,0.50456 -7.462096,0.19917 -8.5244,-1.341056 -11.3525,-7.249666 -11.0073,-22.983856 0.2921,-13.55663 1.4473,-20.076029 4.1427,-23.594645 2.2439,-2.89456 6.5459,-4.687063 12.202296,-5.072119 1.6198,-0.106222 5.4571,0.03983 6.599,0.252279 z m -60.971596,5.775841 v 5.311123 h -8.2323 -8.2322 v 4.44806 4.44806 h 7.7011 7.7011 l -0.026,5.00573 -0.04,5.019 -7.6612,0.0398 -7.6746,0.0266 v 10.29029 10.290296 h -6.6389 -6.6389 V 75.394644 50.299612 h 14.8711 14.8712 z m 24.0992,-5.178341 c 4.0364,0.385056 6.7052,1.526947 8.7766,3.757617 1.6464,1.752669 2.8813,4.673784 3.5186,8.258787 0.4249,2.36345 0.4382,6.02812 0.027,7.90029 -1.2747,5.85551 -5.2846,9.49362 -11.7243,10.63551 -1.2083,0.22573 -2.3237,0.29211 -5.2713,0.34523 l -3.7576,0.0797 v 9.53345 9.546736 h -6.6389 -6.6389 V 75.394644 50.299612 h 10.1309 c 5.9883,0 10.7152,0.05311 11.5783,0.132778 z m 77.728196,0.358501 c 0.066,0.278834 0.9958,3.996617 2.0713,8.272067 1.0755,4.275446 3.8639,15.322576 6.214,24.563916 l 4.2755,16.796416 -6.8248,0.0398 c -3.7576,0.0133 -6.8514,0.0133 -6.8779,-0.0266 -0.027,-0.0266 -0.3452,-1.765936 -0.7037,-3.877106 -0.3718,-2.11117 -0.7038,-3.97006 -0.7303,-4.14267 l -0.066,-0.29212 h -5.0456 -5.0455 l -0.066,0.29212 c -0.04,0.17261 -0.3585,2.0315 -0.7303,4.14267 -0.3585,2.11117 -0.6772,3.863836 -0.7037,3.890386 -0.027,0.0266 -3.1203,0.0266 -6.8779,0.0133 l -6.8381,-0.0398 4.5543,-17.858636 c 2.4962,-9.82557 5.2978,-20.87269 6.214,-24.563919 0.9162,-3.691228 1.7394,-6.93101 1.8058,-7.209844 l 0.1327,-0.491279 h 7.5551 7.5551 z M 88.616354,109.93019 c 3.3461,0.239 6.0282,0.77011 7.9534,1.54022 2.722,1.10206 4.394996,3.06717 5.231496,6.12107 l 0.3585,1.28794 0.066,13.8753 0.066,13.8753 0.4116,1.15517 0.4249,1.16844 h -6.081196 -6.068 l -0.2257,-0.77011 c -0.1328,-0.46472 -0.2124,-1.27467 -0.2124,-2.0315 v -1.24811 l -0.478,0.73027 c -1.4872,2.23067 -3.5585,3.42568 -6.8381,3.90368 -7.741,1.15516 -12.2023,-3.04062 -12.2023,-11.47202 0,-5.27129 1.5668,-8.15257 5.5103,-10.13096 1.4871,-0.74356 3.014,-1.22156 7.4887,-2.36345 2.3103,-0.5975 4.3816,-1.15517 4.6074,-1.24811 0.6506,-0.26556 1.341,-0.96928 1.5933,-1.59334 0.1593,-0.45144 0.1992,-0.88961 0.1593,-1.95183 -0.04,-1.20828 -0.093,-1.44728 -0.4116,-1.99167 -0.5311,-0.91617 -1.3145,-1.32778 -2.6157,-1.40745 -1.5801,-0.0929 -2.39,0.27884 -2.9477,1.34106 -0.239,0.45144 -0.3054,0.87633 -0.3585,2.151 l -0.08,1.59334 -5.9484,0.0398 c -5.4041,0.0266 -5.9485,0.0133 -6.0281,-0.18589 -0.1726,-0.46472 0.2124,-3.21322 0.624,-4.46134 1.2216,-3.65139 4.156,-6.28039 8.3119,-7.42229 2.3502,-0.65061 4.2224,-0.77011 7.6879,-0.50455 z m 42.794396,5.85551 -0.04,6.01484 -0.5975,-0.0664 c -1.2216,-0.13278 -3.8771,0 -5.112,0.25228 -2.775,0.57094 -4.0497,1.64644 -4.6472,3.95678 -0.1726,0.63734 -0.1992,2.45639 -0.1992,11.88363 v 11.12679 h -6.3733 -6.3733 v -19.05363 -19.05363 h 6.1077 6.1078 v 2.54933 2.56262 l 0.3585,-0.5975 c 1.1419,-1.93856 3.0805,-3.97006 4.4348,-4.66051 1.3543,-0.67717 2.4697,-0.90289 4.541,-0.90289 l 1.8191,-0.0133 z m 19.5847,-5.8024 c 4.9659,0.65061 8.0464,2.2705 9.5733,5.03228 0.8233,1.47384 1.0357,2.41656 1.1154,4.83312 l 0.053,2.15101 -5.4838,-0.0266 -5.497,-0.0398 -0.08,-1.26139 c -0.1195,-2.2174 -0.8763,-3.02734 -2.9477,-3.14684 -2.3501,-0.14606 -3.4389,0.69044 -3.4655,2.68211 -0.013,1.12862 0.332,1.88545 1.1021,2.39001 0.2788,0.18589 2.8813,1.195 5.8024,2.24394 2.9078,1.04895 5.59,2.03151 5.9352,2.19084 1.6464,0.717 3.4788,2.2705 4.2356,3.59828 1.2083,2.08462 1.4738,6.21401 0.6373,9.67952 -1.2215,5.05884 -4.5277,8.13929 -10.0247,9.33429 -2.7485,0.5975 -7.9003,0.42489 -11.0073,-0.3585 -5.8422,-1.48712 -8.843,-5.19162 -8.843,-10.90107 v -1.38089 h 5.6962 5.6829 l 0.1327,1.52694 c 0.1195,1.28795 0.1992,1.63317 0.5444,2.21739 0.5842,1.04895 1.3278,1.46056 2.722,1.54023 1.2746,0.0664 1.9784,-0.0929 2.7086,-0.62406 0.7038,-0.50455 1.0092,-1.195 1.0755,-2.35017 0.04,-0.74355 0,-1.0755 -0.2124,-1.54022 -0.3319,-0.75684 -1.0091,-1.51367 -1.6066,-1.81906 -0.2656,-0.13278 -2.483,-0.98256 -4.9261,-1.87217 -2.4431,-0.88961 -4.8995,-1.85889 -5.4572,-2.13772 -2.0978,-1.04895 -3.8372,-2.78834 -4.8463,-4.85968 -1.1818,-2.42983 -1.5004,-5.69617 -0.81,-8.28534 0.8232,-3.10701 2.39,-5.36423 4.6738,-6.74512 1.5269,-0.92945 4.5543,-1.83234 7.0372,-2.11117 1.6996,-0.19917 4.8464,-0.17262 6.4796,0.0398 z m -121.266096,0.956 c -0.013,0.29211 3.0805,25.36059 3.1469,25.5332 0.04,0.10623 0.9427,-5.60323 2.0182,-12.68029 l 1.9385,-12.87946 6.4265,-0.0398 c 3.5452,-0.0133 6.4796,0.0133 6.5327,0.0664 0.053,0.0664 0.9825,5.9219 2.058,13.02552 1.0888,7.1169 1.9917,12.87946 2.005,12.81307 0.053,-0.14605 3.0937,-25.49337 3.0937,-25.74564 0,-0.15934 0.9294,-0.18589 6.3733,-0.18589 5.0191,0 6.3734,0.0398 6.3734,0.15933 -0.013,0.0929 -1.7925,8.65712 -3.9701,19.02708 l -3.9435,18.85447 -7.2497,0.0398 -7.2496,0.0266 -0.08,-0.3585 c -0.04,-0.21244 -0.9162,-5.98828 -1.9386,-12.83963 -1.6464,-10.98073 -1.9916,-13.17157 -1.9916,-12.42801 0,0.21244 -3.6913,24.88259 -3.7842,25.32075 l -0.066,0.30539 h -7.2364 c -6.7584,0 -7.2231,-0.0133 -7.2895,-0.239 -0.08,-0.25228 -7.9136,-37.66911 -7.9136,-37.78861 0,-0.0398 2.868,-0.0797 6.3734,-0.0797 3.5053,0 6.3733,0.0398 6.3733,0.0929 z"
         id="path10"
         style="fill:#000000;stroke:none;stroke-width:0.0132778"
         inkscape:connector-curvature="0" />
      <path
         d="m 62.658354,65.901024 v 5.93517 l 1.9651,-0.0531 c 1.9252,-0.0398 1.9651,-0.0398 2.7883,-0.49128 1.527,-0.8365 2.2838,-2.01822 2.6556,-4.16923 0.5045,-2.96094 -0.5311,-5.69617 -2.5494,-6.77167 -0.478,-0.25228 -0.7966,-0.29211 -2.6954,-0.33194 l -2.1642,-0.0531 z"
         id="path12"
         style="fill:#000000;stroke:none;stroke-width:0.0132778"
         inkscape:connector-curvature="0" />
      <path
         d="m 139.41725,71.716694 c -0.8896,5.19162 -1.6597,9.61313 -1.6996,9.81229 l -0.066,0.37178 h 3.4788 3.4788 l -0.066,-0.30539 c -0.04,-0.15933 -0.8099,-4.541 -1.6995,-9.71935 -0.8897,-5.19161 -1.6598,-9.46706 -1.6996,-9.52017 -0.053,-0.0531 -0.8232,4.15595 -1.7261,9.36084 z"
         id="path14"
         style="fill:#000000;stroke:none;stroke-width:0.0132778"
         inkscape:connector-curvature="0" />
      <path
         d="m 88.045454,131.30744 c -2.3103,0.96928 -3.0539,1.40745 -3.7443,2.19084 -0.7569,0.86305 -1.0623,1.69956 -1.0623,2.90784 0,2.90783 1.3411,4.71361 3.5187,4.71361 1.6066,0 2.7219,-0.91617 3.2663,-2.65556 0.4514,-1.44728 0.7435,-8.11273 0.3585,-8.08617 -0.093,0.0133 -1.1419,0.42488 -2.3369,0.92944 z"
         id="path16"
         style="fill:#000000;stroke:none;stroke-width:0.0132778"
         inkscape:connector-curvature="0" />
      <path
         d="m 35.969954,181.51079 v 8.93596 l -0.8498,0.82322 c -2.9875,2.86801 -4.4348,6.71857 -4.0497,10.78157 0.7701,8.32518 9.082,13.84874 17.0487,11.33924 2.0182,-0.63733 3.5451,-1.5535 5.165,-3.09373 1.288,-1.23483 2.0315,-2.25722 2.7884,-3.86383 2.4298,-5.15179 1.3012,-11.23302 -2.8282,-15.16325 l -0.8099,-0.77011 -0.027,-8.92268 -0.04,-8.92268 -8.1924,-0.0398 -8.2057,-0.0266 z"
         id="path18"
         style="fill:#000000;stroke:none;stroke-width:0.0132778"
         inkscape:connector-curvature="0" />
      <path
         d="m 79.746854,172.68106 c -0.053,0.0398 -0.093,4.063 -0.093,8.9094 v 8.82973 l -1.1684,1.20828 c -1.8987,1.96512 -3.0141,4.07629 -3.5585,6.73184 -0.3053,1.48712 -0.1991,4.39496 0.1992,5.89535 0.6772,2.49622 2.4431,5.19161 4.4481,6.79823 1.341,1.06222 3.5983,2.19083 5.1916,2.58917 1.6995,0.42489 4.541,0.42489 6.2273,0 4.9526,-1.23484 8.7633,-5.21818 9.798996,-10.23718 0.2124,-1.03567 0.2523,-1.60662 0.1992,-3.06717 -0.08,-2.08462 -0.3585,-3.2929 -1.141896,-4.97918 -0.7303,-1.5535 -1.3676,-2.48295 -2.629,-3.79745 l -1.1021,-1.14189 -0.027,-8.88284 -0.04,-8.88285 -8.1127,-0.0398 c -4.4614,-0.0133 -8.1526,0.0133 -8.1924,0.0664 z"
         id="path20"
         style="fill:#000000;stroke:none;stroke-width:0.0132778"
         inkscape:connector-curvature="0" />
      <path
         d="m 123.43075,172.68106 c -0.053,0.0398 -0.093,4.04972 -0.093,8.9094 v 8.82973 l -1.102,1.14189 c -1.7129,1.79251 -2.8016,3.67795 -3.4124,5.9219 -0.4382,1.59334 -0.5046,4.24889 -0.1593,5.9219 1.0356,5.00573 4.8596,9.00234 9.799,10.23718 1.6862,0.42489 4.5277,0.42489 6.2273,0 1.5933,-0.39834 3.8505,-1.52695 5.1916,-2.58917 2.0049,-1.60662 3.7709,-4.30201 4.448,-6.79823 0.3984,-1.50039 0.5046,-4.40823 0.1992,-5.89535 -0.5444,-2.65555 -1.6597,-4.76672 -3.5584,-6.73184 l -1.1685,-1.20828 -0.027,-8.88284 -0.04,-8.88285 -8.1127,-0.0398 c -4.4614,-0.0133 -8.1526,0.0133 -8.1924,0.0664 z"
         id="path22"
         style="fill:#000000;stroke:none;stroke-width:0.0132778"
         inkscape:connector-curvature="0" />
    </g>
  </g>
  <g
     inkscape:groupmode="layer"
     id="layer5"
     inkscape:label="obijuan academy"
     style="display:inline"
     transform="translate(-0.07369225,0.14947437)">
    <path
       style="fill:none;fill-opacity:1;stroke:#000000;stroke-width:0.26458332;stroke-miterlimit:4;stroke-dasharray:none;stroke-opacity:1"
       d="m 39.879511,12.964101 c 0.100774,-0.261878 0.192483,-0.526182 0.203796,-0.587344 0.01131,-0.06116 0.02276,-0.113071 0.02544,-0.115355 0.0027,-0.0023 0.332637,-0.05068 0.733244,-0.107557 l 0.728381,-0.103404 0.005,-0.798765 0.005,-0.798764 -0.04334,-0.0096 c -0.02383,-0.0053 -0.353856,-0.0535 -0.73338,-0.107105 -0.379524,-0.0536 -0.695441,-0.103323 -0.70204,-0.110491 -0.0066,-0.0072 -0.04896,-0.155256 -0.09414,-0.3290865 -0.07672,-0.295134 -0.09698,-0.345583 -0.306193,-0.7621335 l -0.224038,-0.4460786 0.437982,-0.583294 c 0.240891,-0.3208118 0.437983,-0.5899052 0.437983,-0.5979859 0,-0.00808 -0.252297,-0.2664211 -0.56066,-0.5740911 L 39.231889,6.3736018 38.640626,6.8170804 38.049363,7.2605586 37.605561,7.0394215 C 37.200471,6.8375732 37.134742,6.8111291 36.852013,6.7362563 36.681652,6.691141 36.53219,6.6480049 36.519874,6.6403984 36.502997,6.6299747 36.289621,5.2597915 36.289621,5.1618371 c 0,-0.020053 -1.585549,-0.020712 -1.597949,-6.705e-4 -0.0051,0.00825 -0.05321,0.3250263 -0.106905,0.7039428 -0.05369,0.3789164 -0.101814,0.70781 -0.106932,0.7308748 -0.0074,0.033441 -0.02773,0.044536 -0.100281,0.054772 -0.05004,0.00706 -0.305674,0.094703 -0.568085,0.1947624 -0.390711,0.1489823 -0.511725,0.2043026 -0.66826,0.3054888 l -0.19115,0.1235616 -0.0697,-0.046922 C 32.842019,7.201841 32.569139,6.9991121 32.273953,6.7771395 l -0.536699,-0.4035866 -0.56066,0.5594214 c -0.308364,0.307682 -0.56066,0.5660879 -0.56066,0.5742358 0,0.00815 0.194512,0.2736951 0.43225,0.5901054 0.237738,0.3164101 0.436766,0.5870489 0.442284,0.6014193 0.0055,0.014371 -0.04482,0.1109054 -0.111861,0.2145222 -0.09785,0.1512354 -0.156704,0.2790696 -0.298371,0.6481115 -0.09706,0.252845 -0.181895,0.4996745 -0.188518,0.5485105 -0.0066,0.04884 -0.01757,0.09773 -0.02432,0.108643 -0.0068,0.01092 -0.322703,0.06378 -0.702115,0.117474 -0.379411,0.05369 -0.709339,0.101961 -0.733175,0.107266 l -0.04334,0.0096 0.005,0.798703 0.005,0.798702 0.736893,0.105949 0.736893,0.105949 0.09199,0.340037 c 0.07418,0.27421 0.115815,0.387309 0.215048,0.584225 l 0.123055,0.244188 0.06665,-0.143662 c 0.03665,-0.07901 0.421443,-0.88489 0.855084,-1.790836 0.906021,-1.8928285 0.927462,-1.9308055 1.304585,-2.3107523 0.556663,-0.5608315 1.184824,-0.8222248 1.974769,-0.8217491 0.989934,6.02e-4 1.784463,0.4267631 2.338871,1.2545159 0.119703,0.178721 0.205981,0.356743 1.130564,2.3327665 0.383263,0.819111 0.702753,1.489294 0.709977,1.489294 0.0072,0 0.09559,-0.214263 0.196361,-0.476141 z"
       id="path830"
       inkscape:connector-curvature="0" />
    <path
       style="fill:#000000;stroke:#000000;stroke-width:0.26458332;stroke-miterlimit:4;stroke-dasharray:none;stroke-opacity:1"
       d="m 40.385093,14.937462 -0.579208,0.593103 -0.579207,0.593102 H 38.495882 37.765087 L 37.619495,15.8124 c -0.520416,-1.112608 -0.980265,-2.093374 -0.983413,-2.097429 -0.002,-0.0026 -0.05663,0.01674 -0.121318,0.04301 -0.326748,0.13268 -0.614573,0.184444 -1.022438,0.183881 -0.412212,-5.48e-4 -0.747343,-0.05705 -1.036671,-0.174713 l -0.132962,-0.05407 -0.07258,0.156567 c -0.06951,0.14996 -0.45596,0.969788 -0.859335,1.823044 l -0.190166,0.402252 -0.745619,0.0043 -0.745619,0.0043 -0.577693,-0.589347 -0.577692,-0.589349 0.363126,-0.758696 0.369977,-0.774955 0.0735,-0.159916 c 0.03665,-0.07901 0.421443,-0.88489 0.855083,-1.790836 0.906022,-1.8928275 0.927463,-1.9308065 1.304586,-2.3107525 0.556663,-0.5608314 1.184824,-0.8222243 1.974768,-0.8217485 0.989934,6.157e-4 1.784464,0.4267631 2.338872,1.2545165 0.119702,0.178721 0.205979,0.356742 1.130563,2.3327665 0.383264,0.81911 0.702753,1.489293 0.888531,1.889507 z m -4.410864,-2.137774 c 0.370844,-0.117215 0.722845,-0.39055 0.924259,-0.717706 0.52127,-0.846692 0.214528,-1.938301 -0.669313,-2.3818925 -0.847387,-0.425295 -1.862408,-0.06924 -2.266416,0.7950335 -0.1207,0.258207 -0.143393,0.368074 -0.143793,0.696157 -4.11e-4,0.343613 0.03322,0.487042 0.181613,0.774254 0.231832,0.448715 0.640288,0.759053 1.149431,0.873318 0.08859,0.01988 0.202135,0.0257 0.392942,0.02015 0.22379,-0.0065 0.295405,-0.01637 0.431277,-0.05931 z"
       id="path850"
       inkscape:connector-curvature="0"
       sodipodi:nodetypes="cccccccccccssccccccccsscssccccsccsscc" />
  </g>
  <g
     inkscape:groupmode="layer"
     id="layer7"
     inkscape:label="number"
     style="display:inline"
     transform="translate(-0.07369225,0.14947437)">
    <text
       xml:space="preserve"
       style="font-style:normal;font-variant:normal;font-weight:bold;font-stretch:normal;font-size:18.56081009px;line-height:125%;font-family:'Liberation Sans Narrow';-inkscape-font-specification:'Liberation Sans Narrow Bold';letter-spacing:0px;word-spacing:0px;fill:#800080;fill-opacity:1;stroke:none;stroke-width:0.21750948px;stroke-linecap:butt;stroke-linejoin:miter;stroke-opacity:1"
       x="66.814568"
       y="68.201393"
       id="text2009-0"><tspan
         sodipodi:role="line"
         id="tspan2007-6"
         x="66.814568"
         y="68.201393"
         style="font-style:normal;font-variant:normal;font-weight:bold;font-stretch:normal;font-family:'Liberation Sans Narrow';-inkscape-font-specification:'Liberation Sans Narrow Bold';fill:#800080;stroke-width:0.21750948px">1</tspan></text>
  </g>
</svg>
