<?xml version="1.0" encoding="UTF-8" standalone="no"?>
<svg
   xmlns:dc="http://purl.org/dc/elements/1.1/"
   xmlns:cc="http://creativecommons.org/ns#"
   xmlns:rdf="http://www.w3.org/1999/02/22-rdf-syntax-ns#"
   xmlns:svg="http://www.w3.org/2000/svg"
   xmlns="http://www.w3.org/2000/svg"
   xmlns:sodipodi="http://sodipodi.sourceforge.net/DTD/sodipodi-0.dtd"
   xmlns:inkscape="http://www.inkscape.org/namespaces/inkscape"
   version="1.0"
   width="175.7718pt"
   height="214.00038pt"
   viewBox="0 0 175.7718 214.00038"
   preserveAspectRatio="xMidYMid meet"
   id="svg26"
   sodipodi:docname="FPGAwars_logo.svg"
   inkscape:version="0.92.3 (2405546, 2018-03-11)">
  <defs
     id="defs30" />
  <sodipodi:namedview
     pagecolor="#ffffff"
     bordercolor="#666666"
     borderopacity="1"
     objecttolerance="10"
     gridtolerance="10"
     guidetolerance="10"
     inkscape:pageopacity="0"
     inkscape:pageshadow="2"
     inkscape:window-width="1853"
     inkscape:window-height="1025"
     id="namedview28"
     showgrid="false"
     fit-margin-top="0"
     fit-margin-left="0"
     fit-margin-right="0"
     fit-margin-bottom="0"
     inkscape:zoom="1.4228947"
     inkscape:cx="81.626737"
     inkscape:cy="185.70572"
     inkscape:window-x="67"
     inkscape:window-y="1107"
     inkscape:window-maximized="1"
     inkscape:current-layer="svg26" />
  <metadata
     id="metadata2">
Created by potrace 1.13, written by Peter Selinger 2001-2015
<rdf:RDF>
  <cc:Work
     rdf:about="">
    <dc:format>image/svg+xml</dc:format>
    <dc:type
       rdf:resource="http://purl.org/dc/dcmitype/StillImage" />
    <dc:title></dc:title>
  </cc:Work>
</rdf:RDF>
</metadata>
  <path
     inkscape:connector-curvature="0"
     style="fill:#008000;stroke:none;stroke-width:0.0132778"
     id="path4"
     d="m 42.542454,0.12281925 c -3.0008,0.398334 -5.6829,1.76594695 -7.7808,3.93022795 -2.2307,2.310337 -3.3991,4.806562 -3.6912,7.9401218 -0.3851,3.930228 1.0091,7.740955 3.8638,10.595682 l 1.0357,1.035668 v 8.896124 8.882846 h 8.2322 8.2323 v -8.935958 -8.935957 l 0.9427,-0.916168 c 1.2215,-1.208279 1.9784,-2.270503 2.6954,-3.79745 0.8099,-1.699558 1.1419,-3.053893 1.2348,-4.926062 0.2656,-5.3775068 -2.4962,-10.0778468 -7.3293,-12.4678508 -2.2573,-1.11533495 -5.112,-1.61989095 -7.4356,-1.30122395 z" />
  <path
     inkscape:connector-curvature="0"
     style="fill:#008000;stroke:none;stroke-width:0.0132778"
     id="path6"
     d="m 86.372454,0.10954125 c -5.4173,0.66389 -9.7061,4.38167295 -11.2596,9.77245895 -0.2655,0.9028888 -0.3054,1.3543338 -0.3054,3.3061708 0,1.938558 0.04,2.416559 0.3054,3.385838 0.6241,2.283781 2.2307,4.965896 3.824,6.333509 l 0.717,0.624056 v 8.935957 8.935958 h 8.2323 8.2322 v -8.909402 -8.909402 l 0.9693,-0.956001 c 1.8854,-1.845614 3.160096,-4.195784 3.704496,-6.851343 0.2124,-1.02239 0.2523,-1.593336 0.1992,-3.053893 -0.08,-2.177559 -0.3718,-3.3725598 -1.287996,-5.2447298 -1.7394,-3.585005 -4.78,-6.054675 -8.6837,-7.03723195 -1.4074,-0.3585 -3.3327,-0.491278 -4.6472,-0.331945 z" />
  <path
     inkscape:connector-curvature="0"
     style="fill:#008000;stroke:none;stroke-width:0.0132778"
     id="path8"
     d="m 130.09625,0.10954125 c -3.5186,0.411612 -6.9045,2.35016995 -9.0422,5.17834095 -0.8365,1.102057 -1.8722,3.213227 -2.2439,4.58084 -0.4249,1.5933348 -0.4913,4.2488938 -0.1461,5.9086188 0.5444,2.655559 1.7925,4.965896 3.7045,6.851343 l 0.9693,0.956001 v 8.909402 8.909402 h 8.2322 8.2323 v -8.935958 -8.935957 l 0.717,-0.624056 c 1.5933,-1.367613 3.1999,-4.049728 3.824,-6.333509 0.2655,-0.969279 0.3054,-1.44728 0.3054,-3.385838 0,-1.951837 -0.04,-2.403282 -0.3054,-3.3061708 -0.717,-2.482948 -1.8457,-4.394951 -3.5718,-6.067953 -2.2041,-2.151004 -4.7534,-3.34600495 -7.8339,-3.70450595 -1.2879,-0.146055 -1.5667,-0.146055 -2.8414,0 z" />
  <path
     inkscape:connector-curvature="0"
     style="fill:#008000;stroke:none;stroke-width:0.0132778"
     id="path10"
     d="m 100.26105,44.736216 c -2.443096,0.239 -6.838096,1.26139 -8.630596,2.018225 -2.1377,0.916168 -5.0987,3.199949 -6.3468,4.899507 -0.2655,0.345222 -0.5178,0.637334 -0.5576,0.637334 -0.053,-0.01328 -0.332,-0.345223 -0.6241,-0.756834 -1.1153,-1.553503 -3.8506,-3.638117 -5.8024,-4.421507 -1.0489,-0.411611 -4.0497,-1.181724 -5.8157,-1.487113 -0.7568,-0.132778 -3.6115,-0.172611 -12.1492,-0.172611 -6.1343,0.01328 -11.5118,0.02656 -11.95,0.03983 -0.4381,0.01328 -7.5949,-0.01328 -15.9068,-0.05311 -14.8446,-0.05311 -15.1367,-0.05311 -16.252,0.212445 -0.8232,0.199167 -1.3145,0.398333 -1.7925,0.756834 -1.7527,1.274668 -2.2307,2.748504 -2.2307,6.81151 v 2.496225 l -2.7484996,0.06639 c -3.0406,0.06639 -3.5319,0.159334 -5.1119,0.982557 -1.7793,0.929446 -3.0938,2.443116 -3.86389997,4.461336 l -0.4249,1.08878 -0.04,44.254896 c -0.026,49.07473 -0.1062,45.21089 0.8498,47.16273 0.37179997,0.74356 0.75679997,1.26139 1.56679997,2.05806 1.2348,1.22156 2.2174,1.80578 3.7443,2.19083 1.0091,0.26556 1.7925,0.26556 81.6318996,0.26556 70.239496,0 80.728996,-0.0265 81.538996,-0.19917 1.8987,-0.39833 3.9435,-1.80578 5.0588,-3.47878 0.2788,-0.41161 0.6904,-1.27467 0.9029,-1.89872 l 0.4116,-1.12862 0.04,-44.12212 c 0.027,-49.180946 0.1062,-45.064826 -0.9162,-47.149446 -0.9692,-1.951833 -2.775,-3.465502 -5.0323,-4.209059 -0.6638,-0.212445 -1.4207,-0.252278 -7.7276,-0.292111 l -6.9974,-0.03983 -0.1461,-0.491278 c -0.066,-0.265556 -0.5045,-1.951836 -0.956,-3.744339 -0.7303,-2.907837 -0.8763,-3.319449 -1.3145,-3.930228 -0.7701,-1.048946 -1.58,-1.580058 -2.9477,-1.898725 -1.1153,-0.265556 -1.5269,-0.278833 -8.5907,-0.278833 -7.0638,0 -7.4754,0.01328 -8.5907,0.278833 -1.3676,0.318667 -2.1776,0.849779 -2.9477,1.898725 -0.4382,0.610779 -0.5842,1.035668 -1.3411,3.996617 -0.4647,1.819058 -0.8896,3.518616 -0.956,3.744339 l -0.1195,0.438167 h -2.39 -2.3767 l -0.146,-0.371778 c -0.5444,-1.434002 -2.1909,-3.943506 -3.4921,-5.324397 -1.1021,-1.155168 -3.2132,-2.695392 -4.6871,-3.425671 -1.3543,-0.650612 -4.3949,-1.473836 -6.7584,-1.832336 -1.4472,-0.212445 -5.1252,-0.239001 -7.0638,-0.05311 z m 7.7011,5.098674 c 4.5012,0.823223 7.5551,3.027337 9.3476,6.771676 1.2082,2.509503 1.7792,5.072118 1.7792,7.913568 v 1.71283 h -6.4397 -6.4398 v -1.69955 c 0,-2.27051 -0.1593,-3.21323 -0.7701,-4.40823 -0.4116,-0.82323 -0.5975,-1.048948 -1.1419,-1.394171 -0.5709,-0.345222 -0.7701,-0.398334 -1.5933,-0.385056 -2.4431,0.02656 -3.731096,1.739387 -3.996596,5.297837 -0.04,0.58423 -0.1594,3.59828 -0.2656,6.70529 -0.1726,5.00573 -0.1726,6.25384 0.013,11.02057 0.1992,5.43062 0.3983,7.58162 0.7834,8.88285 0.2921,0.96927 1.327796,2.00494 2.230696,2.25722 1.3012,0.37178 2.9476,-0.0797 3.9302,-1.0755 1.0224,-1.03567 1.2879,-2.21739 1.4207,-6.30695 l 0.093,-2.82817 -2.2439,-0.0266 -2.244,-0.0398 v -4.2489 -4.24889 l 8.3385,-0.0398 8.3251,-0.0266 v 13.41057 13.410576 h -4.4347 -4.4215 l -0.08,-0.504556 c -0.04,-0.26556 -0.1195,-1.10206 -0.1727,-1.85889 -0.053,-0.74356 -0.1327,-1.35434 -0.1858,-1.35434 -0.053,0 -0.3718,0.31867 -0.717,0.717 -1.4208,1.67301 -3.5187,3.000786 -5.59,3.545166 -1.4871,0.39834 -5.550096,0.50456 -7.462096,0.19917 -8.5244,-1.341056 -11.3525,-7.249666 -11.0073,-22.983856 0.2921,-13.55663 1.4473,-20.076029 4.1427,-23.594645 2.2439,-2.89456 6.5459,-4.687063 12.202296,-5.072119 1.6198,-0.106222 5.4571,0.03983 6.599,0.252279 z m -60.971596,5.775841 v 5.311123 h -8.2323 -8.2322 v 4.44806 4.44806 h 7.7011 7.7011 l -0.026,5.00573 -0.04,5.019 -7.6612,0.0398 -7.6746,0.0266 v 10.29029 10.290296 h -6.6389 -6.6389 V 75.394644 50.299612 h 14.8711 14.8712 z m 24.0992,-5.178341 c 4.0364,0.385056 6.7052,1.526947 8.7766,3.757617 1.6464,1.752669 2.8813,4.673784 3.5186,8.258787 0.4249,2.36345 0.4382,6.02812 0.027,7.90029 -1.2747,5.85551 -5.2846,9.49362 -11.7243,10.63551 -1.2083,0.22573 -2.3237,0.29211 -5.2713,0.34523 l -3.7576,0.0797 v 9.53345 9.546736 h -6.6389 -6.6389 V 75.394644 50.299612 h 10.1309 c 5.9883,0 10.7152,0.05311 11.5783,0.132778 z m 77.728196,0.358501 c 0.066,0.278834 0.9958,3.996617 2.0713,8.272067 1.0755,4.275446 3.8639,15.322576 6.214,24.563916 l 4.2755,16.796416 -6.8248,0.0398 c -3.7576,0.0133 -6.8514,0.0133 -6.8779,-0.0266 -0.027,-0.0266 -0.3452,-1.765936 -0.7037,-3.877106 -0.3718,-2.11117 -0.7038,-3.97006 -0.7303,-4.14267 l -0.066,-0.29212 h -5.0456 -5.0455 l -0.066,0.29212 c -0.04,0.17261 -0.3585,2.0315 -0.7303,4.14267 -0.3585,2.11117 -0.6772,3.863836 -0.7037,3.890386 -0.027,0.0266 -3.1203,0.0266 -6.8779,0.0133 l -6.8381,-0.0398 4.5543,-17.858636 c 2.4962,-9.82557 5.2978,-20.87269 6.214,-24.563919 0.9162,-3.691228 1.7394,-6.93101 1.8058,-7.209844 l 0.1327,-0.491279 h 7.5551 7.5551 z M 88.616354,109.93019 c 3.3461,0.239 6.0282,0.77011 7.9534,1.54022 2.722,1.10206 4.394996,3.06717 5.231496,6.12107 l 0.3585,1.28794 0.066,13.8753 0.066,13.8753 0.4116,1.15517 0.4249,1.16844 h -6.081196 -6.068 l -0.2257,-0.77011 c -0.1328,-0.46472 -0.2124,-1.27467 -0.2124,-2.0315 v -1.24811 l -0.478,0.73027 c -1.4872,2.23067 -3.5585,3.42568 -6.8381,3.90368 -7.741,1.15516 -12.2023,-3.04062 -12.2023,-11.47202 0,-5.27129 1.5668,-8.15257 5.5103,-10.13096 1.4871,-0.74356 3.014,-1.22156 7.4887,-2.36345 2.3103,-0.5975 4.3816,-1.15517 4.6074,-1.24811 0.6506,-0.26556 1.341,-0.96928 1.5933,-1.59334 0.1593,-0.45144 0.1992,-0.88961 0.1593,-1.95183 -0.04,-1.20828 -0.093,-1.44728 -0.4116,-1.99167 -0.5311,-0.91617 -1.3145,-1.32778 -2.6157,-1.40745 -1.5801,-0.0929 -2.39,0.27884 -2.9477,1.34106 -0.239,0.45144 -0.3054,0.87633 -0.3585,2.151 l -0.08,1.59334 -5.9484,0.0398 c -5.4041,0.0266 -5.9485,0.0133 -6.0281,-0.18589 -0.1726,-0.46472 0.2124,-3.21322 0.624,-4.46134 1.2216,-3.65139 4.156,-6.28039 8.3119,-7.42229 2.3502,-0.65061 4.2224,-0.77011 7.6879,-0.50455 z m 42.794396,5.85551 -0.04,6.01484 -0.5975,-0.0664 c -1.2216,-0.13278 -3.8771,0 -5.112,0.25228 -2.775,0.57094 -4.0497,1.64644 -4.6472,3.95678 -0.1726,0.63734 -0.1992,2.45639 -0.1992,11.88363 v 11.12679 h -6.3733 -6.3733 v -19.05363 -19.05363 h 6.1077 6.1078 v 2.54933 2.56262 l 0.3585,-0.5975 c 1.1419,-1.93856 3.0805,-3.97006 4.4348,-4.66051 1.3543,-0.67717 2.4697,-0.90289 4.541,-0.90289 l 1.8191,-0.0133 z m 19.5847,-5.8024 c 4.9659,0.65061 8.0464,2.2705 9.5733,5.03228 0.8233,1.47384 1.0357,2.41656 1.1154,4.83312 l 0.053,2.15101 -5.4838,-0.0266 -5.497,-0.0398 -0.08,-1.26139 c -0.1195,-2.2174 -0.8763,-3.02734 -2.9477,-3.14684 -2.3501,-0.14606 -3.4389,0.69044 -3.4655,2.68211 -0.013,1.12862 0.332,1.88545 1.1021,2.39001 0.2788,0.18589 2.8813,1.195 5.8024,2.24394 2.9078,1.04895 5.59,2.03151 5.9352,2.19084 1.6464,0.717 3.4788,2.2705 4.2356,3.59828 1.2083,2.08462 1.4738,6.21401 0.6373,9.67952 -1.2215,5.05884 -4.5277,8.13929 -10.0247,9.33429 -2.7485,0.5975 -7.9003,0.42489 -11.0073,-0.3585 -5.8422,-1.48712 -8.843,-5.19162 -8.843,-10.90107 v -1.38089 h 5.6962 5.6829 l 0.1327,1.52694 c 0.1195,1.28795 0.1992,1.63317 0.5444,2.21739 0.5842,1.04895 1.3278,1.46056 2.722,1.54023 1.2746,0.0664 1.9784,-0.0929 2.7086,-0.62406 0.7038,-0.50455 1.0092,-1.195 1.0755,-2.35017 0.04,-0.74355 0,-1.0755 -0.2124,-1.54022 -0.3319,-0.75684 -1.0091,-1.51367 -1.6066,-1.81906 -0.2656,-0.13278 -2.483,-0.98256 -4.9261,-1.87217 -2.4431,-0.88961 -4.8995,-1.85889 -5.4572,-2.13772 -2.0978,-1.04895 -3.8372,-2.78834 -4.8463,-4.85968 -1.1818,-2.42983 -1.5004,-5.69617 -0.81,-8.28534 0.8232,-3.10701 2.39,-5.36423 4.6738,-6.74512 1.5269,-0.92945 4.5543,-1.83234 7.0372,-2.11117 1.6996,-0.19917 4.8464,-0.17262 6.4796,0.0398 z m -121.266096,0.956 c -0.013,0.29211 3.0805,25.36059 3.1469,25.5332 0.04,0.10623 0.9427,-5.60323 2.0182,-12.68029 l 1.9385,-12.87946 6.4265,-0.0398 c 3.5452,-0.0133 6.4796,0.0133 6.5327,0.0664 0.053,0.0664 0.9825,5.9219 2.058,13.02552 1.0888,7.1169 1.9917,12.87946 2.005,12.81307 0.053,-0.14605 3.0937,-25.49337 3.0937,-25.74564 0,-0.15934 0.9294,-0.18589 6.3733,-0.18589 5.0191,0 6.3734,0.0398 6.3734,0.15933 -0.013,0.0929 -1.7925,8.65712 -3.9701,19.02708 l -3.9435,18.85447 -7.2497,0.0398 -7.2496,0.0266 -0.08,-0.3585 c -0.04,-0.21244 -0.9162,-5.98828 -1.9386,-12.83963 -1.6464,-10.98073 -1.9916,-13.17157 -1.9916,-12.42801 0,0.21244 -3.6913,24.88259 -3.7842,25.32075 l -0.066,0.30539 h -7.2364 c -6.7584,0 -7.2231,-0.0133 -7.2895,-0.239 -0.08,-0.25228 -7.9136,-37.66911 -7.9136,-37.78861 0,-0.0398 2.868,-0.0797 6.3734,-0.0797 3.5053,0 6.3733,0.0398 6.3733,0.0929 z" />
  <path
     inkscape:connector-curvature="0"
     style="fill:#008000;stroke:none;stroke-width:0.0132778"
     id="path12"
     d="m 62.658354,65.901024 v 5.93517 l 1.9651,-0.0531 c 1.9252,-0.0398 1.9651,-0.0398 2.7883,-0.49128 1.527,-0.8365 2.2838,-2.01822 2.6556,-4.16923 0.5045,-2.96094 -0.5311,-5.69617 -2.5494,-6.77167 -0.478,-0.25228 -0.7966,-0.29211 -2.6954,-0.33194 l -2.1642,-0.0531 z" />
  <path
     inkscape:connector-curvature="0"
     style="fill:#008000;stroke:none;stroke-width:0.0132778"
     id="path14"
     d="m 139.41725,71.716694 c -0.8896,5.19162 -1.6597,9.61313 -1.6996,9.81229 l -0.066,0.37178 h 3.4788 3.4788 l -0.066,-0.30539 c -0.04,-0.15933 -0.8099,-4.541 -1.6995,-9.71935 -0.8897,-5.19161 -1.6598,-9.46706 -1.6996,-9.52017 -0.053,-0.0531 -0.8232,4.15595 -1.7261,9.36084 z" />
  <path
     inkscape:connector-curvature="0"
     style="fill:#008000;stroke:none;stroke-width:0.0132778"
     id="path16"
     d="m 88.045454,131.30744 c -2.3103,0.96928 -3.0539,1.40745 -3.7443,2.19084 -0.7569,0.86305 -1.0623,1.69956 -1.0623,2.90784 0,2.90783 1.3411,4.71361 3.5187,4.71361 1.6066,0 2.7219,-0.91617 3.2663,-2.65556 0.4514,-1.44728 0.7435,-8.11273 0.3585,-8.08617 -0.093,0.0133 -1.1419,0.42488 -2.3369,0.92944 z" />
  <path
     inkscape:connector-curvature="0"
     style="fill:#008000;stroke:none;stroke-width:0.0132778"
     id="path18"
     d="m 35.969954,181.51079 v 8.93596 l -0.8498,0.82322 c -2.9875,2.86801 -4.4348,6.71857 -4.0497,10.78157 0.7701,8.32518 9.082,13.84874 17.0487,11.33924 2.0182,-0.63733 3.5451,-1.5535 5.165,-3.09373 1.288,-1.23483 2.0315,-2.25722 2.7884,-3.86383 2.4298,-5.15179 1.3012,-11.23302 -2.8282,-15.16325 l -0.8099,-0.77011 -0.027,-8.92268 -0.04,-8.92268 -8.1924,-0.0398 -8.2057,-0.0266 z" />
  <path
     inkscape:connector-curvature="0"
     style="fill:#008000;stroke:none;stroke-width:0.0132778"
     id="path20"
     d="m 79.746854,172.68106 c -0.053,0.0398 -0.093,4.063 -0.093,8.9094 v 8.82973 l -1.1684,1.20828 c -1.8987,1.96512 -3.0141,4.07629 -3.5585,6.73184 -0.3053,1.48712 -0.1991,4.39496 0.1992,5.89535 0.6772,2.49622 2.4431,5.19161 4.4481,6.79823 1.341,1.06222 3.5983,2.19083 5.1916,2.58917 1.6995,0.42489 4.541,0.42489 6.2273,0 4.9526,-1.23484 8.7633,-5.21818 9.798996,-10.23718 0.2124,-1.03567 0.2523,-1.60662 0.1992,-3.06717 -0.08,-2.08462 -0.3585,-3.2929 -1.141896,-4.97918 -0.7303,-1.5535 -1.3676,-2.48295 -2.629,-3.79745 l -1.1021,-1.14189 -0.027,-8.88284 -0.04,-8.88285 -8.1127,-0.0398 c -4.4614,-0.0133 -8.1526,0.0133 -8.1924,0.0664 z" />
  <path
     inkscape:connector-curvature="0"
     style="fill:#008000;stroke:none;stroke-width:0.0132778"
     id="path22"
     d="m 123.43075,172.68106 c -0.053,0.0398 -0.093,4.04972 -0.093,8.9094 v 8.82973 l -1.102,1.14189 c -1.7129,1.79251 -2.8016,3.67795 -3.4124,5.9219 -0.4382,1.59334 -0.5046,4.24889 -0.1593,5.9219 1.0356,5.00573 4.8596,9.00234 9.799,10.23718 1.6862,0.42489 4.5277,0.42489 6.2273,0 1.5933,-0.39834 3.8505,-1.52695 5.1916,-2.58917 2.0049,-1.60662 3.7709,-4.30201 4.448,-6.79823 0.3984,-1.50039 0.5046,-4.40823 0.1992,-5.89535 -0.5444,-2.65555 -1.6597,-4.76672 -3.5584,-6.73184 l -1.1685,-1.20828 -0.027,-8.88284 -0.04,-8.88285 -8.1127,-0.0398 c -4.4614,-0.0133 -8.1526,0.0133 -8.1924,0.0664 z" />
</svg>
