<?xml version="1.0" encoding="UTF-8" standalone="no"?>
<!-- Created with Inkscape (http://www.inkscape.org/) -->

<svg
   xmlns:dc="http://purl.org/dc/elements/1.1/"
   xmlns:cc="http://creativecommons.org/ns#"
   xmlns:rdf="http://www.w3.org/1999/02/22-rdf-syntax-ns#"
   xmlns:svg="http://www.w3.org/2000/svg"
   xmlns="http://www.w3.org/2000/svg"
   xmlns:sodipodi="http://sodipodi.sourceforge.net/DTD/sodipodi-0.dtd"
   xmlns:inkscape="http://www.inkscape.org/namespaces/inkscape"
   width="78.835335mm"
   height="78.874046mm"
   viewBox="0 0 78.835335 78.874046"
   version="1.1"
   id="svg8"
   inkscape:version="0.92.3 (2405546, 2018-03-11)"
   sodipodi:docname="Jedi-knight-logo.svg">
  <defs
     id="defs2" />
  <sodipodi:namedview
     id="base"
     pagecolor="#ffffff"
     bordercolor="#666666"
     borderopacity="1.0"
     inkscape:pageopacity="0.0"
     inkscape:pageshadow="2"
     inkscape:zoom="0.49497475"
     inkscape:cx="487.5716"
     inkscape:cy="48.427268"
     inkscape:document-units="mm"
     inkscape:current-layer="layer1"
     showgrid="false"
     fit-margin-top="0"
     fit-margin-left="0"
     fit-margin-right="0"
     fit-margin-bottom="0"
     inkscape:window-width="1853"
     inkscape:window-height="1025"
     inkscape:window-x="67"
     inkscape:window-y="1107"
     inkscape:window-maximized="1" />
  <metadata
     id="metadata5">
    <rdf:RDF>
      <cc:Work
         rdf:about="">
        <dc:format>image/svg+xml</dc:format>
        <dc:type
           rdf:resource="http://purl.org/dc/dcmitype/StillImage" />
        <dc:title></dc:title>
      </cc:Work>
    </rdf:RDF>
  </metadata>
  <g
     inkscape:label="Layer 1"
     inkscape:groupmode="layer"
     id="layer1"
     transform="translate(197.18726,-30.615189)">
    <path
       style="fill:#000000;stroke-width:0.06751135"
       d="m -159.29003,109.42607 c -9.78884,-0.40672 -19.08167,-4.37651 -25.9844,-11.100263 -1.89175,-1.842685 -3.31257,-3.48378 -4.71013,-5.440306 -3.93853,-5.513784 -6.37014,-12.064528 -7.04538,-18.98019 -0.27778,-2.845009 -0.18226,-6.61475 0.24339,-9.605228 1.04706,-7.356368 4.13079,-14.324035 8.81369,-19.914457 5.98632,-7.146436 14.36514,-11.879625 23.55067,-13.303762 9.79843,-1.51916 19.89431,0.701239 28.2548,6.214108 9.35414,6.168072 15.73975,16.079601 17.37594,26.970356 0.68474,4.557694 0.56768,9.347283 -0.33909,13.873584 -1.18234,5.901897 -3.74586,11.516175 -7.41367,16.23648 -6.55882,8.440878 -16.19875,13.761268 -26.97077,14.885488 -0.89165,0.0931 -3.90555,0.24864 -4.35731,0.22493 -0.0928,-0.005 -0.73081,-0.0322 -1.41774,-0.0608 z m 5.06335,-3.47271 c 2.92542,-0.27658 5.50666,-0.82302 8.27014,-1.75076 11.39376,-3.82507 20.07316,-13.141107 23.08658,-24.779973 0.48058,-1.856174 0.81756,-3.798184 1.02504,-5.907243 0.15891,-1.61538 0.15884,-5.060406 0,-6.616113 -0.47319,-4.629912 -1.55889,-8.471148 -3.52068,-12.455843 -1.80156,-3.659219 -3.96924,-6.675228 -6.91689,-9.623808 -1.41657,-1.417019 -2.51335,-2.376069 -3.95241,-3.456075 -8.05275,-6.043529 -18.1804,-8.533802 -28.05097,-6.897407 -3.37985,0.56033 -6.37931,1.517632 -9.48534,3.027325 -1.76393,0.857361 -2.56656,1.315765 -4.15195,2.371318 -3.93427,2.619429 -7.10574,5.790115 -9.754,9.751584 -1.61434,2.414861 -2.72301,4.559922 -3.76845,7.291226 -1.7448,4.55848 -2.60407,9.983587 -2.35497,14.868516 0.13519,2.651274 0.43744,4.746325 1.03008,7.140186 3.25225,13.136888 13.79765,23.342197 27.20192,26.324667 1.77026,0.39388 3.91499,0.69172 5.8687,0.81497 1.25233,0.079 4.12129,0.0253 5.4732,-0.10257 z m -5.7047,-5.23914 c -4.29584,-0.32814 -9.49072,-1.9427 -13.89942,-4.319899 -5.33505,-2.876692 -9.17501,-6.379687 -11.86976,-10.828162 -1.55928,-2.574039 -2.78865,-5.699337 -3.3551,-8.52929 -0.35815,-1.789284 -0.34217,-1.809 0.2613,-0.322651 0.7121,1.753862 1.53198,3.553247 2.00311,4.396192 1.34562,2.407548 3.28656,4.604927 4.68238,5.301029 0.26983,0.134562 0.29177,0.137294 0.19624,0.02442 -2.40407,-2.840036 -4.27786,-6.182579 -5.46429,-9.747447 -0.66562,-1.999984 -1.1,-4.048274 -1.28138,-6.042265 -0.096,-1.055849 -0.096,-4.138549 7e-5,-5.299641 0.29874,-3.610097 1.15859,-6.706167 2.57266,-9.263293 0.37955,-0.686367 1.27319,-2.079273 1.27506,-1.987423 7.7e-4,0.03159 -0.0881,0.365772 -0.19733,0.742625 -0.53365,1.842092 -0.98857,3.980182 -1.19437,5.613516 -0.14641,1.161949 -0.16484,3.674249 -0.0339,4.624527 0.73779,5.355705 3.70983,10.503915 7.55457,13.08614 0.70166,0.471251 1.06757,0.67078 0.99002,0.539854 -0.0293,-0.04948 -0.18137,-0.241867 -0.33791,-0.427525 -1.92677,-2.285114 -4.1683,-6.695554 -4.921,-9.682593 -0.68328,-2.711503 -0.8258,-6.615949 -0.37145,-10.176342 0.62233,-4.876802 2.05634,-8.382466 4.9513,-12.104227 0.64053,-0.823472 2.50283,-2.755486 3.40117,-3.528511 0.75012,-0.645477 2.20674,-1.741444 2.79697,-2.104461 l 0.42658,-0.262365 -0.91385,0.937478 c -1.73806,1.782992 -2.77074,3.35206 -3.32741,5.055673 -0.2315,0.708479 -0.30534,1.056913 -0.42209,1.991584 -0.44273,3.544133 0.11748,7.32203 1.54748,10.435791 1.07547,2.341793 2.77129,4.812902 4.73648,6.90192 0.28058,0.298253 0.48133,0.560076 0.44613,0.581834 -0.12492,0.07721 -0.80592,1.027768 -1.24225,1.733964 -1.32648,2.14693 -2.25289,4.668804 -2.6508,7.21601 -0.16924,1.083452 -0.20736,3.648754 -0.0716,4.818958 0.40982,3.532388 1.79085,7.113116 3.90886,10.134804 1.81283,2.586318 4.21236,4.851908 6.98448,6.594621 0.88205,0.554492 2.98451,1.633845 3.05169,1.566666 0.0333,-0.03324 0.1299,-12.315147 0.0973,-12.368652 -0.007,-0.01191 -0.99023,0.960247 -2.18437,2.160362 -1.19411,1.200116 -2.13437,2.106078 -2.08944,2.013248 0.0449,-0.09282 0.74563,-1.375563 1.5571,-2.850526 0.81147,-1.474961 1.47539,-2.693569 1.47539,-2.708019 0,-0.01444 -0.23544,-0.04754 -0.52322,-0.07352 -2.61018,-0.235706 -8.23078,-1.019833 -8.03933,-1.121566 0.16511,-0.08774 3.12956,-0.311641 6.66598,-0.503476 1.01766,-0.0552 1.86458,-0.114646 1.88203,-0.132094 0.0174,-0.01746 -0.35016,-0.891157 -0.81689,-1.941581 -1.39344,-3.13605 -2.60997,-6.054666 -2.77992,-6.66941 -0.11612,-0.419974 1.92826,2.557796 3.8196,5.563526 l 0.9732,1.546602 0.0468,-2.289225 c 0.0258,-1.259075 0.0948,-5.205716 0.15355,-8.770315 0.29476,-17.893527 0.60613,-30.979079 0.77108,-32.40545 0.0427,-0.368953 0.0511,-0.326821 0.0945,0.47258 0.24912,4.588929 0.66725,16.104411 1.33089,36.653129 0.11143,3.450159 0.21227,6.2827 0.2241,6.294529 0.0119,0.01184 0.36635,-0.532521 0.78783,-1.209668 1.54792,-2.486926 3.95044,-6.04658 4.0284,-5.968619 0.0824,0.08245 -1.65149,4.229907 -3.34244,7.994863 -0.18762,0.417727 -0.31984,0.759566 -0.29382,0.759642 0.17078,5.11e-4 3.94568,0.21364 4.77309,0.269491 1.96253,0.132473 3.71416,0.287044 3.80456,0.335737 0.17407,0.09375 -4.90114,0.80687 -7.74052,1.087623 -0.69413,0.06864 -0.82398,0.09892 -0.79113,0.184522 0.0315,0.08232 2.23413,4.110157 2.92347,5.346203 0.12599,0.225927 -0.3975,-0.258621 -2.04225,-1.89032 l -2.21166,-2.194119 0.0414,2.357053 c 0.0228,1.296376 0.0414,4.083752 0.0414,6.194165 0,3.609623 0.007,3.837078 0.11814,3.836499 0.3247,-0.0019 2.34729,-1.10147 3.74823,-2.038053 1.79869,-1.202516 3.98384,-3.197306 5.27309,-4.813736 2.08602,-2.615423 3.59621,-5.644346 4.39106,-8.807031 0.67533,-2.687126 0.76065,-5.706704 0.23566,-8.340854 -0.53009,-2.659711 -1.76245,-5.466433 -3.29023,-7.493568 l -0.45778,-0.607411 0.70317,-0.776572 c 3.02782,-3.343816 4.9316,-6.765667 5.70931,-10.261916 0.54791,-2.463155 0.63545,-5.174042 0.24149,-7.478434 -0.37833,-2.213025 -1.50514,-4.183838 -3.67066,-6.420037 -0.44863,-0.463268 -0.77012,-0.816676 -0.71443,-0.785351 0.43266,0.243325 1.5723,1.053058 2.31351,1.64377 1.05181,0.838239 3.09017,2.849929 3.91751,3.866241 2.19949,2.701892 3.70118,5.644599 4.49504,8.808496 1.14777,4.574435 1.24572,10.176394 0.24364,13.935098 -0.46655,1.74997 -1.55092,4.294571 -2.63504,6.183411 -0.73599,1.282288 -1.82385,2.86025 -2.45093,3.5551 -0.12567,0.139243 -0.19921,0.253167 -0.16341,0.253167 0.11467,0 1.22775,-0.727106 1.83082,-1.195954 0.69575,-0.540911 1.83484,-1.666987 2.44044,-2.412578 1.96405,-2.418013 3.55488,-5.91436 4.15093,-9.122953 0.58243,-3.135312 0.26757,-6.4361 -1.07466,-11.265753 -0.0924,-0.332506 -0.15798,-0.614589 -0.14572,-0.626853 0.0456,-0.04561 0.99366,1.472595 1.38587,2.219341 1.21934,2.321521 1.96935,4.899779 2.34422,8.058588 0.1522,1.282399 0.17557,5.595738 0.0364,6.717379 -0.40407,3.256756 -1.25242,6.127299 -2.68356,9.080277 -1.10048,2.270714 -2.15881,3.905638 -4.03824,6.238355 -0.10647,0.132149 0.2918,-0.07754 0.80125,-0.421865 0.53257,-0.359945 1.61142,-1.410446 2.22947,-2.170877 0.7671,-0.943823 1.59464,-2.231324 2.1872,-3.402894 0.53085,-1.049564 1.52376,-3.312454 1.96522,-4.478802 0.12291,-0.324756 0.23012,-0.582987 0.23824,-0.573844 0.0369,0.04151 -0.19591,1.382568 -0.37685,2.171297 -0.91026,3.967779 -2.81505,7.859023 -5.41192,11.055856 -0.76932,0.94705 -2.34345,2.560939 -3.32928,3.41335 -6.42941,5.559286 -16.2797,9.196785 -23.42644,8.650885 z"
       id="path826"
       inkscape:connector-curvature="0" />
  </g>
</svg>
