<?xml version="1.0" encoding="UTF-8" standalone="no"?>
<!-- Created with Inkscape (http://www.inkscape.org/) -->

<svg
   xmlns:dc="http://purl.org/dc/elements/1.1/"
   xmlns:cc="http://creativecommons.org/ns#"
   xmlns:rdf="http://www.w3.org/1999/02/22-rdf-syntax-ns#"
   xmlns:svg="http://www.w3.org/2000/svg"
   xmlns="http://www.w3.org/2000/svg"
   xmlns:sodipodi="http://sodipodi.sourceforge.net/DTD/sodipodi-0.dtd"
   xmlns:inkscape="http://www.inkscape.org/namespaces/inkscape"
   width="89.172043mm"
   height="80.356377mm"
   viewBox="0 0 89.172042 80.356376"
   version="1.1"
   id="svg8"
   inkscape:version="0.92.3 (2405546, 2018-03-11)"
   sodipodi:docname="obijuan-academy.svg">
  <defs
     id="defs2" />
  <sodipodi:namedview
     id="base"
     pagecolor="#ffffff"
     bordercolor="#666666"
     borderopacity="1.0"
     inkscape:pageopacity="0.0"
     inkscape:pageshadow="2"
     inkscape:zoom="1.3368053"
     inkscape:cx="195.70909"
     inkscape:cy="78.474979"
     inkscape:document-units="mm"
     inkscape:current-layer="layer1"
     showgrid="false"
     inkscape:snap-global="false"
     inkscape:window-width="1853"
     inkscape:window-height="1025"
     inkscape:window-x="67"
     inkscape:window-y="1107"
     inkscape:window-maximized="1"
     fit-margin-top="0"
     fit-margin-left="0"
     fit-margin-right="0"
     fit-margin-bottom="0" />
  <metadata
     id="metadata5">
    <rdf:RDF>
      <cc:Work
         rdf:about="">
        <dc:format>image/svg+xml</dc:format>
        <dc:type
           rdf:resource="http://purl.org/dc/dcmitype/StillImage" />
        <dc:title></dc:title>
      </cc:Work>
    </rdf:RDF>
  </metadata>
  <g
     inkscape:label="Layer 1"
     inkscape:groupmode="layer"
     id="layer1"
     style="display:inline"
     transform="translate(-316.63518,-41.652467)">
    <path
       style="fill:#ffff00;fill-opacity:1;stroke:#000000;stroke-width:0.13124108;stroke-miterlimit:4;stroke-dasharray:none;stroke-opacity:1"
       d="m 393.31917,98.852039 c 0.73599,-1.913889 1.40578,-3.845512 1.4884,-4.292504 0.0826,-0.446987 0.16623,-0.826365 0.18578,-0.843056 0.0195,-0.01667 2.42938,-0.37042 5.35517,-0.786063 l 5.31965,-0.755715 0.0365,-5.837641 0.0366,-5.83764 -0.31651,-0.07049 c -0.17408,-0.03879 -2.58435,-0.391005 -5.35617,-0.782754 -2.77181,-0.391744 -5.07908,-0.75512 -5.12727,-0.807506 -0.0482,-0.05238 -0.35759,-1.134667 -0.68758,-2.405083 -0.5603,-2.156939 -0.70832,-2.525638 -2.23625,-5.569928 l -1.63624,-3.260093 3.19876,-4.26291 c 1.75932,-2.344601 3.19876,-4.311227 3.19876,-4.370283 0,-0.05905 -1.84262,-1.947096 -4.09472,-4.195652 l -4.09472,-4.088282 -4.31823,3.241092 -4.31823,3.241089 -3.24126,-1.616145 c -2.95853,-1.475176 -3.43858,-1.668438 -5.50346,-2.215634 -1.24421,-0.329718 -2.33579,-0.644971 -2.42574,-0.700562 -0.12326,-0.07618 -1.68163,-10.089942 -1.68163,-10.805826 0,-0.146555 -11.57989,-0.151372 -11.67045,-0.0049 -0.0373,0.06031 -0.38862,2.375402 -0.78077,5.144652 -0.39215,2.769249 -0.74359,5.172915 -0.78097,5.34148 -0.0542,0.244398 -0.20256,0.325483 -0.73239,0.400289 -0.36543,0.05159 -2.23246,0.69212 -4.14895,1.423389 -2.85352,1.088813 -3.73733,1.493113 -4.88057,2.232616 l -1.39604,0.90303 -0.50906,-0.34292 c -0.27999,-0.1886 -2.27295,-1.670209 -4.42881,-3.29246 l -3.91973,-2.949547 -4.09472,4.088441 c -2.2521,2.248644 -4.09472,4.137162 -4.09472,4.196709 0,0.05955 1.4206,2.000257 3.15689,4.31269 1.7363,2.312432 3.18988,4.290352 3.23018,4.395376 0.0403,0.105024 -0.32733,0.810534 -0.81697,1.567801 -0.71466,1.105279 -1.14447,2.039535 -2.17912,4.73662 -0.70887,1.847873 -1.32845,3.651793 -1.37682,4.008701 -0.0484,0.356913 -0.12831,0.714213 -0.17762,0.794004 -0.0493,0.07979 -2.35683,0.466129 -5.12782,0.858533 -2.77099,0.392398 -5.18059,0.74517 -5.35467,0.783939 l -0.31652,0.07049 0.0366,5.837189 0.0365,5.837184 5.38182,0.774317 5.38182,0.774306 0.67185,2.485107 c 0.5418,2.004019 0.84584,2.830582 1.57058,4.269711 l 0.89872,1.78461 0.48675,-1.04993 c 0.26771,-0.57746 3.07797,-6.467077 6.24502,-13.088037 6.61703,-13.83343 6.77362,-14.110983 9.5279,-16.88776 4.06553,-4.098747 8.65324,-6.009097 14.42252,-6.005621 7.22988,0.0044 13.03264,3.118929 17.0817,9.168428 0.87424,1.306154 1.50436,2.607199 8.25696,17.048647 2.79912,5.986345 5.13248,10.884263 5.18524,10.884263 0.0528,0 0.69811,-1.5659 1.4341,-3.479795 z"
       id="path830"
       inkscape:connector-curvature="0" />
    <path
       style="fill:#ff0000;stroke:#000000;stroke-width:0.13124108;stroke-miterlimit:4;stroke-dasharray:none;stroke-opacity:1"
       d="m 397.01163,113.27403 -4.23018,4.3346 -4.23018,4.33459 h -5.33729 -5.33729 l -1.06331,-2.27485 c -3.80081,-8.13131 -7.15927,-15.29908 -7.18226,-15.32872 -0.0148,-0.0192 -0.41355,0.12231 -0.88603,0.3143 -2.38637,0.96967 -4.48847,1.34798 -7.46727,1.34386 -3.01055,-0.004 -5.45814,-0.41694 -7.57122,-1.27686 l -0.97107,-0.39518 -0.53005,1.14424 c -0.50768,1.09596 -3.33005,7.08754 -6.27606,13.32342 l -1.38886,2.9398 -5.44555,0.0314 -5.44555,0.0314 -4.21912,-4.30715 -4.21911,-4.30716 2.65205,-5.54481 2.70209,-5.66363 0.53678,-1.16872 c 0.26771,-0.57746 3.07797,-6.467079 6.24501,-13.088039 6.61704,-13.833428 6.77363,-14.110986 9.52791,-16.887763 4.06553,-4.098745 8.65324,-6.009093 14.42251,-6.005616 7.22988,0.0045 13.03265,3.118929 17.08171,9.168428 0.87423,1.306154 1.50435,2.607195 8.25695,17.04865 2.79913,5.98634 5.13248,10.88426 6.48929,13.80916 z M 364.79735,97.650453 c 2.70842,-0.856648 5.27922,-2.854272 6.75023,-5.245233 3.80704,-6.187916 1.56678,-14.165762 -4.88826,-17.407681 -6.1888,-3.108199 -13.6019,-0.506004 -16.55253,5.810374 -0.88152,1.887067 -1.04726,2.690014 -1.05018,5.087751 -0.003,2.511242 0.24265,3.559472 1.32639,5.658514 1.69316,3.279359 4.67628,5.547414 8.39475,6.382504 0.647,0.145302 1.47627,0.187846 2.86981,0.147241 1.63443,-0.04762 2.15746,-0.119607 3.14979,-0.43347 z"
       id="path850"
       inkscape:connector-curvature="0"
       sodipodi:nodetypes="cccccccccccssccccccccsscssccccsccsscc" />
  </g>
</svg>
