<?xml version="1.0" encoding="UTF-8" standalone="no"?>
<svg
   xmlns:dc="http://purl.org/dc/elements/1.1/"
   xmlns:cc="http://creativecommons.org/ns#"
   xmlns:rdf="http://www.w3.org/1999/02/22-rdf-syntax-ns#"
   xmlns:svg="http://www.w3.org/2000/svg"
   xmlns="http://www.w3.org/2000/svg"
   xmlns:sodipodi="http://sodipodi.sourceforge.net/DTD/sodipodi-0.dtd"
   xmlns:inkscape="http://www.inkscape.org/namespaces/inkscape"
   width="214.45128"
   height="214.45128"
   version="1.1"
   viewBox="0 0 214.45128 214.45128"
   id="svg6"
   sodipodi:docname="Sync-2.svg"
   inkscape:version="0.92.3 (2405546, 2018-03-11)">
  <metadata
     id="metadata12">
    <rdf:RDF>
      <cc:Work
         rdf:about="">
        <dc:format>image/svg+xml</dc:format>
        <dc:type
           rdf:resource="http://purl.org/dc/dcmitype/StillImage" />
        <dc:title></dc:title>
      </cc:Work>
    </rdf:RDF>
  </metadata>
  <defs
     id="defs10" />
  <sodipodi:namedview
     pagecolor="#ffffff"
     bordercolor="#666666"
     borderopacity="1"
     objecttolerance="10"
     gridtolerance="10"
     guidetolerance="10"
     inkscape:pageopacity="0"
     inkscape:pageshadow="2"
     inkscape:window-width="1853"
     inkscape:window-height="1025"
     id="namedview8"
     showgrid="false"
     fit-margin-top="0"
     fit-margin-left="0"
     fit-margin-right="0"
     fit-margin-bottom="0"
     inkscape:zoom="1.3037281"
     inkscape:cx="128.27464"
     inkscape:cy="120.70947"
     inkscape:window-x="67"
     inkscape:window-y="1107"
     inkscape:window-maximized="1"
     inkscape:current-layer="svg6" />
  <circle
     style="fill:#4d4d4d;stroke-width:1.00000012;fill-opacity:1"
     cx="107.22564"
     cy="107.22564"
     r="107.22564"
     id="circle2" />
  <path
     style="fill:#fbfbc9;stroke-width:1.00000012;fill-opacity:1"
     d="m 107.36274,38.296616 c 14.50456,0.0306 29.2121,4.55227 40.70056,13.49971 8.07639,9.30412 -7.31248,19.26845 -14.2434,10.19563 -20.86457,-12.62429 -50.290356,-8.17979 -65.988192,10.695 -8.352111,9.366923 -13.057786,21.865603 -13.002641,34.413304 H 68.61752 C 61.264904,118.13683 53.910756,129.16575 46.557375,140.19467 39.203228,129.16575 31.849846,118.13683 24.495699,107.10792 h 13.788452 c -0.43886,-29.961901 21.108133,-58.461734 50.032252,-66.221034 6.211429,-1.70106 12.606667,-2.65383 19.047867,-2.5872 z m 60.53118,35.850143 c 7.35385,11.03045 14.70753,22.06167 22.06168,33.092111 h -13.78846 c 0.39062,30.31805 -21.7063,59.13724 -51.1405,66.48756 -19.86202,5.54647 -42.320436,1.49924 -58.644776,-11.19053 -8.328368,-9.45883 7.274188,-19.32743 14.269437,-10.17265 20.215099,12.26509 48.524199,8.37509 64.480909,-9.14252 9.24132,-9.52164 14.55971,-22.71115 14.48849,-35.98186 h -13.78845 c 7.35383,-11.030441 14.70752,-22.061661 22.06167,-33.092111 z"
     id="path4"
     inkscape:connector-curvature="0" />
</svg>
