<?xml version="1.0" encoding="UTF-8" standalone="no"?>
<!-- Created with Inkscape (http://www.inkscape.org/) -->

<svg
   xmlns:dc="http://purl.org/dc/elements/1.1/"
   xmlns:cc="http://creativecommons.org/ns#"
   xmlns:rdf="http://www.w3.org/1999/02/22-rdf-syntax-ns#"
   xmlns:svg="http://www.w3.org/2000/svg"
   xmlns="http://www.w3.org/2000/svg"
   xmlns:sodipodi="http://sodipodi.sourceforge.net/DTD/sodipodi-0.dtd"
   xmlns:inkscape="http://www.inkscape.org/namespaces/inkscape"
   width="150"
   height="100"
   viewBox="0 0 39.687496 26.458334"
   version="1.1"
   id="svg8"
   inkscape:version="0.92.4 (5da689c313, 2019-01-14)"
   sodipodi:docname="Mi 7-8.svg"
   style="shape-rendering:crispEdges">
  <defs
     id="defs2" />
  <sodipodi:namedview
     id="base"
     pagecolor="#ffffff"
     bordercolor="#666666"
     borderopacity="1.0"
     inkscape:pageopacity="1"
     inkscape:pageshadow="2"
     inkscape:zoom="5.6"
     inkscape:cx="29.18381"
     inkscape:cy="42.564721"
     inkscape:document-units="mm"
     inkscape:current-layer="layer1"
     showgrid="false"
     fit-margin-top="0"
     fit-margin-left="0"
     fit-margin-right="0"
     fit-margin-bottom="0"
     inkscape:window-width="1920"
     inkscape:window-height="1017"
     inkscape:window-x="-8"
     inkscape:window-y="-8"
     inkscape:window-maximized="1"
     inkscape:pagecheckerboard="false"
     units="px"
     borderlayer="false"
     showborder="true" />
  <metadata
     id="metadata5">
    <rdf:RDF>
      <cc:Work
         rdf:about="">
        <dc:format>image/svg+xml</dc:format>
        <dc:type
           rdf:resource="http://purl.org/dc/dcmitype/StillImage" />
        <dc:title />
      </cc:Work>
    </rdf:RDF>
  </metadata>
  <g
     inkscape:label="Capa 1"
     inkscape:groupmode="layer"
     id="layer1"
     transform="translate(-23.847672,-11.490714)">
    <text
       xml:space="preserve"
       style="font-style:normal;font-variant:normal;font-weight:normal;font-stretch:normal;font-size:9.87777805px;line-height:1.25;font-family:Calibri;-inkscape-font-specification:Calibri;letter-spacing:0px;word-spacing:0px;fill:#000000;fill-opacity:1;stroke:none;stroke-width:0.26458332"
       x="40.245644"
       y="20.518282"
       id="text38"><tspan
         sodipodi:role="line"
         id="tspan36"
         x="40.245644"
         y="20.518282"
         style="font-size:11.28888893px;stroke-width:0.26458332">8/8</tspan></text>
    <text
       xml:space="preserve"
       style="font-style:normal;font-variant:normal;font-weight:normal;font-stretch:normal;font-size:22.57777786px;line-height:1.25;font-family:Calibri;-inkscape-font-specification:Calibri;letter-spacing:0px;word-spacing:0px;fill:#000000;fill-opacity:1;stroke:none;stroke-width:0.26458332"
       x="39.061604"
       y="36.959843"
       id="text42"><tspan
         sodipodi:role="line"
         id="tspan40"
         x="39.061604"
         y="36.959843"
         style="font-size:16.93333244px;stroke-width:0.26458332">Mi</tspan></text>
    <g
       style="shape-rendering:crispEdges"
       transform="matrix(1.0234009,0,0,1.0234009,15.523361,11.517304)"
       id="g858">
      <path
         inkscape:connector-curvature="0"
         style="fill:#030104"
         d="m 16.681,13.4 c -0.7,-0.8 -1.7,-1.3 -2.9,-1.2 -0.1,-0.2 -0.5,-2.2 -0.5,-2.2 0,0 1.4,-2.1 1.7,-2.5 1.5,-2.4 1.6,-4.3 0.7,-6.2 -0.3,-0.7 -1.1,-1.3 -1.9,-1.3 -0.6,0 -1.1,0.5 -1.4,1.1 -1,1.7 -1,4.9 -0.5,7.1 0,0 -0.5,0.5 -1,1.1 -1,1.1 -2.1,2.3 -2.5,3.9 -0.5,1.8 -0.1,3.5 1,4.8 1.2,1.5 3,2.2 5.2,2 0.4,1.9 0.7,3.1 0.1,4.2 -0.2,0.4 -0.6,0.8 -1.3,0.8 -0.2,0 -0.3,0 -0.5,-0.1 0.6,-0.3 1.1,-0.9 1.1,-1.6 0,-1 -0.8,-1.8 -1.8,-1.8 -1.7,0.1 -1.8,1.8 -1.8,1.8 0,0.6 0.2,1.2 0.6,1.6 0.5,0.5 1.3,0.9 2.2,0.9 1.1,0 2.2,-0.4 2.6,-2 0.4,-1.3 -0.3,-3.4 -0.4,-4.1 1.1,-0.5 2.1,-2 2.2,-3 0.2,-1.1 -0.2,-2.4 -0.9,-3.3 z m -3.2,-11.1 c 0.1,-0.2 0.3,-0.3 0.5,-0.3 0.1,0 0.3,0.1 0.4,0.2 0.4,0.2 0.5,0.6 0.5,1.2 -0.1,1.5 -1.4,3.3 -2.1,3.9 -0.3,-1.4 -0.1,-4 0.7,-5 z m -2.9,15.7 c -0.7,-0.7 -1,-1.7 -0.9,-2.7 0.2,-1.6 1.3,-2.9 2.2,-3.9 0.2,-0.2 0.4,-0.4 0.5,-0.6 0.1,0.5 0.4,1.3 0.5,1.7 -1.2,0.5 -1.9,2.1 -1.8,3.4 0,0.6 0.2,1 0.5,1.4 0.1,0.1 0.2,0.2 0.3,0.2 0.1,0 0.3,-0.1 0.3,-0.2 v 0 c 0.1,-0.1 0.1,-0.3 0,-0.4 -0.1,-0.1 -0.1,-0.2 -0.1,-0.4 -0.1,-0.9 0.5,-1.6 1.2,-1.9 0.1,0.6 0.8,3.7 0.9,4.4 -1.3,0.4 -2.7,0 -3.6,-1 z m 4.5,0.6 c -0.2,-0.7 -0.3,-1.5 -0.5,-2.4 -0.1,-0.6 -0.2,-1.3 -0.4,-1.9 1.3,0 1.7,1.1 1.8,1.5 0.3,1.1 0,2.2 -0.9,2.8 z"
         id="path856" />
    </g>
  </g>
</svg>
