<?xml version="1.0" encoding="UTF-8" standalone="no"?>
<!-- Created with Fritzing (http://www.fritzing.org/) -->

<svg
   xmlns:dc="http://purl.org/dc/elements/1.1/"
   xmlns:cc="http://creativecommons.org/ns#"
   xmlns:rdf="http://www.w3.org/1999/02/22-rdf-syntax-ns#"
   xmlns:svg="http://www.w3.org/2000/svg"
   xmlns="http://www.w3.org/2000/svg"
   xmlns:sodipodi="http://sodipodi.sourceforge.net/DTD/sodipodi-0.dtd"
   xmlns:inkscape="http://www.inkscape.org/namespaces/inkscape"
   width="3.5966418in"
   x="0in"
   version="1.2"
   y="0in"
   height="4.5233707in"
   viewBox="0 0 258.9582 325.68269"
   id="svg2325"
   sodipodi:docname="CPU-RV-32IMC.svg"
   inkscape:version="0.92.4 (unknown)">
  <metadata
     id="metadata2331">
    <rdf:RDF>
      <cc:Work
         rdf:about="">
        <dc:format>image/svg+xml</dc:format>
        <dc:type
           rdf:resource="http://purl.org/dc/dcmitype/StillImage" />
        <dc:title></dc:title>
      </cc:Work>
    </rdf:RDF>
  </metadata>
  <defs
     id="defs2329" />
  <sodipodi:namedview
     pagecolor="#ffffff"
     bordercolor="#666666"
     borderopacity="1"
     objecttolerance="10"
     gridtolerance="10"
     guidetolerance="10"
     inkscape:pageopacity="0"
     inkscape:pageshadow="2"
     inkscape:window-width="1920"
     inkscape:window-height="1052"
     id="namedview2327"
     showgrid="false"
     fit-margin-top="0"
     fit-margin-left="0"
     fit-margin-right="0"
     fit-margin-bottom="0"
     inkscape:zoom="1.1019081"
     inkscape:cx="170.44179"
     inkscape:cy="233.38182"
     inkscape:window-x="0"
     inkscape:window-y="0"
     inkscape:window-maximized="1"
     inkscape:current-layer="layer2"
     inkscape:snap-global="false" />
  <desc
     id="desc2">Fritzing breadboard generated by brd2svg</desc>
  <g
     inkscape:groupmode="layer"
     id="layer2"
     inkscape:label="Layer 2"
     transform="translate(13.823285,112.01563)">
    <rect
       style="opacity:1;fill:#ffffff;fill-opacity:1;stroke:none;stroke-width:3.37076974;stroke-linecap:round;stroke-linejoin:round;stroke-miterlimit:4;stroke-dasharray:none;stroke-dashoffset:0;stroke-opacity:1"
       id="rect1059-3"
       width="258.95822"
       height="263.0687"
       x="-13.823285"
       y="-112.01563" />
    <rect
       style="opacity:1;fill:#ffffff;fill-opacity:1;stroke:none;stroke-width:1.44821501;stroke-linecap:round;stroke-linejoin:round;stroke-miterlimit:4;stroke-dasharray:none;stroke-dashoffset:0;stroke-opacity:1"
       id="rect1059"
       width="256.62524"
       height="49.001278"
       x="-13.350842"
       y="164.6658" />
    <path
       style="fill:#273272;fill-opacity:1;stroke-width:0.19608502"
       d="m -4.0020794,188.7052 v -18.04576 l 20.9320774,0.0619 c 18.811884,0.0557 21.038715,0.0948 21.984765,0.38648 1.705794,0.52593 3.110686,1.33214 4.433268,2.54404 2.478986,2.27154 3.63199,4.82652 3.63199,8.04819 0,3.18284 -0.94654,5.39548 -3.333434,7.79223 -1.668372,1.67526 -2.933285,2.37999 -5.20211,2.89833 l -1.489309,0.34024 4.875216,6.76494 c 2.681398,3.72071 4.942193,6.87522 5.024013,7.01003 0.117415,0.19346 -0.858055,0.24512 -4.62851,0.24512 h -4.777276 l -5.085081,-7.05906 -5.085081,-7.05907 H 15.461841 3.6452316 v 7.05907 7.05906 H -0.17842339 -4.0020794 Z"
       id="path1057"
       inkscape:connector-curvature="0" />
    <path
       style="fill:#ffffff;stroke-width:0.19608502"
       d="m 37.655595,184.51657 c 0.958667,-0.73128 1.561926,-2.05807 1.41929,-3.12152 -0.123056,-0.91841 -0.597618,-1.62555 -1.50494,-2.24307 l -0.648251,-0.44119 H 20.283471 3.6452316 v 3.23865 3.23864 l 16.6335484,-0.0522 16.633533,-0.0523 z"
       id="path1055"
       inkscape:connector-curvature="0" />
    <path
       style="fill:#273272;fill-opacity:1;stroke-width:0.19608502"
       d="m 52.518407,188.76015 0.05002,-17.99081 h 3.82367 3.823656 l 0.05002,17.99081 0.05002,17.99079 h -3.923748 -3.923749 z"
       id="path1053"
       inkscape:connector-curvature="0" />
    <path
       style="fill:#273272;fill-opacity:1;stroke-width:0.19608502"
       d="m 66.000274,202.83277 v -3.91815 l 20.44185,-0.0525 20.441856,-0.0525 0.74144,-0.46095 c 1.99707,-1.24163 2.00977,-4.32809 0.0226,-5.46741 l -0.76393,-0.43795 -15.588756,-0.006 c -12.76052,-0.006 -15.82916,-0.0576 -16.91375,-0.28741 -4.98995,-1.05741 -8.71569,-6.0424 -8.32942,-11.14461 0.34653,-4.57732 3.54469,-8.48304 8.08574,-9.87466 1.1107,-0.34037 2.34442,-0.36053 22.05955,-0.36053 h 20.883016 l 0.0531,3.87267 0.0533,3.87267 -20.446006,0.003 -20.446,0.003 -0.78434,0.43879 c -2.04431,1.14359 -2.1193,3.89554 -0.1431,5.2502 l 0.70208,0.48124 15.89754,0.11712 15.897486,0.11712 1.5474,0.52799 c 3.79024,1.29328 6.67393,4.48081 7.47038,8.2575 0.15922,0.75492 0.28948,1.72555 0.28948,2.15693 0,1.29328 -0.53943,3.44913 -1.19917,4.79253 -0.82931,1.68867 -3.16629,4.059 -4.8223,4.89109 -2.49153,1.25195 -1.4203,1.19909 -24.308066,1.19909 h -20.84186 z"
       id="path1051"
       inkscape:connector-curvature="0" />
    <path
       style="fill:#273272;fill-opacity:1;stroke-width:0.19608502"
       d="m 135.51239,206.52614 c -3.56433,-0.65778 -6.61383,-2.32524 -9.41844,-5.1499 -3.47977,-3.50467 -5.03647,-7.3546 -5.0418,-12.46903 -0.004,-5.07606 1.46713,-8.78001 4.93434,-12.4128 3.39811,-3.56042 6.58858,-5.17238 11.14442,-5.63063 1.38063,-0.13879 7.7182,-0.19168 18.38216,-0.15319 l 16.27505,0.0588 0.0533,3.87267 0.0531,3.87269 h -17.31647 c -18.77606,0 -18.36535,-0.0217 -20.53914,1.07993 -0.5372,0.27224 -1.59651,1.07961 -2.35397,1.79419 -1.06961,1.009 -1.5592,1.66644 -2.19189,2.94323 -0.77349,1.56096 -0.81909,1.75185 -0.90259,3.77823 -0.0735,1.78331 -0.0197,2.35859 0.3266,3.49897 1.09412,3.6022 4.52609,6.58578 8.16409,7.09747 0.81177,0.11415 8.20264,0.19463 18.08885,0.19693 l 16.71624,0.004 v 3.9217 3.9217 l -17.69667,-0.0218 c -9.86311,-0.0119 -18.13068,-0.10197 -18.67712,-0.20285 z"
       id="path1049"
       inkscape:connector-curvature="0" />
    <path
       style="fill:#f7b217;fill-opacity:1;stroke-width:0.19608502"
       d="m 209.47363,205.62345 c -0.37265,-0.62012 -4.67049,-7.96595 -9.55077,-16.32408 -4.88028,-8.35813 -9.30094,-15.92455 -9.82367,-16.81429 l -0.95043,-1.61769 h 4.47346 4.47348 l 8.09251,14.0691 c 4.45091,7.73801 8.15464,14.13585 8.23056,14.21743 0.0759,0.0815 3.81101,-6.22746 8.3002,-14.02009 l 8.1622,-14.1684 4.45021,-0.0528 4.45023,-0.0529 -0.28546,0.44494 c -0.15701,0.2447 -4.85624,8.3202 -10.44272,17.94553 l -10.15721,17.5006 h -4.37254 -4.37253 z"
       id="path1047"
       inkscape:connector-curvature="0" />
    <path
       style="fill:#f7b217;fill-opacity:1;stroke-width:0.19608502"
       d="m 176.59221,188.80916 v -3.43149 h 7.45124 7.45123 v 3.43149 3.43148 h -7.45123 -7.45124 z"
       id="path1045"
       inkscape:connector-curvature="0" />
    <path
       style="fill:#273272;fill-opacity:1;stroke-width:0.31910086"
       d="M -6.3543506,31.749858 V -72.755666 H 23.494124 c 18.794782,0 30.996025,0.12472 32.947164,0.33713 20.373332,2.216569 34.615968,14.93865 38.204361,34.125783 0.763459,4.082224 0.769122,11.197558 0.01139,15.476391 -2.773228,15.6795873 -12.918433,27.7759759 -27.534443,32.830002 -1.796197,0.621114 -4.811695,1.454159 -6.701125,1.851299 -3.363735,0.706991 -3.935249,0.724159 -27.447617,0.825202 L 8.9615396,12.793318 v 8.723916 8.723901 L 26.603894,51.098842 c 9.703295,11.47173 29.875654,35.324929 44.827459,53.007118 l 27.185265,32.14941 H 46.130777 -6.3551236 Z"
       id="path1043"
       inkscape:connector-curvature="0" />
    <path
       style="fill:#273272;fill-opacity:1;stroke-width:0.31910086"
       d="m 154.67187,135.85653 c 0.13051,-0.21935 1.62781,-2.19383 3.32761,-4.38763 1.69979,-2.19382 20.8604,-28.83076 42.57913,-59.193211 21.71874,-30.362482 39.61517,-55.34089 39.76982,-55.507597 0.16241,-0.174892 0.28124,25.025129 0.28124,59.592058 v 59.89525 h -43.09745 c -34.39168,0 -43.04955,-0.0807 -42.86035,-0.39887 z"
       id="path1041"
       inkscape:connector-curvature="0" />
    <path
       style="fill:#f7b217;fill-opacity:1;stroke-width:0.31910086"
       d="M 97.014742,78.445921 C 80.791236,59.27992 67.479734,43.511909 67.433615,43.405854 67.387395,43.299585 68.608031,43.020739 70.145967,42.785733 77.410039,41.67576 84.831645,39.296266 92.088221,35.750819 117.83746,23.170158 132.54019,-3.8701446 130.81528,-35.47379 129.67915,-56.291307 121.34409,-75.321584 107.61296,-88.448659 97.843751,-97.78807 86.014784,-103.71675 71.748168,-106.4241 l -3.91162,-0.7423 86.396562,-0.0261 86.39656,-0.0261 v 31.511626 31.511617 l -54.1308,75.786029 c -41.37489,57.92711 -54.7717,76.462798 -56.85059,78.657948 -1.49583,1.57955 -2.81347,2.91076 -2.92802,2.9582 -0.11457,0.0473 -13.48201,-15.594953 -29.705518,-34.760973 z"
       id="path1037"
       inkscape:connector-curvature="0" />
  </g>
</svg>
