<?xml version="1.0" encoding="UTF-8" standalone="no"?>
<!-- Created with Inkscape (http://www.inkscape.org/) -->

<svg
   xmlns:dc="http://purl.org/dc/elements/1.1/"
   xmlns:cc="http://creativecommons.org/ns#"
   xmlns:rdf="http://www.w3.org/1999/02/22-rdf-syntax-ns#"
   xmlns:svg="http://www.w3.org/2000/svg"
   xmlns="http://www.w3.org/2000/svg"
   xmlns:sodipodi="http://sodipodi.sourceforge.net/DTD/sodipodi-0.dtd"
   xmlns:inkscape="http://www.inkscape.org/namespaces/inkscape"
   width="120.62257mm"
   height="85.184669mm"
   viewBox="0 0 427.40279 301.83544"
   id="svg2"
   version="1.1"
   inkscape:version="0.91 r13725"
   sodipodi:docname="icebot-1.svg">
  <defs
     id="defs4" />
  <sodipodi:namedview
     id="base"
     pagecolor="#ffffff"
     bordercolor="#666666"
     borderopacity="1.0"
     inkscape:pageopacity="0.0"
     inkscape:pageshadow="2"
     inkscape:zoom="0.7"
     inkscape:cx="247.74186"
     inkscape:cy="130.16038"
     inkscape:document-units="px"
     inkscape:current-layer="layer7"
     showgrid="false"
     inkscape:window-width="1855"
     inkscape:window-height="1056"
     inkscape:window-x="65"
     inkscape:window-y="1048"
     inkscape:window-maximized="1"
     fit-margin-top="0"
     fit-margin-left="0"
     fit-margin-right="0"
     fit-margin-bottom="0" />
  <metadata
     id="metadata7">
    <rdf:RDF>
      <cc:Work
         rdf:about="">
        <dc:format>image/svg+xml</dc:format>
        <dc:type
           rdf:resource="http://purl.org/dc/dcmitype/StillImage" />
        <dc:title></dc:title>
      </cc:Work>
    </rdf:RDF>
  </metadata>
  <g
     inkscape:groupmode="layer"
     id="layer7"
     inkscape:label="back"
     transform="translate(107.96985,-263.47077)" />
  <g
     inkscape:groupmode="layer"
     id="layer4"
     inkscape:label="Capa-1"
     style="display:inline"
     transform="translate(107.96985,-263.47077)">
    <path
       style="display:inline;opacity:1;fill:#333333;fill-opacity:1;stroke:#000000;stroke-width:2;stroke-linecap:square;stroke-linejoin:round;stroke-miterlimit:4;stroke-dasharray:none;stroke-dashoffset:0;stroke-opacity:1"
       d="m -36.769007,439.19521 c -48.776241,-1.95203 -68.919843,-31.76665 -70.126743,-68.34457 -1.50321,-45.55811 19.880064,-94.10798 66.206063,-104.52307 33.9474812,-7.63213 70.142036,7.59227 82.541479,57.85532 5.554695,36.24846 -30.236853,116.94863 -78.620799,115.01232 z"
       id="path4179"
       inkscape:connector-curvature="0"
       sodipodi:nodetypes="ssscs" />
    <path
       style="display:inline;opacity:1;fill:#008000;fill-opacity:1;stroke:#000000;stroke-width:2.69385529;stroke-linecap:square;stroke-linejoin:round;stroke-miterlimit:4;stroke-dasharray:none;stroke-dashoffset:0;stroke-opacity:1"
       d="m 44.469793,337.04043 c 6.318329,45.97888 -24.40474,88.79175 -63.589976,97.73963 -38.946063,8.89327 -72.159606,-9.97759 -78.520567,-55.94835 -6.36096,-45.97075 21.91059,-99.82778 60.992839,-107.33431 39.0822548,-7.50653 72.933809,11.8841 79.337405,57.84666"
       id="path4176"
       inkscape:connector-curvature="0"
       sodipodi:nodetypes="csssc" />
  </g>
  <g
     inkscape:groupmode="layer"
     id="layer5"
     inkscape:label="Capa-1-2"
     style="display:inline"
     transform="translate(107.96985,-263.47077)">
    <path
       style="opacity:1;fill:#333333;fill-opacity:1;stroke:#000000;stroke-width:2;stroke-linecap:square;stroke-linejoin:round;stroke-miterlimit:4;stroke-dasharray:none;stroke-dashoffset:0;stroke-opacity:1"
       d="m 69.180139,315.49998 -22.339629,1.41699 c 0,0 -76.593017,15.94109 -77.656809,18.06657 -1.063792,2.12548 9.928724,69.07806 9.928724,69.07806 l 208.148625,76.16299 57.09017,-122.56928 z"
       id="path4202"
       inkscape:connector-curvature="0" />
    <path
       style="opacity:1;fill:none;fill-opacity:1;stroke:#000000;stroke-width:2;stroke-linecap:square;stroke-linejoin:round;stroke-miterlimit:4;stroke-dasharray:none;stroke-dashoffset:0;stroke-opacity:1"
       d="M -30.107104,334.62929 213.14665,408.66681"
       id="path4204"
       inkscape:connector-curvature="0" />
  </g>
  <g
     inkscape:groupmode="layer"
     id="layer6"
     inkscape:label="Capa-1-3"
     transform="translate(107.96985,-263.47077)">
    <path
       style="opacity:1;fill:#0000ff;fill-opacity:1;stroke:#000000;stroke-width:2;stroke-linecap:square;stroke-linejoin:round;stroke-miterlimit:4;stroke-dasharray:none;stroke-dashoffset:0;stroke-opacity:1"
       d="M 6.0618227,360.84353 6.771017,414.68899 143.64558,464.2835 122.77842,494.19063 -27.270326,430.63008 -31.525494,350.21613 Z"
       id="path4237"
       inkscape:connector-curvature="0"
       sodipodi:nodetypes="ccccccc" />
    <path
       style="opacity:1;fill:#0000ff;fill-opacity:1;stroke:#000000;stroke-width:2;stroke-linecap:square;stroke-linejoin:round;stroke-miterlimit:4;stroke-dasharray:none;stroke-dashoffset:0;stroke-opacity:1"
       d="m 133.00766,393.43421 -3.19138,112.8275 25.88561,-21.43192 0.53189,-103.08572 z"
       id="path4235"
       inkscape:connector-curvature="0"
       sodipodi:nodetypes="ccccc" />
    <path
       style="opacity:1;fill:#0000ff;fill-opacity:1;stroke:#000000;stroke-width:2;stroke-linecap:square;stroke-linejoin:round;stroke-miterlimit:4;stroke-dasharray:none;stroke-dashoffset:0;stroke-opacity:1"
       d="m -35.603362,342.95409 34.0413393,-6.37644 158.1504027,45.16642 -23.58072,13.46137 z"
       id="path4233"
       inkscape:connector-curvature="0"
       sodipodi:nodetypes="ccccc" />
    <path
       style="opacity:1;fill:#0000ff;fill-opacity:1;stroke:#000000;stroke-width:2;stroke-linecap:square;stroke-linejoin:round;stroke-miterlimit:4;stroke-dasharray:none;stroke-dashoffset:0;stroke-opacity:1"
       d="m -36.062261,342.61089 4.512528,91.67913 161.976863,71.89072 2.75851,-111.7184 z m 6.518634,12.27367 153.702287,48.34496 -2.44618,85.44204 -146.241325,-59.89215 z"
       id="path4207-3"
       inkscape:connector-curvature="0"
       sodipodi:nodetypes="cccccccccc" />
    <path
       style="opacity:1;fill:#0000ff;fill-opacity:1;stroke:#000000;stroke-width:1.86639261;stroke-linecap:square;stroke-linejoin:round;stroke-miterlimit:4;stroke-dasharray:none;stroke-dashoffset:0;stroke-opacity:1"
       d="M -24.122981,429.61133 6.5175965,414.68799"
       id="path4239"
       inkscape:connector-curvature="0"
       sodipodi:nodetypes="cc" />
    <path
       style="opacity:1;fill:#0000ff;fill-opacity:1;stroke:#000000;stroke-width:2;stroke-linecap:square;stroke-linejoin:round;stroke-miterlimit:4;stroke-dasharray:none;stroke-dashoffset:0;stroke-opacity:1"
       d="m 84.073224,315.49998 28.367796,-7.43917 144.3211,31.88218 -19.50285,16.64959 -157.08661,-38.25862 z"
       id="path4241"
       inkscape:connector-curvature="0" />
  </g>
  <g
     inkscape:groupmode="layer"
     id="layer2"
     inkscape:label="Capa 2"
     style="display:inline"
     transform="translate(107.96985,-263.47077)">
    <path
       style="opacity:1;fill:#008000;fill-opacity:1;stroke:#000000;stroke-width:2;stroke-linecap:square;stroke-linejoin:round;stroke-miterlimit:4;stroke-dasharray:none;stroke-dashoffset:0;stroke-opacity:1"
       d="m 298.25,326.3045 -26.2402,-4.78233 c 0,0 -3.76918,-1.11471 -12.51323,2.15956 -8.74406,3.27426 -19.97505,10.80779 -35.8893,37.36932 -26.46675,44.17406 -43.80963,92.33707 -42.78148,148.88705 1.04925,57.70984 44.00455,50.72424 44.00455,50.72424 z"
       id="path4172"
       inkscape:connector-curvature="0"
       sodipodi:nodetypes="cczsscc" />
    <path
       style="opacity:1;fill:#008000;fill-opacity:1;stroke:#000000;stroke-width:2.00650334;stroke-linecap:square;stroke-linejoin:round;stroke-miterlimit:4;stroke-dasharray:none;stroke-dashoffset:0;stroke-opacity:1"
       id="path4167"
       sodipodi:type="arc"
       sodipodi:cx="391.90192"
       sodipodi:cy="296.32559"
       sodipodi:rx="43.587448"
       sodipodi:ry="123.48637"
       sodipodi:start="6.1229466"
       sodipodi:end="6.120765"
       sodipodi:open="true"
       d="M 434.93098,276.62287 A 43.587448,123.48637 0 0 1 398.87993,418.21924 43.587448,123.48637 0 0 1 348.88047,316.16128 43.587448,123.48637 0 0 1 384.87698,174.45358 43.587448,123.48637 0 0 1 434.9157,276.35697"
       transform="matrix(0.90807988,0.418797,-0.31294415,0.94977153,0,0)" />
  </g>
  <g
     inkscape:groupmode="layer"
     id="layer3"
     inkscape:label="Capa 3"
     style="display:inline"
     transform="translate(107.96985,-263.47077)">
    <path
       style="opacity:1;fill:#225500;fill-opacity:1;stroke:#000000;stroke-width:2.06348133;stroke-linecap:square;stroke-linejoin:round;stroke-miterlimit:4;stroke-dasharray:none;stroke-dashoffset:0;stroke-opacity:1"
       id="path4170"
       sodipodi:type="arc"
       sodipodi:cx="438.91068"
       sodipodi:cy="169.13257"
       sodipodi:rx="6.7658205"
       sodipodi:ry="21.220976"
       sodipodi:start="6.1229466"
       sodipodi:end="6.120765"
       sodipodi:open="true"
       d="m 445.58982,165.74668 a 6.7658205,21.220976 0 0 1 -5.59599,24.33316 6.7658205,21.220976 0 0 1 -7.76112,-17.53853 6.7658205,21.220976 0 0 1 5.58753,-24.35229 6.7658205,21.220976 0 0 1 7.76721,17.51197"
       transform="matrix(0.75186634,0.65931556,-0.36165277,0.93231286,0,0)" />
    <path
       style="opacity:1;fill:#333333;fill-opacity:1;stroke:#000000;stroke-width:2;stroke-linecap:square;stroke-linejoin:round;stroke-miterlimit:4;stroke-dasharray:none;stroke-dashoffset:0;stroke-opacity:1"
       d="m 222.54348,561.16991 c 0,0 -7.26925,4.1624 -12.9428,1.15131 -5.67356,-3.0111 -14.61715,-10.69079 -20.03475,-35.86746 -4.80227,-22.31708 2.48218,-68.90093 11.87901,-96.70929 9.39683,-27.80835 29.39239,-72.38365 50.08902,-93.39599 15.42039,-15.65563 24.07086,-17.03333 31.09153,-17.28382 6.76562,-0.24139 15.29503,6.76323 15.29503,6.76323 0,0 -13.46538,-2.78085 -29.58711,12.77499 -11.58941,11.18263 -34.44864,41.49499 -53.9087,108.72529 -12.37365,42.74825 -12.57993,82.11777 -5.30852,100.40355 6.27097,15.76993 13.42729,13.43819 13.42729,13.43819 z"
       id="path4174"
       inkscape:connector-curvature="0"
       sodipodi:nodetypes="cssssscsssc" />
  </g>
</svg>
