<?xml version="1.0" encoding="UTF-8" standalone="no"?>
<svg
   xmlns:dc="http://purl.org/dc/elements/1.1/"
   xmlns:cc="http://creativecommons.org/ns#"
   xmlns:rdf="http://www.w3.org/1999/02/22-rdf-syntax-ns#"
   xmlns:svg="http://www.w3.org/2000/svg"
   xmlns="http://www.w3.org/2000/svg"
   xmlns:sodipodi="http://sodipodi.sourceforge.net/DTD/sodipodi-0.dtd"
   xmlns:inkscape="http://www.inkscape.org/namespaces/inkscape"
   height="236.40671"
   width="243.806"
   viewBox="0 0 101.58583 98.502795"
   id="svg2"
   version="1.1"
   inkscape:version="0.92.2 (5c3e80d, 2017-08-06)"
   sodipodi:docname="Robot-face-heart.svg">
  <metadata
     id="metadata30">
    <rdf:RDF>
      <cc:Work
         rdf:about="">
        <dc:format>image/svg+xml</dc:format>
        <dc:type
           rdf:resource="http://purl.org/dc/dcmitype/StillImage" />
        <dc:title></dc:title>
      </cc:Work>
    </rdf:RDF>
  </metadata>
  <defs
     id="defs28" />
  <sodipodi:namedview
     pagecolor="#ffffff"
     bordercolor="#666666"
     borderopacity="1"
     objecttolerance="10"
     gridtolerance="10"
     guidetolerance="10"
     inkscape:pageopacity="0"
     inkscape:pageshadow="2"
     inkscape:window-width="1920"
     inkscape:window-height="1017"
     id="namedview26"
     showgrid="false"
     fit-margin-top="0"
     fit-margin-left="0"
     fit-margin-right="0"
     fit-margin-bottom="0"
     inkscape:zoom="1.7383042"
     inkscape:cx="-64.120194"
     inkscape:cy="137.76163"
     inkscape:window-x="-8"
     inkscape:window-y="-8"
     inkscape:window-maximized="1"
     inkscape:current-layer="layer1" />
  <g
     inkscape:groupmode="layer"
     id="layer1"
     inkscape:label="Layer 1">
    <path
       d="M 78.167882,97.581208 C 77.431061,96.313557 76.288842,95.072364 74.124398,93.187791 72.9519,92.167033 72.238635,91.600148 68.17778,88.463137 64.99504,86.003779 63.407031,84.639422 61.566691,82.782399 59.727475,80.925382 58.646372,79.446289 57.718913,77.517844 57.126776,76.286202 56.71968,75.099556 56.466226,73.866793 56.144924,72.300529 56.10117,71.770192 56.102888,69.463821 c 0.0022,-3.026238 0.102066,-3.529576 1.095681,-5.548563 0.738488,-1.499339 1.299227,-2.288941 2.467246,-3.475026 1.134365,-1.151215 1.870615,-1.674244 3.463109,-2.461589 1.769129,-0.875085 3.048727,-1.104539 5.684754,-1.019619 2.04837,0.06636 2.798078,0.269938 4.421973,1.204643 2.55583,1.47066 4.539163,3.831582 5.08812,6.056967 0.08965,0.363885 0.182314,0.661937 0.205888,0.661937 0.02459,0 0.230594,-0.425733 0.459823,-0.945943 0.780525,-1.768727 1.505578,-2.847957 2.657306,-3.95812 3.526478,-3.400223 9.086185,-4.01492 13.581628,-1.502711 1.835851,1.025805 3.329647,2.519517 4.48703,4.486764 0.911184,1.548269 1.377154,3.604937 1.456774,6.429834 0.11486,4.092533 -0.63363,6.928678 -2.625928,9.950977 -0.790631,1.199583 -1.375478,1.926193 -2.472296,3.071225 -1.769696,1.848583 -3.365533,3.207313 -7.133113,6.072723 -2.377552,1.808078 -3.786672,2.970556 -5.826073,4.808438 -1.634554,1.472353 -4.166843,4.035731 -4.410746,4.464293 -0.10667,0.18727 -0.202882,0.340232 -0.214123,0.340232 -0.01093,0 -0.155734,-0.233326 -0.321849,-0.519067 z"
       id="path8"
       inkscape:connector-curvature="0"
       style="fill:#ff0000;stroke:#000000;stroke-width:0.80502319;stroke-miterlimit:4;stroke-dasharray:none"
       inkscape:export-filename="/home/obijuan/develop/FPGAwars/Icestudio-block-icons/Hearts/png/Heart_1Hz.png"
       inkscape:export-xdpi="90"
       inkscape:export-ydpi="90" />
  </g>
  <g
     inkscape:groupmode="layer"
     id="layer2"
     inkscape:label="Layer 2">
    <g
       id="g4"
       transform="matrix(4.2895191,0,0,4.2895191,-6.8632299,-0.15439222)"
       style="fill:#aaaabb;stroke:#111111;stroke-width:0.69999999;stroke-linejoin:round">
      <rect
         transform="matrix(-0.9023,-0.4311,-0.4311,0.9023,0,0)"
         height="3.8"
         width="1.5"
         y="-6.4000001"
         x="-15.8"
         id="rect6" />
      <rect
         transform="matrix(0.9023,-0.4311,0.4311,0.9023,0,0)"
         height="3.8"
         width="1.5"
         y="2.0999999"
         x="2"
         id="rect8" />
      <rect
         height="16"
         width="15.8"
         y="2.7"
         x="2.0999999"
         id="rect10"
         style="stroke-width:1" />
      <g
         id="g12"
         style="fill:#ff8877">
        <ellipse
           rx="2.7"
           ry="2.5"
           cy="7.5"
           cx="6.5999999"
           id="ellipse14" />
        <ellipse
           rx="2.7"
           ry="2.5"
           cy="7.5"
           cx="13.5"
           id="ellipse16" />
        <circle
           r="0.5"
           cy="7.3000002"
           cx="6.6999998"
           id="circle18" />
        <circle
           r="0.5"
           cy="7.3000002"
           cx="13.7"
           id="circle20" />
      </g>
      <rect
         height="4.3000002"
         width="11.4"
         y="12.4"
         x="4.4000001"
         id="rect22"
         style="fill:#eeeeee" />
      <path
         d="m 6.503,12.32 v 4.26 m 6.757,-4.26 v 4.26 M 8.713,12.32 v 4.26 m 2.277,-4.26 v 4.26 M 4.419,14.36 h 11.24"
         id="path24"
         inkscape:connector-curvature="0"
         style="fill:none" />
    </g>
  </g>
</svg>
