<?xml version="1.0" encoding="UTF-8" standalone="no"?>
<!-- Created with Inkscape (http://www.inkscape.org/) -->

<svg
   xmlns:dc="http://purl.org/dc/elements/1.1/"
   xmlns:cc="http://creativecommons.org/ns#"
   xmlns:rdf="http://www.w3.org/1999/02/22-rdf-syntax-ns#"
   xmlns:svg="http://www.w3.org/2000/svg"
   xmlns="http://www.w3.org/2000/svg"
   xmlns:sodipodi="http://sodipodi.sourceforge.net/DTD/sodipodi-0.dtd"
   xmlns:inkscape="http://www.inkscape.org/namespaces/inkscape"
   width="212.00739mm"
   height="228.05087mm"
   viewBox="0 0 212.00739 228.05087"
   version="1.1"
   id="svg8"
   inkscape:version="0.92.3 (2405546, 2018-03-11)"
   sodipodi:docname="gato.svg">
  <defs
     id="defs2" />
  <sodipodi:namedview
     id="base"
     pagecolor="#ffffff"
     bordercolor="#666666"
     borderopacity="1.0"
     inkscape:pageopacity="0.0"
     inkscape:pageshadow="2"
     inkscape:zoom="0.44344391"
     inkscape:cx="230.09985"
     inkscape:cy="425.1937"
     inkscape:document-units="mm"
     inkscape:current-layer="layer3"
     showgrid="false"
     inkscape:window-width="1366"
     inkscape:window-height="745"
     inkscape:window-x="-8"
     inkscape:window-y="-8"
     inkscape:window-maximized="1"
     fit-margin-top="0"
     fit-margin-left="0"
     fit-margin-right="0"
     fit-margin-bottom="0" />
  <metadata
     id="metadata5">
    <rdf:RDF>
      <cc:Work
         rdf:about="">
        <dc:format>image/svg+xml</dc:format>
        <dc:type
           rdf:resource="http://purl.org/dc/dcmitype/StillImage" />
        <dc:title></dc:title>
      </cc:Work>
    </rdf:RDF>
  </metadata>
  <g
     inkscape:label="Capa 1"
     inkscape:groupmode="layer"
     id="layer1"
     style="display:inline"
     transform="translate(-5.2909286,-29.398264)" />
  <g
     inkscape:groupmode="layer"
     id="layer2"
     inkscape:label="Capa 2"
     transform="translate(-5.2909286,-29.398264)" />
  <g
     inkscape:groupmode="layer"
     id="layer3"
     inkscape:label="Capa 3"
     transform="translate(-5.2909286,-29.398264)">
    <g
       id="g1412">
      <path
         d="m 94.116127,189.65486 a 39.6875,26.080357 0 0 1 -39.330257,26.0793 39.6875,26.080357 0 0 1 -40.038312,-25.6098 39.6875,26.080357 0 0 1 38.609455,-26.54035 39.6875,26.080357 0 0 1 40.733391,25.132"
         sodipodi:open="true"
         sodipodi:end="6.2471792"
         sodipodi:start="0"
         sodipodi:ry="26.080357"
         sodipodi:rx="39.6875"
         sodipodi:cy="189.65486"
         sodipodi:cx="54.428627"
         sodipodi:type="arc"
         id="path1023-4"
         style="display:inline;opacity:1;fill:#0000ff;fill-opacity:0.91414143;fill-rule:evenodd;stroke:#4d2a31;stroke-width:1.5;stroke-miterlimit:4;stroke-dasharray:none;stroke-opacity:0.969697" />
      <g
         transform="matrix(0.98483859,0,-0.52411347,0.90779118,58.818201,9.5807842)"
         id="g8669"
         style="display:inline">
        <g
           id="g1028"
           transform="matrix(1.126107,0,0,1.1894049,-16.268284,-22.563444)">
          <path
             sodipodi:nodetypes="ccccccc"
             inkscape:connector-curvature="0"
             id="path989"
             d="M 34.017111,37.719703 33.26552,137.7935 c 30.617156,61.14805 102.79178,60.05207 130.77691,0.78799 L 164.79402,37.719704 130.9724,81.058749 C 97.115314,60.684289 101.06834,64.630012 71.596681,79.482785 Z"
             style="fill:#ff0000;fill-rule:evenodd;stroke:#000000;stroke-width:0.26935017px;stroke-linecap:butt;stroke-linejoin:miter;stroke-opacity:1" />
          <path
             d="M 79.86419,111.00209 A 12.777055,13.395705 0 0 1 67.202147,124.39725 12.777055,13.395705 0 0 1 54.312151,111.24324 12.777055,13.395705 0 0 1 66.742138,97.611269 12.777055,13.395705 0 0 1 79.855909,110.51987"
             sodipodi:open="true"
             sodipodi:end="6.2471792"
             sodipodi:start="0"
             sodipodi:ry="13.395705"
             sodipodi:rx="12.777055"
             sodipodi:cy="111.00209"
             sodipodi:cx="67.087135"
             sodipodi:type="arc"
             id="path991"
             style="opacity:1;fill:#ffffff;fill-opacity:0.91414143;fill-rule:evenodd;stroke:#26260a;stroke-width:1.52702475;stroke-miterlimit:4;stroke-dasharray:none;stroke-opacity:1" />
          <path
             d="m 142.24631,112.57809 a 12.777055,13.395705 0 0 1 -12.66205,13.39516 12.777055,13.395705 0 0 1 -12.88999,-13.15401 12.777055,13.395705 0 0 1 12.42999,-13.631974 12.777055,13.395705 0 0 1 13.11377,12.908594"
             sodipodi:open="true"
             sodipodi:end="6.2471792"
             sodipodi:start="0"
             sodipodi:ry="13.395705"
             sodipodi:rx="12.777055"
             sodipodi:cy="112.57809"
             sodipodi:cx="129.46925"
             sodipodi:type="arc"
             id="path991-8"
             style="display:inline;opacity:1;fill:#ffffff;fill-opacity:0.91414143;fill-rule:evenodd;stroke:#26260a;stroke-width:1.52702475;stroke-miterlimit:4;stroke-dasharray:none;stroke-opacity:1" />
        </g>
      </g>
      <rect
         transform="matrix(0.96592583,-0.25881905,0.70710679,0.70710679,0,0)"
         y="223.51152"
         x="-122.66426"
         height="53.246819"
         width="143.63095"
         id="rect8671"
         style="display:inline;opacity:1;fill:#808000;fill-opacity:0.91414143;fill-rule:evenodd;stroke:#4d2a31;stroke-width:1.61185491;stroke-miterlimit:4;stroke-dasharray:none;stroke-opacity:0.9626168" />
      <path
         d="m 160.26191,227.0744 a 39.6875,26.080357 0 0 1 -39.33026,26.0793 39.6875,26.080357 0 0 1 -40.038309,-25.6098 39.6875,26.080357 0 0 1 38.609459,-26.54035 39.6875,26.080357 0 0 1 40.73339,25.132"
         sodipodi:open="true"
         sodipodi:end="6.2471792"
         sodipodi:start="0"
         sodipodi:ry="26.080357"
         sodipodi:rx="39.6875"
         sodipodi:cy="227.0744"
         sodipodi:cx="120.57441"
         sodipodi:type="arc"
         id="path1023"
         style="display:inline;opacity:1;fill:#0000ff;fill-opacity:0.91414143;fill-rule:evenodd;stroke:#4d2a31;stroke-width:1.5;stroke-miterlimit:4;stroke-dasharray:none;stroke-opacity:1" />
      <path
         sodipodi:nodetypes="cc"
         inkscape:connector-curvature="0"
         id="path8703"
         d="m 144.87046,256.22979 c 24.13453,-5.44611 33.95135,-26.68592 27.28647,-40.98229"
         style="fill:none;fill-rule:evenodd;stroke:#000000;stroke-width:2.5;stroke-linecap:butt;stroke-linejoin:miter;stroke-miterlimit:4;stroke-dasharray:none;stroke-opacity:1" />
      <path
         sodipodi:nodetypes="cc"
         inkscape:connector-curvature="0"
         id="path8703-9"
         d="m 169.94982,252.29201 c 13.78007,-13.05882 14.99936,-20.05804 11.74552,-35.44441"
         style="fill:none;fill-rule:evenodd;stroke:#000000;stroke-width:2.5;stroke-linecap:butt;stroke-linejoin:miter;stroke-miterlimit:4;stroke-dasharray:none;stroke-opacity:1" />
      <path
         sodipodi:nodetypes="cc"
         inkscape:connector-curvature="0"
         id="path8703-9-3"
         d="m 183.11772,247.88 c 9.86051,-13.32427 10.229,-19.66826 6.96361,-29.96092"
         style="fill:none;fill-rule:evenodd;stroke:#000000;stroke-width:2.5;stroke-linecap:butt;stroke-linejoin:miter;stroke-miterlimit:4;stroke-dasharray:none;stroke-opacity:1" />
      <path
         sodipodi:nodetypes="cc"
         inkscape:connector-curvature="0"
         id="path8703-3"
         d="m 10.321415,199.99345 c 5.556528,19.57097 35.650461,22.95895 46.959395,23.40034"
         style="fill:none;fill-rule:evenodd;stroke:#000000;stroke-width:2.5;stroke-linecap:butt;stroke-linejoin:miter;stroke-miterlimit:4;stroke-dasharray:none;stroke-opacity:1" />
      <path
         sodipodi:nodetypes="cc"
         inkscape:connector-curvature="0"
         id="path8703-9-3-1"
         d="m 195.8782,236.6996 c 3.53202,-8.26148 3.47861,-8.69888 0.21322,-18.99154"
         style="fill:none;fill-rule:evenodd;stroke:#000000;stroke-width:2.5;stroke-linecap:butt;stroke-linejoin:miter;stroke-miterlimit:4;stroke-dasharray:none;stroke-opacity:1" />
    </g>
  </g>
</svg>
