<?xml version="1.0" encoding="UTF-8" standalone="no"?>
<!-- Generator: Adobe Illustrator 16.0.0, SVG Export Plug-In . SVG Version: 6.00 Build 0)  -->

<svg
   xmlns:dc="http://purl.org/dc/elements/1.1/"
   xmlns:cc="http://creativecommons.org/ns#"
   xmlns:rdf="http://www.w3.org/1999/02/22-rdf-syntax-ns#"
   xmlns:svg="http://www.w3.org/2000/svg"
   xmlns="http://www.w3.org/2000/svg"
   xmlns:sodipodi="http://sodipodi.sourceforge.net/DTD/sodipodi-0.dtd"
   xmlns:inkscape="http://www.inkscape.org/namespaces/inkscape"
   version="1.1"
   id="Capa_1"
   x="0px"
   y="0px"
   width="472.11197"
   height="435.15091"
   viewBox="0 0 519.32316 478.66599"
   xml:space="preserve"
   sodipodi:docname="PuertaAlarma.svg"
   inkscape:version="0.92.3 (2405546, 2018-03-11)"><metadata
   id="metadata41"><rdf:RDF><cc:Work
       rdf:about=""><dc:format>image/svg+xml</dc:format><dc:type
         rdf:resource="http://purl.org/dc/dcmitype/StillImage" /><dc:title></dc:title></cc:Work></rdf:RDF></metadata><defs
   id="defs39" /><sodipodi:namedview
   pagecolor="#ffffff"
   bordercolor="#666666"
   borderopacity="1"
   objecttolerance="10"
   gridtolerance="10"
   guidetolerance="10"
   inkscape:pageopacity="0"
   inkscape:pageshadow="2"
   inkscape:window-width="2560"
   inkscape:window-height="1411"
   id="namedview37"
   showgrid="false"
   showborder="true"
   scale-x="1.1"
   fit-margin-top="0"
   fit-margin-left="0"
   fit-margin-right="0"
   fit-margin-bottom="0"
   inkscape:zoom="0.98607383"
   inkscape:cx="94.780213"
   inkscape:cy="342.24043"
   inkscape:window-x="-9"
   inkscape:window-y="-9"
   inkscape:window-maximized="1"
   inkscape:current-layer="Capa_1" />

<g
   id="g6"
   transform="translate(-20.238384,-17.241916)">
</g>
<g
   id="g8"
   transform="translate(-20.238384,-17.241916)">
</g>
<g
   id="g10"
   transform="translate(-20.238384,-17.241916)">
</g>
<g
   id="g12"
   transform="translate(-20.238384,-17.241916)">
</g>
<g
   id="g14"
   transform="translate(-20.238384,-17.241916)">
</g>
<g
   id="g16"
   transform="translate(-20.238384,-17.241916)">
</g>
<g
   id="g18"
   transform="translate(-20.238384,-17.241916)">
</g>
<g
   id="g20"
   transform="translate(-20.238384,-17.241916)">
</g>
<g
   id="g22"
   transform="translate(-20.238384,-17.241916)">
</g>
<g
   id="g24"
   transform="translate(-20.238384,-17.241916)">
</g>
<g
   id="g26"
   transform="translate(-20.238384,-17.241916)">
</g>
<g
   id="g28"
   transform="translate(-20.238384,-17.241916)">
</g>
<g
   id="g30"
   transform="translate(-20.238384,-17.241916)">
</g>
<g
   id="g32"
   transform="translate(-20.238384,-17.241916)">
</g>
<g
   id="g34"
   transform="translate(-20.238384,-17.241916)">
</g>
<g
   id="g13944"
   transform="translate(-20.238384,-97.541003)"><g
     transform="translate(-51.314616,97.541003)"
     id="g4">
	<path
   inkscape:connector-curvature="0"
   id="path2"
   d="m 71.553,0 v 478.085 l 335.561,0.581 V 0 Z m 31.556,446.583 V 31.558 H 375.554 V 88.371 H 364.773 V 42.086 H 113.893 V 436.554 H 364.774 V 390.27 h 10.781 v 56.785 z M 364.773,137.459 h 10.781 V 341.18 H 364.773 Z M 165.787,239.32 c 0,9.148 -7.418,16.566 -16.568,16.566 -9.15,0 -16.568,-7.418 -16.568,-16.566 0,-9.15 7.418,-16.568 16.568,-16.568 9.15,0 16.568,7.418 16.568,16.568 z" />
</g><g
     id="g4831"
     transform="matrix(0.16988212,0,0,0.16988212,384.06843,97.541003)"><path
       id="path4825"
       d="m 518.299,734 c -47.799,20.2 -98.599,30.5 -151,30.5 -52.3,0 -103.3,-10.3 -151.1,-30.5 -21.3,-9 -41,-19.9 -61,-32.4 v 198.5 c 0,11 9.3,19.8 20.4,19.8 h 383.5 c 11,0 20.1,-8.699 20.1,-19.8 V 874 c 93,-4.7 175.701,-60.9 214.201,-146 l 20.199,-44.8 c -25.699,-2.2 -49.5,-13 -68.301,-30.9 L 725.1,697.1 c -26.4,58.2 -82.9,97.101 -145.9,101.7 v -97.2 c -19,12.5 -39.5,23.4 -60.901,32.4 z"
       inkscape:connector-curvature="0" /><path
       id="path4827"
       d="m 204.5,686.8 c 49,25 104.3,38.5 162.9,38.5 58.6,0 113.899,-13.5 162.799,-38.5 118.5,-60 199.9,-182.4 199.9,-324.1 C 730.1,162.4 567.7,0 367.4,0 167.1,0 4.6,162.3 4.6,362.6 4.6,504.399 85.9,626.8 204.5,686.8 Z M 367.4,256 c 58.899,0 106.7,47.8 106.7,106.7 0,58.899 -47.8,106.699 -106.7,106.699 -58.9,0 -106.7,-47.8 -106.7,-106.699 C 260.601,303.8 308.4,256 367.4,256 Z"
       inkscape:connector-curvature="0" /><path
       id="path4829"
       d="m 759.401,619.7 c 16.299,18.9 40.398,30.9 67.299,30.9 0.4,0 0.701,0 1,0 48.5,-0.6 87.6,-40 87.6,-88.7 0,-49 -39.699,-88.699 -88.699,-88.699 -49,0 -88.699,39.699 -88.699,88.699 0.098,22.1 8.198,42.3 21.499,57.8 z"
       inkscape:connector-curvature="0" /></g></g></svg>