<svg id="Capa_1" data-name="Capa 1" xmlns="http://www.w3.org/2000/svg" viewBox="0 0 206.405 168.542">
  <defs>
    <style>
      .cls-1 {
        fill: #222748;
      }
    </style>
  </defs>
  <title>673b0a0b-8018-40c9-b093-454e525cea09</title>
  <g id="Gear_icon" data-name="Gear icon">
    <path class="cls-1" d="M128.519,97.227a4.831,4.831,0,0,0-4.3-4.783l-10.959-1.2a50.333,50.333,0,0,0-4.693-11.616l6.925-9.222a4.831,4.831,0,0,0-.461-6.33L104.737,53.867a4.831,4.831,0,0,0-6.425-.339l-8.6,6.9a50.357,50.357,0,0,0-11.53-4.905l-1.624-11.41a4.831,4.831,0,0,0-4.8-4.15l-14.493.058a4.831,4.831,0,0,0-4.783,4.3l-1.2,10.959a50.332,50.332,0,0,0-11.616,4.693l-9.222-6.925a4.831,4.831,0,0,0-6.33.461L13.9,63.8a4.831,4.831,0,0,0-.339,6.425l6.9,8.6a50.357,50.357,0,0,0-4.905,11.53L4.15,91.985A4.831,4.831,0,0,0,0,96.787L.058,111.28a4.831,4.831,0,0,0,4.3,4.783l10.959,1.2a50.332,50.332,0,0,0,4.693,11.616L13.089,138.1a4.831,4.831,0,0,0,.461,6.33L23.839,154.64a4.831,4.831,0,0,0,6.425.339l8.6-6.9a50.356,50.356,0,0,0,11.53,4.905l1.624,11.41a4.831,4.831,0,0,0,4.8,4.15l14.493-.058a4.831,4.831,0,0,0,4.783-4.3l1.2-10.959a50.332,50.332,0,0,0,11.616-4.693l9.222,6.925a4.831,4.831,0,0,0,6.33-.461L114.675,144.7a4.831,4.831,0,0,0,.339-6.425l-6.9-8.6a50.359,50.359,0,0,0,4.905-11.53l11.41-1.624a4.831,4.831,0,0,0,4.15-4.8Zm-64.23,39.012a31.985,31.985,0,1,1,31.985-31.985A31.985,31.985,0,0,1,64.288,136.238Z" transform="translate(0 0)"/>
    <path class="cls-1" d="M206.362,42.964a3.624,3.624,0,0,0-3.229-3.588l-8.223-.9a37.766,37.766,0,0,0-3.521-8.715l5.2-6.92a3.624,3.624,0,0,0-.346-4.749l-7.72-7.659a3.625,3.625,0,0,0-4.821-.254l-6.454,5.178a37.784,37.784,0,0,0-8.651-3.68l-1.218-8.561A3.624,3.624,0,0,0,163.771,0L152.9.043a3.624,3.624,0,0,0-3.588,3.229l-.9,8.223a37.765,37.765,0,0,0-8.715,3.521l-6.92-5.2a3.624,3.624,0,0,0-4.749.346l-7.659,7.72a3.624,3.624,0,0,0-.254,4.821l5.178,6.454a37.784,37.784,0,0,0-3.68,8.651l-8.561,1.218a3.625,3.625,0,0,0-3.114,3.6l.043,10.874A3.624,3.624,0,0,0,113.2,57.1l8.223.9a37.765,37.765,0,0,0,3.521,8.715l-5.2,6.92a3.624,3.624,0,0,0,.346,4.749l7.72,7.659a3.624,3.624,0,0,0,4.821.254l6.454-5.178a37.783,37.783,0,0,0,8.651,3.68l1.218,8.561a3.624,3.624,0,0,0,3.6,3.114l10.874-.043a3.624,3.624,0,0,0,3.588-3.229l.9-8.223a37.765,37.765,0,0,0,8.715-3.521l6.92,5.2a3.625,3.625,0,0,0,4.749-.346l7.659-7.72a3.624,3.624,0,0,0,.254-4.821l-5.178-6.454a37.785,37.785,0,0,0,3.68-8.651l8.561-1.218a3.625,3.625,0,0,0,3.114-3.6ZM158.168,72.236a24,24,0,1,1,24-24A24,24,0,0,1,158.168,72.236Z" transform="translate(0 0)"/>
    <circle class="cls-1" cx="64.288" cy="104.254" r="20.078"/>
    <circle class="cls-1" cx="158.168" cy="48.237" r="13.486"/>
  </g>
</svg>
