<?xml version="1.0" encoding="iso-8859-1"?>
<!-- Generator: Adobe Illustrator 16.0.0, SVG Export Plug-In . SVG Version: 6.00 Build 0)  -->
<!DOCTYPE svg PUBLIC "-//W3C//DTD SVG 1.1//EN" "http://www.w3.org/Graphics/SVG/1.1/DTD/svg11.dtd">
<svg version="1.1" id="Capa_1" xmlns="http://www.w3.org/2000/svg" xmlns:xlink="http://www.w3.org/1999/xlink" x="0px" y="0px"
	 width="921px" height="921px" viewBox="0 0 921 921" style="enable-background:new 0 0 921 921;" xml:space="preserve">
<g>
	<path d="M253.9,872.395l97.3-50.101c6.7-3.399,10.8-10.3,10.8-17.8v-148c-26.8-5.399-123.5-24.6-130-26.5v229.101
		C232,870.294,243.9,877.595,253.9,872.395z"/>
	<path d="M106.2,514.195C106.2,514.294,106.2,514.294,106.2,514.195C106.3,514.294,106.2,514.294,106.2,514.195z"/>
	<path d="M106.2,514.395l28.8-0.2c21.2,34,53.6,60.7,97,75.5c8,2.7,16.4,5,25.2,6.9c1.8,0.399,69.899,13.399,104.8,20.399
		c149.3,29.9,323.8,71.7,423.8,148.4c3.8,2.899,8,4.2,12.2,4.2c10.4,0,20.1-8.101,20.1-20V540.294v-132.1v-108.6v-232.7
		c0-11.9-9.699-20-20.1-20c-4.1,0-8.4,1.3-12.2,4.2c-123.399,94.7-360.3,136.1-523.3,167.6c-1.8,0.3-3.6,0.8-5.3,1.1
		c-56.4,11.9-97.2,42.4-122.3,82.4l-28.9-0.1c-58.6,0.1-106,47.1-106,106.1h0.1C0.1,467.195,47.7,514.294,106.2,514.395z"/>
	<path d="M857,298.295v97.9v12v12.2v97.8c38.2-21.6,64-62.6,64-109.6l0,0c0-0.101,0-0.301,0-0.301c0-0.1,0-0.199,0-0.3l0,0
		C921,360.895,895.2,319.895,857,298.295z"/>
</g>
<g>
</g>
<g>
</g>
<g>
</g>
<g>
</g>
<g>
</g>
<g>
</g>
<g>
</g>
<g>
</g>
<g>
</g>
<g>
</g>
<g>
</g>
<g>
</g>
<g>
</g>
<g>
</g>
<g>
</g>
</svg>
