<?xml version="1.0" encoding="iso-8859-1"?>
<!-- Generator: Adobe Illustrator 16.0.0, SVG Export Plug-In . SVG Version: 6.00 Build 0)  -->
<!DOCTYPE svg PUBLIC "-//W3C//DTD SVG 1.1//EN" "http://www.w3.org/Graphics/SVG/1.1/DTD/svg11.dtd">
<svg version="1.1" id="Capa_1" xmlns="http://www.w3.org/2000/svg" xmlns:xlink="http://www.w3.org/1999/xlink" x="0px" y="0px"
	 width="919.899px" height="919.899px" viewBox="0 0 919.899 919.899" style="enable-background:new 0 0 919.899 919.899;"
	 xml:space="preserve">
<g>
	<path d="M518.299,734c-47.799,20.2-98.599,30.5-151,30.5c-52.3,0-103.3-10.3-151.1-30.5c-21.3-9-41-19.9-61-32.4v198.5
		c0,11,9.3,19.8,20.4,19.8h383.5c11,0,20.1-8.699,20.1-19.8V874c93-4.7,175.701-60.9,214.201-146l20.199-44.8
		c-25.699-2.2-49.5-13-68.301-30.9L725.1,697.1c-26.4,58.2-82.9,97.101-145.9,101.7v-97.2C560.2,714.1,539.7,725,518.299,734z"/>
	<path d="M204.5,686.8c49,25,104.3,38.5,162.9,38.5c58.6,0,113.899-13.5,162.799-38.5c118.5-60,199.9-182.4,199.9-324.1
		C730.1,162.4,567.7,0,367.4,0C167.1,0,4.6,162.3,4.6,362.6C4.6,504.399,85.9,626.8,204.5,686.8z M367.4,256
		c58.899,0,106.7,47.8,106.7,106.7c0,58.899-47.8,106.699-106.7,106.699c-58.9,0-106.7-47.8-106.7-106.699
		C260.601,303.8,308.4,256,367.4,256z"/>
	<path d="M759.401,619.7C775.7,638.6,799.799,650.6,826.7,650.6c0.4,0,0.701,0,1,0c48.5-0.6,87.6-40,87.6-88.7
		c0-49-39.699-88.699-88.699-88.699s-88.699,39.699-88.699,88.699C738,584,746.1,604.2,759.401,619.7z"/>
</g>
<g>
</g>
<g>
</g>
<g>
</g>
<g>
</g>
<g>
</g>
<g>
</g>
<g>
</g>
<g>
</g>
<g>
</g>
<g>
</g>
<g>
</g>
<g>
</g>
<g>
</g>
<g>
</g>
<g>
</g>
</svg>
