<?xml version="1.0" encoding="UTF-8" standalone="no"?>
<!-- Generator: Adobe Illustrator 16.0.0, SVG Export Plug-In . SVG Version: 6.00 Build 0)  -->

<svg
   xmlns:dc="http://purl.org/dc/elements/1.1/"
   xmlns:cc="http://creativecommons.org/ns#"
   xmlns:rdf="http://www.w3.org/1999/02/22-rdf-syntax-ns#"
   xmlns:svg="http://www.w3.org/2000/svg"
   xmlns="http://www.w3.org/2000/svg"
   xmlns:sodipodi="http://sodipodi.sourceforge.net/DTD/sodipodi-0.dtd"
   xmlns:inkscape="http://www.inkscape.org/namespaces/inkscape"
   version="1.1"
   id="Capa_1"
   x="0px"
   y="0px"
   width="497.407px"
   height="497.407px"
   viewBox="0 0 497.407 497.407"
   style="enable-background:new 0 0 497.407 497.407;"
   xml:space="preserve"
   sodipodi:docname="tvx4.svg"
   inkscape:version="0.92.3 (2405546, 2018-03-11)"><metadata
   id="metadata41"><rdf:RDF><cc:Work
       rdf:about=""><dc:format>image/svg+xml</dc:format><dc:type
         rdf:resource="http://purl.org/dc/dcmitype/StillImage" /><dc:title></dc:title></cc:Work></rdf:RDF></metadata><defs
   id="defs39" /><sodipodi:namedview
   pagecolor="#ffffff"
   bordercolor="#666666"
   borderopacity="1"
   objecttolerance="10"
   gridtolerance="10"
   guidetolerance="10"
   inkscape:pageopacity="0"
   inkscape:pageshadow="2"
   inkscape:window-width="2560"
   inkscape:window-height="1411"
   id="namedview37"
   showgrid="false"
   inkscape:zoom="0.94892108"
   inkscape:cx="138.08695"
   inkscape:cy="198.12195"
   inkscape:window-x="-9"
   inkscape:window-y="-9"
   inkscape:window-maximized="1"
   inkscape:current-layer="Capa_1" />
<g
   id="g4">
	<path
   d="M355.581,158.864h-58.212c0-11.886-9.265-22.301-23.156-28.114l35.772-55.089c0.815,0.135,1.649,0.223,2.506,0.223   c8.424,0,15.252-6.829,15.252-15.252c0-8.423-6.828-15.251-15.252-15.251s-15.252,6.828-15.252,15.251   c0,3.111,0.938,6.001,2.535,8.414l-37.711,58.076c-4.246-0.821-8.725-1.27-13.359-1.27s-9.113,0.449-13.359,1.27L167.523,22.678   c1.47-2.293,2.333-5.012,2.333-7.938c0-8.14-6.6-14.74-14.74-14.74s-14.74,6.6-14.74,14.74c0,8.141,6.6,14.74,14.74,14.74   c0.749,0,1.48-0.074,2.2-0.182l65.878,101.452c-13.893,5.813-23.156,16.228-23.156,28.114h-58.212   c-56.217,0-101.789,45.572-101.789,101.789V372.62c0,47.421,32.428,87.267,76.318,98.574c-0.461,8.288-0.689,26.213,5.964,26.213   c5.884,0,15.631-14.023,21.269-23h210.23c5.638,8.977,15.385,23,21.269,23c6.653,0,6.425-17.925,5.964-26.213   c43.892-11.309,76.318-51.153,76.318-98.574V260.653C457.37,204.436,411.797,158.864,355.581,158.864z M334.818,414.945H109.332   c-11.046,0-20-8.954-20-20v-156.49c0-11.046,8.954-20,20-20h225.486c11.046,0,20,8.954,20,20v156.49   C354.818,405.991,345.864,414.945,334.818,414.945z M397.37,379.42c-13.07,0-23.667-10.596-23.667-23.667   s10.597-23.667,23.667-23.667s23.667,10.596,23.667,23.667S410.44,379.42,397.37,379.42z M397.37,287.753   c-13.07,0-23.667-10.596-23.667-23.667c0-13.07,10.597-23.667,23.667-23.667s23.667,10.597,23.667,23.667   C421.037,277.157,410.44,287.753,397.37,287.753z"
   id="path2" />
</g>
<g
   id="g6">
</g>
<g
   id="g8">
</g>
<g
   id="g10">
</g>
<g
   id="g12">
</g>
<g
   id="g14">
</g>
<g
   id="g16">
</g>
<g
   id="g18">
</g>
<g
   id="g20">
</g>
<g
   id="g22">
</g>
<g
   id="g24">
</g>
<g
   id="g26">
</g>
<g
   id="g28">
</g>
<g
   id="g30">
</g>
<g
   id="g32">
</g>
<g
   id="g34">
</g>
<text
   xml:space="preserve"
   style="font-style:normal;font-weight:normal;font-size:107.48783112px;line-height:1.25;font-family:sans-serif;letter-spacing:0px;word-spacing:0px;fill:#000000;fill-opacity:1;stroke:none;stroke-width:2.68719578"
   x="170.13077"
   y="345.80664"
   id="text4782"
   transform="scale(0.96784509,1.0332232)"><tspan
     sodipodi:role="line"
     id="tspan4780"
     x="170.13077"
     y="345.80664"
     style="stroke-width:2.68719578">x4</tspan></text>
</svg>