<?xml version="1.0" encoding="UTF-8" standalone="no"?>
<svg
   xmlns:dc="http://purl.org/dc/elements/1.1/"
   xmlns:cc="http://creativecommons.org/ns#"
   xmlns:rdf="http://www.w3.org/1999/02/22-rdf-syntax-ns#"
   xmlns:svg="http://www.w3.org/2000/svg"
   xmlns="http://www.w3.org/2000/svg"
   xmlns:sodipodi="http://sodipodi.sourceforge.net/DTD/sodipodi-0.dtd"
   xmlns:inkscape="http://www.inkscape.org/namespaces/inkscape"
   inkscape:version="1.0 (6e3e5246a0, 2020-05-07)"
   sodipodi:docname="Hack-computer.svg"
   id="svg32"
   version="1.1"
   height="475"
   viewBox="0 0 511.99998 475.00001"
   width="512">
  <metadata
     id="metadata38">
    <rdf:RDF>
      <cc:Work
         rdf:about="">
        <dc:format>image/svg+xml</dc:format>
        <dc:type
           rdf:resource="http://purl.org/dc/dcmitype/StillImage" />
        <dc:title></dc:title>
      </cc:Work>
    </rdf:RDF>
  </metadata>
  <defs
     id="defs36" />
  <sodipodi:namedview
     showguides="false"
     inkscape:current-layer="svg32"
     inkscape:window-maximized="1"
     inkscape:window-y="0"
     inkscape:window-x="0"
     inkscape:cy="237.5"
     inkscape:cx="256"
     inkscape:zoom="1.5473684"
     showgrid="false"
     id="namedview34"
     inkscape:window-height="1052"
     inkscape:window-width="1920"
     inkscape:pageshadow="2"
     inkscape:pageopacity="0"
     guidetolerance="10"
     gridtolerance="10"
     objecttolerance="10"
     borderopacity="1"
     bordercolor="#666666"
     pagecolor="#ffffff" />
  <path
     id="path2"
     d="M283.07 397.5l-84.14 30-3.19 11.15c-4.53 15.87-21.74 28.85-38.24 28.85h167z"
     fill="#adaca7" />
  <path
     id="path4"
     d="M316.26 438.65L304.5 397.5l-48.5-30-48.5 30-8.57 30h84.14l3.19 11.15c4.53 15.87 21.74 28.85 38.24 28.85h30c-16.5 0-33.71-12.98-38.24-28.85z"
     fill="#8f8f8b" />
  <path
     id="path6"
     d="M444.5 397.5h30c16.5 0 30-13.5 30-30v-60l-60-60z"
     fill="#adaca7" />
  <path
     id="path8"
     d="M7.5 367.5c0 16.5 13.5 30 30 30h407c16.5 0 30-13.5 30-30v-180l-467 120z"
     fill="#cbc9c2" />
  <path
     id="path10"
     d="M474.5 7.5h-30l30 300h30v-270c0-16.5-13.5-30-30-30z"
     fill="#404242" />
  <path
     id="path12"
     d="M474.5 37.5c0-16.5-13.5-30-30-30h-407c-16.5 0-30 13.5-30 30v270h467v-30L256 157.487z"
     fill="#565959" />
  <path
     id="path14"
     d="M474.5 37.495l-29.994-.021c0 .005-188.506 120.013-188.506 120.013S444.502 277.498 444.5 277.5l29.999-.02c.001 0-.002-239.981.001-239.985z"
     fill="#4b88d5" />
  <path
     id="path16"
     d="M444.5 37.495l-406.912-.022c-.025.012-.046 240.022-.088 240.027l406.99-.02c.005 0-.032-239.981.01-239.985z"
     fill="#69a7ff" />
  <circle
     id="circle18"
     cx="256"
     cy="352.5"
     fill="#fff"
     r="15" />
  <path
     id="path20"
     d="M474.5 0h-437C16.822 0 0 16.822 0 37.5v330C0 388.178 16.822 405 37.5 405h160.057l-9.027 31.594C184.905 449.282 170.695 460 157.5 460H101a7.5 7.5 0 0 0-7.5 7.5 7.5 7.5 0 0 0 7.5 7.5h310a7.5 7.5 0 0 0 7.5-7.5 7.5 7.5 0 0 0-7.5-7.5h-56.5c-13.195 0-27.405-10.719-31.03-23.406L314.443 405H474.5c20.678 0 37.5-16.822 37.5-37.5v-330C512 16.822 495.178 0 474.5 0zm-437 15h437c12.407 0 22.5 10.094 22.5 22.5V300H15V37.5C15 25.094 25.093 15 37.5 15zm271.547 425.715c2.058 7.205 6.149 13.824 11.512 19.285H191.441c5.363-5.461 9.454-12.081 11.512-19.285L213.157 405h85.685zM474.5 390h-437C25.093 390 15 379.906 15 367.5V315h482v52.5c0 12.406-10.093 22.5-22.5 22.5z" />
  <path
     id="path22"
     d="M37.5 285h437a7.5 7.5 0 0 0 7.5-7.5v-240a7.5 7.5 0 0 0-7.5-7.5h-437a7.5 7.5 0 0 0-7.5 7.5v105a7.5 7.5 0 0 0 7.5 7.5 7.5 7.5 0 0 0 7.5-7.5V45h422v225H45v-97.5a7.5 7.5 0 0 0-7.5-7.5 7.5 7.5 0 0 0-7.5 7.5v105a7.5 7.5 0 0 0 7.5 7.5zM256 330c-12.407 0-22.5 10.094-22.5 22.5S243.593 375 256 375s22.5-10.094 22.5-22.5S268.407 330 256 330zm0 30c-4.136 0-7.5-3.364-7.5-7.5s3.364-7.5 7.5-7.5 7.5 3.364 7.5 7.5-3.364 7.5-7.5 7.5z" />
  <text
     id="text30"
     stroke-width="1.051"
     word-spacing="0"
     letter-spacing="0"
     font-family="sans-serif"
     font-size="119.457px"
     font-weight="400"
     transform="scale(0.95174825,1.050698)"
     y="207.55339"
     x="255.51857"
     style="line-height:1.25"><tspan
       id="tspan24"
       fill="#008000"
       text-anchor="middle"
       font-size="143.346px"
       font-weight="700"
       style="-inkscape-font-specification:'sans-serif Bold';text-align:center;stroke-width:0.548371"
       y="207.55339"
       x="255.51857">Hack</tspan></text>
</svg>
