<svg xmlns="http://www.w3.org/2000/svg" width="512" viewBox="0 0 511.99998 475.00001" height="475"><path fill="#adaca7" d="M283.07 397.5l-84.14 30-3.19 11.15c-4.53 15.87-21.74 28.85-38.24 28.85h167z"/><path fill="#8f8f8b" d="M316.26 438.65L304.5 397.5l-48.5-30-48.5 30-8.57 30h84.14l3.19 11.15c4.53 15.87 21.74 28.85 38.24 28.85h30c-16.5 0-33.71-12.98-38.24-28.85z"/><path fill="#adaca7" d="M444.5 397.5h30c16.5 0 30-13.5 30-30v-60l-60-60z"/><path fill="#cbc9c2" d="M7.5 367.5c0 16.5 13.5 30 30 30h407c16.5 0 30-13.5 30-30v-180l-467 120z"/><path fill="#404242" d="M474.5 7.5h-30l30 300h30v-270c0-16.5-13.5-30-30-30z"/><path fill="#565959" d="M474.5 37.5c0-16.5-13.5-30-30-30h-407c-16.5 0-30 13.5-30 30v270h467v-30L256 157.487z"/><path fill="#4b88d5" d="M474.5 37.495l-29.994-.021c0 .005-188.506 120.013-188.506 120.013S444.502 277.498 444.5 277.5l29.999-.02c.001 0-.002-239.981.001-239.985z"/><path fill="#69a7ff" d="M444.5 37.495l-406.912-.022c-.025.012-.046 240.022-.088 240.027l406.99-.02c.005 0-.032-239.981.01-239.985z"/><circle r="15" fill="#fff" cy="352.5" cx="256"/><path d="M474.5 0h-437C16.822 0 0 16.822 0 37.5v330C0 388.178 16.822 405 37.5 405h160.057l-9.027 31.594C184.905 449.282 170.695 460 157.5 460H101a7.5 7.5 0 0 0-7.5 7.5 7.5 7.5 0 0 0 7.5 7.5h310a7.5 7.5 0 0 0 7.5-7.5 7.5 7.5 0 0 0-7.5-7.5h-56.5c-13.195 0-27.405-10.719-31.03-23.406L314.443 405H474.5c20.678 0 37.5-16.822 37.5-37.5v-330C512 16.822 495.178 0 474.5 0zm-437 15h437c12.407 0 22.5 10.094 22.5 22.5V300H15V37.5C15 25.094 25.093 15 37.5 15zm271.547 425.715c2.058 7.205 6.149 13.824 11.512 19.285H191.441c5.363-5.461 9.454-12.081 11.512-19.285L213.157 405h85.685zM474.5 390h-437C25.093 390 15 379.906 15 367.5V315h482v52.5c0 12.406-10.093 22.5-22.5 22.5z"/><path d="M37.5 285h437a7.5 7.5 0 0 0 7.5-7.5v-240a7.5 7.5 0 0 0-7.5-7.5h-437a7.5 7.5 0 0 0-7.5 7.5v105a7.5 7.5 0 0 0 7.5 7.5 7.5 7.5 0 0 0 7.5-7.5V45h422v225H45v-97.5a7.5 7.5 0 0 0-7.5-7.5 7.5 7.5 0 0 0-7.5 7.5v105a7.5 7.5 0 0 0 7.5 7.5zM256 330c-12.407 0-22.5 10.094-22.5 22.5S243.593 375 256 375s22.5-10.094 22.5-22.5S268.407 330 256 330zm0 30c-4.136 0-7.5-3.364-7.5-7.5s3.364-7.5 7.5-7.5 7.5 3.364 7.5 7.5-3.364 7.5-7.5 7.5z"/><text style="line-height:1.25" x="263.166" y="104.046" transform="scale(.95175 1.0507)" font-weight="400" font-size="42.028" font-family="sans-serif" letter-spacing="0" word-spacing="0" stroke-width="1.051"><tspan x="263.166" y="104.046" style="-inkscape-font-specification:'sans-serif Bold';text-align:center" font-weight="700" font-size="50.433" text-anchor="middle" fill="green">Hack Screen</tspan><tspan x="263.166" y="167.088" style="-inkscape-font-specification:'sans-serif Bold';text-align:center" font-weight="700" font-size="50.433" text-anchor="middle" fill="green">VGA 256x240</tspan><tspan x="263.166" y="230.13" style="-inkscape-font-specification:'sans-serif Bold';text-align:center" font-weight="700" font-size="50.433" text-anchor="middle" fill="green">4k RAM Video</tspan></text></svg>