<?xml version="1.0" encoding="UTF-8" standalone="no"?>
<svg
   xmlns:dc="http://purl.org/dc/elements/1.1/"
   xmlns:cc="http://creativecommons.org/ns#"
   xmlns:rdf="http://www.w3.org/1999/02/22-rdf-syntax-ns#"
   xmlns:svg="http://www.w3.org/2000/svg"
   xmlns="http://www.w3.org/2000/svg"
   xmlns:sodipodi="http://sodipodi.sourceforge.net/DTD/sodipodi-0.dtd"
   xmlns:inkscape="http://www.inkscape.org/namespaces/inkscape"
   width="92.962631mm"
   height="82.792198mm"
   viewBox="0 0 92.962631 82.792198"
   version="1.1"
   id="svg8"
   inkscape:version="1.0 (262b4497e3, 2020-09-04)"
   sodipodi:docname="Probes-adaptor.svg">
  <defs
     id="defs2" />
  <sodipodi:namedview
     id="base"
     pagecolor="#ffffff"
     bordercolor="#666666"
     borderopacity="1.0"
     inkscape:pageopacity="0.0"
     inkscape:pageshadow="2"
     inkscape:zoom="1.0015858"
     inkscape:cx="227.37707"
     inkscape:cy="187.35897"
     inkscape:document-units="mm"
     inkscape:current-layer="layer1"
     inkscape:document-rotation="0"
     showgrid="false"
     inkscape:snap-global="false"
     fit-margin-top="0"
     fit-margin-left="0"
     fit-margin-right="0"
     fit-margin-bottom="0"
     inkscape:window-width="1848"
     inkscape:window-height="1016"
     inkscape:window-x="72"
     inkscape:window-y="1107"
     inkscape:window-maximized="1" />
  <metadata
     id="metadata5">
    <rdf:RDF>
      <cc:Work
         rdf:about="">
        <dc:format>image/svg+xml</dc:format>
        <dc:type
           rdf:resource="http://purl.org/dc/dcmitype/StillImage" />
        <dc:title></dc:title>
      </cc:Work>
    </rdf:RDF>
  </metadata>
  <g
     inkscape:label="Layer 1"
     inkscape:groupmode="layer"
     id="layer1"
     transform="translate(-81.540814,-52.166988)">
    <path
       style="fill:#ff0000;stroke:#000000;stroke-width:0.529167;stroke-miterlimit:4;stroke-dasharray:none"
       d="m 89.428993,114.60712 c -1.761014,-0.39369 -1.803089,-0.44164 -1.525802,-1.73922 0.15676,-0.73391 2.246916,-9.43826 4.644647,-19.343015 2.397711,-9.904739 4.359487,-18.258744 4.359487,-18.564444 0,-0.305686 -0.613674,-0.714829 -1.36373,-0.909181 -0.782906,-0.202873 -1.424366,-0.668286 -1.506111,-1.092768 -0.124714,-0.64781 0.08663,-0.705042 1.706605,-0.462108 l 1.849011,0.277274 0.765142,-3.350097 c 0.42083,-1.842557 1.258328,-4.361918 1.861108,-5.598569 0.89015,-1.826242 1.29304,-2.248477 2.14548,-2.248477 0.94822,0 1.06156,0.185233 1.1744,1.91929 0.0687,1.055593 -0.2619,3.691535 -0.73466,5.85764 -0.47276,2.166092 -0.85956,4.083487 -0.85956,4.260861 0,0.177379 0.61367,0.481524 1.36373,0.67589 0.8032,0.208125 1.42405,0.66658 1.51047,1.115353 0.12964,0.673068 -0.0663,0.730803 -1.67858,0.4948 l -1.82533,-0.267179 -1.783493,7.455008 c -5.336798,22.307912 -7.769325,32.008982 -8.016088,31.968752 -0.151684,-0.0248 -1.09071,-0.22714 -2.086726,-0.44981 z"
       id="path38" />
    <path
       style="fill:#000000;stroke:#000000;stroke-width:0.419807px;stroke-linecap:butt;stroke-linejoin:miter;stroke-opacity:1"
       d="m 81.771622,132.32795 c 0,0 2.153476,-3.77572 3.364902,-7.22167 1.211426,-3.44593 2.889441,-9.94701 2.889441,-9.94701 l 2.45233,0.49127 c 0,0 -2.488361,8.60027 -4.333217,12.57655 -1.844856,3.97626 -3.562299,6.29527 -3.562299,6.29527 z"
       id="path44" />
    <path
       style="fill:#808080;stroke:#000000;stroke-width:0.264583px;stroke-linecap:butt;stroke-linejoin:miter;stroke-opacity:1"
       d="m 104.66353,52.299392 0.31979,3.56e-4 -1.64916,8.843378 -1.02952,-0.214363 z"
       id="path78"
       sodipodi:nodetypes="ccccc" />
    <path
       style="fill:#ff0000;stroke:#000000;stroke-width:0.529167;stroke-miterlimit:4;stroke-dasharray:none"
       d="m 129.00927,116.48257 c -1.31036,-1.2406 -1.32192,-1.30334 -0.41879,-2.27543 0.51075,-0.54985 6.76664,-6.95284 13.90188,-14.228953 7.13522,-7.2761 13.10131,-13.44404 13.25799,-13.70654 0.15667,-0.26249 -0.16058,-0.92833 -0.70504,-1.47963 -0.56827,-0.57546 -0.88055,-1.30385 -0.73319,-1.71024 0.22492,-0.62018 0.4357,-0.56102 1.70226,0.47786 l 1.4456,1.18574 2.37399,-2.4845 c 1.3057,-1.36648 3.31605,-3.10057 4.46745,-3.85352 1.70033,-1.11193 2.26269,-1.268006 2.99466,-0.831116 0.81421,0.485976 0.8166,0.703126 0.0248,2.249946 -0.48202,0.94163 -2.11686,3.03561 -3.63298,4.6533 -1.5161,1.61767 -2.83094,3.06586 -2.92184,3.21816 -0.0909,0.15231 0.28015,0.728 0.82459,1.27931 0.58302,0.59037 0.88117,1.30222 0.72537,1.73187 -0.23364,0.64439 -0.43148,0.59354 -1.69495,-0.43542 l -1.43044,-1.16494 -5.35226,5.48736 c -16.01577,16.420103 -23.0765,23.503483 -23.26777,23.342463 -0.11754,-0.099 -0.82015,-0.75404 -1.56129,-1.45572 z"
       id="path38-3" />
    <path
       style="fill:#000000;stroke:#000000;stroke-width:0.419806px;stroke-linecap:butt;stroke-linejoin:miter;stroke-opacity:1"
       d="m 113.35184,127.7745 c 0,0 3.78425,-2.13843 6.59059,-4.47651 2.80632,-2.33806 7.57911,-7.06038 7.57911,-7.06038 l 1.85397,1.6787 c 0,0 -6.54448,6.10953 -10.16653,8.57835 -3.62203,2.4688 -6.28529,3.57987 -6.28529,3.57987 z"
       id="path44-6" />
    <path
       style="fill:#808080;stroke:#000000;stroke-width:0.264583px;stroke-linecap:butt;stroke-linejoin:miter;stroke-opacity:1"
       d="m 174.0246,70.788313 0.27442,0.164203 -5.94848,6.748382 -0.77416,-0.711715 z"
       id="path78-7"
       sodipodi:nodetypes="ccccc" />
  </g>
</svg>
