<svg xmlns="http://www.w3.org/2000/svg" height="100.08" width="100"><defs><filter id="d" color-interpolation-filters="sRGB"><feGaussianBlur stdDeviation="1.23"/></filter><filter id="h" color-interpolation-filters="sRGB"><feGaussianBlur stdDeviation="1.23"/></filter><filter id="g" color-interpolation-filters="sRGB"><feGaussianBlur stdDeviation="1.258"/></filter><filter id="f" color-interpolation-filters="sRGB"><feGaussianBlur stdDeviation="1.312"/></filter><filter id="c" height="1.027" width="1.242" y="-.013" x="-.121" color-interpolation-filters="sRGB"><feGaussianBlur stdDeviation="1.309"/></filter><filter id="e" height="1.027" width="1.242" y="-.013" x="-.121" color-interpolation-filters="sRGB"><feGaussianBlur stdDeviation="1.309"/></filter><filter id="b" height="1.025" width="1.996" y="-.012" x="-.498" color-interpolation-filters="sRGB"><feGaussianBlur stdDeviation="1.245"/></filter><linearGradient id="a"><stop stop-color="#aca592" offset="0"/><stop stop-color="#aca592" stop-opacity="0" offset="1"/></linearGradient><radialGradient id="i" gradientUnits="userSpaceOnUse" cy="356.19" cx="300" gradientTransform="matrix(-.43814 .01306 -.0012 -.02628 181.233 40.391)" r="55.264"><stop offset="0"/><stop stop-color="#464646" offset=".602"/><stop stop-color="#aca592" stop-opacity="0" offset="1"/></radialGradient><linearGradient id="j" y2="333.77" gradientUnits="userSpaceOnUse" x2="291.22" gradientTransform="matrix(-.3425 .01021 -.01275 -.27715 156.562 128.524)" y1="330.77" x1="291.22"><stop stop-color="#fff" stop-opacity=".362" offset="0"/><stop stop-opacity="0" offset="1"/></linearGradient><linearGradient id="k" y2="339.48" gradientUnits="userSpaceOnUse" x2="337.09" gradientTransform="matrix(-.33921 .01011 -.01492 -.32428 156.195 144.18)" y1="339.48" x1="343.43"><stop stop-color="#fff" stop-opacity=".362" offset="0"/><stop stop-opacity="0" offset="1"/></linearGradient><linearGradient id="l" y2="304.68" gradientUnits="userSpaceOnUse" x2="300.31" gradientTransform="matrix(-.32563 .0097 -.01206 -.2621 151.26 123.44)" y1="331.2" x1="300.31"><stop stop-opacity=".302" offset="0"/><stop stop-opacity="0" offset="1"/></linearGradient></defs><path opacity=".95" fill="none" d="M0 0h100v100H0z"/><path d="M53.928 98.693L52.1 58.976l-1.104-23.99-3.256.096 1.104 23.991L50.67 98.79z" style="text-indent:0;text-transform:none" color="#000" fill="#d4aa00"/><path d="M297 109.34V352.4h6V109.34z" style="text-indent:0;text-transform:none" transform="matrix(-.32563 .0097 -.01206 -.2621 151.309 124.488)" color="#000" fill="#fcff4c" fill-opacity=".544" filter="url(#b)"/><path d="M60.372 96.598l3.198-.489c-3.202-13.45-7.816-28.557-8.457-42.475l-.863-18.749-3.256.098.863 18.748c.658 14.31 5.337 29.518 8.514 42.865z" style="text-indent:0;text-transform:none" color="#000" fill="#d45500"/><path d="M272.94 116.59l-5.875 1.5c7.92 51.61 19.94 109.69 19.94 162.79v71.531h6V280.88c0-54.598-12.202-113.07-20.062-164.28z" style="text-indent:0;text-transform:none" transform="matrix(-.32563 .0097 -.01206 -.2621 151.309 124.488)" color="#000" fill="#fca" fill-opacity=".409" filter="url(#c)"/><path d="M69.996 91.8l3.056-.912c-6.978-15.02-14.11-24.952-15.163-47.836l-.38-8.265-3.257.097.38 8.265c1.072 23.296 8.478 33.826 15.364 48.646z" style="text-indent:0;text-transform:none" color="#000" fill="#a00"/><path d="M79.672 85.516l2.661-1.515c-9.79-11.143-20.205-19.73-21.186-41.045l-.38-8.264-3.257.097.38 8.264c1.012 21.986 12.166 31.514 21.784 42.46z" style="text-indent:0;text-transform:none" color="#000" fill="#784421"/><path d="M89.428 77.653l1.962-2.092c-9.72-5.873-26.15-14.517-26.988-32.702l-.38-8.265-3.256.097.38 8.265C62.04 62.388 79.89 71.89 89.43 77.653z" style="text-indent:0;text-transform:none" color="#000" fill="#1a1a1a"/><path d="M183.16 189.47l-4.313 1.75c28.98 23.48 79.65 53.27 79.65 129.66v31.531h4V320.88c0-71.639-50.903-108.37-79.344-131.41z" style="text-indent:0;text-transform:none" transform="matrix(-.32563 .0097 -.01206 -.2621 151.309 124.488)" color="#000" fill="#fff" fill-opacity=".313" filter="url(#d)"/><path d="M44.052 97.085c1.941-13.5 5.209-28.946 4.55-43.257L47.74 35.08l-3.256.097.863 18.748c.64 13.918-2.572 29.258-4.53 42.86l3.234.297z" style="text-indent:0;text-transform:none" color="#000" fill="green"/><path transform="matrix(.32563 -.0097 -.01206 -.2621 -44.14 129.265)" d="M272.94 112.59l-5.875 1.5c7.92 51.61 19.94 109.69 19.94 162.79v71.531h6V276.88c0-54.598-12.202-113.07-20.062-164.28z" style="text-indent:0;text-transform:none" color="#000" fill="#cfa" fill-opacity=".409" filter="url(#e)"/><path d="M34.013 92.872c5.507-15.193 11.923-26.132 10.85-49.43l-.38-8.265-3.256.097.38 8.264c1.053 22.883-5.147 33.214-10.725 48.606l3.131.727z" style="text-indent:0;text-transform:none" color="#000" fill="#04a"/><path transform="matrix(.32563 -.0097 -.01206 -.2621 -44.202 129.267)" d="M242.75 129.78l-3.5 3.125c19.277 58.01 38.25 96.664 38.25 183.97v31.531h5.5v-31.531c0-88.882-21.224-129.84-40.25-187.09z" style="text-indent:0;text-transform:none" color="#000" fill="#acf" fill-opacity=".475" filter="url(#f)"/><path d="M23.786 87.182C32.372 75.69 42.62 65.526 41.607 43.538l-.38-8.264-3.257.097.38 8.264c.981 21.314-8.618 30.496-17.358 42.192l2.793 1.352z" style="text-indent:0;text-transform:none" color="#000" fill="#aa00d4"/><path transform="matrix(.32563 -.0097 -.01206 -.2621 -63.922 129.855)" d="M275.19 158.62l-4.375-.531c28.45 43.57 57.68 77.47 57.68 158.79v31.53h4v-31.53c0-83.882-29.36-115.45-57.312-158.25z" style="text-indent:0;text-transform:none" color="#000" fill="#eaf" fill-opacity=".483" filter="url(#g)"/><path d="M13.334 79.922c8.983-6.313 25.91-16.854 25.017-36.287l-.38-8.264-3.257.097.38 8.264c.837 18.184-14.754 27.784-23.91 34.22l2.149 1.97z" style="text-indent:0;text-transform:none" color="#000" fill="#6f6f91"/><path transform="matrix(.32563 -.0097 -.01206 -.2621 -43.742 129.253)" d="M183.16 185.47l-4.313 1.75c28.98 23.48 78.15 55.27 78.15 129.65v31.531h5V316.87c0-69.13-50.4-108.37-78.84-131.4z" style="text-indent:0;text-transform:none" color="#000" fill="#dbdbe3" fill-opacity=".429" filter="url(#h)"/><path d="M73.69 36.645l-48.426 1.444-.202-4.398c12.474-.817 26.455-1.496 48.425-1.444z" color="#000" fill="url(#i)"/><path d="M64.604 39.672l-30.005.894-.246-5.336c7.717-.77 16.373-1.346 30.005-.894z" color="#000" fill="#1a1a1a"/><path d="M64.467 39.473l-29.75.887-.03-.659c7.655-.673 16.24-1.19 29.75-.887z" color="#000" fill="url(#j)"/><path d="M36.953 40.33l-2.194.066-.236-5.141c1.09-.028 1.543-.086 2.193-.066z" color="#000" fill="url(#k)"/><path d="M64.526 46.057l-29.466.879-.296-6.44c7.578-.745 16.08-1.305 29.465-.878z" color="#000" fill="url(#l)"/><path d="M39.749 41.477c-1.778-1.017-8.988-5.129-16.022-9.136-7.035-4.007-12.814-7.308-12.842-7.335-.028-.027 9.023-5.125 20.114-11.329L51.164 2.398l.041 7.98c.023 4.39.047 12.504.052 18.034l.01 10.053-.258.043c-1.31.216-2.573.602-3.6 1.102-1.394.678-3.04 2.007-3.947 3.188-.227.296-.428.536-.447.533-.019-.002-1.488-.836-3.266-1.854zM59.182 42.393c-1.387-1.72-3.778-3.223-5.848-3.68a84.366 84.366 0 0 1-1.148-.258c-.103-.026-.17-5.281-.231-18.058-.047-9.911-.072-18.034-.055-18.051.033-.033 38.983 22.449 39.105 22.571.073.073-30.92 18.297-31.09 18.28-.05-.005-.38-.367-.733-.804zM10.639 48.459c0-18.118.034-22.668.17-22.583.094.058 7.285 4.221 15.98 9.252 9.32 5.392 15.801 9.22 15.79 9.327-.011.099-.12.542-.244.985-.509 1.835-.413 4.334.24 6.25l.307.9-15.328 8.835c-8.43 4.859-15.685 9.034-16.122 9.278l-.793.444zM76.18 62.404c-8.53-5.141-15.551-9.39-15.604-9.443-.052-.052.06-.584.25-1.183.514-1.62.592-4.195.184-6.007-.163-.721-.275-1.328-.25-1.349.147-.123 30.997-18.631 31.055-18.631.098 0 .056 38.69-.046 42.728l-.082 3.233z" fill="#7ccff4"/><path d="M92.898 26.775c-1.658 7.32 3.673 35.148-.816 37.094-9.788-16.912-21.55-23.98-21.55-23.98s15.22-10.893 22.366-13.114zM52.12 1.811C57.65 6.887 84.45 16.08 83.91 20.942c-19.54.097-31.517 6.795-31.517 6.795S50.5 9.117 52.12 1.811zM10.95 24.272C18.165 22.206 40 4.148 43.865 7.147c-10.12 16.716-10.66 30.428-10.66 30.428S16.333 29.469 10.95 24.272zM10.093 71.696c1.753-7.298-3.22-35.193 1.293-37.08 9.57 17.036 21.24 24.255 21.24 24.255s-15.36 10.696-22.533 12.825z" fill="#98ddf4"/><path d="M10.564 25.201l41.054-23.67 41.026 23.717-.027 47.383L59.74 53.292a9.364 9.364 0 1 0-16.216-.008L10.543 72.59zm32.458 19.067L10.568 25.21m41.05-23.284l.023 37.158m8.689 5.129L92.646 25.25" fill="none" stroke="#275d75" stroke-width="3.00912" stroke-linecap="round" stroke-linejoin="round"/><g transform="matrix(.75005 0 0 .75005 -44.235 46.54)" stroke="#00f400"><circle r="24.508" cy="1.741" cx="128.644" opacity=".95" fill="#272524" stroke-width="2.247" stroke-linecap="round"/><path d="M113.085 10.269h16.744V-9.227h14.781" fill="none" stroke-width="2.682"/></g></svg>