<?xml version="1.0" encoding="UTF-8" standalone="no"?>
<svg
   xmlns:dc="http://purl.org/dc/elements/1.1/"
   xmlns:cc="http://creativecommons.org/ns#"
   xmlns:rdf="http://www.w3.org/1999/02/22-rdf-syntax-ns#"
   xmlns:svg="http://www.w3.org/2000/svg"
   xmlns="http://www.w3.org/2000/svg"
   xmlns:sodipodi="http://sodipodi.sourceforge.net/DTD/sodipodi-0.dtd"
   xmlns:inkscape="http://www.inkscape.org/namespaces/inkscape"
   width="102.828"
   height="86.688"
   viewBox="0 0 96.401625 81.269872"
   version="1.1"
   id="svg10"
   sodipodi:docname="corazon_pulso.svg"
   inkscape:version="0.92.2 (5c3e80d, 2017-08-06)">
  <metadata
     id="metadata16">
    <rdf:RDF>
      <cc:Work
         rdf:about="">
        <dc:format>image/svg+xml</dc:format>
        <dc:type
           rdf:resource="http://purl.org/dc/dcmitype/StillImage" />
        <dc:title></dc:title>
      </cc:Work>
    </rdf:RDF>
  </metadata>
  <defs
     id="defs14" />
  <sodipodi:namedview
     pagecolor="#ffffff"
     bordercolor="#666666"
     borderopacity="1"
     objecttolerance="10"
     gridtolerance="10"
     guidetolerance="10"
     inkscape:pageopacity="0"
     inkscape:pageshadow="2"
     inkscape:window-width="1920"
     inkscape:window-height="1017"
     id="namedview12"
     showgrid="false"
     inkscape:zoom="2.7224067"
     inkscape:cx="83.300195"
     inkscape:cy="43.344002"
     inkscape:window-x="-8"
     inkscape:window-y="-8"
     inkscape:window-maximized="1"
     inkscape:current-layer="svg10" />
  <path
     d="M43.573 78.685c-1.401-2.404-3.574-4.758-7.691-8.332-2.23-1.936-3.588-3.012-11.312-8.961-6.055-4.665-9.076-7.253-12.576-10.775-3.499-3.522-5.556-6.327-7.32-9.985-1.126-2.336-1.9-4.586-2.383-6.925-.61-2.97-.694-3.976-.69-8.35.003-5.74.193-6.695 2.083-10.524 1.405-2.844 2.472-4.342 4.694-6.591 2.157-2.184 3.558-3.176 6.587-4.669 3.366-1.66 5.8-2.095 10.814-1.934 3.897.126 5.323.512 8.412 2.285 4.862 2.79 8.634 7.267 9.679 11.488.17.69.346 1.255.391 1.255.045 0 .439-.807.875-1.794C46.62 11.52 48 9.472 50.19 7.366 56.899.917 67.475-.249 76.026 4.516c3.493 1.946 6.334 4.779 8.536 8.51 1.733 2.936 2.62 6.837 2.771 12.195.219 7.762-1.205 13.141-4.995 18.874-1.504 2.275-2.617 3.653-4.703 5.825-3.366 3.506-6.402 6.083-13.57 11.517-4.522 3.43-7.202 5.635-11.082 9.12-3.109 2.793-7.926 7.655-8.39 8.468-.203.355-.386.645-.408.645-.02 0-.296-.443-.612-.985z"
     fill="red"
     stroke="#000"
     stroke-width="3.2"
     id="path2" />
  <path
     d="M30.714 55.734h8.215V22.163h10.357v33.571h8.571"
     fill="none"
     stroke="#00f"
     stroke-width="2"
     stroke-linecap="round"
     stroke-linejoin="round"
     id="path8" />
  <text
     xml:space="preserve"
     style="font-style:normal;font-variant:normal;font-weight:bold;font-stretch:normal;font-size:15.00005817px;line-height:1.25;font-family:sans-serif;-inkscape-font-specification:'sans-serif Bold';letter-spacing:0px;word-spacing:0px;fill:#000000;fill-opacity:1;stroke:none;stroke-width:0.93750364"
     x="62.3302"
     y="74.382782"
     id="text825"><tspan
       sodipodi:role="line"
       id="tspan823"
       x="62.3302"
       y="74.382782"
       style="stroke-width:0.93750364">CTE</tspan></text>
</svg>
