<?xml version="1.0" encoding="UTF-8" standalone="no"?>
<svg
   xmlns:dc="http://purl.org/dc/elements/1.1/"
   xmlns:cc="http://creativecommons.org/ns#"
   xmlns:rdf="http://www.w3.org/1999/02/22-rdf-syntax-ns#"
   xmlns:svg="http://www.w3.org/2000/svg"
   xmlns="http://www.w3.org/2000/svg"
   xmlns:sodipodi="http://sodipodi.sourceforge.net/DTD/sodipodi-0.dtd"
   xmlns:inkscape="http://www.inkscape.org/namespaces/inkscape"
   width="173.74892"
   height="156.39224"
   viewBox="0 0 162.89028 146.61832"
   id="svg2"
   version="1.1"
   inkscape:version="0.92.4 (unknown)"
   sodipodi:docname="Heart_ms.svg">
  <metadata
     id="metadata20">
    <rdf:RDF>
      <cc:Work
         rdf:about="">
        <dc:format>image/svg+xml</dc:format>
        <dc:type
           rdf:resource="http://purl.org/dc/dcmitype/StillImage" />
        <dc:title></dc:title>
      </cc:Work>
    </rdf:RDF>
  </metadata>
  <defs
     id="defs18" />
  <sodipodi:namedview
     pagecolor="#ffffff"
     bordercolor="#666666"
     borderopacity="1"
     objecttolerance="10"
     gridtolerance="10"
     guidetolerance="10"
     inkscape:pageopacity="0"
     inkscape:pageshadow="2"
     inkscape:window-width="1280"
     inkscape:window-height="996"
     id="namedview16"
     showgrid="false"
     fit-margin-top="0"
     fit-margin-left="0"
     fit-margin-right="0"
     fit-margin-bottom="0"
     inkscape:zoom="1.3153249"
     inkscape:cx="36.7481"
     inkscape:cy="71.354947"
     inkscape:window-x="0"
     inkscape:window-y="0"
     inkscape:window-maximized="1"
     inkscape:current-layer="svg2" />
  <path
     d="M 78.494972,143.39853 C 75.920781,138.9698 71.930199,134.63342 64.36827,128.04926 60.271899,124.48309 57.779989,122.50254 43.592556,111.5427 32.472994,102.95049 26.924968,98.183799 20.495369,91.695922 14.069689,85.208045 10.292643,80.040536 7.0523759,73.303125 4.9836199,69.000142 3.5613509,64.854345 2.6758609,60.547432 1.5533259,55.075374 1.4005199,53.222537 1.4063969,45.164759 1.4141969,34.591995 1.7629439,32.83347 5.2343779,25.779721 7.8144459,20.54148 9.7734949,17.78285 13.854194,13.639024 17.817349,9.6170149 20.389581,7.7897149 25.953279,5.0389549 c 6.1808,-3.05728 10.651349,-3.85893 19.860838,-3.56224 7.156407,0.23185 9.775655,0.94312 15.449061,4.20867 8.929344,5.1380391 15.8585,13.3863951 17.776409,21.1612401 0.313448,1.271247 0.636691,2.312608 0.718971,2.312608 0.08228,0 0.805169,-1.487378 1.60642,-3.304848 2.726996,-6.179395 5.260046,-9.949915 9.283932,-13.828491 12.32046,-11.8793691 31.74442,-14.0269391 47.45012,-5.2500291 6.41392,3.5838591 11.63283,8.8024451 15.67631,15.6754301 3.18345,5.409184 4.81142,12.594576 5.08961,22.46393 0.4016,14.298086 -2.21373,24.206736 -9.17423,34.765746 -2.76226,4.190988 -4.80555,6.729551 -8.63745,10.72995 -6.18275,6.458405 -11.75821,11.205449 -24.92106,21.216269 -8.30636,6.31694 -13.22945,10.37825 -20.35451,16.79932 -5.710627,5.14393 -14.557691,14.09964 -15.409878,15.59684 -0.372219,0.65429 -0.709175,1.18872 -0.748356,1.18872 -0.03918,0 -0.544616,-0.8154 -1.124494,-1.81354 z"
     id="path8"
     inkscape:connector-curvature="0"
     style="fill:#ff0000;stroke:#000000;stroke-width:2.81251168;stroke-miterlimit:4;stroke-dasharray:none"
     inkscape:export-filename="/home/obijuan/develop/FPGAwars/Icestudio-block-icons/Hearts/png/Heart_1Hz.png"
     inkscape:export-xdpi="90"
     inkscape:export-ydpi="90" />
  <text
     y="136.18301"
     x="114.12003"
     style="font-weight:400;font-size:53.91407013px;line-height:0%;font-family:sans-serif;letter-spacing:0;word-spacing:0;fill:#0000ff"
     font-weight="400"
     font-size="27.48"
     letter-spacing="0"
     word-spacing="0"
     id="text4204"
     transform="scale(0.99852717,1.001475)"
     inkscape:export-filename="/home/obijuan/develop/FPGAwars/Icestudio-block-icons/Hearts/png/Heart_1Hz.png"
     inkscape:export-xdpi="90"
     inkscape:export-ydpi="90">
    <tspan
       style="font-weight:700;font-size:30.808321px;-inkscape-font-specification:'sans-serif Bold';fill:#0000ff"
       y="136.18301"
       x="114.12003"
       font-weight="700"
       font-size="15.703"
       id="tspan4206">ms</tspan>
  </text>
</svg>
