<?xml version="1.0" encoding="UTF-8" standalone="no"?>
<svg
   xmlns:dc="http://purl.org/dc/elements/1.1/"
   xmlns:cc="http://creativecommons.org/ns#"
   xmlns:rdf="http://www.w3.org/1999/02/22-rdf-syntax-ns#"
   xmlns:svg="http://www.w3.org/2000/svg"
   xmlns="http://www.w3.org/2000/svg"
   xmlns:sodipodi="http://sodipodi.sourceforge.net/DTD/sodipodi-0.dtd"
   xmlns:inkscape="http://www.inkscape.org/namespaces/inkscape"
   width="180"
   height="185.09308"
   viewBox="0 0 168.75248 173.52585"
   id="svg2"
   version="1.1"
   inkscape:version="0.92.0 r15299"
   sodipodi:docname="uno-8.svg">
  <metadata
     id="metadata12">
    <rdf:RDF>
      <cc:Work
         rdf:about="">
        <dc:format>image/svg+xml</dc:format>
        <dc:type
           rdf:resource="http://purl.org/dc/dcmitype/StillImage" />
        <dc:title></dc:title>
      </cc:Work>
    </rdf:RDF>
  </metadata>
  <defs
     id="defs10" />
  <sodipodi:namedview
     pagecolor="#ffffff"
     bordercolor="#666666"
     borderopacity="1"
     objecttolerance="10"
     gridtolerance="10"
     guidetolerance="10"
     inkscape:pageopacity="0"
     inkscape:pageshadow="2"
     inkscape:window-width="1920"
     inkscape:window-height="1017"
     id="namedview8"
     showgrid="false"
     inkscape:zoom="3.403519"
     inkscape:cx="2.8321823"
     inkscape:cy="76.244589"
     inkscape:window-x="-8"
     inkscape:window-y="-8"
     inkscape:window-maximized="1"
     inkscape:current-layer="svg2"
     showguides="true"
     inkscape:guide-bbox="true"
     fit-margin-top="0"
     fit-margin-left="0"
     fit-margin-right="0"
     fit-margin-bottom="0" />
  <path
     d="m 46.13026,117.28062 21.354503,28.25706 -17.909171,21.36821 6.197228,5.51272 m -14.03249,-54.44992 -12.399917,28.25978 -28.2424357,5.51272 2.066653,8.95851"
     id="path6"
     style="fill:none;stroke:#008000;stroke-width:2.1960001;stroke-linecap:round;stroke-linejoin:round"
     inkscape:connector-curvature="0"
     inkscape:export-filename="/home/obijuan/develop/FPGAwars/Icestudio-block-icons/Bits/png/1-legs.png"
     inkscape:export-xdpi="90"
     inkscape:export-ydpi="90" />
  <g
     aria-label="8"
     transform="matrix(0.93751378,0,0,0.93751378,-24.309499,44.064744)"
     style="font-style:normal;font-variant:normal;font-weight:bold;font-stretch:normal;font-size:96px;line-height:25px;font-family:Arial;-inkscape-font-specification:'Arial, Bold';font-variant-ligatures:normal;font-variant-caps:normal;font-variant-numeric:normal;font-feature-settings:normal;text-align:start;letter-spacing:0px;word-spacing:0px;writing-mode:lr-tb;text-anchor:start;fill:#008000;fill-opacity:1;stroke:none"
     id="flowRoot5142">
    <path
       id="path5856"
       style="font-style:normal;font-variant:normal;font-weight:bold;font-stretch:normal;font-size:96px;font-family:Arial;-inkscape-font-specification:'Arial, Bold';font-variant-ligatures:normal;font-variant-caps:normal;font-variant-numeric:normal;font-feature-settings:normal;text-align:start;writing-mode:lr-tb;text-anchor:start;fill:#008000;fill-opacity:1"
       d="m 149.97461,87.011487 q -5.10938,-2.15625 -7.45313,-5.90625 -2.29687,-3.796875 -2.29687,-8.296875 0,-7.6875 5.34375,-12.703125 5.39062,-5.015625 15.28125,-5.015625 9.79687,0 15.1875,5.015625 5.4375,5.015625 5.4375,12.703125 0,4.78125 -2.48438,8.53125 -2.48437,3.703125 -6.98437,5.671875 5.71875,2.296875 8.67187,6.703125 3,4.40625 3,10.171878 0,9.51562 -6.09375,15.46875 -6.04687,5.95312 -16.125,5.95312 -9.375,0 -15.60937,-4.92187 -7.35938,-5.8125 -7.35938,-15.9375 0,-5.578128 2.76563,-10.218753 2.76562,-4.6875 8.71875,-7.21875 z m 2.71875,-13.265625 q 0,3.9375 2.20312,6.140625 2.25,2.203125 5.95313,2.203125 3.75,0 6,-2.203125 2.25,-2.25 2.25,-6.1875 0,-3.703125 -2.25,-5.90625 -2.20313,-2.25 -5.85938,-2.25 -3.79687,0 -6.04687,2.25 -2.25,2.25 -2.25,5.953125 z m -1.21875,29.437498 q 0,5.4375 2.76562,8.48438 2.8125,3.04687 6.98438,3.04687 4.07812,0 6.75,-2.90625 2.67187,-2.95312 2.67187,-8.48437 0,-4.828128 -2.71875,-7.734378 -2.71875,-2.953125 -6.89062,-2.953125 -4.82813,0 -7.21875,3.328125 -2.34375,3.328125 -2.34375,7.218748 z M 34.145081,-12.420505 79.231849,-47.001996 115.71943,-38.761729 86.564308,85.75465 58.183785,79.34492 80.606321,-20.044839 47.287016,0.14280643 Z" />
  </g>
</svg>
